ISO-10303-21;
HEADER;
FILE_DESCRIPTION(('ViewDefinition[DesignTransferView]'),'2;1');
FILE_NAME('/dev/null','2026-07-17T15:41:36+03:00',(''),(''),'IfcOpenShell 0.8.6-alpha260602','IfcOpenShell 0.8.6-alpha260602','Nobody');
FILE_SCHEMA(('IFC4'));
ENDSEC;
DATA;
#1=IFCPROJECT('3NJUxHyTzEv96oezyDYEqf',$,'Bonsai Demo',$,$,$,$,(#12,#16),#7);
#2=IFCPROJECTLIBRARY('0D39k7hbT5ce$jWaCd2niG',$,'Bonsai Demo Library',$,$,$,$,$,$);
#3=IFCRELDECLARES('2RWVohyP57PBHT9zCs4H2O',$,$,$,#1,(#2));
#4=IFCSIUNIT(*,.LENGTHUNIT.,$,.METRE.);
#5=IFCSIUNIT(*,.AREAUNIT.,$,.SQUARE_METRE.);
#6=IFCSIUNIT(*,.VOLUMEUNIT.,$,.CUBIC_METRE.);
#7=IFCUNITASSIGNMENT((#4,#5,#6));
#8=IFCCARTESIANPOINT((0.,0.,0.));
#9=IFCDIRECTION((0.,0.,1.));
#10=IFCDIRECTION((1.,0.,0.));
#11=IFCAXIS2PLACEMENT3D(#8,#9,#10);
#12=IFCGEOMETRICREPRESENTATIONCONTEXT($,'Model',3,1.0000000000000001E-05,#11,$);
#13=IFCCARTESIANPOINT((0.,0.));
#14=IFCDIRECTION((1.,0.));
#15=IFCAXIS2PLACEMENT2D(#13,#14);
#16=IFCGEOMETRICREPRESENTATIONCONTEXT($,'Plan',2,1.0000000000000001E-05,#15,$);
#17=IFCGEOMETRICREPRESENTATIONSUBCONTEXT('Body','Model',*,*,*,*,#12,$,.MODEL_VIEW.,$);
#18=IFCGEOMETRICREPRESENTATIONSUBCONTEXT('Body','Plan',*,*,*,*,#16,$,.PLAN_VIEW.,$);
#19=IFCGEOMETRICREPRESENTATIONSUBCONTEXT('Annotation','Model',*,*,*,*,#16,$,.MODEL_VIEW.,$);
#20=IFCMATERIAL('Unknown',$,$);
#21=IFCWALLTYPE('2F1k78lI53fwS0rg3rqrRb',$,'WAL50',$,$,$,$,$,$,.NOTDEFINED.);
#22=IFCMATERIALLAYERSET((#24),$,$);
#23=IFCRELASSOCIATESMATERIAL('0khP_Smdj12f2JrOTRbRKj',$,$,$,(#21),#22);
#24=IFCMATERIALLAYER(#20,0.050000000000000003,$,$,$,$,$);
#25=IFCRELDECLARES('31JriXdev6BP2sC9lcxdC1',$,$,$,#2,(#77,#87,#63,#42,#67,#21,#54,#38,#26,#48,#34,#169,#72,#235,#92,#82,#59,#30,#96));
#26=IFCWALLTYPE('3R5onkTtX1IxdCMPoThRaw',$,'WAL100',$,$,$,$,$,$,.NOTDEFINED.);
#27=IFCMATERIALLAYERSET((#29),$,$);
#28=IFCRELASSOCIATESMATERIAL('0$mXRPCT16nP6Q70XFNvZv',$,$,$,(#26),#27);
#29=IFCMATERIALLAYER(#20,0.10000000000000001,$,$,$,$,$);
#30=IFCWALLTYPE('1juanculbDJPqvqT2FCm8m',$,'WAL200',$,$,$,$,$,$,.NOTDEFINED.);
#31=IFCMATERIALLAYERSET((#33),$,$);
#32=IFCRELASSOCIATESMATERIAL('0FsB2A$frFn9AZW2IG38ny',$,$,$,(#30),#31);
#33=IFCMATERIALLAYER(#20,0.20000000000000001,$,$,$,$,$);
#34=IFCWALLTYPE('05UYduR9r1vRxZZgP64Rdw',$,'WAL300',$,$,$,$,$,$,.NOTDEFINED.);
#35=IFCMATERIALLAYERSET((#37),$,$);
#36=IFCRELASSOCIATESMATERIAL('2FYhYrvmv4SBoZHVWDTTte',$,$,$,(#34),#35);
#37=IFCMATERIALLAYER(#20,0.29999999999999999,$,$,$,$,$);
#38=IFCCOVERINGTYPE('0iLxgfHB9F2hRH2vMcw7Yv',$,'COV10',$,$,$,$,$,$,.NOTDEFINED.);
#39=IFCMATERIALLAYERSET((#41),$,$);
#40=IFCRELASSOCIATESMATERIAL('0yvFX0zgb9uvJ3ARnf4mfe',$,$,$,(#38),#39);
#41=IFCMATERIALLAYER(#20,0.01,$,$,$,$,$);
#42=IFCCOVERINGTYPE('15Riw2WTrAUPwvfLyKXJ2g',$,'COV20',$,$,(#46),$,$,$,.NOTDEFINED.);
#43=IFCMATERIALLAYERSET((#45),$,$);
#44=IFCRELASSOCIATESMATERIAL('1iAOG6NK9FBxitFtzN9qP5',$,$,$,(#42),#43);
#45=IFCMATERIALLAYER(#20,0.02,$,$,$,$,$);
#46=IFCPROPERTYSET('18ICCZ0fjDG9UXMyzrsFBA',$,'EPset_Parametric',$,(#47));
#47=IFCPROPERTYSINGLEVALUE('LayerSetDirection',$,IFCLABEL('AXIS2'),$);
#48=IFCCOVERINGTYPE('0gEOtYULD0F9KD9zPoA6cJ',$,'COV30',$,$,(#52),$,$,$,.NOTDEFINED.);
#49=IFCMATERIALLAYERSET((#51),$,$);
#50=IFCRELASSOCIATESMATERIAL('0xd6dsjf13JA98q9fnAMpQ',$,$,$,(#48),#49);
#51=IFCMATERIALLAYER(#20,0.029999999999999999,$,$,$,$,$);
#52=IFCPROPERTYSET('3qCbs1tuDCvuOXam5RrA$a',$,'EPset_Parametric',$,(#53));
#53=IFCPROPERTYSINGLEVALUE('LayerSetDirection',$,IFCLABEL('AXIS3'),$);
#54=IFCRAMPTYPE('2yW1ePlyb8cOR6HdEntpRh',$,'RAM200',$,$,$,$,$,$,.NOTDEFINED.);
#55=IFCMATERIALLAYERSET((#57),$,$);
#56=IFCRELASSOCIATESMATERIAL('1x9ZyVim19AQtJhfEE06XR',$,$,$,(#54),#55);
#57=IFCMATERIALLAYER(#20,0.20000000000000001,$,$,$,$,$);
#58=IFCCIRCLEPROFILEDEF(.AREA.,$,$,0.29999999999999999);
#59=IFCPILETYPE('25MTkMtaH5QeCf$gFbvSSw',$,'P1',$,$,$,$,$,$,.NOTDEFINED.);
#60=IFCMATERIALPROFILESET($,$,(#62),$);
#61=IFCRELASSOCIATESMATERIAL('09FXUZCnrFEffxBrtg16gx',$,$,$,(#59),#60);
#62=IFCMATERIALPROFILE($,$,#20,#58,$,$);
#63=IFCSLABTYPE('1Akbal7tP5DAPW0ti$Qp30',$,'FLR200',$,$,$,$,$,$,.NOTDEFINED.);
#64=IFCMATERIALLAYERSET((#66),$,$);
#65=IFCRELASSOCIATESMATERIAL('0jzkXlkBL4HhmQ_FTWW6Cj',$,$,$,(#63),#64);
#66=IFCMATERIALLAYER(#20,0.20000000000000001,$,$,$,$,$);
#67=IFCSLABTYPE('0$gpYNi3T08BrxaR67CxgI',$,'FLR300',$,$,$,$,$,$,.NOTDEFINED.);
#68=IFCMATERIALLAYERSET((#70),$,$);
#69=IFCRELASSOCIATESMATERIAL('3a6kjEM29DleYTlSkA8_DK',$,$,$,(#67),#68);
#70=IFCMATERIALLAYER(#20,0.29999999999999999,$,$,$,$,$);
#71=IFCRECTANGLEPROFILEDEF(.AREA.,'500x600',$,0.5,0.59999999999999998);
#72=IFCCOLUMNTYPE('278sjptdDDzgOZseERj390',$,'C1',$,$,$,$,$,$,.NOTDEFINED.);
#73=IFCMATERIALPROFILESET($,$,(#75),$);
#74=IFCRELASSOCIATESMATERIAL('1ppYXw39v6kBwi3rrIm4ZE',$,$,$,(#72),#73);
#75=IFCMATERIALPROFILE($,$,#20,#71,$,$);
#76=IFCCIRCLEHOLLOWPROFILEDEF(.AREA.,'500.0x5.0 CHS',$,0.25,0.0050000000000000001);
#77=IFCCOLUMNTYPE('3aSZOvGmr7jggSNwsq5PJE',$,'C2',$,$,$,$,$,$,.NOTDEFINED.);
#78=IFCMATERIALPROFILESET($,$,(#80),$);
#79=IFCRELASSOCIATESMATERIAL('1AtNJPaD14DgINbAjXvbU4',$,$,$,(#77),#78);
#80=IFCMATERIALPROFILE($,$,#20,#76,$,$);
#81=IFCRECTANGLEHOLLOWPROFILEDEF(.AREA.,'150x75x2.0 RHS',$,0.074999999999999997,0.14999999999999999,0.002,0.0050000000000000001,0.0050000000000000001);
#82=IFCCOLUMNTYPE('28iv3Kru12yQ7R7RRwNjvD',$,'C3',$,$,$,$,$,$,.NOTDEFINED.);
#83=IFCMATERIALPROFILESET($,$,(#85),$);
#84=IFCRELASSOCIATESMATERIAL('2M_oL$n3j6rBRnOW5RSk87',$,$,$,(#82),#83);
#85=IFCMATERIALPROFILE($,$,#20,#81,$,$);
#86=IFCISHAPEPROFILEDEF(.AREA.,'DEMO-I',$,0.10000000000000001,0.20000000000000001,0.0050000000000000001,0.01,0.0050000000000000001,$,$);
#87=IFCBEAMTYPE('2E$V5l4b54dxuToJ1A6IHp',$,'B1',$,$,$,$,$,$,.NOTDEFINED.);
#88=IFCMATERIALPROFILESET($,$,(#90),$);
#89=IFCRELASSOCIATESMATERIAL('3PUNnY7cj8LhyXbHKVqZnf',$,$,$,(#87),#88);
#90=IFCMATERIALPROFILE($,$,#20,#86,$,$);
#91=IFCCSHAPEPROFILEDEF(.AREA.,'DEMO-C',$,0.20000000000000001,0.10000000000000001,0.0015,0.029999999999999999,0.0050000000000000001);
#92=IFCBEAMTYPE('3qutoZTvP0lvLWNXyjPhPm',$,'B2',$,$,$,$,$,$,.NOTDEFINED.);
#93=IFCMATERIALPROFILESET($,$,(#95),$);
#94=IFCRELASSOCIATESMATERIAL('3dGyQf42H2ahch2bSYPPHP',$,$,$,(#92),#93);
#95=IFCMATERIALPROFILE($,$,#20,#91,$,$);
#96=IFCWINDOWTYPE('0bK3c4PWL3eOMNwkPN$rlg',$,'WT01',$,$,$,(#143,#164),$,$,.NOTDEFINED.,.NOTDEFINED.,$,$);
#97=IFCINDEXEDPOLYGONALFACE((13,17,18,14));
#98=IFCINDEXEDPOLYGONALFACE((5,6,3,4));
#99=IFCINDEXEDPOLYGONALFACE((7,8,2,1));
#100=IFCINDEXEDPOLYGONALFACE((6,7,1,3));
#101=IFCINDEXEDPOLYGONALFACE((8,5,4,2));
#102=IFCINDEXEDPOLYGONALFACE((12,11,10,9));
#103=IFCINDEXEDPOLYGONALFACE((15,19,20,16));
#104=IFCINDEXEDPOLYGONALFACE((14,18,19,15));
#105=IFCINDEXEDPOLYGONALFACE((16,20,17,13));
#106=IFCINDEXEDPOLYGONALFACE((4,17,20,2));
#107=IFCINDEXEDPOLYGONALFACE((2,20,19,1));
#108=IFCINDEXEDPOLYGONALFACE((8,16,13,5));
#109=IFCINDEXEDPOLYGONALFACE((7,15,16,8));
#110=IFCINDEXEDPOLYGONALFACE((1,19,18,3));
#111=IFCINDEXEDPOLYGONALFACE((3,18,17,4));
#112=IFCINDEXEDPOLYGONALFACE((6,14,15,7));
#113=IFCINDEXEDPOLYGONALFACE((5,13,14,6));
#114=IFCINDEXEDPOLYGONALFACE((24,21,22,23));
#115=IFCINDEXEDPOLYGONALFACE((11,23,22,10));
#116=IFCINDEXEDPOLYGONALFACE((10,22,21,9));
#117=IFCINDEXEDPOLYGONALFACE((9,21,24,12));
#118=IFCINDEXEDPOLYGONALFACE((12,24,23,11));
#119=IFCCARTESIANPOINTLIST3D(((0.89999997615814209,0.,1.2000000476837158),(0.89999997615814209,0.,0.),(0.,0.,1.2000000476837158),(0.,0.,0.),(0.099999994039535522,0.,0.099999994039535522),(0.099999994039535522,0.,1.1000000238418579),(0.80000001192092896,0.,1.1000000238418579),(0.80000001192092896,0.,0.099999994039535522),(0.099999994039535522,0.019999999552965164,0.099999994039535522),(0.099999994039535522,0.019999999552965164,1.1000000238418579),(0.80000001192092896,0.019999999552965164,1.1000000238418579),(0.80000001192092896,0.019999999552965164,0.099999994039535522),(0.099999994039535522,0.05000000074505806,0.099999994039535522),(0.099999994039535522,0.05000000074505806,1.1000000238418579),(0.80000001192092896,0.05000000074505806,1.1000000238418579),(0.80000001192092896,0.05000000074505806,0.099999994039535522),(0.,0.05000000074505806,0.),(0.,0.05000000074505806,1.2000000476837158),(0.89999997615814209,0.05000000074505806,1.2000000476837158),(0.89999997615814209,0.05000000074505806,0.),(0.099999994039535522,0.029999999329447746,0.099999994039535522),(0.099999994039535522,0.029999999329447746,1.1000000238418579),(0.80000001192092896,0.029999999329447746,1.1000000238418579),(0.80000001192092896,0.029999999329447746,0.099999994039535522)));
#120=IFCPOLYGONALFACESET(#119,.T.,(#97,#98,#99,#100,#101,#103,#104,#105,#106,#107,#108,#109,#110,#111,#112,#113),$);
#121=IFCPOLYGONALFACESET(#119,.T.,(#102,#114,#115,#116,#117,#118),$);
#122=IFCSHAPEREPRESENTATION(#17,'Body','Tessellation',(#120,#121));
#123=IFCSURFACESTYLE('Frame',.BOTH.,(#124));
#124=IFCSURFACESTYLESHADING(#125,0.);
#125=IFCCOLOURRGB($,0.042976561933755875,0.042976561933755875,0.042976561933755875);
#126=IFCMATERIAL('Framing',$,$);
#127=IFCSTYLEDITEM($,(#123),'Frame');
#128=IFCSTYLEDREPRESENTATION(#17,'Body',$,(#127));
#129=IFCMATERIALDEFINITIONREPRESENTATION($,$,(#128),#126);
#130=IFCSURFACESTYLE('Glass',.BOTH.,(#131));
#131=IFCSURFACESTYLESHADING(#132,0.79999999701976776);
#132=IFCCOLOURRGB($,0.80000001192092896,1.,1.);
#133=IFCMATERIAL('Glazing',$,$);
#134=IFCSTYLEDITEM($,(#130),'Glass');
#135=IFCSTYLEDREPRESENTATION(#17,'Body',$,(#134));
#136=IFCMATERIALDEFINITIONREPRESENTATION($,$,(#135),#133);
#137=IFCSTYLEDITEM(#120,(#123),'Frame');
#138=IFCSTYLEDITEM(#121,(#130),'Glass');
#139=IFCCARTESIANPOINT((0.,0.,0.));
#140=IFCDIRECTION((1.,0.,0.));
#141=IFCDIRECTION((0.,0.,1.));
#142=IFCAXIS2PLACEMENT3D(#139,#141,#140);
#143=IFCREPRESENTATIONMAP(#142,#122);
#144=IFCSHAPEREPRESENTATION(#17,'Body','Tessellation',(#120));
#145=IFCSHAPEASPECT((#144),'Framing',$,.T.,#143);
#146=IFCSHAPEREPRESENTATION(#17,'Body','Tessellation',(#121));
#147=IFCSHAPEASPECT((#146),'Glazing',$,.T.,#143);
#148=IFCCARTESIANPOINTLIST2D(((0.10000002384185791,0.020000003278255463),(0.80000001192092896,0.020000003278255463),(0.80000001192092896,0.030000001192092896),(0.10000002384185791,0.030000001192092896)));
#149=IFCINDEXEDPOLYCURVE(#148,(IFCLINEINDEX((1,2,3,4,1))),$);
#150=IFCCARTESIANPOINTLIST2D(((0.89999997615814209,0.05000000074505806),(0.80000001192092896,0.05000000074505806),(0.80000001192092896,0.),(0.89999997615814209,0.)));
#151=IFCINDEXEDPOLYCURVE(#150,(IFCLINEINDEX((1,2,3,4,1))),$);
#152=IFCCARTESIANPOINTLIST2D(((0.,0.),(0.10000002384185791,0.),(0.10000002384185791,0.05000000074505806),(0.,0.05000000074505806)));
#153=IFCINDEXEDPOLYCURVE(#152,(IFCLINEINDEX((1,2,3,4,1))),$);
#154=IFCCARTESIANPOINTLIST2D(((0.10000002384185791,0.05000000074505806),(0.80000001192092896,0.05000000074505806)));
#155=IFCINDEXEDPOLYCURVE(#154,$,$);
#156=IFCCARTESIANPOINTLIST2D(((0.10000002384185791,0.),(0.80000001192092896,0.)));
#157=IFCINDEXEDPOLYCURVE(#156,$,$);
#158=IFCGEOMETRICCURVESET((#149,#151,#153,#155,#157));
#159=IFCSHAPEREPRESENTATION(#18,'Body','Annotation2D',(#158));
#160=IFCCARTESIANPOINT((0.,0.,0.));
#161=IFCDIRECTION((1.,0.,0.));
#162=IFCDIRECTION((0.,0.,1.));
#163=IFCAXIS2PLACEMENT3D(#160,#162,#161);
#164=IFCREPRESENTATIONMAP(#163,#159);
#165=IFCMATERIALCONSTITUENTSET('Unnamed',$,(#166,#167));
#166=IFCMATERIALCONSTITUENT('Framing',$,#126,$,$);
#167=IFCMATERIALCONSTITUENT('Glazing',$,#133,$,$);
#168=IFCRELASSOCIATESMATERIAL('3LCRIx7rTEau6vAXMVVH$z',$,$,$,(#96),#165);
#169=IFCDOORTYPE('2j0vIBgkH0ERnBCP0cpcCz',$,'DT01',$,$,$,(#216,#231),$,$,.NOTDEFINED.,.NOTDEFINED.,$,$);
#170=IFCINDEXEDPOLYGONALFACE((17,16,15,14));
#171=IFCINDEXEDPOLYGONALFACE((2,3,29,28));
#172=IFCINDEXEDPOLYGONALFACE((27,28,29,30,32,31));
#173=IFCINDEXEDPOLYGONALFACE((7,6,5,3));
#174=IFCINDEXEDPOLYGONALFACE((8,7,3,2));
#175=IFCINDEXEDPOLYGONALFACE((23,24,6,7));
#176=IFCINDEXEDPOLYGONALFACE((21,20,4,24,23,22));
#177=IFCINDEXEDPOLYGONALFACE((12,13,14,15));
#178=IFCINDEXEDPOLYGONALFACE((16,19,12,15));
#179=IFCINDEXEDPOLYGONALFACE((11,10,25,26));
#180=IFCINDEXEDPOLYGONALFACE((25,1,27,31));
#181=IFCINDEXEDPOLYGONALFACE((24,4,11,6));
#182=IFCINDEXEDPOLYGONALFACE((20,21,9,10));
#183=IFCINDEXEDPOLYGONALFACE((9,8,2,1));
#184=IFCINDEXEDPOLYGONALFACE((10,9,1,25));
#185=IFCINDEXEDPOLYGONALFACE((22,23,7,8));
#186=IFCINDEXEDPOLYGONALFACE((4,20,10,11));
#187=IFCINDEXEDPOLYGONALFACE((19,16,17,18));
#188=IFCINDEXEDPOLYGONALFACE((19,18,13,12));
#189=IFCINDEXEDPOLYGONALFACE((21,22,8,9));
#190=IFCINDEXEDPOLYGONALFACE((6,11,26,5));
#191=IFCINDEXEDPOLYGONALFACE((18,17,14,13));
#192=IFCINDEXEDPOLYGONALFACE((5,26,32,30));
#193=IFCINDEXEDPOLYGONALFACE((1,2,28,27));
#194=IFCINDEXEDPOLYGONALFACE((26,25,31,32));
#195=IFCINDEXEDPOLYGONALFACE((3,5,30,29));
#196=IFCCARTESIANPOINTLIST3D(((0.95500016212463379,0.,2.0900001525878906),(0.95500016212463379,0.054999988526105881,2.0900001525878906),(0.97000002861022949,0.054999992251396179,2.1050000190734863),(0.,0.099999994039535522,0.),(0.97000002861022949,0.099999994039535522,2.1050000190734863),(0.039999991655349731,0.099999994039535522,2.1050000190734863),(0.039999991655349731,0.054999992251396179,2.1050000190734863),(0.055000007152557373,0.054999988526105881,2.0900001525878906),(0.055000007152557373,0.,2.0900001525878906),(0.,0.,2.1450002193450928),(0.,0.10000000149011612,2.1450002193450928),(0.044999986886978149,0.099999994039535522,2.0999999046325684),(0.044999986886978149,0.059999994933605194,2.0999999046325684),(0.96500003337860107,0.059999994933605194,2.0999999046325684),(0.96500003337860107,0.099999994039535522,2.0999999046325684),(0.96500003337860107,0.099999994039535522,0.),(0.96500003337860107,0.059999994933605194,0.),(0.044999986886978149,0.059999994933605194,0.),(0.044999986886978149,0.099999994039535522,0.),(0.,0.,0.),(0.055000007152557373,0.,0.),(0.055000007152557373,0.054999992251396179,0.),(0.039999991655349731,0.054999992251396179,0.),(0.039999991655349731,0.099999994039535522,0.),(1.0100003480911255,0.,2.1450002193450928),(1.0100003480911255,0.10000000149011612,2.1450002193450928),(0.95500016212463379,0.,0.),(0.95500016212463379,0.054999988526105881,0.),(0.97000002861022949,0.054999992251396179,0.),(0.97000002861022949,0.099999994039535522,0.),(1.0100003480911255,0.,0.),(1.0100003480911255,0.10000000149011612,0.)));
#197=IFCPOLYGONALFACESET(#196,.T.,(#171,#172,#173,#174,#175,#176,#179,#180,#181,#182,#183,#184,#185,#186,#189,#190,#192,#193,#194,#195),$);
#198=IFCPOLYGONALFACESET(#196,.T.,(#170,#177,#178,#187,#188,#191),$);
#199=IFCSHAPEREPRESENTATION(#17,'Body','Tessellation',(#197,#198));
#200=IFCSURFACESTYLE('Frame',.BOTH.,(#201));
#201=IFCSURFACESTYLESHADING(#202,0.);
#202=IFCCOLOURRGB($,0.042976561933755875,0.042976561933755875,0.042976561933755875);
#203=IFCMATERIAL('Framing',$,$);
#204=IFCSTYLEDITEM($,(#207),'Panel');
#205=IFCSTYLEDREPRESENTATION(#17,'Body',$,(#204));
#206=IFCMATERIALDEFINITIONREPRESENTATION($,$,(#205),#203);
#207=IFCSURFACESTYLE('Panel',.BOTH.,(#208));
#208=IFCSURFACESTYLESHADING(#209,0.);
#209=IFCCOLOURRGB($,0.18447506427764893,0.18447501957416534,0.18447501957416534);
#210=IFCSTYLEDITEM(#197,(#207),'Frame');
#211=IFCSTYLEDITEM(#198,(#207),'Panel');
#212=IFCCARTESIANPOINT((0.,0.,0.));
#213=IFCDIRECTION((1.,0.,0.));
#214=IFCDIRECTION((0.,0.,1.));
#215=IFCAXIS2PLACEMENT3D(#212,#214,#213);
#216=IFCREPRESENTATIONMAP(#215,#199);
#217=IFCSHAPEREPRESENTATION(#17,'Body','Tessellation',(#198,#197));
#218=IFCSHAPEASPECT((#217),'Framing',$,.T.,#216);
#219=IFCCARTESIANPOINTLIST2D(((0.96499991416931152,1.0200001001358032),(0.96500003337860107,0.099999994039535522),(0.92500001192092896,0.099999994039535522),(0.92499995231628418,1.0200001001358032),(0.96499991416931152,1.0200001001358032),(0.84491580724716187,1.0121293067932129),(0.7268863320350647,0.98865175247192383),(0.61293107271194458,0.94996917247772217),(0.50499975681304932,0.8967432975769043),(0.40493923425674438,0.82988500595092773),(0.31446146965026855,0.750538170337677),(0.23511460423469543,0.66006040573120117),(0.16825628280639648,0.55999982357025146),(0.11503047496080399,0.45206856727600098),(0.076347872614860535,0.33811330795288086),(0.052870351821184158,0.2200838178396225),(0.044999618083238602,0.099999688565731049)));
#220=IFCINDEXEDPOLYCURVE(#219,$,$);
#221=IFCCARTESIANPOINTLIST2D(((0.97000002861022949,0.054999992251396179),(0.95500016212463379,0.054999992251396179),(0.95500016212463379,0.),(1.0100003480911255,0.),(1.0100003480911255,0.099999994039535522),(0.97000002861022949,0.099999994039535522)));
#222=IFCINDEXEDPOLYCURVE(#221,(IFCLINEINDEX((1,2,3,4,5,6,1))),$);
#223=IFCCARTESIANPOINTLIST2D(((0.,0.),(0.,0.099999994039535522),(0.039999991655349731,0.099999994039535522),(0.039999991655349731,0.054999992251396179),(0.055000007152557373,0.054999992251396179),(0.055000007152557373,0.)));
#224=IFCINDEXEDPOLYCURVE(#223,(IFCLINEINDEX((1,2,3,4,5,6,1))),$);
#225=IFCGEOMETRICCURVESET((#220,#222,#224));
#226=IFCSHAPEREPRESENTATION(#18,'Body','Annotation2D',(#225));
#227=IFCCARTESIANPOINT((0.,0.,0.));
#228=IFCDIRECTION((1.,0.,0.));
#229=IFCDIRECTION((0.,0.,1.));
#230=IFCAXIS2PLACEMENT3D(#227,#229,#228);
#231=IFCREPRESENTATIONMAP(#230,#226);
#232=IFCMATERIALCONSTITUENTSET('Unnamed',$,(#233));
#233=IFCMATERIALCONSTITUENT('Framing',$,#203,$,$);
#234=IFCRELASSOCIATESMATERIAL('2FGqEOpPrDmBFNl2UKPIbJ',$,$,$,(#169),#232);
#235=IFCFURNITURETYPE('02XxQ_3oT0SPrmFPATrt7o',$,'BUN01',$,$,$,(#956,#977),$,$,.NOTDEFINED.,.NOTDEFINED.);
#236=IFCINDEXEDPOLYGONALFACE((187,278,44));
#237=IFCINDEXEDPOLYGONALFACE((21,52,60));
#238=IFCINDEXEDPOLYGONALFACE((91,100,31));
#239=IFCINDEXEDPOLYGONALFACE((162,19,191));
#240=IFCINDEXEDPOLYGONALFACE((288,180,159));
#241=IFCINDEXEDPOLYGONALFACE((241,219,307));
#242=IFCINDEXEDPOLYGONALFACE((54,93,173));
#243=IFCINDEXEDPOLYGONALFACE((60,45,21));
#244=IFCINDEXEDPOLYGONALFACE((58,110,55));
#245=IFCINDEXEDPOLYGONALFACE((64,18,70));
#246=IFCINDEXEDPOLYGONALFACE((2,207,162));
#247=IFCINDEXEDPOLYGONALFACE((10,176,188));
#248=IFCINDEXEDPOLYGONALFACE((105,114,113));
#249=IFCINDEXEDPOLYGONALFACE((220,106,249));
#250=IFCINDEXEDPOLYGONALFACE((252,321,244));
#251=IFCINDEXEDPOLYGONALFACE((162,57,19));
#252=IFCINDEXEDPOLYGONALFACE((224,147,220));
#253=IFCINDEXEDPOLYGONALFACE((90,373,124));
#254=IFCINDEXEDPOLYGONALFACE((70,199,64));
#255=IFCINDEXEDPOLYGONALFACE((256,248,258));
#256=IFCINDEXEDPOLYGONALFACE((115,212,207));
#257=IFCINDEXEDPOLYGONALFACE((103,36,7));
#258=IFCINDEXEDPOLYGONALFACE((71,306,320));
#259=IFCINDEXEDPOLYGONALFACE((297,267,294));
#260=IFCINDEXEDPOLYGONALFACE((57,50,19));
#261=IFCINDEXEDPOLYGONALFACE((117,44,188));
#262=IFCINDEXEDPOLYGONALFACE((62,56,153));
#263=IFCINDEXEDPOLYGONALFACE((106,147,120));
#264=IFCINDEXEDPOLYGONALFACE((254,244,245));
#265=IFCINDEXEDPOLYGONALFACE((208,207,2));
#266=IFCINDEXEDPOLYGONALFACE((256,257,250));
#267=IFCINDEXEDPOLYGONALFACE((203,205,211));
#268=IFCINDEXEDPOLYGONALFACE((56,278,157));
#269=IFCINDEXEDPOLYGONALFACE((103,7,9));
#270=IFCINDEXEDPOLYGONALFACE((63,140,176));
#271=IFCINDEXEDPOLYGONALFACE((15,109,118));
#272=IFCINDEXEDPOLYGONALFACE((59,159,180));
#273=IFCINDEXEDPOLYGONALFACE((158,154,208));
#274=IFCINDEXEDPOLYGONALFACE((300,241,308));
#275=IFCINDEXEDPOLYGONALFACE((23,32,42));
#276=IFCINDEXEDPOLYGONALFACE((44,278,56));
#277=IFCINDEXEDPOLYGONALFACE((189,259,67));
#278=IFCINDEXEDPOLYGONALFACE((309,304,333));
#279=IFCINDEXEDPOLYGONALFACE((136,89,259));
#280=IFCINDEXEDPOLYGONALFACE((31,191,19));
#281=IFCINDEXEDPOLYGONALFACE((295,304,294));
#282=IFCINDEXEDPOLYGONALFACE((50,38,19));
#283=IFCINDEXEDPOLYGONALFACE((44,62,10));
#284=IFCINDEXEDPOLYGONALFACE((369,25,227));
#285=IFCINDEXEDPOLYGONALFACE((136,47,233));
#286=IFCINDEXEDPOLYGONALFACE((33,54,201));
#287=IFCINDEXEDPOLYGONALFACE((333,304,329));
#288=IFCINDEXEDPOLYGONALFACE((281,110,285));
#289=IFCINDEXEDPOLYGONALFACE((275,80,276));
#290=IFCINDEXEDPOLYGONALFACE((119,106,120));
#291=IFCINDEXEDPOLYGONALFACE((276,80,233));
#292=IFCINDEXEDPOLYGONALFACE((232,318,312));
#293=IFCINDEXEDPOLYGONALFACE((208,63,115));
#294=IFCINDEXEDPOLYGONALFACE((150,288,159));
#295=IFCINDEXEDPOLYGONALFACE((286,287,284));
#296=IFCINDEXEDPOLYGONALFACE((286,285,287));
#297=IFCINDEXEDPOLYGONALFACE((285,286,279));
#298=IFCINDEXEDPOLYGONALFACE((239,171,240));
#299=IFCINDEXEDPOLYGONALFACE((233,47,276));
#300=IFCINDEXEDPOLYGONALFACE((124,213,90));
#301=IFCINDEXEDPOLYGONALFACE((157,278,47));
#302=IFCINDEXEDPOLYGONALFACE((187,47,157));
#303=IFCINDEXEDPOLYGONALFACE((268,75,222));
#304=IFCINDEXEDPOLYGONALFACE((101,269,232));
#305=IFCINDEXEDPOLYGONALFACE((277,7,13));
#306=IFCINDEXEDPOLYGONALFACE((140,63,74));
#307=IFCINDEXEDPOLYGONALFACE((140,74,56));
#308=IFCINDEXEDPOLYGONALFACE((74,153,56));
#309=IFCINDEXEDPOLYGONALFACE((57,201,50));
#310=IFCINDEXEDPOLYGONALFACE((320,236,193));
#311=IFCINDEXEDPOLYGONALFACE((222,236,268));
#312=IFCINDEXEDPOLYGONALFACE((173,50,201));
#313=IFCINDEXEDPOLYGONALFACE((299,267,297));
#314=IFCINDEXEDPOLYGONALFACE((162,212,57));
#315=IFCINDEXEDPOLYGONALFACE((208,115,207));
#316=IFCINDEXEDPOLYGONALFACE((267,292,274));
#317=IFCINDEXEDPOLYGONALFACE((98,197,277));
#318=IFCINDEXEDPOLYGONALFACE((295,328,329));
#319=IFCINDEXEDPOLYGONALFACE((158,208,2));
#320=IFCINDEXEDPOLYGONALFACE((201,57,33));
#321=IFCINDEXEDPOLYGONALFACE((187,47,278));
#322=IFCINDEXEDPOLYGONALFACE((241,307,308));
#323=IFCINDEXEDPOLYGONALFACE((335,317,245));
#324=IFCINDEXEDPOLYGONALFACE((328,330,329));
#325=IFCINDEXEDPOLYGONALFACE((84,128,121));
#326=IFCINDEXEDPOLYGONALFACE((331,330,328));
#327=IFCINDEXEDPOLYGONALFACE((300,331,328));
#328=IFCINDEXEDPOLYGONALFACE((129,19,38));
#329=IFCINDEXEDPOLYGONALFACE((154,298,66));
#330=IFCINDEXEDPOLYGONALFACE((317,322,323));
#331=IFCINDEXEDPOLYGONALFACE((302,297,303));
#332=IFCINDEXEDPOLYGONALFACE((212,93,167));
#333=IFCINDEXEDPOLYGONALFACE((94,185,184));
#334=IFCINDEXEDPOLYGONALFACE((211,121,100));
#335=IFCINDEXEDPOLYGONALFACE((212,173,93));
#336=IFCINDEXEDPOLYGONALFACE((317,254,245));
#337=IFCINDEXEDPOLYGONALFACE((51,15,41));
#338=IFCINDEXEDPOLYGONALFACE((321,339,244));
#339=IFCINDEXEDPOLYGONALFACE((244,335,245));
#340=IFCINDEXEDPOLYGONALFACE((211,204,121));
#341=IFCINDEXEDPOLYGONALFACE((246,72,358));
#342=IFCINDEXEDPOLYGONALFACE((300,360,301));
#343=IFCINDEXEDPOLYGONALFACE((234,177,39));
#344=IFCINDEXEDPOLYGONALFACE((125,152,177));
#345=IFCINDEXEDPOLYGONALFACE((338,314,311));
#346=IFCINDEXEDPOLYGONALFACE((149,94,152));
#347=IFCINDEXEDPOLYGONALFACE((39,175,137));
#348=IFCINDEXEDPOLYGONALFACE((334,292,267));
#349=IFCINDEXEDPOLYGONALFACE((343,338,340,346));
#350=IFCINDEXEDPOLYGONALFACE((283,286,284));
#351=IFCINDEXEDPOLYGONALFACE((129,16,53));
#352=IFCINDEXEDPOLYGONALFACE((102,249,106));
#353=IFCINDEXEDPOLYGONALFACE((197,12,23));
#354=IFCINDEXEDPOLYGONALFACE((330,310,178));
#355=IFCINDEXEDPOLYGONALFACE((307,61,22,308));
#356=IFCINDEXEDPOLYGONALFACE((300,310,331));
#357=IFCINDEXEDPOLYGONALFACE((205,190,194));
#358=IFCINDEXEDPOLYGONALFACE((133,2,31));
#359=IFCINDEXEDPOLYGONALFACE((85,92,20));
#360=IFCINDEXEDPOLYGONALFACE((360,39,301));
#361=IFCINDEXEDPOLYGONALFACE((122,47,136));
#362=IFCINDEXEDPOLYGONALFACE((281,282,186));
#363=IFCINDEXEDPOLYGONALFACE((2,191,31));
#364=IFCINDEXEDPOLYGONALFACE((250,249,247));
#365=IFCINDEXEDPOLYGONALFACE((58,214,216));
#366=IFCINDEXEDPOLYGONALFACE((234,138,143));
#367=IFCINDEXEDPOLYGONALFACE((141,298,154));
#368=IFCINDEXEDPOLYGONALFACE((27,45,76));
#369=IFCINDEXEDPOLYGONALFACE((146,181,145));
#370=IFCINDEXEDPOLYGONALFACE((144,181,180));
#371=IFCINDEXEDPOLYGONALFACE((195,185,179));
#372=IFCINDEXEDPOLYGONALFACE((228,223,229));
#373=IFCINDEXEDPOLYGONALFACE((49,358,72));
#374=IFCINDEXEDPOLYGONALFACE((74,34,183));
#375=IFCINDEXEDPOLYGONALFACE((221,218,223));
#376=IFCINDEXEDPOLYGONALFACE((146,107,108));
#377=IFCINDEXEDPOLYGONALFACE((194,204,205));
#378=IFCINDEXEDPOLYGONALFACE((352,359,280,279));
#379=IFCINDEXEDPOLYGONALFACE((46,64,199));
#380=IFCINDEXEDPOLYGONALFACE((366,86,251));
#381=IFCINDEXEDPOLYGONALFACE((48,114,105));
#382=IFCINDEXEDPOLYGONALFACE((198,95,164));
#383=IFCINDEXEDPOLYGONALFACE((372,65,167));
#384=IFCINDEXEDPOLYGONALFACE((74,132,153));
#385=IFCINDEXEDPOLYGONALFACE((21,12,4));
#386=IFCINDEXEDPOLYGONALFACE((288,111,113));
#387=IFCINDEXEDPOLYGONALFACE((75,225,174));
#388=IFCINDEXEDPOLYGONALFACE((166,262,200));
#389=IFCINDEXEDPOLYGONALFACE((223,230,229));
#390=IFCINDEXEDPOLYGONALFACE((26,92,3));
#391=IFCINDEXEDPOLYGONALFACE((219,88,82));
#392=IFCINDEXEDPOLYGONALFACE((355,357,365,364));
#393=IFCINDEXEDPOLYGONALFACE((322,325,324));
#394=IFCINDEXEDPOLYGONALFACE((257,220,250));
#395=IFCINDEXEDPOLYGONALFACE((289,104,253));
#396=IFCINDEXEDPOLYGONALFACE((228,108,221));
#397=IFCINDEXEDPOLYGONALFACE((119,218,102));
#398=IFCINDEXEDPOLYGONALFACE((367,124,25));
#399=IFCINDEXEDPOLYGONALFACE((327,325,326));
#400=IFCINDEXEDPOLYGONALFACE((40,115,63));
#401=IFCINDEXEDPOLYGONALFACE((321,248,247));
#402=IFCINDEXEDPOLYGONALFACE((158,83,141));
#403=IFCINDEXEDPOLYGONALFACE((13,98,277));
#404=IFCINDEXEDPOLYGONALFACE((352,345,343,365));
#405=IFCINDEXEDPOLYGONALFACE((5,374,1));
#406=IFCINDEXEDPOLYGONALFACE((339,347,348,341));
#407=IFCINDEXEDPOLYGONALFACE((135,87,22));
#408=IFCINDEXEDPOLYGONALFACE((156,224,231));
#409=IFCINDEXEDPOLYGONALFACE((163,63,170));
#410=IFCINDEXEDPOLYGONALFACE((56,142,140));
#411=IFCINDEXEDPOLYGONALFACE((362,355,356,363));
#412=IFCINDEXEDPOLYGONALFACE((88,203,15));
#413=IFCINDEXEDPOLYGONALFACE((24,163,73));
#414=IFCINDEXEDPOLYGONALFACE((14,78,68));
#415=IFCINDEXEDPOLYGONALFACE((248,260,258));
#416=IFCINDEXEDPOLYGONALFACE((78,26,17));
#417=IFCINDEXEDPOLYGONALFACE((16,17,53));
#418=IFCINDEXEDPOLYGONALFACE((161,164,95));
#419=IFCINDEXEDPOLYGONALFACE((291,287,293));
#420=IFCINDEXEDPOLYGONALFACE((127,18,32));
#421=IFCINDEXEDPOLYGONALFACE((182,199,148));
#422=IFCINDEXEDPOLYGONALFACE((319,71,320));
#423=IFCINDEXEDPOLYGONALFACE((225,232,312));
#424=IFCINDEXEDPOLYGONALFACE((302,309,289));
#425=IFCINDEXEDPOLYGONALFACE((13,36,11));
#426=IFCINDEXEDPOLYGONALFACE((308,87,310));
#427=IFCINDEXEDPOLYGONALFACE((353,348,347,246));
#428=IFCINDEXEDPOLYGONALFACE((262,79,200));
#429=IFCINDEXEDPOLYGONALFACE((131,73,135));
#430=IFCINDEXEDPOLYGONALFACE((370,213,243));
#431=IFCINDEXEDPOLYGONALFACE((92,100,91));
#432=IFCINDEXEDPOLYGONALFACE((89,233,80));
#433=IFCINDEXEDPOLYGONALFACE((332,165,174));
#434=IFCINDEXEDPOLYGONALFACE((1,374,2));
#435=IFCINDEXEDPOLYGONALFACE((28,368,209));
#436=IFCINDEXEDPOLYGONALFACE((189,136,259));
#437=IFCINDEXEDPOLYGONALFACE((326,332,327));
#438=IFCINDEXEDPOLYGONALFACE((117,122,189));
#439=IFCINDEXEDPOLYGONALFACE((132,16,40));
#440=IFCINDEXEDPOLYGONALFACE((263,334,311));
#441=IFCINDEXEDPOLYGONALFACE((134,183,68));
#442=IFCINDEXEDPOLYGONALFACE((157,122,142));
#443=IFCINDEXEDPOLYGONALFACE((239,230,97));
#444=IFCINDEXEDPOLYGONALFACE((180,96,59));
#445=IFCINDEXEDPOLYGONALFACE((99,113,111));
#446=IFCINDEXEDPOLYGONALFACE((22,131,135));
#447=IFCINDEXEDPOLYGONALFACE((321,249,349));
#448=IFCINDEXEDPOLYGONALFACE((156,120,147));
#449=IFCINDEXEDPOLYGONALFACE((148,181,182));
#450=IFCINDEXEDPOLYGONALFACE((152,126,149));
#451=IFCINDEXEDPOLYGONALFACE((346,340,337,344));
#452=IFCINDEXEDPOLYGONALFACE((358,215,353,246));
#453=IFCINDEXEDPOLYGONALFACE((275,89,80));
#454=IFCINDEXEDPOLYGONALFACE((240,37,239));
#455=IFCINDEXEDPOLYGONALFACE((14,183,34));
#456=IFCINDEXEDPOLYGONALFACE((293,295,274));
#457=IFCINDEXEDPOLYGONALFACE((350,351,344,342));
#458=IFCINDEXEDPOLYGONALFACE((148,112,96));
#459=IFCINDEXEDPOLYGONALFACE((313,325,264));
#460=IFCINDEXEDPOLYGONALFACE((154,170,208));
#461=IFCINDEXEDPOLYGONALFACE((226,123,46));
#462=IFCINDEXEDPOLYGONALFACE((351,364,346,344));
#463=IFCINDEXEDPOLYGONALFACE((355,362,216,357));
#464=IFCINDEXEDPOLYGONALFACE((349,339,321));
#465=IFCINDEXEDPOLYGONALFACE((318,324,327));
#466=IFCINDEXEDPOLYGONALFACE((338,311,334,340));
#467=IFCINDEXEDPOLYGONALFACE((326,299,302));
#468=IFCINDEXEDPOLYGONALFACE((112,59,96));
#469=IFCINDEXEDPOLYGONALFACE((262,198,242));
#470=IFCINDEXEDPOLYGONALFACE((272,51,41));
#471=IFCINDEXEDPOLYGONALFACE((318,261,315));
#472=IFCINDEXEDPOLYGONALFACE((167,57,212));
#473=IFCINDEXEDPOLYGONALFACE((271,266,255));
#474=IFCINDEXEDPOLYGONALFACE((218,246,102));
#475=IFCINDEXEDPOLYGONALFACE((94,179,185));
#476=IFCINDEXEDPOLYGONALFACE((343,346,364,365));
#477=IFCINDEXEDPOLYGONALFACE((40,153,132));
#478=IFCINDEXEDPOLYGONALFACE((345,314,338,343));
#479=IFCINDEXEDPOLYGONALFACE((8,121,204));
#480=IFCINDEXEDPOLYGONALFACE((32,64,123));
#481=IFCINDEXEDPOLYGONALFACE((88,109,82));
#482=IFCINDEXEDPOLYGONALFACE((133,128,81));
#483=IFCINDEXEDPOLYGONALFACE((193,319,320));
#484=IFCINDEXEDPOLYGONALFACE((370,367,369));
#485=IFCINDEXEDPOLYGONALFACE((6,9,42));
#486=IFCINDEXEDPOLYGONALFACE((214,186,282));
#487=IFCINDEXEDPOLYGONALFACE((200,75,166));
#488=IFCINDEXEDPOLYGONALFACE((375,79,139));
#489=IFCINDEXEDPOLYGONALFACE((95,309,333));
#490=IFCINDEXEDPOLYGONALFACE((221,49,72));
#491=IFCINDEXEDPOLYGONALFACE((36,273,11));
#492=IFCINDEXEDPOLYGONALFACE((69,155,251));
#493=IFCINDEXEDPOLYGONALFACE((316,302,289));
#494=IFCINDEXEDPOLYGONALFACE((297,304,303));
#495=IFCINDEXEDPOLYGONALFACE((195,159,196));
#496=IFCINDEXEDPOLYGONALFACE((110,186,55));
#497=IFCINDEXEDPOLYGONALFACE((323,324,315));
#498=IFCINDEXEDPOLYGONALFACE((172,83,242));
#499=IFCINDEXEDPOLYGONALFACE((61,219,82));
#500=IFCINDEXEDPOLYGONALFACE((283,291,265));
#501=IFCINDEXEDPOLYGONALFACE((184,175,177));
#502=IFCINDEXEDPOLYGONALFACE((349,246,347));
#503=IFCINDEXEDPOLYGONALFACE((174,166,75));
#504=IFCINDEXEDPOLYGONALFACE((48,363,361));
#505=IFCINDEXEDPOLYGONALFACE((199,237,46));
#506=IFCINDEXEDPOLYGONALFACE((164,242,198));
#507=IFCINDEXEDPOLYGONALFACE((290,317,335,336));
#508=IFCINDEXEDPOLYGONALFACE((217,298,160));
#509=IFCINDEXEDPOLYGONALFACE((193,200,79));
#510=IFCINDEXEDPOLYGONALFACE((253,166,165));
#511=IFCINDEXEDPOLYGONALFACE((202,116,51));
#512=IFCINDEXEDPOLYGONALFACE((236,366,268));
#513=IFCINDEXEDPOLYGONALFACE((170,73,163));
#514=IFCINDEXEDPOLYGONALFACE((360,328,296));
#515=IFCINDEXEDPOLYGONALFACE((354,350,348,353));
#516=IFCINDEXEDPOLYGONALFACE((359,357,216,214));
#517=IFCINDEXEDPOLYGONALFACE((143,110,125));
#518=IFCINDEXEDPOLYGONALFACE((265,314,345,283));
#519=IFCINDEXEDPOLYGONALFACE((252,261,260));
#520=IFCINDEXEDPOLYGONALFACE((305,337,340,334));
#521=IFCINDEXEDPOLYGONALFACE((131,116,24));
#522=IFCINDEXEDPOLYGONALFACE((104,168,253));
#523=IFCINDEXEDPOLYGONALFACE((126,99,111));
#524=IFCINDEXEDPOLYGONALFACE((47,275,276));
#525=IFCINDEXEDPOLYGONALFACE((230,120,97));
#526=IFCINDEXEDPOLYGONALFACE((279,283,345,352));
#527=IFCINDEXEDPOLYGONALFACE((67,89,275));
#528=IFCINDEXEDPOLYGONALFACE((257,271,255));
#529=IFCINDEXEDPOLYGONALFACE((257,231,224));
#530=IFCINDEXEDPOLYGONALFACE((316,253,165));
#531=IFCINDEXEDPOLYGONALFACE((17,3,53));
#532=IFCINDEXEDPOLYGONALFACE((273,171,266));
#533=IFCINDEXEDPOLYGONALFACE((260,270,258));
#534=IFCINDEXEDPOLYGONALFACE((362,58,216));
#535=IFCINDEXEDPOLYGONALFACE((48,108,107));
#536=IFCINDEXEDPOLYGONALFACE((57,65,33));
#537=IFCINDEXEDPOLYGONALFACE((160,172,164));
#538=IFCINDEXEDPOLYGONALFACE((190,235,184));
#539=IFCINDEXEDPOLYGONALFACE((354,353,215,361));
#540=IFCINDEXEDPOLYGONALFACE((258,271,256));
#541=IFCINDEXEDPOLYGONALFACE((155,366,251));
#542=IFCINDEXEDPOLYGONALFACE((365,357,359,352));
#543=IFCINDEXEDPOLYGONALFACE((169,20,26));
#544=IFCINDEXEDPOLYGONALFACE((312,174,225));
#545=IFCINDEXEDPOLYGONALFACE((273,43,11));
#546=IFCINDEXEDPOLYGONALFACE((264,317,290));
#547=IFCINDEXEDPOLYGONALFACE((287,296,293));
#548=IFCINDEXEDPOLYGONALFACE((159,149,150));
#549=IFCINDEXEDPOLYGONALFACE((267,305,334));
#550=IFCINDEXEDPOLYGONALFACE((206,211,100));
#551=IFCINDEXEDPOLYGONALFACE((126,150,149));
#552=IFCINDEXEDPOLYGONALFACE((288,114,144));
#553=IFCINDEXEDPOLYGONALFACE((266,101,273));
#554=IFCINDEXEDPOLYGONALFACE((123,42,32));
#555=IFCINDEXEDPOLYGONALFACE((255,171,231));
#556=IFCINDEXEDPOLYGONALFACE((34,116,14));
#557=IFCINDEXEDPOLYGONALFACE((91,3,92));
#558=IFCINDEXEDPOLYGONALFACE((287,143,138));
#559=IFCINDEXEDPOLYGONALFACE((77,12,71));
#560=IFCINDEXEDPOLYGONALFACE((95,178,161));
#561=IFCINDEXEDPOLYGONALFACE((285,280,281));
#562=IFCINDEXEDPOLYGONALFACE((242,139,262));
#563=IFCINDEXEDPOLYGONALFACE((332,318,327));
#564=IFCINDEXEDPOLYGONALFACE((226,239,37));
#565=IFCINDEXEDPOLYGONALFACE((175,219,137));
#566=IFCINDEXEDPOLYGONALFACE((177,94,184));
#567=IFCINDEXEDPOLYGONALFACE((103,226,37));
#568=IFCINDEXEDPOLYGONALFACE((372,371,65));
#569=IFCINDEXEDPOLYGONALFACE((341,335,244,339));
#570=IFCINDEXEDPOLYGONALFACE((101,69,43));
#571=IFCINDEXEDPOLYGONALFACE((146,192,182));
#572=IFCINDEXEDPOLYGONALFACE((52,77,5));
#573=IFCINDEXEDPOLYGONALFACE((133,60,52));
#574=IFCINDEXEDPOLYGONALFACE((28,243,213));
#575=IFCINDEXEDPOLYGONALFACE((110,126,125));
#576=IFCINDEXEDPOLYGONALFACE((140,188,176));
#577=IFCINDEXEDPOLYGONALFACE((341,342,336,335));
#578=IFCINDEXEDPOLYGONALFACE((82,131,61));
#579=IFCINDEXEDPOLYGONALFACE((290,336,337,305));
#580=IFCINDEXEDPOLYGONALFACE((109,51,116));
#581=IFCINDEXEDPOLYGONALFACE((210,29,90));
#582=IFCINDEXEDPOLYGONALFACE((45,30,21));
#583=IFCINDEXEDPOLYGONALFACE((204,196,8));
#584=IFCINDEXEDPOLYGONALFACE((229,238,237));
#585=IFCINDEXEDPOLYGONALFACE((161,217,160));
#586=IFCINDEXEDPOLYGONALFACE((305,264,290));
#587=IFCINDEXEDPOLYGONALFACE((84,60,81));
#588=IFCINDEXEDPOLYGONALFACE((185,190,184));
#589=IFCINDEXEDPOLYGONALFACE((5,133,52));
#590=IFCINDEXEDPOLYGONALFACE((189,187,117));
#591=IFCINDEXEDPOLYGONALFACE((226,237,238));
#592=IFCINDEXEDPOLYGONALFACE((23,277,197));
#593=IFCINDEXEDPOLYGONALFACE((76,8,27));
#594=IFCINDEXEDPOLYGONALFACE((294,274,295));
#595=IFCINDEXEDPOLYGONALFACE((145,114,107));
#596=IFCINDEXEDPOLYGONALFACE((188,44,10));
#597=IFCINDEXEDPOLYGONALFACE((41,203,85));
#598=IFCINDEXEDPOLYGONALFACE((13,43,86));
#599=IFCINDEXEDPOLYGONALFACE((355,364,351,356));
#600=IFCINDEXEDPOLYGONALFACE((234,125,177));
#601=IFCINDEXEDPOLYGONALFACE((40,38,50));
#602=IFCINDEXEDPOLYGONALFACE((272,85,20));
#603=IFCINDEXEDPOLYGONALFACE((215,48,361));
#604=IFCINDEXEDPOLYGONALFACE((39,241,301));
#605=IFCINDEXEDPOLYGONALFACE((311,292,263));
#606=IFCINDEXEDPOLYGONALFACE((69,86,43));
#607=IFCINDEXEDPOLYGONALFACE((310,161,178));
#608=IFCINDEXEDPOLYGONALFACE((202,169,78));
#609=IFCINDEXEDPOLYGONALFACE((248,250,247));
#610=IFCINDEXEDPOLYGONALFACE((296,138,360));
#611=IFCINDEXEDPOLYGONALFACE((42,9,23));
#612=IFCINDEXEDPOLYGONALFACE((203,206,85));
#613=IFCINDEXEDPOLYGONALFACE((202,272,169));
#614=IFCINDEXEDPOLYGONALFACE((342,344,337,336));
#615=IFCINDEXEDPOLYGONALFACE((129,35,19));
#616=IFCINDEXEDPOLYGONALFACE((2,162,191));
#617=IFCINDEXEDPOLYGONALFACE((366,306,98));
#618=IFCINDEXEDPOLYGONALFACE((361,363,356,354));
#619=IFCINDEXEDPOLYGONALFACE((68,17,134));
#620=IFCINDEXEDPOLYGONALFACE((54,173,201));
#621=IFCINDEXEDPOLYGONALFACE((210,167,151));
#622=IFCINDEXEDPOLYGONALFACE((156,171,97));
#623=IFCINDEXEDPOLYGONALFACE((54,151,93));
#624=IFCINDEXEDPOLYGONALFACE((59,8,196));
#625=IFCINDEXEDPOLYGONALFACE((213,210,90));
#626=IFCINDEXEDPOLYGONALFACE((54,371,373));
#627=IFCINDEXEDPOLYGONALFACE((130,243,209));
#628=IFCINDEXEDPOLYGONALFACE((359,214,282,280));
#629=IFCINDEXEDPOLYGONALFACE((142,117,188));
#630=IFCINDEXEDPOLYGONALFACE((28,367,368));
#631=IFCINDEXEDPOLYGONALFACE((237,228,229));
#632=IFCINDEXEDPOLYGONALFACE((362,105,99));
#633=IFCINDEXEDPOLYGONALFACE((291,314,265));
#634=IFCINDEXEDPOLYGONALFACE((45,70,18));
#635=IFCINDEXEDPOLYGONALFACE((210,372,167));
#636=IFCINDEXEDPOLYGONALFACE((62,63,176));
#637=IFCINDEXEDPOLYGONALFACE((91,19,35));
#638=IFCINDEXEDPOLYGONALFACE((206,203,211));
#639=IFCINDEXEDPOLYGONALFACE((269,260,261));
#640=IFCINDEXEDPOLYGONALFACE((53,35,129));
#641=IFCINDEXEDPOLYGONALFACE((54,29,151));
#642=IFCINDEXEDPOLYGONALFACE((130,368,370));
#643=IFCINDEXEDPOLYGONALFACE((67,187,189));
#644=IFCINDEXEDPOLYGONALFACE((371,25,124));
#645=IFCINDEXEDPOLYGONALFACE((130,209,368));
#646=IFCINDEXEDPOLYGONALFACE((243,130,370));
#647=IFCINDEXEDPOLYGONALFACE((213,227,210));
#648=IFCINDEXEDPOLYGONALFACE((227,372,210));
#649=IFCINDEXEDPOLYGONALFACE((167,93,151));
#650=IFCINDEXEDPOLYGONALFACE((372,227,25));
#651=IFCINDEXEDPOLYGONALFACE((373,29,54));
#652=IFCINDEXEDPOLYGONALFACE((213,369,227));
#653=IFCINDEXEDPOLYGONALFACE((371,124,373));
#654=IFCINDEXEDPOLYGONALFACE((341,348,350,342));
#655=IFCINDEXEDPOLYGONALFACE((135,66,217));
#656=IFCINDEXEDPOLYGONALFACE((65,371,33));
#657=IFCINDEXEDPOLYGONALFACE((350,354,356,351));
#658=IFCINDEXEDPOLYGONALFACE((333,330,178));
#659=IFCINDEXEDPOLYGONALFACE((315,254,323));
#660=IFCINDEXEDPOLYGONALFACE((127,12,30));
#661=IFCINDEXEDPOLYGONALFACE((100,128,31));
#662=IFCINDEXEDPOLYGONALFACE((319,5,77));
#663=IFCINDEXEDPOLYGONALFACE((374,158,2));
#664=IFCINDEXEDPOLYGONALFACE((375,83,374));
#665=IFCINDEXEDPOLYGONALFACE((314,274,311));
#666=IFCINDEXEDPOLYGONALFACE((21,4,52));
#667=IFCINDEXEDPOLYGONALFACE((288,144,180));
#668=IFCINDEXEDPOLYGONALFACE((241,137,219));
#669=IFCINDEXEDPOLYGONALFACE((60,76,45));
#670=IFCINDEXEDPOLYGONALFACE((10,62,176));
#671=IFCINDEXEDPOLYGONALFACE((220,147,106));
#672=IFCINDEXEDPOLYGONALFACE((90,29,373));
#673=IFCINDEXEDPOLYGONALFACE((70,148,199));
#674=IFCINDEXEDPOLYGONALFACE((103,37,36));
#675=IFCINDEXEDPOLYGONALFACE((71,197,306));
#676=IFCINDEXEDPOLYGONALFACE((117,187,44));
#677=IFCINDEXEDPOLYGONALFACE((62,44,56));
#678=IFCINDEXEDPOLYGONALFACE((254,252,244));
#679=IFCINDEXEDPOLYGONALFACE((59,196,159));
#680=IFCINDEXEDPOLYGONALFACE((158,141,154));
#681=IFCINDEXEDPOLYGONALFACE((300,301,241));
#682=IFCINDEXEDPOLYGONALFACE((23,127,32));
#683=IFCINDEXEDPOLYGONALFACE((309,303,304));
#684=IFCINDEXEDPOLYGONALFACE((295,329,304));
#685=IFCINDEXEDPOLYGONALFACE((369,367,25));
#686=IFCINDEXEDPOLYGONALFACE((119,102,106));
#687=IFCINDEXEDPOLYGONALFACE((232,269,318));
#688=IFCINDEXEDPOLYGONALFACE((208,170,63));
#689=IFCINDEXEDPOLYGONALFACE((239,97,171));
#690=IFCINDEXEDPOLYGONALFACE((124,28,213));
#691=IFCINDEXEDPOLYGONALFACE((268,155,75));
#692=IFCINDEXEDPOLYGONALFACE((101,270,269));
#693=IFCINDEXEDPOLYGONALFACE((277,9,7));
#694=IFCINDEXEDPOLYGONALFACE((320,306,236));
#695=IFCINDEXEDPOLYGONALFACE((222,193,236));
#696=IFCINDEXEDPOLYGONALFACE((173,115,50));
#697=IFCINDEXEDPOLYGONALFACE((299,313,267));
#698=IFCINDEXEDPOLYGONALFACE((162,207,212));
#699=IFCINDEXEDPOLYGONALFACE((98,306,197));
#700=IFCINDEXEDPOLYGONALFACE((295,296,328));
#701=IFCINDEXEDPOLYGONALFACE((84,81,128));
#702=IFCINDEXEDPOLYGONALFACE((302,299,297));
#703=IFCINDEXEDPOLYGONALFACE((212,115,173));
#704=IFCINDEXEDPOLYGONALFACE((317,323,254));
#705=IFCINDEXEDPOLYGONALFACE((211,205,204));
#706=IFCINDEXEDPOLYGONALFACE((39,177,175));
#707=IFCINDEXEDPOLYGONALFACE((334,263,292));
#708=IFCINDEXEDPOLYGONALFACE((283,279,286));
#709=IFCINDEXEDPOLYGONALFACE((129,38,16));
#710=IFCINDEXEDPOLYGONALFACE((102,349,249));
#711=IFCINDEXEDPOLYGONALFACE((197,71,12));
#712=IFCINDEXEDPOLYGONALFACE((330,331,310));
#713=IFCINDEXEDPOLYGONALFACE((300,308,310));
#714=IFCINDEXEDPOLYGONALFACE((205,203,190));
#715=IFCINDEXEDPOLYGONALFACE((133,1,2));
#716=IFCINDEXEDPOLYGONALFACE((85,206,92));
#717=IFCINDEXEDPOLYGONALFACE((360,234,39));
#718=IFCINDEXEDPOLYGONALFACE((122,157,47));
#719=IFCINDEXEDPOLYGONALFACE((281,280,282));
#720=IFCINDEXEDPOLYGONALFACE((250,220,249));
#721=IFCINDEXEDPOLYGONALFACE((58,55,214));
#722=IFCINDEXEDPOLYGONALFACE((234,360,138));
#723=IFCINDEXEDPOLYGONALFACE((141,172,298));
#724=IFCINDEXEDPOLYGONALFACE((27,112,45));
#725=IFCINDEXEDPOLYGONALFACE((146,182,181));
#726=IFCINDEXEDPOLYGONALFACE((144,145,181));
#727=IFCINDEXEDPOLYGONALFACE((195,194,185));
#728=IFCINDEXEDPOLYGONALFACE((228,221,223));
#729=IFCINDEXEDPOLYGONALFACE((49,215,358));
#730=IFCINDEXEDPOLYGONALFACE((74,163,34));
#731=IFCINDEXEDPOLYGONALFACE((221,72,218));
#732=IFCINDEXEDPOLYGONALFACE((146,145,107));
#733=IFCINDEXEDPOLYGONALFACE((194,195,204));
#734=IFCINDEXEDPOLYGONALFACE((46,123,64));
#735=IFCINDEXEDPOLYGONALFACE((366,98,86));
#736=IFCINDEXEDPOLYGONALFACE((48,107,114));
#737=IFCINDEXEDPOLYGONALFACE((198,104,95));
#738=IFCINDEXEDPOLYGONALFACE((74,183,132));
#739=IFCINDEXEDPOLYGONALFACE((21,30,12));
#740=IFCINDEXEDPOLYGONALFACE((288,150,111));
#741=IFCINDEXEDPOLYGONALFACE((75,155,225));
#742=IFCINDEXEDPOLYGONALFACE((166,168,262));
#743=IFCINDEXEDPOLYGONALFACE((223,119,230));
#744=IFCINDEXEDPOLYGONALFACE((26,20,92));
#745=IFCINDEXEDPOLYGONALFACE((219,235,88));
#746=IFCINDEXEDPOLYGONALFACE((322,264,325));
#747=IFCINDEXEDPOLYGONALFACE((257,224,220));
#748=IFCINDEXEDPOLYGONALFACE((289,309,104));
#749=IFCINDEXEDPOLYGONALFACE((228,146,108));
#750=IFCINDEXEDPOLYGONALFACE((119,223,218));
#751=IFCINDEXEDPOLYGONALFACE((367,28,124));
#752=IFCINDEXEDPOLYGONALFACE((327,324,325));
#753=IFCINDEXEDPOLYGONALFACE((40,50,115));
#754=IFCINDEXEDPOLYGONALFACE((321,252,248));
#755=IFCINDEXEDPOLYGONALFACE((13,86,98));
#756=IFCINDEXEDPOLYGONALFACE((5,375,374));
#757=IFCINDEXEDPOLYGONALFACE((135,217,87));
#758=IFCINDEXEDPOLYGONALFACE((156,147,224));
#759=IFCINDEXEDPOLYGONALFACE((163,74,63));
#760=IFCINDEXEDPOLYGONALFACE((56,157,142));
#761=IFCINDEXEDPOLYGONALFACE((88,190,203));
#762=IFCINDEXEDPOLYGONALFACE((24,34,163));
#763=IFCINDEXEDPOLYGONALFACE((14,202,78));
#764=IFCINDEXEDPOLYGONALFACE((248,252,260));
#765=IFCINDEXEDPOLYGONALFACE((78,169,26));
#766=IFCINDEXEDPOLYGONALFACE((16,134,17));
#767=IFCINDEXEDPOLYGONALFACE((161,160,164));
#768=IFCINDEXEDPOLYGONALFACE((291,284,287));
#769=IFCINDEXEDPOLYGONALFACE((127,30,18));
#770=IFCINDEXEDPOLYGONALFACE((182,192,199));
#771=IFCINDEXEDPOLYGONALFACE((319,77,71));
#772=IFCINDEXEDPOLYGONALFACE((225,69,232));
#773=IFCINDEXEDPOLYGONALFACE((302,303,309));
#774=IFCINDEXEDPOLYGONALFACE((13,7,36));
#775=IFCINDEXEDPOLYGONALFACE((308,22,87));
#776=IFCINDEXEDPOLYGONALFACE((262,139,79));
#777=IFCINDEXEDPOLYGONALFACE((131,24,73));
#778=IFCINDEXEDPOLYGONALFACE((370,369,213));
#779=IFCINDEXEDPOLYGONALFACE((92,206,100));
#780=IFCINDEXEDPOLYGONALFACE((89,136,233));
#781=IFCINDEXEDPOLYGONALFACE((332,316,165));
#782=IFCINDEXEDPOLYGONALFACE((189,122,136));
#783=IFCINDEXEDPOLYGONALFACE((326,316,332));
#784=IFCINDEXEDPOLYGONALFACE((117,142,122));
#785=IFCINDEXEDPOLYGONALFACE((132,134,16));
#786=IFCINDEXEDPOLYGONALFACE((134,132,183));
#787=IFCINDEXEDPOLYGONALFACE((239,238,230));
#788=IFCINDEXEDPOLYGONALFACE((180,181,96));
#789=IFCINDEXEDPOLYGONALFACE((99,105,113));
#790=IFCINDEXEDPOLYGONALFACE((22,61,131));
#791=IFCINDEXEDPOLYGONALFACE((321,247,249));
#792=IFCINDEXEDPOLYGONALFACE((156,97,120));
#793=IFCINDEXEDPOLYGONALFACE((148,96,181));
#794=IFCINDEXEDPOLYGONALFACE((152,125,126));
#795=IFCINDEXEDPOLYGONALFACE((240,36,37));
#796=IFCINDEXEDPOLYGONALFACE((14,68,183));
#797=IFCINDEXEDPOLYGONALFACE((293,296,295));
#798=IFCINDEXEDPOLYGONALFACE((148,70,112));
#799=IFCINDEXEDPOLYGONALFACE((313,299,325));
#800=IFCINDEXEDPOLYGONALFACE((154,66,170));
#801=IFCINDEXEDPOLYGONALFACE((226,6,123));
#802=IFCINDEXEDPOLYGONALFACE((349,347,339));
#803=IFCINDEXEDPOLYGONALFACE((318,315,324));
#804=IFCINDEXEDPOLYGONALFACE((326,325,299));
#805=IFCINDEXEDPOLYGONALFACE((112,27,59));
#806=IFCINDEXEDPOLYGONALFACE((262,168,198));
#807=IFCINDEXEDPOLYGONALFACE((272,202,51));
#808=IFCINDEXEDPOLYGONALFACE((318,269,261));
#809=IFCINDEXEDPOLYGONALFACE((167,65,57));
#810=IFCINDEXEDPOLYGONALFACE((271,270,266));
#811=IFCINDEXEDPOLYGONALFACE((218,72,246));
#812=IFCINDEXEDPOLYGONALFACE((94,149,179));
#813=IFCINDEXEDPOLYGONALFACE((40,62,153));
#814=IFCINDEXEDPOLYGONALFACE((8,84,121));
#815=IFCINDEXEDPOLYGONALFACE((32,18,64));
#816=IFCINDEXEDPOLYGONALFACE((88,15,109));
#817=IFCINDEXEDPOLYGONALFACE((133,31,128));
#818=IFCINDEXEDPOLYGONALFACE((193,79,319));
#819=IFCINDEXEDPOLYGONALFACE((370,368,367));
#820=IFCINDEXEDPOLYGONALFACE((6,103,9));
#821=IFCINDEXEDPOLYGONALFACE((214,55,186));
#822=IFCINDEXEDPOLYGONALFACE((200,222,75));
#823=IFCINDEXEDPOLYGONALFACE((375,319,79));
#824=IFCINDEXEDPOLYGONALFACE((95,104,309));
#825=IFCINDEXEDPOLYGONALFACE((221,108,49));
#826=IFCINDEXEDPOLYGONALFACE((36,240,273));
#827=IFCINDEXEDPOLYGONALFACE((69,225,155));
#828=IFCINDEXEDPOLYGONALFACE((316,326,302));
#829=IFCINDEXEDPOLYGONALFACE((297,294,304));
#830=IFCINDEXEDPOLYGONALFACE((195,179,159));
#831=IFCINDEXEDPOLYGONALFACE((110,281,186));
#832=IFCINDEXEDPOLYGONALFACE((323,322,324));
#833=IFCINDEXEDPOLYGONALFACE((172,141,83));
#834=IFCINDEXEDPOLYGONALFACE((61,307,219));
#835=IFCINDEXEDPOLYGONALFACE((283,284,291));
#836=IFCINDEXEDPOLYGONALFACE((184,235,175));
#837=IFCINDEXEDPOLYGONALFACE((349,102,246));
#838=IFCINDEXEDPOLYGONALFACE((174,165,166));
#839=IFCINDEXEDPOLYGONALFACE((48,105,363));
#840=IFCINDEXEDPOLYGONALFACE((199,192,237));
#841=IFCINDEXEDPOLYGONALFACE((164,172,242));
#842=IFCINDEXEDPOLYGONALFACE((217,66,298));
#843=IFCINDEXEDPOLYGONALFACE((193,222,200));
#844=IFCINDEXEDPOLYGONALFACE((253,168,166));
#845=IFCINDEXEDPOLYGONALFACE((202,14,116));
#846=IFCINDEXEDPOLYGONALFACE((236,306,366));
#847=IFCINDEXEDPOLYGONALFACE((170,66,73));
#848=IFCINDEXEDPOLYGONALFACE((360,300,328));
#849=IFCINDEXEDPOLYGONALFACE((143,285,110));
#850=IFCINDEXEDPOLYGONALFACE((252,254,261));
#851=IFCINDEXEDPOLYGONALFACE((131,109,116));
#852=IFCINDEXEDPOLYGONALFACE((104,198,168));
#853=IFCINDEXEDPOLYGONALFACE((126,58,99));
#854=IFCINDEXEDPOLYGONALFACE((47,67,275));
#855=IFCINDEXEDPOLYGONALFACE((230,119,120));
#856=IFCINDEXEDPOLYGONALFACE((67,259,89));
#857=IFCINDEXEDPOLYGONALFACE((257,256,271));
#858=IFCINDEXEDPOLYGONALFACE((257,255,231));
#859=IFCINDEXEDPOLYGONALFACE((316,289,253));
#860=IFCINDEXEDPOLYGONALFACE((17,26,3));
#861=IFCINDEXEDPOLYGONALFACE((273,240,171));
#862=IFCINDEXEDPOLYGONALFACE((362,99,58));
#863=IFCINDEXEDPOLYGONALFACE((48,49,108));
#864=IFCINDEXEDPOLYGONALFACE((160,298,172));
#865=IFCINDEXEDPOLYGONALFACE((190,88,235));
#866=IFCINDEXEDPOLYGONALFACE((258,270,271));
#867=IFCINDEXEDPOLYGONALFACE((155,268,366));
#868=IFCINDEXEDPOLYGONALFACE((169,272,20));
#869=IFCINDEXEDPOLYGONALFACE((312,332,174));
#870=IFCINDEXEDPOLYGONALFACE((273,101,43));
#871=IFCINDEXEDPOLYGONALFACE((264,322,317));
#872=IFCINDEXEDPOLYGONALFACE((287,138,296));
#873=IFCINDEXEDPOLYGONALFACE((159,179,149));
#874=IFCINDEXEDPOLYGONALFACE((267,313,305));
#875=IFCINDEXEDPOLYGONALFACE((126,111,150));
#876=IFCINDEXEDPOLYGONALFACE((288,113,114));
#877=IFCINDEXEDPOLYGONALFACE((266,270,101));
#878=IFCINDEXEDPOLYGONALFACE((123,6,42));
#879=IFCINDEXEDPOLYGONALFACE((255,266,171));
#880=IFCINDEXEDPOLYGONALFACE((34,24,116));
#881=IFCINDEXEDPOLYGONALFACE((91,35,3));
#882=IFCINDEXEDPOLYGONALFACE((287,285,143));
#883=IFCINDEXEDPOLYGONALFACE((77,4,12));
#884=IFCINDEXEDPOLYGONALFACE((95,333,178));
#885=IFCINDEXEDPOLYGONALFACE((285,279,280));
#886=IFCINDEXEDPOLYGONALFACE((242,83,139));
#887=IFCINDEXEDPOLYGONALFACE((332,312,318));
#888=IFCINDEXEDPOLYGONALFACE((226,238,239));
#889=IFCINDEXEDPOLYGONALFACE((175,235,219));
#890=IFCINDEXEDPOLYGONALFACE((177,152,94));
#891=IFCINDEXEDPOLYGONALFACE((103,6,226));
#892=IFCINDEXEDPOLYGONALFACE((372,25,371));
#893=IFCINDEXEDPOLYGONALFACE((101,232,69));
#894=IFCINDEXEDPOLYGONALFACE((146,228,192));
#895=IFCINDEXEDPOLYGONALFACE((52,4,77));
#896=IFCINDEXEDPOLYGONALFACE((133,81,60));
#897=IFCINDEXEDPOLYGONALFACE((28,209,243));
#898=IFCINDEXEDPOLYGONALFACE((110,58,126));
#899=IFCINDEXEDPOLYGONALFACE((140,142,188));
#900=IFCINDEXEDPOLYGONALFACE((82,109,131));
#901=IFCINDEXEDPOLYGONALFACE((109,15,51));
#902=IFCINDEXEDPOLYGONALFACE((210,151,29));
#903=IFCINDEXEDPOLYGONALFACE((45,18,30));
#904=IFCINDEXEDPOLYGONALFACE((204,195,196));
#905=IFCINDEXEDPOLYGONALFACE((229,230,238));
#906=IFCINDEXEDPOLYGONALFACE((161,87,217));
#907=IFCINDEXEDPOLYGONALFACE((305,313,264));
#908=IFCINDEXEDPOLYGONALFACE((84,76,60));
#909=IFCINDEXEDPOLYGONALFACE((185,194,190));
#910=IFCINDEXEDPOLYGONALFACE((5,1,133));
#911=IFCINDEXEDPOLYGONALFACE((226,46,237));
#912=IFCINDEXEDPOLYGONALFACE((23,9,277));
#913=IFCINDEXEDPOLYGONALFACE((76,84,8));
#914=IFCINDEXEDPOLYGONALFACE((294,267,274));
#915=IFCINDEXEDPOLYGONALFACE((145,144,114));
#916=IFCINDEXEDPOLYGONALFACE((41,15,203));
#917=IFCINDEXEDPOLYGONALFACE((13,11,43));
#918=IFCINDEXEDPOLYGONALFACE((234,143,125));
#919=IFCINDEXEDPOLYGONALFACE((40,16,38));
#920=IFCINDEXEDPOLYGONALFACE((272,41,85));
#921=IFCINDEXEDPOLYGONALFACE((215,49,48));
#922=IFCINDEXEDPOLYGONALFACE((39,137,241));
#923=IFCINDEXEDPOLYGONALFACE((311,274,292));
#924=IFCINDEXEDPOLYGONALFACE((69,251,86));
#925=IFCINDEXEDPOLYGONALFACE((310,87,161));
#926=IFCINDEXEDPOLYGONALFACE((248,256,250));
#927=IFCINDEXEDPOLYGONALFACE((68,78,17));
#928=IFCINDEXEDPOLYGONALFACE((156,231,171));
#929=IFCINDEXEDPOLYGONALFACE((59,27,8));
#930=IFCINDEXEDPOLYGONALFACE((54,33,371));
#931=IFCINDEXEDPOLYGONALFACE((237,192,228));
#932=IFCINDEXEDPOLYGONALFACE((362,363,105));
#933=IFCINDEXEDPOLYGONALFACE((291,293,314));
#934=IFCINDEXEDPOLYGONALFACE((45,112,70));
#935=IFCINDEXEDPOLYGONALFACE((62,40,63));
#936=IFCINDEXEDPOLYGONALFACE((91,31,19));
#937=IFCINDEXEDPOLYGONALFACE((269,270,260));
#938=IFCINDEXEDPOLYGONALFACE((53,3,35));
#939=IFCINDEXEDPOLYGONALFACE((67,47,187));
#940=IFCINDEXEDPOLYGONALFACE((135,73,66));
#941=IFCINDEXEDPOLYGONALFACE((333,329,330));
#942=IFCINDEXEDPOLYGONALFACE((315,261,254));
#943=IFCINDEXEDPOLYGONALFACE((127,23,12));
#944=IFCINDEXEDPOLYGONALFACE((100,121,128));
#945=IFCINDEXEDPOLYGONALFACE((319,375,5));
#946=IFCINDEXEDPOLYGONALFACE((374,83,158));
#947=IFCINDEXEDPOLYGONALFACE((375,139,83));
#948=IFCINDEXEDPOLYGONALFACE((314,293,274));
#949=IFCCARTESIANPOINTLIST3D(((-0.075764268636703491,-0.01216948963701725,0.22066208720207214),(-0.10525502264499664,-0.014106946997344494,0.23090654611587524),(-0.16403847932815552,-0.096257179975509644,0.26320105791091919),(-0.014968311414122581,-0.043448235839605331,0.22866454720497131),(-0.042669322341680527,-0.012022865936160088,0.22233434021472931),(0.078899256885051727,-0.076734945178031921,0.17371402680873871),(0.095371536910533905,-0.040921267122030258,0.16986283659934998),(-0.071977235376834869,-0.094960831105709076,0.17176325619220734),(0.073553569614887238,-0.04621114581823349,0.19932860136032104),(-0.16024585068225861,0.039746616035699844,0.29853358864784241),(0.10673067718744278,-0.012497538700699806,0.13867686688899994),(0.013965139165520668,-0.042304534465074539,0.22946122288703918),(0.096723563969135284,-0.014441845938563347,0.16811130940914154),(-0.21992772817611694,-0.041420534253120422,0.23905359208583832),(-0.19818499684333801,-0.074213609099388123,0.17266835272312164),(-0.16216719150543213,-0.043449882417917252,0.28956878185272217),(-0.18980929255485535,-0.07169477641582489,0.28171378374099731),(0.015229872427880764,-0.084979444742202759,0.20526841282844543),(-0.12351319938898087,-0.045296106487512589,0.26471677422523499),(-0.18862918019294739,-0.1191355437040329,0.23310156166553497),(-0.013021809048950672,-0.065114542841911316,0.22295473515987396),(-0.19687685370445251,0.011978214606642723,0.13869889080524445),(0.043160196393728256,-0.045162014663219452,0.22145189344882965),(-0.21607552468776703,-0.016599427908658981,0.2049681544303894),(-0.058282177895307541,0.02241603285074234,0.33180037140846252),(-0.19082361459732056,-0.10244523733854294,0.26016488671302795),(-0.043138083070516586,-0.099196448922157288,0.1769757866859436),(-0.052268609404563904,0.049436695873737335,0.35123297572135925),(-0.089593872427940369,0.032213013619184494,0.31868958473205566),(0.013082567602396011,-0.066855534911155701,0.22306272387504578),(-0.10614596307277679,-0.041513059288263321,0.2288246750831604),(0.044865764677524567,-0.077678047120571136,0.20366719365119934),(-0.10371295362710953,-0.003667495446279645,0.31438538432121277),(-0.21360756456851959,-0.016971135511994362,0.23358120024204254),(-0.13898938894271851,-0.07493031769990921,0.26505002379417419),(0.1057693213224411,-0.041565887629985809,0.13869789242744446),(0.099207282066345215,-0.067760713398456573,0.13867975771427155),(-0.13568064570426941,-0.040240947157144547,0.28789660334587097),(-0.17496183514595032,-0.042518109083175659,0.074328109622001648),(-0.16195474565029144,-0.012931450270116329,0.28954055905342102),(-0.20862850546836853,-0.10341878235340118,0.20152777433395386),(0.064003132283687592,-0.067703455686569214,0.19790099561214447),(0.10017261654138565,0.012653796002268791,0.13870866596698761),(-0.16861595213413239,0.048218555748462677,0.30722576379776001),(-0.014069119468331337,-0.084714606404304504,0.20553299784660339),(0.070249207317829132,-0.10204678773880005,0.13858231902122498),(-0.18121381103992462,0.099205672740936279,0.32806563377380371),(-0.01520216092467308,-0.11215637624263763,0.018388565629720688),(0.016212407499551773,-0.11121650040149689,0.02182779461145401),(-0.13374704122543335,-0.015991134569048882,0.29062491655349731),(-0.2165619432926178,-0.070933029055595398,0.20272865891456604),(-0.042724214494228363,-0.042630083858966827,0.22201718389987946),(-0.15912410616874695,-0.073881879448890686,0.28384724259376526),(-0.10395654290914536,0.015477923676371574,0.32018128037452698),(-0.13698209822177887,-0.10232190787792206,0.01944354735314846),(-0.18368490040302277,0.039627186954021454,0.29515922069549561),(-0.10792891681194305,-0.010153891518712044,0.29113548994064331),(-0.10388674587011337,-0.10183699429035187,0.018010446801781654),(-0.046116136014461517,-0.11921937763690948,0.13896723091602325),(-0.046134073287248611,-0.061420276761054993,0.21500451862812042),(-0.21132971346378326,-0.01697327196598053,0.13869249820709229),(-0.16582587361335754,0.017003398388624191,0.29436516761779785),(-0.16292682290077209,0.016753595322370529,0.25908666849136353),(0.04460572823882103,-0.098553180694580078,0.17138248682022095),(-0.083408229053020477,0.0033546374179422855,0.31555348634719849),(-0.15971240401268005,0.024722501635551453,0.1976117342710495),(-0.16489240527153015,0.10503272712230682,0.32282084226608276),(-0.21514898538589478,-0.046240467578172684,0.26626971364021301),(0.074162483215332031,0.041457470506429672,0.1387869119644165),(0.014203114435076714,-0.10544788837432861,0.17047810554504395),(0.014169003814458847,-0.013189514167606831,0.22920854389667511),(0.043320551514625549,-0.10163420438766479,0.017849922180175781),(-0.19483163952827454,0.0085588712245225906,0.19867131114006042),(-0.19007124006748199,0.0083788605406880379,0.26385936141014099),(0.014639651402831078,0.050356257706880569,0.17133095860481262),(-0.046632800251245499,-0.078941740095615387,0.20332324504852295),(-0.014226747676730156,-0.015765171498060226,0.22864143550395966),(-0.21427299082279205,-0.070050008594989777,0.25854414701461792),(-0.01873774453997612,0.023486929014325142,0.21153956651687622),(-0.16909052431583405,0.13041937351226807,0.34345537424087524),(-0.073084034025669098,-0.058521389961242676,0.21125213801860809),(-0.21153385937213898,-0.042905610054731369,0.13871577382087708),(-0.073917791247367859,0.015437621623277664,0.21000826358795166),(-0.073777899146080017,-0.073588274419307709,0.20062753558158875),(-0.18626792728900909,-0.12116733938455582,0.2059861421585083),(0.089287072420120239,0.016337241977453232,0.16756914556026459),(-0.16379629075527191,0.038795299828052521,0.13864108920097351),(-0.19759425520896912,-0.07469642162322998,0.13866886496543884),(-0.15758010745048523,0.13261689245700836,0.32851296663284302),(-0.073507770895957947,0.039300441741943359,0.32634150981903076),(-0.13343264162540436,-0.080039069056510925,0.24014727771282196),(-0.16164277493953705,-0.10751291364431381,0.23531784117221832),(-0.10318702459335327,0.015148911625146866,0.29331681132316589),(-0.13125789165496826,-0.096252456307411194,0.088308036327362061),(-0.097748041152954102,0.054015122354030609,0.13888265192508698),(-0.015323237515985966,-0.12871652841567993,0.13833434879779816),(0.10282081365585327,-0.07208629697561264,0.078216835856437683),(0.069174230098724365,0.0096155274659395218,0.19684813916683197),(-0.078486494719982147,-0.10470730066299438,0.024442100897431374),(-0.12938742339611053,-0.083772629499435425,0.2017112672328949),(0.1002851277589798,0.014763196930289268,0.10675005614757538),(0.072527423501014709,-0.073350325226783752,0.016290467232465744),(0.090794503688812256,-0.063199639320373535,0.16682054102420807),(-0.068585038185119629,0.068806946277618408,0.13825522363185883),(-0.043027706444263458,-0.10775761306285858,0.022122398018836975),(0.10244959592819214,-0.065074339509010315,0.027808781713247299),(-0.012322834692895412,-0.12891632318496704,0.051686987280845642),(0.013316845521330833,-0.12636767327785492,0.049701329320669174),(-0.21143673360347748,-0.04257781058549881,0.17100805044174194),(-0.13512837886810303,-0.073744051158428192,0.028781833127140999),(-0.071349337697029114,-0.097492806613445282,0.048680767416954041),(-0.014454536139965057,-0.10740352421998978,0.16953352093696594),(-0.052020065486431122,-0.10645835101604462,0.046862602233886719),(-0.038342230021953583,-0.12189947068691254,0.053789824247360229),(-0.13530349731445312,0.0047236056998372078,0.26940667629241943),(-0.22201277315616608,-0.043585158884525299,0.20195105671882629),(-0.15015283226966858,0.070691615343093872,0.29622679948806763),(-0.20523212850093842,-0.053012873977422714,0.17249298095703125),(0.081506751477718353,-0.084267169237136841,0.046302348375320435),(0.10191743075847626,-0.074442267417907715,0.051159016788005829),(-0.10416263341903687,-0.076946698129177094,0.19730021059513092),(-0.16517552733421326,0.10039269179105759,0.29582810401916504),(0.062447488307952881,-0.091415859758853912,0.17222362756729126),(-0.069627039134502411,0.037187956273555756,0.34510436654090881),(-0.12909691035747528,-0.071584239602088928,0.053236216306686401),(-0.10222971439361572,-0.091847240924835205,0.05002700537443161),(0.032824359834194183,-0.062863022089004517,0.21984750032424927),(-0.092939756810665131,-0.059812344610691071,0.21281439065933228),(-0.14035141468048096,-0.065169602632522583,0.28168851137161255),(-0.029917692765593529,0.064641207456588745,0.3456149697303772),(-0.21033422648906708,-0.019161444157361984,0.17046841979026794),(-0.18983559310436249,-0.014789946377277374,0.28466394543647766),(-0.070606246590614319,-0.035313483327627182,0.21978363394737244),(-0.19625069200992584,-0.0419037826359272,0.2860005795955658),(-0.18928930163383484,0.015417193993926048,0.16726899147033691),(-0.16549129784107208,0.11925313621759415,0.30915606021881104),(-0.18871158361434937,-0.042254343628883362,0.085793145000934601),(-0.13754981756210327,-0.017559442669153214,0.048555850982666016),(-0.043932139873504639,0.018803592771291733,0.20958797633647919),(-0.16614282131195068,0.043839089572429657,0.2692866325378418),(-0.10065904259681702,0.02120504155755043,0.21069514751434326),(-0.16552481055259705,0.068157464265823364,0.27510389685630798),(-0.13191787898540497,-0.043231453746557236,0.046977858990430832),(-0.039305612444877625,-0.12795625627040863,0.080524332821369171),(-0.014829595573246479,-0.13446485996246338,0.078124076128005981),(0.015651581808924675,-0.13201251626014709,0.077567555010318756),(0.12868037819862366,-0.063855484127998352,0.048698015511035919),(0.011726126074790955,-0.12689021229743958,0.13852187991142273),(-0.10466920584440231,-0.097371205687522888,0.078620947897434235),(-0.072280377149581909,-0.099461384117603302,0.07824370265007019),(-0.090097695589065552,0.028924979269504547,0.30452710390090942),(-0.1316659152507782,-0.080533765256404877,0.072933748364448547),(-0.17888680100440979,0.01275222934782505,0.28827843070030212),(-0.13190676271915436,0.021608486771583557,0.21198642253875732),(0.043891087174415588,0.044665221124887466,0.17003519833087921),(0.12684227526187897,-0.062089189887046814,0.072024457156658173),(-0.18145854771137238,0.072002008557319641,0.30515855550765991),(-0.1053595170378685,0.01068674772977829,0.22220513224601746),(-0.075568191707134247,-0.1056242436170578,0.10775239020586014),(-0.13077105581760406,0.043674066662788391,0.17174920439720154),(-0.133024662733078,0.049973726272583008,0.13867920637130737),(-0.11655567586421967,-0.01635250449180603,0.26282572746276855),(-0.19281311333179474,0.00962049700319767,0.22801180183887482),(-0.099599495530128479,0.046363279223442078,0.1699194610118866),(-0.015332854352891445,0.077565573155879974,0.1382807195186615),(-0.014981144107878208,0.054450809955596924,0.17051419615745544),(-0.077732682228088379,0.018959131091833115,0.29764273762702942),(-0.042937848716974258,0.052638925611972809,0.1711936891078949),(-0.21066805720329285,-0.093496181070804596,0.24589982628822327),(-0.16240055859088898,0.019847765564918518,0.22333395481109619),(0.11255617439746857,-0.041590593755245209,0.087884321808815002),(-0.098499104380607605,0.034181393682956696,0.19681504368782043),(-0.12541766464710236,0.0090764313936233521,0.2921866774559021),(0.012728635221719742,0.071599513292312622,0.13879486918449402),(-0.18446457386016846,-0.063567191362380981,0.091757819056510925),(-0.15984590351581573,0.03497358039021492,0.27703738212585449),(-0.1639542281627655,-0.073273241519927979,0.079649306833744049),(-0.13022084534168243,0.047908123582601547,0.11101747304201126),(-0.1056276261806488,-0.10325130820274353,0.10490759462118149),(-0.044741299003362656,-0.13096630573272705,0.10582083463668823),(-0.014589732512831688,-0.13766741752624512,0.10701083391904831),(0.017725914716720581,-0.13368052244186401,0.11051332205533981),(-0.20410780608654022,-0.015498636290431023,0.26576894521713257),(-0.1636626124382019,-0.096314474940299988,0.1082480251789093),(-0.13377468287944794,-0.10294634848833084,0.10877614468336105),(-0.15265351533889771,-0.093793697655200958,0.011224430985748768),(-0.16937419772148132,0.076907724142074585,0.31595915555953979),(-0.15337011218070984,0.049544818699359894,0.28985559940338135),(-0.14865180850028992,0.093517519533634186,0.30651676654815674),(-0.16377431154251099,-0.10027961432933807,0.13870854675769806),(-0.11478686332702637,-0.034975569695234299,0.25105983018875122),(0.043521422892808914,-0.12300311774015427,0.10708916932344437),(0.012256800197064877,0.023403245955705643,0.21289628744125366),(-0.13291558623313904,-0.1051483079791069,0.13866636157035828),(-0.10379643738269806,-0.10418801009654999,0.13867013156414032),(-0.072159551084041595,-0.10598598420619965,0.13868197798728943),(0.041295304894447327,-0.012358140200376511,0.22149606049060822),(-0.069730058312416077,0.05071665346622467,0.17057833075523376),(0.044103622436523438,-0.11485235393047333,0.1389354020357132),(-0.012848839163780212,0.038897763937711716,0.19625267386436462),(-0.12491617351770401,-0.0065954644232988358,0.30610641837120056),(-0.21816185116767883,-0.071009561419487,0.23081484436988831),(-0.16319760680198669,-0.09730113297700882,0.17360693216323853),(-0.10625968873500824,-0.096056446433067322,0.16729409992694855),(-0.13443931937217712,-0.099698133766651154,0.16496908664703369),(-0.16057015955448151,-0.11072415113449097,0.20291900634765625),(-0.12036575376987457,-0.0054943212307989597,0.25305065512657166),(-0.13388374447822571,0.01060246117413044,0.23326064646244049),(-0.036546412855386734,0.062771737575531006,0.35149842500686646),(-0.069866277277469635,0.035712990909814835,0.30528181791305542),(-0.1354479044675827,-0.087454982101917267,0.18423964083194733),(-0.1128912940621376,0.0065799690783023834,0.27190843224525452),(-0.049906931817531586,0.049813330173492432,0.32559448480606079),(-0.13573843240737915,-0.1000068187713623,-7.4505805969238281E-09),(0.012352395802736282,-0.10153196752071381,-7.4505805969238281E-09),(-0.10293032974004745,-0.098727613687515259,-7.4505805969238281E-09),(-0.15838310122489929,0.035397697240114212,0.1677623987197876),(0.0585155189037323,-0.088726907968521118,0.016925729811191559),(-0.20223616063594818,-0.044089179486036301,0.10778012126684189),(0.12652799487113953,-0.042484518140554428,0.031791392713785172),(0.044511586427688599,-0.11149084568023682,0.045238800346851349),(0.01788577064871788,0.035926546901464462,0.19932875037193298),(0.068533472716808319,-0.097868926823139191,0.053336590528488159),(0.13848847150802612,-0.043241940438747406,0.049372870475053787),(0.04065655916929245,0.062880277633666992,0.13853690028190613),(0.08718118816614151,-0.087038710713386536,0.13869482278823853),(-0.050523392856121063,0.030018245801329613,0.31342664361000061),(0.043532431125640869,-0.11996390670537949,0.079212188720703125),(0.072314232587814331,-0.10066010802984238,0.080147109925746918),(0.088067606091499329,-0.086207315325737,0.078484445810317993),(0.1362769603729248,-0.040564406663179398,0.078633114695549011),(0.073530144989490509,0.046280417591333389,0.10518267005681992),(-0.18078358471393585,0.12027263641357422,0.33598318696022034),(-0.15580202639102936,-0.042164009064435959,0.062247276306152344),(-0.19245125353336334,-0.073251098394393921,0.11268609017133713),(0.031357906758785248,0.024013934656977654,0.20878469944000244),(0.072888366878032684,-0.10351349413394928,0.10735029727220535),(0.08850020170211792,-0.088567949831485748,0.10573930293321609),(0.10079020261764526,-0.071325965225696564,0.10683286935091019),(0.10943994671106339,-0.042697813361883163,0.10730064660310745),(-0.18864569067955017,-0.016788497567176819,0.086734533309936523),(-0.070942811667919159,0.03520163893699646,0.19365206360816956),(-0.035719040781259537,0.061507299542427063,0.33572423458099365),(0.044791128486394882,0.014411862939596176,-7.4505805969238281E-09),(0.036986086517572403,0.036982819437980652,-7.4505805969238281E-09),(0.046112943440675735,-0.074882104992866516,-7.4505805969238281E-09),(0.10403165966272354,-0.013561108149588108,0.01488045509904623),(0.0986066535115242,0.0066530667245388031,0.027150843292474747),(0.1039605587720871,-0.042054206132888794,0.015069351531565189),(0.12187493592500687,-0.014796282164752483,0.028262229636311531),(0.069623030722141266,0.034055586904287338,0.16897678375244141),(0.072920307517051697,0.015480482019484043,0.022627830505371094),(-0.044537633657455444,0.074140913784503937,0.13918834924697876),(0.046685803681612015,0.046007610857486725,0.019281636923551559),(0.13246268033981323,-0.014768385328352451,0.079218864440917969),(0.12397219985723495,0.0051988400518894196,0.047179434448480606),(0.13483801484107971,-0.013569315895438194,0.047754302620887756),(0.1015574187040329,0.015084236860275269,0.0500984787940979),(-0.15144678950309753,0.12579809129238129,0.31827211380004883),(0.082670360803604126,0.023927254602313042,0.046425729990005493),(0.069340810179710388,0.043576501309871674,0.050089370459318161),(-0.042087167501449585,0.038013186305761337,0.19347192347049713),(-0.097103200852870941,0.061664186418056488,-7.4505805969238281E-09),(-0.013096379116177559,0.064698226749897003,0.019751517102122307),(-0.1571195125579834,0.0080316737294197083,-7.4505805969238281E-09),(0.11360251903533936,-0.013203741982579231,0.087900876998901367),(-0.069912314414978027,0.066078893840312958,0.019136946648359299),(0.038932818919420242,0.035146746784448624,0.19437369704246521),(0.076898850500583649,0.042041316628456116,0.078833237290382385),(0.10157422721385956,0.013449816964566708,0.077325016260147095),(0.12308096140623093,0.0039535481482744217,0.069424629211425781),(-0.21196043491363525,-0.10220083594322205,0.22435654699802399),(0.11018155515193939,-0.013625593855977058,0.10919634252786636),(-0.10228259861469269,0.041438359767198563,0.019612405449151993),(-0.17244529724121094,0.11539913713932037,0.34077101945877075),(-0.18104864656925201,0.11236915737390518,0.34296378493309021),(0.072526499629020691,-0.015285339206457138,0.20031921565532684),(-0.18397887051105499,0.070939481258392334,0.31767681241035461),(-0.15302838385105133,-0.038465742021799088,-7.4505805969238281E-09),(-0.15463718771934509,-0.069122225046157837,-7.4505805969238281E-09),(-0.15276530385017395,-0.073851056396961212,0.01526205986738205),(-0.15324869751930237,-0.091928474605083466,-7.4505805969238281E-09),(-0.16192090511322021,-0.014530248008668423,-7.4505805969238281E-09),(-0.16107626259326935,-0.014927181415259838,0.017303576692938805),(-0.139386385679245,-0.0480194091796875,0.020143253728747368),(-0.15407682955265045,-0.033625885844230652,0.015456427820026875),(-0.14174792170524597,-0.01585470512509346,0.028887439519166946),(-0.056374344974756241,-0.10899654030799866,0.073737934231758118),(-0.04616917297244072,0.089076623320579529,0.11014620214700699),(-0.014641504734754562,0.051242686808109283,-7.4505805969238281E-09),(-0.1565081775188446,0.0087232589721679688,0.01277476642280817),(-0.093249447643756866,0.062288671731948853,0.015721501782536507),(-0.13424199819564819,0.01805158331990242,0.022032404318451881),(-0.07546195387840271,0.045553155243396759,0.050916288048028946),(-0.1037018746137619,0.027351761236786842,0.051787473261356354),(-0.13106697797775269,0.01152490172535181,0.052403893321752548),(-0.062931016087532043,0.069223217666149139,0.053641617298126221),(-0.13233558833599091,0.032287292182445526,0.19751612842082977),(-0.045288898050785065,0.076020397245883942,0.047217298299074173),(-0.16392612457275391,0.014242091216146946,0.082317456603050232),(-0.17469170689582825,-0.013590028509497643,0.073650918900966644),(-0.048640221357345581,0.084989830851554871,0.078817538917064667),(-0.068951070308685303,0.070248566567897797,0.078427933156490326),(-0.081015311181545258,0.049158450216054916,0.074898481369018555),(-0.042974967509508133,0.06176198273897171,-7.4505805969238281E-09),(0.034993737936019897,0.0064220409840345383,0.21914182603359222),(-0.2023230642080307,-0.012263130396604538,0.10920864343643188),(-0.18864616751670837,0.01489549782127142,0.10868358612060547),(-0.074405290186405182,0.073566257953643799,0.10622222721576691),(-0.16172915697097778,0.038199100643396378,0.10816650837659836),(-0.10400860011577606,0.045392945408821106,-7.4505805969238281E-09),(0.038838986307382584,0.0702219158411026,0.10972835123538971),(-0.041257582604885101,0.068883657455444336,0.020463420078158379),(-0.13260015845298767,0.016268383711576462,-7.4505805969238281E-09),(0.041938424110412598,0.064372353255748749,0.048734202980995178),(-0.023075569421052933,0.090297073125839233,0.1067967414855957),(0.012268561869859695,0.050309188663959503,-7.4505805969238281E-09),(0.04200294241309166,0.06809718906879425,0.078996323049068451),(-0.013217585161328316,0.0062548909336328506,0.22230856120586395),(0.014672304503619671,0.0072375703603029251,0.22327166795730591),(0.072014905512332916,-0.012049002572894096,0.002315472811460495),(0.013688700273633003,0.064237922430038452,0.026222294196486473),(0.033619936555624008,0.0599825419485569,0.030163124203681946),(0.015684610232710838,0.072612270712852478,0.049756746739149094),(-0.013997345231473446,0.076657921075820923,0.047489698976278305),(-0.016660183668136597,0.085770584642887115,0.079043559730052948),(0.012741612270474434,0.078784503042697906,0.077618442475795746),(-0.13732506334781647,0.022299863398075104,0.070947006344795227),(-0.10306135565042496,0.039231970906257629,0.082869827747344971),(-0.13301573693752289,0.03873911127448082,0.090441502630710602),(-0.1519310474395752,0.032119162380695343,0.087871745228767395),(0.012586923316121101,0.080663256347179413,0.10574278980493546),(-0.09957420825958252,0.049370177090167999,0.10623229295015335),(-0.074660375714302063,0.065608516335487366,-7.4505805969238281E-09),(0.012295331805944443,0.017735980451107025,-7.4505805969238281E-09),(-0.014693447388708591,0.026271101087331772,-7.4505805969238281E-09),(-0.042937453836202621,0.029865169897675514,-7.4505805969238281E-09),(-0.10321593284606934,0.013783566653728485,-7.4505805969238281E-09),(0.04444224014878273,-0.012983635067939758,-7.4505805969238281E-09),(-0.074651889503002167,0.0316607765853405,-7.4505805969238281E-09),(0.012301836162805557,-0.012787679210305214,-7.4505805969238281E-09),(-0.01472150906920433,-0.013324287720024586,-7.4505805969238281E-09),(-0.10143004357814789,-0.014748100191354752,-7.4505805969238281E-09),(-0.042921368032693863,-0.015100215561687946,-7.4505805969238281E-09),(-0.13263094425201416,-0.01343875378370285,-7.4505805969238281E-09),(-0.074647501111030579,-0.011157926172018051,-7.4505805969238281E-09),(0.046194959431886673,-0.048381853848695755,-7.4505805969238281E-09),(0.012302856892347336,-0.043156564235687256,-7.4505805969238281E-09),(0.067694336175918579,-0.043998412787914276,0.0021392127964645624),(-0.01472146064043045,-0.041930451989173889,-7.4505805969238281E-09),(-0.042921368032693863,-0.042623061686754227,-7.4505805969238281E-09),(-0.13439185917377472,-0.042099572718143463,-7.4505805969238281E-09),(0.012300323694944382,-0.071424052119255066,-7.4505805969238281E-09),(-0.014721766114234924,-0.07199406623840332,-7.4505805969238281E-09),(-0.074647709727287292,-0.069838128983974457,-7.4505805969238281E-09),(-0.042921368032693863,-0.07219289243221283,-7.4505805969238281E-09),(-0.10114423185586929,-0.071869701147079468,-7.4505805969238281E-09),(0.034795064479112625,-0.096686989068984985,-7.4505805969238281E-09),(-0.13206708431243896,-0.072001732885837555,-7.4505805969238281E-09),(-0.15954878926277161,-0.012505068443715572,0.061868898570537567),(-0.016907110810279846,-0.10748592764139175,-7.4505805969238281E-09),(-0.07463943213224411,-0.10357671976089478,-7.4505805969238281E-09),(-0.042875751852989197,-0.10599634051322937,-7.4505805969238281E-09),(-0.074647486209869385,-0.041812736541032791,-7.4505805969238281E-09),(-0.10128894448280334,-0.04565112292766571,-7.4505805969238281E-09),(0.061871238052845001,0.024527154862880707,0.19157718122005463),(-0.047021679580211639,0.041471593081951141,0.34433230757713318),(-0.035100199282169342,0.058260396122932434,0.35213139653205872),(-0.043320570141077042,0.042272530496120453,0.32572698593139648),(-0.033287845551967621,0.056865319609642029,0.33487105369567871),(-0.078228592872619629,0.010980136692523956,0.33427751064300537),(-0.061219789087772369,0.018510393798351288,0.30783212184906006),(-0.087691977620124817,0.026863783597946167,0.33381503820419312),(-0.075094908475875854,-0.0015898998826742172,0.21651217341423035),(-0.043258458375930786,0.00072463066317141056,0.21738417446613312)));
#950=IFCPOLYGONALFACESET(#949,.F.,(#236,#237,#238,#239,#240,#241,#242,#243,#244,#245,#246,#247,#248,#249,#250,#251,#252,#253,#254,#255,#256,#257,#258,#259,#260,#261,#262,#263,#264,#265,#266,#267,#268,#269,#270,#271,#272,#273,#274,#275,#276,#277,#278,#279,#280,#281,#282,#283,#284,#285,#286,#287,#288,#289,#290,#291,#292,#293,#294,#295,#296,#297,#298,#299,#300,#301,#302,#303,#304,#305,#306,#307,#308,#309,#310,#311,#312,#313,#314,#315,#316,#317,#318,#319,#320,#321,#322,#323,#324,#325,#326,#327,#328,#329,#330,#331,#332,#333,#334,#335,#336,#337,#338,#339,#340,#341,#342,#343,#344,#345,#346,#347,#348,#349,#350,#351,#352,#353,#354,#355,#356,#357,#358,#359,#360,#361,#362,#363,#364,#365,#366,#367,#368,#369,#370,#371,#372,#373,#374,#375,#376,#377,#378,#379,#380,#381,#382,#383,#384,#385,#386,#387,#388,#389,#390,#391,#392,#393,#394,#395,#396,#397,#398,#399,#400,#401,#402,#403,#404,#405,#406,#407,#408,#409,#410,#411,#412,#413,#414,#415,#416,#417,#418,#419,#420,#421,#422,#423,#424,#425,#426,#427,#428,#429,#430,#431,#432,#433,#434,#435,#436,#437,#438,#439,#440,#441,#442,#443,#444,#445,#446,#447,#448,#449,#450,#451,#452,#453,#454,#455,#456,#457,#458,#459,#460,#461,#462,#463,#464,#465,#466,#467,#468,#469,#470,#471,#472,#473,#474,#475,#476,#477,#478,#479,#480,#481,#482,#483,#484,#485,#486,#487,#488,#489,#490,#491,#492,#493,#494,#495,#496,#497,#498,#499,#500,#501,#502,#503,#504,#505,#506,#507,#508,#509,#510,#511,#512,#513,#514,#515,#516,#517,#518,#519,#520,#521,#522,#523,#524,#525,#526,#527,#528,#529,#530,#531,#532,#533,#534,#535,#536,#537,#538,#539,#540,#541,#542,#543,#544,#545,#546,#547,#548,#549,#550,#551,#552,#553,#554,#555,#556,#557,#558,#559,#560,#561,#562,#563,#564,#565,#566,#567,#568,#569,#570,#571,#572,#573,#574,#575,#576,#577,#578,#579,#580,#581,#582,#583,#584,#585,#586,#587,#588,#589,#590,#591,#592,#593,#594,#595,#596,#597,#598,#599,#600,#601,#602,#603,#604,#605,#606,#607,#608,#609,#610,#611,#612,#613,#614,#615,#616,#617,#618,#619,#620,#621,#622,#623,#624,#625,#626,#627,#628,#629,#630,#631,#632,#633,#634,#635,#636,#637,#638,#639,#640,#641,#642,#643,#644,#645,#646,#647,#648,#649,#650,#651,#652,#653,#654,#655,#656,#657,#658,#659,#660,#661,#662,#663,#664,#665,#666,#667,#668,#669,#670,#671,#672,#673,#674,#675,#676,#677,#678,#679,#680,#681,#682,#683,#684,#685,#686,#687,#688,#689,#690,#691,#692,#693,#694,#695,#696,#697,#698,#699,#700,#701,#702,#703,#704,#705,#706,#707,#708,#709,#710,#711,#712,#713,#714,#715,#716,#717,#718,#719,#720,#721,#722,#723,#724,#725,#726,#727,#728,#729,#730,#731,#732,#733,#734,#735,#736,#737,#738,#739,#740,#741,#742,#743,#744,#745,#746,#747,#748,#749,#750,#751,#752,#753,#754,#755,#756,#757,#758,#759,#760,#761,#762,#763,#764,#765,#766,#767,#768,#769,#770,#771,#772,#773,#774,#775,#776,#777,#778,#779,#780,#781,#782,#783,#784,#785,#786,#787,#788,#789,#790,#791,#792,#793,#794,#795,#796,#797,#798,#799,#800,#801,#802,#803,#804,#805,#806,#807,#808,#809,#810,#811,#812,#813,#814,#815,#816,#817,#818,#819,#820,#821,#822,#823,#824,#825,#826,#827,#828,#829,#830,#831,#832,#833,#834,#835,#836,#837,#838,#839,#840,#841,#842,#843,#844,#845,#846,#847,#848,#849,#850,#851,#852,#853,#854,#855,#856,#857,#858,#859,#860,#861,#862,#863,#864,#865,#866,#867,#868,#869,#870,#871,#872,#873,#874,#875,#876,#877,#878,#879,#880,#881,#882,#883,#884,#885,#886,#887,#888,#889,#890,#891,#892,#893,#894,#895,#896,#897,#898,#899,#900,#901,#902,#903,#904,#905,#906,#907,#908,#909,#910,#911,#912,#913,#914,#915,#916,#917,#918,#919,#920,#921,#922,#923,#924,#925,#926,#927,#928,#929,#930,#931,#932,#933,#934,#935,#936,#937,#938,#939,#940,#941,#942,#943,#944,#945,#946,#947,#948),$);
#951=IFCSHAPEREPRESENTATION(#17,'Body','Tessellation',(#950));
#952=IFCCARTESIANPOINT((0.,0.,0.));
#953=IFCDIRECTION((1.,0.,0.));
#954=IFCDIRECTION((0.,0.,1.));
#955=IFCAXIS2PLACEMENT3D(#952,#954,#953);
#956=IFCREPRESENTATIONMAP(#955,#951);
#957=IFCCARTESIANPOINTLIST2D(((-0.16138637065887451,0.00039007142186164856),(-0.16297847032546997,0.030639871954917908),(-0.15291450917720795,0.057619865983724594),(-0.14871649444103241,0.079577423632144928),(-0.14939200878143311,0.10206690430641174),(-0.15144681930541992,0.12579809129238129),(-0.15758013725280762,0.13261689245700836),(-0.16909050941467285,0.13041937351226807),(-0.18084418773651123,0.11846575886011124),(-0.18205273151397705,0.090630009770393372),(-0.18383193016052246,0.055283334106206894),(-0.18368494510650635,0.039627186954021454),(-0.19272436201572418,-0.0046748407185077667)));
#958=IFCINDEXEDPOLYCURVE(#957,$,$);
#959=IFCCARTESIANPOINTLIST2D(((-0.17334897816181183,0.020354844629764557),(-0.16315957903862,0.061749301850795746),(-0.15742804110050201,0.097412213683128357),(-0.16507010161876678,0.11906469613313675)));
#960=IFCINDEXEDPOLYCURVE(#959,$,$);
#961=IFCCARTESIANPOINTLIST2D(((-0.1604561060667038,0.037401944398880005),(-0.13022089004516602,0.047908123582601547),(-0.097748041152954102,0.054015122354030609),(-0.074405312538146973,0.073566257953643799),(-0.037302732467651367,0.089545197784900665),(-0.0052443146705627441,0.085480168461799622),(0.044999957084655762,0.068915322422981262),(0.076898872852325439,0.042041316628456116),(0.10000002384185791,0.020000003278255463),(0.11253142356872559,-0.013411968946456909),(0.11093932390213013,-0.04153897613286972),(0.10191744565963745,-0.074442259967327118),(0.12868034839630127,-0.063855491578578949),(0.13848847150802612,-0.043241940438747406),(0.13483798503875732,-0.013569317758083344),(0.12397217750549316,0.005198843777179718),(0.10000002384185791,0.020000003278255463)));
#962=IFCINDEXEDPOLYCURVE(#961,$,$);
#963=IFCCARTESIANPOINTLIST2D(((-0.041328907012939453,0.060599461197853088),(-0.055480837821960449,0.046889759600162506),(-0.078035593032836914,0.03671804815530777),(-0.099263548851013184,0.018585853278636932),(-0.13641238212585449,0.0044339001178741455)));
#964=IFCINDEXEDPOLYCURVE(#963,$,$);
#965=IFCCARTESIANPOINTLIST2D(((-0.14391028881072998,0.0084718838334083557),(-0.12702083587646484,0.023335754871368408),(-0.09957420825958252,0.049370177090167999),(-0.068585038185119629,0.068806946277618408),(-0.029643118381500244,0.076339155435562134),(-0.026734709739685059,0.071213424205780029),(-0.033810734748840332,0.058388218283653259),(-0.058576583862304688,0.019028104841709137),(-0.10368597507476807,-0.0079490616917610168),(-0.13066315650939941,-0.014582782983779907)));
#966=IFCINDEXEDPOLYCURVE(#965,$,$);
#967=IFCCARTESIANPOINTLIST2D(((0.10191744565963745,-0.074442259967327118),(0.077632784843444824,-0.098971568048000336),(0.043521404266357422,-0.12300311774015427),(-0.0018750429153442383,-0.13609877228736877),(-0.044741272926330566,-0.13096630573272705),(-0.075568199157714844,-0.1056242510676384),(-0.11444731801748276,-0.10323779284954071),(-0.14834499359130859,-0.10271396487951279),(-0.12938737869262695,-0.083772622048854828),(-0.11208999156951904,-0.052320875227451324)));
#968=IFCINDEXEDPOLYCURVE(#967,$,$);
#969=IFCCARTESIANPOINTLIST2D(((-0.14834499359130859,-0.10271396487951279),(-0.16057014465332031,-0.11072414368391037),(-0.1875416487455368,-0.11734630912542343),(-0.20576834678649902,-0.106695257127285),(-0.21428406238555908,-0.090513281524181366),(-0.22201275825500488,-0.043585158884525299),(-0.21763527393341064,-0.023688860237598419),(-0.18934997916221619,0.011862918734550476)));
#970=IFCINDEXEDPOLYCURVE(#969,$,$);
#971=IFCGEOMETRICCURVESET((#958,#960,#962,#964,#966,#968,#970));
#972=IFCSHAPEREPRESENTATION(#18,'Body','Annotation2D',(#971));
#973=IFCCARTESIANPOINT((0.,0.,0.));
#974=IFCDIRECTION((1.,0.,0.));
#975=IFCDIRECTION((0.,0.,1.));
#976=IFCAXIS2PLACEMENT3D(#973,#975,#974);
#977=IFCREPRESENTATIONMAP(#976,#972);
#978=IFCTYPEPRODUCT('0UrP0fLdD5OwzwD41aRKao',$,'SETOUT-POINT',$,'IfcAnnotation/SYMBOL',(#979),$,$);
#979=IFCPROPERTYSET('27lmSbeAXC08EWkEq8XdUG',$,'EPset_Annotation',$,(#980));
#980=IFCPROPERTYSINGLEVALUE('Symbol',$,IFCLABEL('setout-point'),$);
#981=IFCTYPEPRODUCT('3IQrQOSFP0WfkuLk0ak7_0',$,'CONTROL-POINT',$,'IfcAnnotation/SYMBOL',(#982),$,$);
#982=IFCPROPERTYSET('23aN9DsdjFcfWq8KGSIVoN',$,'EPset_Annotation',$,(#983));
#983=IFCPROPERTYSINGLEVALUE('Symbol',$,IFCLABEL('control-point'),$);
#984=IFCTYPEPRODUCT('3wvbaiaIz8agQgDRzt01vz',$,'TRAVERSE-POINT',$,'IfcAnnotation/SYMBOL',(#985),$,$);
#985=IFCPROPERTYSET('1j7aFM1Rb9BRuKgUEn1U10',$,'EPset_Annotation',$,(#986));
#986=IFCPROPERTYSINGLEVALUE('Symbol',$,IFCLABEL('traverse-point'),$);
#987=IFCTYPEPRODUCT('0p5ZTfTnX9ZOywroa7Ffql',$,'DASHED',$,'IfcAnnotation/LINEWORK',(#988),$,$);
#988=IFCPROPERTYSET('27smSHyiv39vhBRSwfDVCD',$,'EPset_Annotation',$,(#989));
#989=IFCPROPERTYSINGLEVALUE('Classes',$,IFCLABEL('dashed'),$);
#990=IFCTYPEPRODUCT('2EvrG9Vuf6t9etgMeWFuJ2',$,'FINE',$,'IfcAnnotation/LINEWORK',(#991),$,$);
#991=IFCPROPERTYSET('0gVTuDcZ5ByRdR3sZnEZUR',$,'EPset_Annotation',$,(#992));
#992=IFCPROPERTYSINGLEVALUE('Classes',$,IFCLABEL('fine'),$);
#993=IFCTYPEPRODUCT('0IeM1ywXn1qhR_6NhB6N4s',$,'THIN',$,'IfcAnnotation/LINEWORK',(#994),$,$);
#994=IFCPROPERTYSET('0t6c$uCeT9092GYkbm8hDS',$,'EPset_Annotation',$,(#995));
#995=IFCPROPERTYSINGLEVALUE('Classes',$,IFCLABEL('thin'),$);
#996=IFCTYPEPRODUCT('1jZVbCwrTCGhZdKbH4uqTP',$,'MEDIUM',$,'IfcAnnotation/LINEWORK',(#997),$,$);
#997=IFCPROPERTYSET('2uTJ11lF98GeN8pPIf340N',$,'EPset_Annotation',$,(#998));
#998=IFCPROPERTYSINGLEVALUE('Classes',$,IFCLABEL('medium'),$);
#999=IFCTYPEPRODUCT('38zW9E1uH2ae$zat9KrieS',$,'THICK',$,'IfcAnnotation/LINEWORK',(#1000),$,$);
#1000=IFCPROPERTYSET('2XQxgO16v9vxjvuIJpaPpG',$,'EPset_Annotation',$,(#1001));
#1001=IFCPROPERTYSINGLEVALUE('Classes',$,IFCLABEL('thick'),$);
#1002=IFCTYPEPRODUCT('3G2s7ZLzfDJh5J$2iIzHw9',$,'STRONG',$,'IfcAnnotation/LINEWORK',(#1003),$,$);
#1003=IFCPROPERTYSET('0TcB8Gal96vebTrLWa5CEw',$,'EPset_Annotation',$,(#1004));
#1004=IFCPROPERTYSINGLEVALUE('Classes',$,IFCLABEL('strong'),$);
#1005=IFCTYPEPRODUCT('3pq2B$0k52ZOv2bFuRYkxO',$,'SETOUT-TAG',$,'IfcAnnotation/TEXT',(#1006),(#1025),$);
#1006=IFCPROPERTYSET('39$oNFI052cBhtpZCVVLfj',$,'EPset_Annotation',$,(#1007));
#1007=IFCPROPERTYSINGLEVALUE('Symbol',$,IFCLABEL('setout-tag'),$);
#1008=IFCCARTESIANPOINT((0.,0.,0.));
#1009=IFCDIRECTION((0.,0.,1.));
#1010=IFCDIRECTION((1.,0.,0.));
#1011=IFCAXIS2PLACEMENT3D(#1008,#1009,#1010);
#1012=IFCPLANAREXTENT(1000.,1000.);
#1013=IFCTEXTLITERALWITHEXTENT('E ``round({{easting}}, 0.001)``',#1011,.RIGHT.,#1012,'center');
#1014=IFCCARTESIANPOINT((0.,0.,0.));
#1015=IFCDIRECTION((0.,0.,1.));
#1016=IFCDIRECTION((1.,0.,0.));
#1017=IFCAXIS2PLACEMENT3D(#1014,#1015,#1016);
#1018=IFCPLANAREXTENT(1000.,1000.);
#1019=IFCTEXTLITERALWITHEXTENT('N ``round({{northing}}, 0.001)``',#1017,.RIGHT.,#1018,'center');
#1020=IFCSHAPEREPRESENTATION(#19,'Annotation','Annotation2D',(#1013,#1019));
#1021=IFCCARTESIANPOINT((0.,0.,0.));
#1022=IFCDIRECTION((1.,0.,0.));
#1023=IFCDIRECTION((0.,0.,1.));
#1024=IFCAXIS2PLACEMENT3D(#1021,#1023,#1022);
#1025=IFCREPRESENTATIONMAP(#1024,#1020);
#1026=IFCTYPEPRODUCT('11M3ahhrr9NBdB29YEazzw',$,'DOOR-TAG',$,'IfcAnnotation/TEXT',(#1027),(#1046),$);
#1027=IFCPROPERTYSET('3xUNoLKPT9kB4LMdoctm5k',$,'EPset_Annotation',$,(#1028));
#1028=IFCPROPERTYSINGLEVALUE('Symbol',$,IFCLABEL('door-tag'),$);
#1029=IFCCARTESIANPOINT((0.,0.,0.));
#1030=IFCDIRECTION((0.,0.,1.));
#1031=IFCDIRECTION((1.,0.,0.));
#1032=IFCAXIS2PLACEMENT3D(#1029,#1030,#1031);
#1033=IFCPLANAREXTENT(1000.,1000.);
#1034=IFCTEXTLITERALWITHEXTENT('{{type.Name}}',#1032,.RIGHT.,#1033,'center');
#1035=IFCCARTESIANPOINT((0.,0.,0.));
#1036=IFCDIRECTION((0.,0.,1.));
#1037=IFCDIRECTION((1.,0.,0.));
#1038=IFCAXIS2PLACEMENT3D(#1035,#1036,#1037);
#1039=IFCPLANAREXTENT(1000.,1000.);
#1040=IFCTEXTLITERALWITHEXTENT('{{Name}}',#1038,.RIGHT.,#1039,'center');
#1041=IFCSHAPEREPRESENTATION(#19,'Annotation','Annotation2D',(#1034,#1040));
#1042=IFCCARTESIANPOINT((0.,0.,0.));
#1043=IFCDIRECTION((1.,0.,0.));
#1044=IFCDIRECTION((0.,0.,1.));
#1045=IFCAXIS2PLACEMENT3D(#1042,#1044,#1043);
#1046=IFCREPRESENTATIONMAP(#1045,#1041);
#1047=IFCTYPEPRODUCT('1eE8Y$BVDFDgG8Fj6d9wiV',$,'WINDOW-TAG',$,'IfcAnnotation/TEXT',(#1048),(#1061),$);
#1048=IFCPROPERTYSET('2MqzSGkXDBcPSolaAQvYO4',$,'EPset_Annotation',$,(#1049));
#1049=IFCPROPERTYSINGLEVALUE('Symbol',$,IFCLABEL('window-tag'),$);
#1050=IFCCARTESIANPOINT((0.,0.,0.));
#1051=IFCDIRECTION((0.,0.,1.));
#1052=IFCDIRECTION((1.,0.,0.));
#1053=IFCAXIS2PLACEMENT3D(#1050,#1051,#1052);
#1054=IFCPLANAREXTENT(1000.,1000.);
#1055=IFCTEXTLITERALWITHEXTENT('{{Name}}',#1053,.RIGHT.,#1054,'center');
#1056=IFCSHAPEREPRESENTATION(#19,'Annotation','Annotation2D',(#1055));
#1057=IFCCARTESIANPOINT((0.,0.,0.));
#1058=IFCDIRECTION((1.,0.,0.));
#1059=IFCDIRECTION((0.,0.,1.));
#1060=IFCAXIS2PLACEMENT3D(#1057,#1059,#1058);
#1061=IFCREPRESENTATIONMAP(#1060,#1056);
#1062=IFCTYPEPRODUCT('0vvfHSiaPBxewA$32C4LdW',$,'SPACE-TAG',$,'IfcAnnotation/TEXT',(#1063),(#1088),$);
#1063=IFCPROPERTYSET('2zKuFdTPj3DhNdQ0U2kd5u',$,'EPset_Annotation',$,(#1064));
#1064=IFCPROPERTYSINGLEVALUE('Symbol',$,IFCLABEL('space-tag'),$);
#1065=IFCCARTESIANPOINT((0.,0.,0.));
#1066=IFCDIRECTION((0.,0.,1.));
#1067=IFCDIRECTION((1.,0.,0.));
#1068=IFCAXIS2PLACEMENT3D(#1065,#1066,#1067);
#1069=IFCPLANAREXTENT(1000.,1000.);
#1070=IFCTEXTLITERALWITHEXTENT('{{Name}}',#1068,.RIGHT.,#1069,'center');
#1071=IFCCARTESIANPOINT((0.,0.,0.));
#1072=IFCDIRECTION((0.,0.,1.));
#1073=IFCDIRECTION((1.,0.,0.));
#1074=IFCAXIS2PLACEMENT3D(#1071,#1072,#1073);
#1075=IFCPLANAREXTENT(1000.,1000.);
#1076=IFCTEXTLITERALWITHEXTENT('{{Description}}',#1074,.RIGHT.,#1075,'center');
#1077=IFCCARTESIANPOINT((0.,0.,0.));
#1078=IFCDIRECTION((0.,0.,1.));
#1079=IFCDIRECTION((1.,0.,0.));
#1080=IFCAXIS2PLACEMENT3D(#1077,#1078,#1079);
#1081=IFCPLANAREXTENT(1000.,1000.);
#1082=IFCTEXTLITERALWITHEXTENT('``round({{Qto_SpaceBaseQuantities.NetFloorArea}}, 0.01)``',#1080,.RIGHT.,#1081,'center');
#1083=IFCSHAPEREPRESENTATION(#19,'Annotation','Annotation2D',(#1070,#1076,#1082));
#1084=IFCCARTESIANPOINT((0.,0.,0.));
#1085=IFCDIRECTION((1.,0.,0.));
#1086=IFCDIRECTION((0.,0.,1.));
#1087=IFCAXIS2PLACEMENT3D(#1084,#1086,#1085);
#1088=IFCREPRESENTATIONMAP(#1087,#1083);
#1089=IFCTYPEPRODUCT('36lTcd9yT8UBNDejQUNWrq',$,'MATERIAL-TAG',$,'IfcAnnotation/TEXT',(#1090),(#1103),$);
#1090=IFCPROPERTYSET('1x86VNVk1Drwe5XOj$GZX3',$,'EPset_Annotation',$,(#1091));
#1091=IFCPROPERTYSINGLEVALUE('Symbol',$,IFCLABEL('rectangle-tag'),$);
#1092=IFCCARTESIANPOINT((0.,0.,0.));
#1093=IFCDIRECTION((0.,0.,1.));
#1094=IFCDIRECTION((1.,0.,0.));
#1095=IFCAXIS2PLACEMENT3D(#1092,#1093,#1094);
#1096=IFCPLANAREXTENT(1000.,1000.);
#1097=IFCTEXTLITERALWITHEXTENT('{{material.Name}}',#1095,.RIGHT.,#1096,'center');
#1098=IFCSHAPEREPRESENTATION(#19,'Annotation','Annotation2D',(#1097));
#1099=IFCCARTESIANPOINT((0.,0.,0.));
#1100=IFCDIRECTION((1.,0.,0.));
#1101=IFCDIRECTION((0.,0.,1.));
#1102=IFCAXIS2PLACEMENT3D(#1099,#1101,#1100);
#1103=IFCREPRESENTATIONMAP(#1102,#1098);
#1104=IFCTYPEPRODUCT('1rxhEX6I16oPqglXaGZ7Sw',$,'TYPE-TAG',$,'IfcAnnotation/TEXT',(#1105),(#1118),$);
#1105=IFCPROPERTYSET('3BeqEbDzX0xORamqqSx_kZ',$,'EPset_Annotation',$,(#1106));
#1106=IFCPROPERTYSINGLEVALUE('Symbol',$,IFCLABEL('capsule-tag'),$);
#1107=IFCCARTESIANPOINT((0.,0.,0.));
#1108=IFCDIRECTION((0.,0.,1.));
#1109=IFCDIRECTION((1.,0.,0.));
#1110=IFCAXIS2PLACEMENT3D(#1107,#1108,#1109);
#1111=IFCPLANAREXTENT(1000.,1000.);
#1112=IFCTEXTLITERALWITHEXTENT('{{type.Name}}',#1110,.RIGHT.,#1111,'center');
#1113=IFCSHAPEREPRESENTATION(#19,'Annotation','Annotation2D',(#1112));
#1114=IFCCARTESIANPOINT((0.,0.,0.));
#1115=IFCDIRECTION((1.,0.,0.));
#1116=IFCDIRECTION((0.,0.,1.));
#1117=IFCAXIS2PLACEMENT3D(#1114,#1116,#1115);
#1118=IFCREPRESENTATIONMAP(#1117,#1113);
#1119=IFCTYPEPRODUCT('0sws1hxNb2Og1etXqyoEh1',$,'NAME-TAG',$,'IfcAnnotation/TEXT',(#1120),(#1133),$);
#1120=IFCPROPERTYSET('11L$PtdnX8LfYigzRZ$g0a',$,'EPset_Annotation',$,(#1121));
#1121=IFCPROPERTYSINGLEVALUE('Symbol',$,IFCLABEL('capsule-tag'),$);
#1122=IFCCARTESIANPOINT((0.,0.,0.));
#1123=IFCDIRECTION((0.,0.,1.));
#1124=IFCDIRECTION((1.,0.,0.));
#1125=IFCAXIS2PLACEMENT3D(#1122,#1123,#1124);
#1126=IFCPLANAREXTENT(1000.,1000.);
#1127=IFCTEXTLITERALWITHEXTENT('{{Name}}',#1125,.RIGHT.,#1126,'center');
#1128=IFCSHAPEREPRESENTATION(#19,'Annotation','Annotation2D',(#1127));
#1129=IFCCARTESIANPOINT((0.,0.,0.));
#1130=IFCDIRECTION((1.,0.,0.));
#1131=IFCDIRECTION((0.,0.,1.));
#1132=IFCAXIS2PLACEMENT3D(#1129,#1131,#1130);
#1133=IFCREPRESENTATIONMAP(#1132,#1128);
ENDSEC;
END-ISO-10303-21;
