<?xml version="1.0" encoding="UTF-8" standalone="no"?>
<svg
   inkscape:export-ydpi="153.60001"
   inkscape:export-xdpi="153.60001"
   inkscape:export-filename="../Projects/ifcopenshell/src/bonsai/docs/images/icon-FILE_CACHE.svg"
   style="display:inline;enable-background:new"
   inkscape:output_extension="org.inkscape.output.svg.inkscape"
   sodipodi:docname="blender_icons.svg"
   version="1.0"
   inkscape:version="1.2 (dc2aeda, 2022-05-15)"
   sodipodi:version="0.32"
   id="svg2"
   height="20"
   width="20"
   xmlns:inkscape="http://www.inkscape.org/namespaces/inkscape"
   xmlns:sodipodi="http://sodipodi.sourceforge.net/DTD/sodipodi-0.dtd"
   xmlns="http://www.w3.org/2000/svg"
   xmlns:svg="http://www.w3.org/2000/svg"
   xmlns:rdf="http://www.w3.org/1999/02/22-rdf-syntax-ns#"
   xmlns:cc="http://creativecommons.org/ns#"
   xmlns:dc="http://purl.org/dc/elements/1.1/">
  <metadata
     id="metadata34337">
    <rdf:RDF>
      <cc:Work
         rdf:about="">
        <dc:format>image/svg+xml</dc:format>
        <dc:type
           rdf:resource="http://purl.org/dc/dcmitype/StillImage" />
      </cc:Work>
    </rdf:RDF>
  </metadata>
  <sodipodi:namedview
     inkscape:pagecheckerboard="true"
     inkscape:document-rotation="0"
     pagecolor="#808080"
     bordercolor="#666666"
     borderopacity="1"
     objecttolerance="10"
     gridtolerance="10"
     guidetolerance="10"
     inkscape:pageopacity="0"
     inkscape:pageshadow="2"
     inkscape:window-width="1728"
     inkscape:window-height="1051"
     id="namedview34335"
     showgrid="false"
     inkscape:zoom="1.2495612"
     inkscape:cx="196.46897"
     inkscape:cy="320.51252"
     inkscape:window-x="767"
     inkscape:window-y="120"
     inkscape:window-maximized="0"
     inkscape:current-layer="layer8"
     inkscape:showpageshadow="2"
     inkscape:deskcolor="#808080" />
  <defs
     id="defs4" />
  <g
     inkscape:groupmode="layer"
     id="layer8"
     inkscape:label="icons"
     style="display:inline"
     transform="translate(-486,-50.000004)">
    <g
       inkscape:export-ydpi="96"
       inkscape:export-xdpi="96"
       inkscape:export-filename="blender_icons.png"
       style="display:inline;stroke:#ffffff;enable-background:new"
       id="g28228"
       transform="translate(-1)"
       inkscape:label="C-24">
      <g
         style="display:inline;opacity:0.99;stroke:#ffffff;enable-background:new"
         transform="translate(339,-440)"
         id="g28217">
        <path
           style="color:#000000;font-style:normal;font-variant:normal;font-weight:normal;font-stretch:normal;font-size:medium;line-height:normal;font-family:sans-serif;font-variant-ligatures:normal;font-variant-position:normal;font-variant-caps:normal;font-variant-numeric:normal;font-variant-alternates:normal;font-feature-settings:normal;text-indent:0;text-align:start;text-decoration:none;text-decoration-line:none;text-decoration-style:solid;text-decoration-color:#000000;letter-spacing:normal;word-spacing:normal;text-transform:none;writing-mode:lr-tb;direction:ltr;text-orientation:mixed;dominant-baseline:auto;baseline-shift:baseline;text-anchor:start;white-space:normal;shape-padding:0;clip-rule:nonzero;display:inline;overflow:visible;visibility:visible;opacity:1;isolation:auto;mix-blend-mode:normal;color-interpolation:sRGB;color-interpolation-filters:linearRGB;solid-color:#000000;solid-opacity:1;vector-effect:none;fill:#777777;fill-opacity:1;fill-rule:nonzero;stroke:none;stroke-width:1;stroke-linecap:round;stroke-linejoin:round;stroke-miterlimit:4;stroke-dasharray:none;stroke-dashoffset:0;stroke-opacity:1;color-rendering:auto;image-rendering:auto;shape-rendering:auto;text-rendering:auto;enable-background:accumulate"
           d="M 501.49219,52.992188 C 501.21604,52.996495 500.99568,53.223854 501,53.5 v 1 c -0.01,0.676161 1.00956,0.676161 1,0 v -1 c 0.004,-0.282265 -0.22554,-0.512227 -0.50781,-0.507812 z M 495.48438,53 c -0.12718,0.004 -0.248,0.0564 -0.3379,0.146484 l -5,5 c -0.10126,0.101337 -0.1304,0.223491 -0.13086,0.345704 L 490,58.507812 V 60.5 c -0.01,0.676161 1.00956,0.676161 1,0 V 59 h 4.5 c 0.27613,-3e-5 0.49997,-0.22387 0.5,-0.5 V 54 h 0.5 c 0.67616,0.0096 0.67616,-1.009563 0,-1 h -1 v 0.002 c -0.005,-5e-6 -0.0101,-0.0021 -0.0156,-0.002 z M 498.5,53 c -0.67616,-0.0096 -0.67616,1.009563 0,1 h 1 c 0.67616,0.0096 0.67616,-1.009563 0,-1 z m 2.99219,2.992188 C 501.21604,55.996495 500.99568,56.223854 501,56.5 v 1 c -0.01,0.676161 1.00956,0.676161 1,0 v -1 c 0.004,-0.282265 -0.22554,-0.512227 -0.50781,-0.507812 z m 0,3 C 501.21604,58.996495 500.99568,59.223854 501,59.5 v 1 c -0.01,0.676161 1.00956,0.676161 1,0 v -1 c 0.004,-0.282265 -0.22554,-0.512227 -0.50781,-0.507812 z m -11,3 C 490.21604,61.996495 489.99568,62.223854 490,62.5 v 1 c -0.01,0.676161 1.00956,0.676161 1,0 v -1 c 0.004,-0.282265 -0.22554,-0.512227 -0.50781,-0.507812 z m 11,0 C 501.21604,61.996495 500.99568,62.223854 501,62.5 v 1 c -0.01,0.676161 1.00956,0.676161 1,0 v -1 c 0.004,-0.282265 -0.22554,-0.512227 -0.50781,-0.507812 z m -11,3 C 490.21604,64.996494 489.99568,65.223854 490,65.5 v 1 c -0.01,0.676161 1.00956,0.676161 1,0 v -1 c 0.004,-0.282265 -0.22554,-0.512227 -0.50781,-0.507812 z m 11,0 C 501.21604,64.996494 500.99568,65.223854 501,65.5 v 1 c -0.01,0.676161 1.00956,0.676161 1,0 v -1 c 0.004,-0.282265 -0.22554,-0.512227 -0.50781,-0.507812 z M 492.5,66 c -0.67616,-0.0096 -0.67616,1.009563 0,1 h 1 c 0.67616,0.0096 0.67616,-1.009563 0,-1 z m 3,0 c -0.67616,-0.0096 -0.67616,1.009563 0,1 h 1 c 0.67616,0.0096 0.67616,-1.009563 0,-1 z m 3,0 c -0.67616,-0.0096 -0.67616,1.009563 0,1 h 1 c 0.67616,0.0096 0.67616,-1.009563 0,-1 z"
           transform="translate(-338,440)"
           id="path28215" />
      </g>
    </g>
  </g>
</svg>
