<?xml version="1.0" encoding="UTF-8" standalone="no"?>
<svg
   inkscape:export-ydpi="153.60001"
   inkscape:export-xdpi="153.60001"
   inkscape:export-filename="../Projects/ifcopenshell/src/bonsai/docs/images/location-breadcrumb.svg"
   style="display:inline;enable-background:new"
   inkscape:output_extension="org.inkscape.output.svg.inkscape"
   sodipodi:docname="blender_icons.svg"
   version="1.0"
   inkscape:version="1.2 (dc2aeda, 2022-05-15)"
   sodipodi:version="0.32"
   id="svg2"
   height="20"
   width="20"
   xmlns:inkscape="http://www.inkscape.org/namespaces/inkscape"
   xmlns:sodipodi="http://sodipodi.sourceforge.net/DTD/sodipodi-0.dtd"
   xmlns="http://www.w3.org/2000/svg"
   xmlns:svg="http://www.w3.org/2000/svg"
   xmlns:rdf="http://www.w3.org/1999/02/22-rdf-syntax-ns#"
   xmlns:cc="http://creativecommons.org/ns#"
   xmlns:dc="http://purl.org/dc/elements/1.1/">
  <metadata
     id="metadata34337">
    <rdf:RDF>
      <cc:Work
         rdf:about="">
        <dc:format>image/svg+xml</dc:format>
        <dc:type
           rdf:resource="http://purl.org/dc/dcmitype/StillImage" />
      </cc:Work>
    </rdf:RDF>
  </metadata>
  <sodipodi:namedview
     inkscape:pagecheckerboard="true"
     inkscape:document-rotation="0"
     pagecolor="#808080"
     bordercolor="#666666"
     borderopacity="1"
     objecttolerance="10"
     gridtolerance="10"
     guidetolerance="10"
     inkscape:pageopacity="0"
     inkscape:pageshadow="2"
     inkscape:window-width="1728"
     inkscape:window-height="1051"
     id="namedview34335"
     showgrid="false"
     inkscape:zoom="1.2495612"
     inkscape:cx="196.46897"
     inkscape:cy="320.51252"
     inkscape:window-x="767"
     inkscape:window-y="120"
     inkscape:window-maximized="0"
     inkscape:current-layer="layer8"
     inkscape:showpageshadow="2"
     inkscape:deskcolor="#808080" />
  <defs
     id="defs4" />
  <g
     inkscape:groupmode="layer"
     id="layer8"
     inkscape:label="icons"
     style="display:inline"
     transform="translate(-2.9999969,-491)">
    <g
       style="display:inline;fill:#651fff;fill-opacity:1;enable-background:new"
       id="g23466"
       transform="translate(-1.85367e-6,-0.999995)"
       inkscape:label="X-1">
      <path
         style="color:#000000;font-style:normal;font-variant:normal;font-weight:normal;font-stretch:normal;font-size:medium;line-height:normal;font-family:sans-serif;font-variant-ligatures:normal;font-variant-position:normal;font-variant-caps:normal;font-variant-numeric:normal;font-variant-alternates:normal;font-feature-settings:normal;text-indent:0;text-align:start;text-decoration:none;text-decoration-line:none;text-decoration-style:solid;text-decoration-color:#000000;letter-spacing:normal;word-spacing:normal;text-transform:none;writing-mode:lr-tb;direction:ltr;text-orientation:mixed;dominant-baseline:auto;baseline-shift:baseline;text-anchor:start;white-space:normal;shape-padding:0;clip-rule:nonzero;display:inline;overflow:visible;visibility:visible;opacity:1;isolation:auto;mix-blend-mode:normal;color-interpolation:sRGB;color-interpolation-filters:linearRGB;solid-color:#000000;solid-opacity:1;vector-effect:none;fill:#651fff;fill-opacity:1;fill-rule:nonzero;stroke:none;stroke-width:1;stroke-linecap:round;stroke-linejoin:round;stroke-miterlimit:4;stroke-dasharray:none;stroke-dashoffset:0;stroke-opacity:1;marker:none;color-rendering:auto;image-rendering:auto;shape-rendering:auto;text-rendering:auto;enable-background:new"
         d="m 10.482422,494 c -0.189602,0.007 -0.359053,0.12023 -0.4375,0.29297 l -3.7734376,8.25 c -0.00134,0.003 -0.00264,0.007 -0.00391,0.01 C 6.1587525,502.80633 6,503.10119 6,503.5 c 0,0.83813 0.5261723,1.53471 1.296875,1.92188 0.7707027,0.38715 1.7901254,0.55582 3.023437,0.57226 0.295371,0.003 0.52928,-0.24867 0.503907,-0.54297 9.47e-4,0.0108 -0.01109,-0.37852 -0.01563,-0.70898 -0.0045,-0.33047 -0.0078,-0.6698 -0.0078,-0.74219 0,-1.86768 1.015625,-3.51914 2.519531,-4.4375 0.228366,-0.13928 0.306682,-0.43361 0.177735,-0.66797 L 10.9375,494.25781 C 10.846425,494.09307 10.670549,493.99343 10.482422,494 Z M 18,494 c -1.098638,0 -1.999999,0.90136 -2,2 1e-6,1.09864 0.901362,2 2,2 1.098638,0 1.999999,-0.90136 2,-2 -1e-6,-1.09864 -0.901362,-2 -2,-2 z m -2,6 c -2.203217,0 -3.999999,1.79678 -4,4 10e-7,2.20322 1.796783,4 4,4 2.203217,0 3.999999,-1.79678 4,-4 -1e-6,-2.20322 -1.796783,-4 -4,-4 z m 0,1 c 1.662777,0 2.999999,1.33722 3,3 -1e-6,1.66278 -1.337223,3 -3,3 -1.662777,0 -2.999999,-1.33722 -3,-3 10e-7,-1.66278 1.337223,-3 3,-3 z m -0.541016,1.0332 C 14.658737,502.0332 14,502.69389 14,503.49414 a 0.50005,0.50005 0 1 0 1,0 c 0,-0.25981 0.199172,-0.46094 0.458984,-0.46094 a 0.50005,0.50005 0 1 0 0,-1 z"
         transform="translate(1.85367e-6,0.999995)"
         id="path10645"
         inkscape:connector-curvature="0" />
    </g>
  </g>
</svg>
