<?xml version="1.0" encoding="utf-8" ?>
<svg baseProfile="full" version="1.1" xmlns="http://www.w3.org/2000/svg" xmlns:ev="http://www.w3.org/2001/xml-events" xmlns:xlink="http://www.w3.org/1999/xlink">
    <marker id="batting" markerHeight="10" markerWidth="4" orient="auto" refX="0" refY="5" markerUnits="userSpaceOnUse">
        <!-- Tip: https://svg-path-visualizer.netlify.app/ -->
        <path style="fill: none; stroke:black; stroke-width:0.18" d="M 0 2 A 2 2 0 0 1 4 2 L 2 8 M 0 2 L 2 8 A 2 2 0 0 0 4 10 M 2 8 A 2 2 0 0 1 0 10" />
    </marker>
    <marker id="eng-dimension-marker-start" markerHeight="14" markerWidth="11" orient="auto" refX="1" refY="7">
        <g>
            <path d="M 11 3.5 L 11 10.5 L 1 7" class="annotation" style="fill:black;" />
            <path d="M 1 0 L 1 14" class="annotation" style="stroke-width:1;" />
        </g>
    </marker>
    <marker id="eng-dimension-marker-end" markerHeight="14" markerWidth="11" orient="auto" refX="10" refY="7">
        <g>
            <path d="M 0 3.5 L 0 10.5 L 10 7" class="annotation" style="fill:black;" />
            <path d="M 10 0 L 10 14" class="annotation" style="stroke-width:1;" />
        </g>
    </marker>
    <marker id="radius-marker-end" markerHeight="14" markerWidth="11" orient="auto" refX="10" refY="7">
        <g>
            <path d="M 0 3.5 L 0 10.5 L 10 7" class="annotation" style="fill:black;" />
        </g>
    </marker>
    <marker id="angle-marker-start" markerHeight="14" markerWidth="11" orient="auto" refX="1" refY="7">
        <g>
            <path d="M 11 3.5 L 11 10.5 L 1 7" class="annotation" style="fill:black;" />
            <path d="M 1 0 L 1 14" class="annotation" style="stroke-width:1;" />
        </g>
    </marker>
    <marker id="angle-marker-end" markerHeight="14" markerWidth="11" orient="auto" refX="10" refY="7">
        <g>
            <path d="M 0 3.5 L 0 10.5 L 10 7" class="annotation" style="fill:black;" />
            <path d="M 10 0 L 10 14" class="annotation" style="stroke-width:1;" />
        </g>
    </marker>
    <marker id="diameter-marker-start" markerHeight="14" markerWidth="11" orient="auto" refX="1" refY="7">
        <g>
            <path d="M 11 3.5 L 11 10.5 L 1 7" class="annotation" style="fill:black;" />
            <path d="M 1 0 L 1 14" class="annotation" style="stroke-width:1;" />
        </g>
    </marker>
    <marker id="diameter-marker-end" markerHeight="14" markerWidth="11" orient="auto" refX="10" refY="7">
        <g>
            <path d="M 0 3.5 L 0 10.5 L 10 7" class="annotation" style="fill:black;" />
            <path d="M 10 0 L 10 14" class="annotation" style="stroke-width:1;" />
        </g>
    </marker>
    <marker id="dimension-marker-start" markerHeight="30" markerWidth="20" refX="10" refY="15" orient="auto">
        <g>
            <path d="M 0 15 L 20 15" class="annotation" style="stroke-width:1;" />
            <path d="M 10 0 L 10 30" class="annotation" style="stroke-width:1;" />
            <path d="M 5 20 L 15 10" class="annotation" style="stroke-width:3;" />
        </g>
    </marker>
    <marker id="dimension-marker-end" markerHeight="30" markerWidth="20" refX="10" refY="15" orient="auto">
        <g>
            <path d="M 0 15 L 20 15" class="annotation" style="stroke-width:1;" />
            <path d="M 10 0 L 10 30" class="annotation" style="stroke-width:1;" />
            <path d="M 5 20 L 15 10" class="annotation" style="stroke-width:3;" />
        </g>
    </marker>
    <marker id="grid-marker" markerHeight="40" markerWidth="40" orient="auto" refX="20" refY="20">
        <circle cx="20" cy="20" fill="white" stroke="black" r="17" style="stroke-width: 2"/>
    </marker>
    <marker id="leader-marker" markerHeight="7" markerWidth="10" orient="auto" refX="10" refY="3.5">
        <path d="M 0 0 L 0 7 L 10 3.5" class="annotation" style="fill:black;" />
    </marker>
    <marker id="stair-marker-start" markerHeight="10" markerWidth="10" orient="auto" refX="5" refY="5">
        <circle cx="5" cy="5" fill="black" stroke="none" r="5"/>
    </marker>
    <marker id="stair-marker-end" markerHeight="42" markerWidth="21" orient="auto" refX="21" refY="21">
        <path d="M 0 0 L 21 21 L 0 42" class="annotation stair" style="stroke-width:2; marker-start: none; marker-end: none;" />
    </marker>
    <marker id="plan-level-marker" markerHeight="30" markerWidth="30" refX="15" refY="15">
        <g>
            <path d="M 15 0 L 15 30" class="annotation" style="stroke-width:1;" />
            <path d="M 0 15 L 30 15" class="annotation" style="stroke-width:1;" />
            <circle cx="15" cy="15" fill="white" stroke="black" r="7.5" style="stroke-width: 2"/>
            <path d="M 15 15 L 7.5 15 A 7.5 7.5 0 0 1 15 7.5 Z" fill="black"/>
            <path d="M 15 15 L 22.5 15 A 7.5 7.5 0 0 1 15 22.5 Z" fill="black"/>
        </g>
    </marker>
    <marker id="section-level-marker" markerHeight="11" markerWidth="90" refX="20" refY="10">
        <g>
            <path d="M 0 1 L 20 1 L 10 11 Z" fill="black" />
            <path d="M 0 1 L 90 1" class="annotation" style="stroke-width:1;" />
        </g>
    </marker>
    <marker id="breakline-marker" markerHeight="20" markerWidth="15" refX="7.5" refY="10" orient="auto">
        <g>
            <path d="M 0 10 L 5 20 L 7.5 10" class="annotation" style="stroke-width:1; fill: white;" />
            <path d="M 7.5 10 L 10 0 L 15 10" class="annotation" style="stroke-width:1; fill: white;" />
        </g>
    </marker>
</svg>
