<?xml version="1.0" encoding="utf-8"?>
<!-- Generator: Adobe Illustrator 26.0.2, SVG Export Plug-In . SVG Version: 6.00 Build 0)  -->
<svg version="1.1" id="Capa_1" xmlns:serif="http://www.serif.com/"
	 xmlns="http://www.w3.org/2000/svg" xmlns:xlink="http://www.w3.org/1999/xlink" x="0px" y="0px" viewBox="0 0 86.3 206.9"
	 style="enable-background:new 0 0 86.3 206.9;" xml:space="preserve">
<style type="text/css">
	.st0{fill-rule:evenodd;clip-rule:evenodd;fill:url(#SVGID_1_);}
	.st1{fill-rule:evenodd;clip-rule:evenodd;fill:url(#SVGID_00000183953288862561824890000012318608770792894613_);}
	.st2{fill-rule:evenodd;clip-rule:evenodd;fill:url(#SVGID_00000052821032590293525020000016688270375000756622_);}
	.st3{fill-rule:evenodd;clip-rule:evenodd;fill:url(#SVGID_00000003810994500346400200000005672074933531464860_);}
	.st4{fill-rule:evenodd;clip-rule:evenodd;fill:url(#SVGID_00000023240818500455232160000002067665793120296343_);}
	.st5{fill-rule:evenodd;clip-rule:evenodd;fill:url(#SVGID_00000016064870873804405090000018118406491256596363_);}
	.st6{fill-rule:evenodd;clip-rule:evenodd;fill:url(#SVGID_00000063603042582935756280000009883160780274727058_);}
	.st7{fill-rule:evenodd;clip-rule:evenodd;fill:url(#SVGID_00000093172582486055584340000014410599362134186883_);}
	.st8{fill-rule:evenodd;clip-rule:evenodd;fill:url(#SVGID_00000101063758520724846430000001961987278665258173_);}
	.st9{fill-rule:evenodd;clip-rule:evenodd;fill:url(#SVGID_00000079464619874265599630000008316159742179962792_);}
	.st10{fill-rule:evenodd;clip-rule:evenodd;fill:url(#SVGID_00000062886627746349811130000016042014320076854932_);}
	.st11{fill-rule:evenodd;clip-rule:evenodd;fill:url(#SVGID_00000005247075070285444650000004462691194863611569_);}
	.st12{fill-rule:evenodd;clip-rule:evenodd;fill:url(#SVGID_00000168106080763342167530000008041739760711366061_);}
	.st13{fill-rule:evenodd;clip-rule:evenodd;fill:url(#SVGID_00000040576228208109144850000007063600710783741350_);}
	.st14{fill-rule:evenodd;clip-rule:evenodd;fill:url(#SVGID_00000001636570351962713930000001934587762783266711_);}
	.st15{fill-rule:evenodd;clip-rule:evenodd;fill:url(#SVGID_00000161624913673930989180000015528583915085576618_);}
	.st16{fill-rule:evenodd;clip-rule:evenodd;fill:url(#SVGID_00000089546616130675729650000006892206247497701298_);}
	.st17{fill-rule:evenodd;clip-rule:evenodd;fill:url(#SVGID_00000116956000968465655890000016467769343384863917_);}
	.st18{fill-rule:evenodd;clip-rule:evenodd;fill:#FFFFFF;}
	.st19{fill-rule:evenodd;clip-rule:evenodd;fill:url(#SVGID_00000107548946344420664920000008201858053931165366_);}
	.st20{fill-rule:evenodd;clip-rule:evenodd;fill:url(#SVGID_00000162350346267683960880000005536535944692103584_);}
	.st21{fill-rule:evenodd;clip-rule:evenodd;fill:url(#SVGID_00000128477876150117521870000000689559161401130645_);}
	.st22{fill-rule:evenodd;clip-rule:evenodd;fill:url(#SVGID_00000125592828725279428640000007731594100867384503_);}
	.st23{opacity:0.5;}
	.st24{fill-rule:evenodd;clip-rule:evenodd;fill:url(#SVGID_00000085958100581587413210000008830657655595940259_);}
	.st25{fill-rule:evenodd;clip-rule:evenodd;fill:url(#SVGID_00000097497276032449813190000006989253485844874142_);}
	.st26{fill-rule:evenodd;clip-rule:evenodd;fill:url(#SVGID_00000119100799966793866220000014440387518542063531_);}
	.st27{fill-rule:evenodd;clip-rule:evenodd;fill:url(#SVGID_00000027563788107171936780000001093570667804696252_);}
	.st28{fill-rule:evenodd;clip-rule:evenodd;fill:url(#SVGID_00000174569913506394167080000018212153831284672179_);}
	.st29{fill-rule:evenodd;clip-rule:evenodd;fill:url(#SVGID_00000042002323066025747130000005013758747951985851_);}
	.st30{fill-rule:evenodd;clip-rule:evenodd;fill:url(#SVGID_00000008112016057971000210000013439346485513653403_);}
	.st31{fill-rule:evenodd;clip-rule:evenodd;fill:url(#SVGID_00000173864507346485663390000008124296782639186065_);}
	.st32{fill-rule:evenodd;clip-rule:evenodd;fill:url(#SVGID_00000022547323031858760180000010358424421185817482_);}
	.st33{fill-rule:evenodd;clip-rule:evenodd;fill:url(#SVGID_00000162352343920067542320000007718169105428041095_);}
	.st34{fill-rule:evenodd;clip-rule:evenodd;fill:url(#SVGID_00000121271271226720917420000001124375180196067499_);}
	.st35{fill-rule:evenodd;clip-rule:evenodd;fill:url(#SVGID_00000117667498276307652740000000182836349847929535_);}
</style>
<g>
	
		<linearGradient id="SVGID_1_" gradientUnits="userSpaceOnUse" x1="387" y1="503" x2="388" y2="503" gradientTransform="matrix(54.1248 -93.7469 -16.8085 -9.7044 -11673.2461 41290.8516)">
		<stop  offset="0" style="stop-color:#F1592A"/>
		<stop  offset="1" style="stop-color:#F5E732"/>
	</linearGradient>
	<path class="st0" d="M866.3,24.9l12.5,21.6l6.2-10.8l-60.4,104.5l-12.5-21.6L866.3,24.9L866.3,24.9z"/>
	
		<linearGradient id="SVGID_00000033353330095596710900000000456207096601933205_" gradientUnits="userSpaceOnUse" x1="387" y1="503" x2="388" y2="503" gradientTransform="matrix(108.2496 0 0 -19.4088 -41061.7188 9892.1328)">
		<stop  offset="0" style="stop-color:#F5EE30"/>
		<stop  offset="1" style="stop-color:#3BB549"/>
	</linearGradient>
	<path style="fill-rule:evenodd;clip-rule:evenodd;fill:url(#SVGID_00000033353330095596710900000000456207096601933205_);" d="
		M945.4,118.7l-12.5,21.6h12.5H824.6l12.5-21.6H945.4L945.4,118.7z"/>
	
		<linearGradient id="SVGID_00000030449105525462058910000006237120629385814687_" gradientUnits="userSpaceOnUse" x1="387" y1="503.0072" x2="388" y2="503.0072" gradientTransform="matrix(20.787 36.0519 6.464 -3.727 -10383.9307 -11994.7334)">
		<stop  offset="0" style="stop-color:#F1592A"/>
		<stop  offset="1" style="stop-color:#F5E732"/>
	</linearGradient>
	<path style="fill-rule:evenodd;clip-rule:evenodd;fill:url(#SVGID_00000030449105525462058910000006237120629385814687_);" d="
		M921.5,77.3l23.9,41.4h-25l6.2,10.8l-23.9-41.4l17.5,8.6L921.5,77.3z"/>
	
		<linearGradient id="SVGID_00000085230541101255337580000013129738502792536722_" gradientUnits="userSpaceOnUse" x1="387" y1="502.9969" x2="388" y2="502.9969" gradientTransform="matrix(38.2005 67.534 84.3071 -47.6882 -56310.5703 -2123.552)">
		<stop  offset="0" style="stop-color:#3BB549"/>
		<stop  offset="1" style="stop-color:#F5EE30"/>
	</linearGradient>
	<path style="fill-rule:evenodd;clip-rule:evenodd;fill:url(#SVGID_00000085230541101255337580000013129738502792536722_);" d="
		M909.9,57.2l10.5-6l-2.6,41.3l-37.1-18.4l10.5-6.1l-24.9-43.1h25C891.2,24.9,909.9,57.2,909.9,57.2z"/>
</g>
<g>
	<g id="Logo-IfcOpenShell" serif:id="Logo IfcOpenShell">
		
			<linearGradient id="SVGID_00000005975312263956853510000008049014229844612284_" gradientUnits="userSpaceOnUse" x1="387" y1="502.9071" x2="388" y2="502.9071" gradientTransform="matrix(51.4981 -15.1382 -11.1502 -37.9313 -13779.5146 25070.457)">
			<stop  offset="0" style="stop-color:#3BB549"/>
			<stop  offset="1" style="stop-color:#F5EE30"/>
		</linearGradient>
		<path style="fill-rule:evenodd;clip-rule:evenodd;fill:url(#SVGID_00000005975312263956853510000008049014229844612284_);" d="
			M587.4,108L587.4,108l0.3,0.2l0.7,0.5l0.7,0.5l0.7,0.6l0.7,0.6l0.6,0.6l0.6,0.6l0.6,0.6l0.5,0.6l0.5,0.6l0.5,0.6l0.4,0.6l0.4,0.6
			l0.4,0.6l0.3,0.6l0.3,0.6l0.3,0.6l0.2,0.6l0.2,0.6l0.2,0.6l0.1,0.6l0.1,0.6l0.1,0.6l0,0.6l0,0.6l0,0.6l0,0.6l-0.1,0.6l-0.1,0.6
			l-0.1,0.6l-0.2,0.6l-0.2,0.6l-0.2,0.6l-0.3,0.6l-0.3,0.6l-0.3,0.6l-0.4,0.6l-0.4,0.6l-0.4,0.6l-0.5,0.6l-0.5,0.6l-0.5,0.6
			l-0.6,0.6l-0.6,0.6l-0.6,0.6l-0.7,0.6l-0.7,0.6l-0.7,0.5l-0.7,0.5l-0.8,0.5l-0.8,0.5l-0.8,0.5l-0.8,0.5l-0.9,0.5l-0.9,0.5
			l-0.9,0.5l-0.9,0.5l-1,0.4l-1,0.4l-1,0.4l-1,0.4l-1.1,0.4l-1.1,0.4l-1.1,0.4l-1.1,0.4l-1.1,0.3l-1.2,0.3l-1.2,0.3l-1.2,0.3
			l-1.2,0.3l-1.2,0.3l-1.2,0.3l-1.2,0.3l-1.3,0.2l-1.3,0.2l-1.3,0.2l-1.3,0.2l-1.3,0.2l-1.3,0.2l-1.3,0.1l-1.3,0.1l-1.3,0.1
			l-1.3,0.1l-1.3,0.1l-1.3,0.1l-1.3,0.1l-1.4,0l-1.4,0l-1.4,0v-29.3l1.4,0l1.4,0l1.4,0l1.3-0.1l1.3-0.1l1.3-0.1l1.3-0.1l1.3-0.1
			l1.3-0.1l1.3-0.1l1.3-0.2l1.3-0.2l1.3-0.2l1.3-0.2l1.3-0.2l1.3-0.2l1.2-0.3l1.2-0.3l1.2-0.3l1.2-0.3l1.2-0.3l1.2-0.3l1.2-0.3
			l1.1-0.3l1.1-0.4l1.1-0.4l1.1-0.4l1.1-0.4l1-0.4l1-0.4l1-0.4l1-0.4l0.9-0.5l0.9-0.5l0.9-0.5l0.9-0.5l0.8-0.5l0.8-0.5l0.8-0.5
			L587.4,108L587.4,108L587.4,108L587.4,108z"/>
		
			<linearGradient id="SVGID_00000156569050266815491920000008142144099048524680_" gradientUnits="userSpaceOnUse" x1="387" y1="503" x2="388" y2="503" gradientTransform="matrix(27.5951 0 0 -54.6355 -10167.9434 27550.9707)">
			<stop  offset="0" style="stop-color:#F1592A"/>
			<stop  offset="1" style="stop-color:#F5E732"/>
		</linearGradient>
		<path style="fill-rule:evenodd;clip-rule:evenodd;fill:url(#SVGID_00000156569050266815491920000008142144099048524680_);" d="
			M511.4,42l0,0.6l0,0.6l0,0.6l0.1,0.6l0.1,0.6l0.1,0.6l0.1,0.6l0.1,0.6l0.1,0.6l0.2,0.6l0.2,0.6l0.2,0.6l0.2,0.6l0.2,0.6l0.2,0.6
			l0.3,0.6l0.3,0.6l0.3,0.6l0.3,0.6l0.3,0.6l0.3,0.5l0.3,0.5l0.4,0.5l0.4,0.5l0.4,0.5l0,0v0l0.4,0.5l0.4,0.5l0.4,0.5l0.4,0.5
			l0.4,0.5l0.5,0.5l0.5,0.4l0.5,0.4l0.5,0.4l0.5,0.4l0.5,0.4L522,62l0.5,0.4l0.5,0.4l0.6,0.4l0.6,0.3l0.6,0.3l0.6,0.3l0.6,0.3
			l0.6,0.3l0.6,0.3l0.6,0.3l0.6,0.2l0.6,0.2l0.6,0.2l0.6,0.2l0.6,0.2l0.7,0.2l0.7,0.2l0.7,0.1l0.7,0.1l0.7,0.1l0.7,0.1l0.7,0.1
			l0.7,0.1l0.7,0.1l0.7,0l0.7,0l0.7,0v29.3l-0.7,0l-0.7,0l-0.7,0l-0.7-0.1l-0.7-0.1l-0.7-0.1l-0.7-0.1l-0.7-0.1l-0.7-0.1l-0.7-0.1
			l-0.7-0.2l-0.7-0.2l-0.6-0.2l-0.6-0.2l-0.6-0.2l-0.6-0.2l-0.6-0.2l-0.6-0.3l-0.6-0.3l-0.6-0.3l-0.6-0.3l-0.6-0.3l-0.6-0.3
			l-0.6-0.3l-0.6-0.4l-0.5-0.4l-0.5-0.4l-0.5-0.4l-0.5-0.4l-0.5-0.4l-0.5-0.4l-0.5-0.4l-0.5-0.4l-0.5-0.5l-0.4-0.5l-0.4-0.5
			l-0.4-0.5l-0.4-0.5l-0.4-0.5l-0.4-0.5l-0.4-0.5l-0.4-0.5l-0.3-0.5l-0.3-0.5l-0.3-0.6l-0.3-0.6l-0.3-0.6l-0.3-0.6l-0.3-0.6
			l-0.2-0.6l-0.2-0.6l-0.2-0.6l-0.2-0.6l-0.2-0.6l-0.2-0.6l-0.1-0.6l-0.1-0.6l-0.1-0.6l-0.1-0.6l-0.1-0.6l-0.1-0.6l0-0.6l0-0.6
			l0-0.6V42L511.4,42z"/>
		
			<linearGradient id="SVGID_00000129895365580989743970000008420648737019374776_" gradientUnits="userSpaceOnUse" x1="387" y1="503.0245" x2="388" y2="503.0245" gradientTransform="matrix(16.3002 -34.6303 -50.1989 -23.6282 19463.8438 25338.1543)">
			<stop  offset="0" style="stop-color:#F5EE30"/>
			<stop  offset="1" style="stop-color:#3BB549"/>
		</linearGradient>
		<path style="fill-rule:evenodd;clip-rule:evenodd;fill:url(#SVGID_00000129895365580989743970000008420648737019374776_);" d="
			M516.4,56.6l-0.4-0.5l-0.4-0.5l-0.4-0.5l-0.3-0.5l-0.3-0.5l-0.3-0.6l-0.3-0.6l-0.3-0.6l-0.3-0.6l-0.3-0.6l-0.2-0.6l-0.2-0.6
			l-0.2-0.6l-0.2-0.6l-0.2-0.6l-0.2-0.6l-0.1-0.6l-0.1-0.6l-0.1-0.6l-0.1-0.6l-0.1-0.6l-0.1-0.6l0-0.6l0-0.6l0-0.6l0-0.6l0-0.6
			l0-0.6l0.1-0.6l0.1-0.6l0.1-0.6l0.1-0.6l0.1-0.6l0.1-0.6l0.2-0.6l0.2-0.6l0.2-0.6l0.2-0.6l0.2-0.6l0.2-0.6l0.3-0.6l0.3-0.6
			l0.3-0.6l0.3-0.6l0.3-0.6l0.3-0.5l0.3-0.5l0.4-0.5l0.4-0.5l0.4-0.5l0.4-0.5l0.4-0.5l0.4-0.5l0.4-0.5l0.4-0.5l0.5-0.5l0.5-0.4
			l0.5-0.4l0.5-0.4l0.5-0.4l0.5-0.4L522,22l0.5-0.4l0.5-0.4l0.6-0.4l0.6-0.3l0.6-0.3l0.6-0.3l0.6-0.3l0.6-0.3l0.6-0.3l0.6-0.3
			l0.6-0.2l0.6-0.2l0.6-0.2l0.6-0.2l0.6-0.2l0.7-0.2l0.7-0.2l0.7-0.1l0.7-0.1l0.7-0.1l0.7-0.1l0.7-0.1l0.7-0.1l0.7-0.1l0.7,0l0.7,0
			l0.7,0v29.3l-0.7,0l-0.7,0l-0.7,0l-0.7,0.1l-0.7,0.1l-0.7,0.1l-0.7,0.1l-0.7,0.1l-0.7,0.1l-0.7,0.1l-0.7,0.2L531,47l-0.6,0.2
			l-0.6,0.2l-0.6,0.2l-0.6,0.2l-0.6,0.2l-0.6,0.3l-0.6,0.3l-0.6,0.3l-0.6,0.3l-0.6,0.3l-0.6,0.3l-0.6,0.3l-0.6,0.4l-0.5,0.4
			l-0.5,0.4l-0.5,0.4l-0.5,0.4l-0.5,0.4l-0.5,0.4l-0.5,0.4l-0.5,0.4l-0.5,0.5l-0.4,0.5l-0.4,0.5l-0.4,0.5l-0.4,0.5L516.4,56.6
			C516.4,56.6,516.4,56.6,516.4,56.6z"/>
		
			<linearGradient id="SVGID_00000049900545132500631590000010307936854803782310_" gradientUnits="userSpaceOnUse" x1="387" y1="503.0413" x2="388" y2="503.0413" gradientTransform="matrix(53.3276 37.0693 37.0693 -53.3276 -38741.9023 12553.0342)">
			<stop  offset="0" style="stop-color:#F5E732"/>
			<stop  offset="1" style="stop-color:#F1592A"/>
		</linearGradient>
		<path style="fill-rule:evenodd;clip-rule:evenodd;fill:url(#SVGID_00000049900545132500631590000010307936854803782310_);" d="
			M587.4,108l-0.5-0.3l-0.8-0.5l-0.8-0.5l-0.8-0.5l-0.9-0.5l-0.9-0.5l-0.9-0.5l-0.9-0.5l-1-0.4l-1-0.4l-1-0.4l-1-0.4l-1.1-0.4
			l-1.1-0.4l-1.1-0.4l-1.1-0.4l-1.1-0.3l-1.2-0.3l-1.2-0.3l-1.2-0.3l-1.2-0.3l-1.2-0.3l-1.2-0.3l-1.2-0.3l-1.3-0.2l-1.3-0.2
			l-1.3-0.2l-1.3-0.2l-1.3-0.2l-1.3-0.2l-1.3-0.1l-1.3-0.1l-1.3-0.1l-1.3-0.1l-1.3-0.1l-1.3-0.1l-1.3-0.1l-1.4,0l-1.4,0l-1.4,0V67.3
			l1.4,0l1.4,0l1.4,0l1.3,0.1l1.3,0.1l1.3,0.1l1.3,0.1l1.3,0.1l1.3,0.1l1.3,0.1l1.3,0.2l1.3,0.2l1.3,0.2l1.3,0.2l1.3,0.2l1.3,0.2
			l1.2,0.3l1.2,0.3l1.2,0.3l1.2,0.3l1.2,0.3l1.2,0.3l1.2,0.3l1.1,0.3l1.1,0.4l1.1,0.4l1.1,0.4l1.1,0.4l1,0.4l1,0.4l1,0.4l1,0.4
			l0.9,0.5l0.9,0.5l0.9,0.5l0.9,0.5l0.8,0.5l0.8,0.5l0.8,0.5l0.8,0.5l0.7,0.5l0.7,0.5l0.7,0.6l0.7,0.6l0.6,0.6l0.6,0.6l0.6,0.6
			l0.5,0.6l0.5,0.6l0.5,0.6l0.4,0.6l0.4,0.6l0.4,0.6l0.3,0.6l0.3,0.6l0.3,0.6l0.2,0.6l0.2,0.6l0.2,0.6l0.1,0.6l0.1,0.6l0.1,0.6
			l0,0.6l0,0.6v29.3l0-0.6l0-0.6l-0.1-0.6l-0.1-0.6l-0.1-0.6l-0.2-0.6l-0.2-0.6l-0.2-0.6l-0.3-0.6l-0.3-0.6l-0.3-0.6l-0.4-0.6
			l-0.4-0.6l-0.4-0.6l-0.5-0.6l-0.5-0.6l-0.5-0.6l-0.6-0.6l-0.6-0.6l-0.6-0.6l-0.7-0.6l-0.7-0.6l-0.7-0.5l-0.7-0.5L587.4,108
			L587.4,108L587.4,108z"/>
	</g>
	
		<linearGradient id="SVGID_00000059298635265212454300000001146810260170078083_" gradientUnits="userSpaceOnUse" x1="387" y1="503.393" x2="388" y2="503.393" gradientTransform="matrix(33.1612 0 0 -25.4438 -12289.8623 12839.46)">
		<stop  offset="0" style="stop-color:#3BB549"/>
		<stop  offset="1" style="stop-color:#F5EE30"/>
	</linearGradient>
	<path style="fill-rule:evenodd;clip-rule:evenodd;fill:url(#SVGID_00000059298635265212454300000001146810260170078083_);" d="
		M541.7,6.9l37.9,24.3l-37.9,24.3C541.7,55.6,541.7,6.9,541.7,6.9z"/>
</g>
<g>
	
		<linearGradient id="SVGID_00000094593633328162667520000015005794302805888425_" gradientUnits="userSpaceOnUse" x1="387" y1="502.9071" x2="388" y2="502.9071" gradientTransform="matrix(51.4981 -15.1382 -11.1502 -37.9313 -13684.1338 25070.457)">
		<stop  offset="0" style="stop-color:#3BB549"/>
		<stop  offset="1" style="stop-color:#F5EE30"/>
	</linearGradient>
	<path style="fill-rule:evenodd;clip-rule:evenodd;fill:url(#SVGID_00000094593633328162667520000015005794302805888425_);" d="
		M682.7,108L682.7,108l0.3,0.2l0.7,0.5l0.7,0.5l0.7,0.6l0.7,0.6l0.6,0.6l0.6,0.6l0.6,0.6l0.5,0.6l0.5,0.6l0.5,0.6l0.4,0.6l0.4,0.6
		l0.4,0.6l0.3,0.6l0.3,0.6l0.3,0.6l0.2,0.6l0.2,0.6l0.2,0.6l0.1,0.6l0.1,0.6l0.1,0.6l0,0.6l0,0.6l0,0.6l0,0.6l-0.1,0.6l-0.1,0.6
		l-0.1,0.6l-0.2,0.6l-0.2,0.6l-0.2,0.6l-0.3,0.6l-0.3,0.6l-0.3,0.6l-0.4,0.6l-0.4,0.6l-0.4,0.6l-0.5,0.6l-0.5,0.6l-0.5,0.6l-0.6,0.6
		l-0.6,0.6l-0.6,0.6l-0.7,0.6l-0.7,0.6l-0.7,0.5l-0.7,0.5l-0.8,0.5l-0.8,0.5l-0.8,0.5l-0.8,0.5l-0.9,0.5l-0.9,0.5l-0.9,0.5l-0.9,0.5
		l-1,0.4l-1,0.4l-1,0.4l-1,0.4l-1.1,0.4l-1.1,0.4l-1.1,0.4l-1.1,0.4l-1.1,0.3l-1.2,0.3l-1.2,0.3l-1.2,0.3l-1.2,0.3l-1.2,0.3
		l-1.2,0.3l-1.2,0.3l-1.3,0.2l-1.3,0.2l-1.3,0.2l-1.3,0.2l-1.3,0.2l-1.3,0.2l-1.3,0.1l-1.3,0.1l-1.3,0.1l-1.3,0.1l-1.3,0.1l-1.3,0.1
		l-1.3,0.1l-1.4,0l-1.4,0l-1.4,0v-29.3l1.4,0l1.4,0l1.4,0l1.3-0.1l1.3-0.1l1.3-0.1l1.3-0.1l1.3-0.1l1.3-0.1l1.3-0.1l1.3-0.2l1.3-0.2
		l1.3-0.2l1.3-0.2l1.3-0.2l1.3-0.2l1.2-0.3l1.2-0.3l1.2-0.3l1.2-0.3l1.2-0.3l1.2-0.3l1.2-0.3l1.1-0.3l1.1-0.4l1.1-0.4l1.1-0.4
		l1.1-0.4l1-0.4l1-0.4l1-0.4l1-0.4l0.9-0.5l0.9-0.5l0.9-0.5l0.9-0.5l0.8-0.5l0.8-0.5l0.8-0.5L682.7,108L682.7,108L682.7,108
		L682.7,108z"/>
	
		<linearGradient id="SVGID_00000147911824316376528290000005016508348975999136_" gradientUnits="userSpaceOnUse" x1="387" y1="503" x2="388" y2="503" gradientTransform="matrix(27.5951 0 0 -54.6355 -10072.5625 27550.9707)">
		<stop  offset="0" style="stop-color:#F1592A"/>
		<stop  offset="1" style="stop-color:#F5E732"/>
	</linearGradient>
	<path style="fill-rule:evenodd;clip-rule:evenodd;fill:url(#SVGID_00000147911824316376528290000005016508348975999136_);" d="
		M606.8,42l0,0.6l0,0.6l0,0.6l0.1,0.6l0.1,0.6l0.1,0.6l0.1,0.6l0.1,0.6l0.1,0.6l0.2,0.6l0.2,0.6l0.2,0.6l0.2,0.6l0.2,0.6l0.2,0.6
		l0.3,0.6l0.3,0.6l0.3,0.6l0.3,0.6l0.3,0.6l0.3,0.5l0.3,0.5l0.4,0.5l0.4,0.5l0.4,0.5l0,0v0l0.4,0.5l0.4,0.5l0.4,0.5l0.4,0.5l0.4,0.5
		l0.5,0.5l0.5,0.4l0.5,0.4l0.5,0.4l0.5,0.4l0.5,0.4l0.5,0.4l0.5,0.4l0.5,0.4l0.6,0.4l0.6,0.3l0.6,0.3l0.6,0.3l0.6,0.3l0.6,0.3
		l0.6,0.3l0.6,0.3l0.6,0.2l0.6,0.2l0.6,0.2l0.6,0.2l0.6,0.2l0.7,0.2l0.7,0.2l0.7,0.1l0.7,0.1l0.7,0.1l0.7,0.1l0.7,0.1l0.7,0.1
		l0.7,0.1l0.7,0l0.7,0l0.7,0v29.3l-0.7,0l-0.7,0l-0.7,0l-0.7-0.1l-0.7-0.1l-0.7-0.1l-0.7-0.1l-0.7-0.1l-0.7-0.1l-0.7-0.1l-0.7-0.2
		l-0.7-0.2l-0.6-0.2l-0.6-0.2l-0.6-0.2l-0.6-0.2l-0.6-0.2l-0.6-0.3l-0.6-0.3l-0.6-0.3l-0.6-0.3l-0.6-0.3l-0.6-0.3l-0.6-0.3l-0.6-0.4
		l-0.5-0.4l-0.5-0.4l-0.5-0.4l-0.5-0.4l-0.5-0.4l-0.5-0.4l-0.5-0.4l-0.5-0.4l-0.5-0.5l-0.4-0.5l-0.4-0.5l-0.4-0.5l-0.4-0.5l-0.4-0.5
		l-0.4-0.5l-0.4-0.5l-0.4-0.5l-0.3-0.5l-0.3-0.5l-0.3-0.6l-0.3-0.6l-0.3-0.6l-0.3-0.6l-0.3-0.6l-0.2-0.6l-0.2-0.6l-0.2-0.6l-0.2-0.6
		l-0.2-0.6l-0.2-0.6l-0.1-0.6l-0.1-0.6l-0.1-0.6l-0.1-0.6l-0.1-0.6l-0.1-0.6l0-0.6l0-0.6l0-0.6V42L606.8,42z"/>
	
		<linearGradient id="SVGID_00000142166952074796629710000009283440322003962802_" gradientUnits="userSpaceOnUse" x1="387" y1="503.0413" x2="388" y2="503.0413" gradientTransform="matrix(53.3276 37.0693 37.0693 -53.3276 -38646.5234 12553.0342)">
		<stop  offset="0" style="stop-color:#F5E732"/>
		<stop  offset="1" style="stop-color:#F1592A"/>
	</linearGradient>
	<path style="fill-rule:evenodd;clip-rule:evenodd;fill:url(#SVGID_00000142166952074796629710000009283440322003962802_);" d="
		M682.7,108l-0.5-0.3l-0.8-0.5l-0.8-0.5l-0.8-0.5l-0.9-0.5l-0.9-0.5l-0.9-0.5l-0.9-0.5l-1-0.4l-1-0.4l-1-0.4l-1-0.4l-1.1-0.4
		l-1.1-0.4l-1.1-0.4l-1.1-0.4l-1.1-0.3l-1.2-0.3l-1.2-0.3l-1.2-0.3l-1.2-0.3l-1.2-0.3l-1.2-0.3l-1.2-0.3l-1.3-0.2l-1.3-0.2l-1.3-0.2
		l-1.3-0.2l-1.3-0.2l-1.3-0.2l-1.3-0.1l-1.3-0.1l-1.3-0.1l-1.3-0.1l-1.3-0.1l-1.3-0.1l-1.3-0.1l-1.4,0l-1.4,0l-1.4,0V67.3l1.4,0
		l1.4,0l1.4,0l1.3,0.1l1.3,0.1l1.3,0.1l1.3,0.1l1.3,0.1l1.3,0.1l1.3,0.1l1.3,0.2l1.3,0.2l1.3,0.2l1.3,0.2l1.3,0.2l1.3,0.2l1.2,0.3
		l1.2,0.3l1.2,0.3l1.2,0.3l1.2,0.3l1.2,0.3l1.2,0.3l1.1,0.3l1.1,0.4l1.1,0.4l1.1,0.4l1.1,0.4l1,0.4l1,0.4l1,0.4l1,0.4l0.9,0.5
		l0.9,0.5l0.9,0.5l0.9,0.5l0.8,0.5l0.8,0.5l0.8,0.5l0.8,0.5l0.7,0.5l0.7,0.5l0.7,0.6l0.7,0.6l0.6,0.6l0.6,0.6l0.6,0.6l0.5,0.6
		l0.5,0.6l0.5,0.6l0.4,0.6l0.4,0.6l0.4,0.6l0.3,0.6l0.3,0.6l0.3,0.6l0.2,0.6l0.2,0.6l0.2,0.6l0.1,0.6l0.1,0.6l0.1,0.6l0,0.6l0,0.6
		v29.3l0-0.6l0-0.6l-0.1-0.6l-0.1-0.6l-0.1-0.6l-0.2-0.6l-0.2-0.6l-0.2-0.6l-0.3-0.6l-0.3-0.6l-0.3-0.6l-0.4-0.6l-0.4-0.6l-0.4-0.6
		l-0.5-0.6l-0.5-0.6l-0.5-0.6l-0.6-0.6l-0.6-0.6l-0.6-0.6l-0.7-0.6l-0.7-0.6l-0.7-0.5l-0.7-0.5L682.7,108L682.7,108L682.7,108z"/>
	
		<linearGradient id="SVGID_00000079446083394469853810000010154493936535397263_" gradientUnits="userSpaceOnUse" x1="387" y1="503.2232" x2="388" y2="503.2232" gradientTransform="matrix(42.9447 -17.2473 -17.2473 -42.9447 -7334.4937 28329.2559)">
		<stop  offset="0" style="stop-color:#F5EE30"/>
		<stop  offset="1" style="stop-color:#3BB549"/>
	</linearGradient>
	<path style="fill-rule:evenodd;clip-rule:evenodd;fill:url(#SVGID_00000079446083394469853810000010154493936535397263_);" d="
		M637.1,16.6V6.9L675,31.2l-37.9,24.3v-9.7h-2.8l-0.7,0l-0.7,0l-0.7,0l-0.7,0.1l-0.7,0.1l-0.7,0.1l-0.7,0.1l-0.7,0.1l-0.7,0.1
		l-0.7,0.1l-0.7,0.2l-0.7,0.2l-0.6,0.2l-0.6,0.2l-0.6,0.2l-0.6,0.2l-0.6,0.2l-0.6,0.3l-0.6,0.3l-0.6,0.3l-0.6,0.3l-0.6,0.3l-0.6,0.3
		l-0.6,0.3l-0.6,0.4l-0.5,0.4l-0.5,0.4l-0.5,0.4l-0.5,0.4l-0.5,0.4l-0.5,0.4l-0.5,0.4l-0.5,0.4l-0.5,0.5l-0.4,0.5l-0.4,0.5l-0.4,0.5
		l-0.4,0.5l-0.4,0.5l0,0l-0.4-0.5l-0.4-0.5l-0.4-0.5l-0.3-0.5l-0.3-0.5l-0.3-0.6l-0.3-0.6l-0.3-0.6l-0.3-0.6l-0.3-0.6l-0.2-0.6
		l-0.2-0.6l-0.2-0.6l-0.2-0.6l-0.2-0.6l-0.2-0.6l-0.1-0.6l-0.1-0.6l-0.1-0.6l-0.1-0.6l-0.1-0.6l-0.1-0.6l0-0.6l0-0.6l0-0.6l0-0.6
		l0-0.6l0-0.6l0.1-0.6l0.1-0.6l0.1-0.6l0.1-0.6l0.1-0.6l0.1-0.6l0.2-0.6l0.2-0.6l0.2-0.6l0.2-0.6l0.2-0.6l0.2-0.6l0.3-0.6l0.3-0.6
		l0.3-0.6l0.3-0.6L610,30l0.3-0.5l0.3-0.5l0.4-0.5l0.4-0.5l0.4-0.5l0.4-0.5l0.4-0.5l0.4-0.5l0.4-0.5l0.4-0.5l0.5-0.5l0.5-0.4
		l0.5-0.4l0.5-0.4l0.5-0.4l0.5-0.4l0.5-0.4l0.5-0.4l0.5-0.4l0.6-0.4l0.6-0.3l0.6-0.3l0.6-0.3l0.6-0.3l0.6-0.3l0.6-0.3l0.6-0.3
		l0.6-0.2l0.6-0.2l0.6-0.2l0.6-0.2l0.6-0.2l0.7-0.2l0.7-0.2l0.7-0.1l0.7-0.1l0.7-0.1l0.7-0.1l0.7-0.1l0.7-0.1l0.7-0.1l0.7,0l0.7,0
		l0.7,0H637.1z"/>
</g>
<g>
	<g>
		<g id="Logo-IfcOpenShell1" serif:id="Logo IfcOpenShell">
			
				<linearGradient id="SVGID_00000081630008977594788270000008079409912864316847_" gradientUnits="userSpaceOnUse" x1="387" y1="502.9071" x2="388" y2="502.9071" gradientTransform="matrix(51.4981 -15.1382 -11.1502 -37.9313 -13583.7412 25070.457)">
				<stop  offset="0" style="stop-color:#3BB549"/>
				<stop  offset="1" style="stop-color:#F5EE30"/>
			</linearGradient>
			<path style="fill-rule:evenodd;clip-rule:evenodd;fill:url(#SVGID_00000081630008977594788270000008079409912864316847_);" d="
				M783.1,108L783.1,108l0.3,0.2l0.7,0.5l0.7,0.5l0.7,0.6l0.7,0.6l0.6,0.6l0.6,0.6l0.6,0.6l0.5,0.6l0.5,0.6l0.5,0.6l0.4,0.6l0.4,0.6
				l0.4,0.6l0.3,0.6l0.3,0.6l0.3,0.6l0.2,0.6l0.2,0.6l0.2,0.6l0.1,0.6l0.1,0.6l0.1,0.6l0,0.6l0,0.6l0,0.6l0,0.6l-0.1,0.6l-0.1,0.6
				l-0.1,0.6l-0.2,0.6l-0.2,0.6l-0.2,0.6l-0.3,0.6L791,129l-0.3,0.6l-0.4,0.6l-0.4,0.6l-0.4,0.6L789,132l-0.5,0.6l-0.5,0.6l-0.6,0.6
				l-0.6,0.6l-0.6,0.6l-0.7,0.6l-0.7,0.6l-0.7,0.5l-0.7,0.5l-0.8,0.5l-0.8,0.5l-0.8,0.5l-0.8,0.5l-0.9,0.5l-0.9,0.5l-0.9,0.5
				l-0.9,0.5l-1,0.4l-1,0.4l-1,0.4l-1,0.4l-1.1,0.4l-1.1,0.4l-1.1,0.4l-1.1,0.4l-1.1,0.3l-1.2,0.3l-1.2,0.3l-1.2,0.3l-1.2,0.3
				l-1.2,0.3l-1.2,0.3l-1.2,0.3l-1.3,0.2l-1.3,0.2l-1.3,0.2l-1.3,0.2l-1.3,0.2l-1.3,0.2l-1.3,0.1l-1.3,0.1l-1.3,0.1l-1.3,0.1
				l-1.3,0.1l-1.3,0.1l-1.3,0.1l-1.4,0l-1.4,0l-1.4,0v-29.3l1.4,0l1.4,0l1.4,0l1.3-0.1l1.3-0.1l1.3-0.1l1.3-0.1l1.3-0.1l1.3-0.1
				l1.3-0.1l1.3-0.2l1.3-0.2l1.3-0.2l1.3-0.2l1.3-0.2l1.3-0.2l1.2-0.3l1.2-0.3l1.2-0.3l1.2-0.3l1.2-0.3l1.2-0.3l1.2-0.3l1.1-0.3
				l1.1-0.4l1.1-0.4l1.1-0.4l1.1-0.4l1-0.4l1-0.4l1-0.4l1-0.4l0.9-0.5l0.9-0.5l0.9-0.5l0.9-0.5l0.8-0.5l0.8-0.5l0.8-0.5L783.1,108
				L783.1,108L783.1,108L783.1,108z"/>
			
				<linearGradient id="SVGID_00000104680439225314443400000017629514046296685970_" gradientUnits="userSpaceOnUse" x1="387" y1="503" x2="388" y2="503" gradientTransform="matrix(27.5951 0 0 -54.6355 -9972.1699 27550.9707)">
				<stop  offset="0" style="stop-color:#F1592A"/>
				<stop  offset="1" style="stop-color:#F5E732"/>
			</linearGradient>
			<path style="fill-rule:evenodd;clip-rule:evenodd;fill:url(#SVGID_00000104680439225314443400000017629514046296685970_);" d="
				M707.2,42l0,0.6l0,0.6l0,0.6l0.1,0.6l0.1,0.6l0.1,0.6l0.1,0.6l0.1,0.6l0.1,0.6l0.2,0.6l0.2,0.6l0.2,0.6l0.2,0.6l0.2,0.6l0.2,0.6
				l0.3,0.6l0.3,0.6l0.3,0.6l0.3,0.6l0.3,0.6l0.3,0.5l0.3,0.5l0.4,0.5l0.4,0.5l0.4,0.5l0,0v0l0.4,0.5l0.4,0.5l0.4,0.5l0.4,0.5
				l0.4,0.5l0.5,0.5l0.5,0.4l0.5,0.4l0.5,0.4l0.5,0.4l0.5,0.4l0.5,0.4l0.5,0.4l0.5,0.4l0.6,0.4l0.6,0.3l0.6,0.3l0.6,0.3l0.6,0.3
				l0.6,0.3l0.6,0.3l0.6,0.3l0.6,0.2l0.6,0.2l0.6,0.2l0.6,0.2l0.6,0.2l0.7,0.2l0.7,0.2l0.7,0.1l0.7,0.1L730,67l0.7,0.1l0.7,0.1
				l0.7,0.1l0.7,0.1l0.7,0l0.7,0l0.7,0v29.3l-0.7,0l-0.7,0l-0.7,0l-0.7-0.1l-0.7-0.1l-0.7-0.1l-0.7-0.1l-0.7-0.1l-0.7-0.1l-0.7-0.1
				l-0.7-0.2l-0.7-0.2l-0.6-0.2l-0.6-0.2l-0.6-0.2l-0.6-0.2l-0.6-0.2l-0.6-0.3l-0.6-0.3l-0.6-0.3l-0.6-0.3l-0.6-0.3l-0.6-0.3
				l-0.6-0.3l-0.6-0.4l-0.5-0.4l-0.5-0.4l-0.5-0.4l-0.5-0.4l-0.5-0.4l-0.5-0.4l-0.5-0.4l-0.5-0.4l-0.5-0.5l-0.4-0.5l-0.4-0.5
				l-0.4-0.5l-0.4-0.5l-0.4-0.5l-0.4-0.5l-0.4-0.5l-0.4-0.5l-0.3-0.5l-0.3-0.5l-0.3-0.6l-0.3-0.6l-0.3-0.6l-0.3-0.6l-0.3-0.6
				l-0.2-0.6l-0.2-0.6l-0.2-0.6l-0.2-0.6l-0.2-0.6l-0.2-0.6l-0.1-0.6l-0.1-0.6l-0.1-0.6l-0.1-0.6l-0.1-0.6l-0.1-0.6l0-0.6l0-0.6
				l0-0.6V42L707.2,42z"/>
			
				<linearGradient id="SVGID_00000029033168401482663860000002054928297456662703_" gradientUnits="userSpaceOnUse" x1="387" y1="503.0244" x2="388" y2="503.0244" gradientTransform="matrix(16.3002 -34.6303 -50.1989 -23.6282 19659.6172 25338.1543)">
				<stop  offset="0" style="stop-color:#F5EE30"/>
				<stop  offset="1" style="stop-color:#3BB549"/>
			</linearGradient>
			<path style="fill-rule:evenodd;clip-rule:evenodd;fill:url(#SVGID_00000029033168401482663860000002054928297456662703_);" d="
				M712.2,56.6l-0.4-0.5l-0.4-0.5l-0.4-0.5l-0.3-0.5l-0.3-0.5l-0.3-0.6l-0.3-0.6l-0.3-0.6l-0.3-0.6l-0.3-0.6l-0.2-0.6l-0.2-0.6
				l-0.2-0.6l-0.2-0.6l-0.2-0.6l-0.2-0.6l-0.1-0.6l-0.1-0.6l-0.1-0.6l-0.1-0.6l-0.1-0.6l-0.1-0.6l0-0.6l0-0.6l0-0.6l0-0.6l0-0.6
				l0-0.6l0.1-0.6l0.1-0.6l0.1-0.6l0.1-0.6l0.1-0.6l0.1-0.6l0.2-0.6l0.2-0.6l0.2-0.6l0.2-0.6l0.2-0.6l0.2-0.6l0.3-0.6l0.3-0.6
				l0.3-0.6l0.3-0.6l0.3-0.6l0.3-0.5l0.3-0.5l0.4-0.5l0.4-0.5l0.4-0.5l0.4-0.5l0.4-0.5l0.4-0.5l0.4-0.5l0.4-0.5l0.5-0.5l0.5-0.4
				l0.5-0.4l0.5-0.4l0.5-0.4l0.5-0.4l0.5-0.4l0.5-0.4l0.5-0.4l0.6-0.4l0.6-0.3l0.6-0.3l0.6-0.3l0.6-0.3l0.6-0.3l0.6-0.3l0.6-0.3
				l0.6-0.2l0.6-0.2l0.6-0.2l0.6-0.2l0.6-0.2l0.7-0.2l0.7-0.2l0.7-0.1l0.7-0.1L730,17l0.7-0.1l0.7-0.1l0.7-0.1l0.7-0.1l0.7,0l0.7,0
				l0.7,0v29.3l-0.7,0l-0.7,0l-0.7,0L732,46l-0.7,0.1l-0.7,0.1l-0.7,0.1l-0.7,0.1l-0.7,0.1l-0.7,0.1l-0.7,0.2l-0.7,0.2l-0.6,0.2
				l-0.6,0.2l-0.6,0.2l-0.6,0.2l-0.6,0.2l-0.6,0.3l-0.6,0.3l-0.6,0.3l-0.6,0.3l-0.6,0.3l-0.6,0.3l-0.6,0.3l-0.6,0.4l-0.5,0.4
				l-0.5,0.4l-0.5,0.4l-0.5,0.4l-0.5,0.4l-0.5,0.4l-0.5,0.4l-0.5,0.4l-0.5,0.5l-0.4,0.5l-0.4,0.5l-0.4,0.5l-0.4,0.5L712.2,56.6
				L712.2,56.6z"/>
			
				<linearGradient id="SVGID_00000013874287122809957380000014740192224277968530_" gradientUnits="userSpaceOnUse" x1="387" y1="503.0413" x2="388" y2="503.0413" gradientTransform="matrix(53.3276 37.0693 37.0693 -53.3276 -38546.1289 12553.0342)">
				<stop  offset="0" style="stop-color:#F5E732"/>
				<stop  offset="1" style="stop-color:#F1592A"/>
			</linearGradient>
			<path style="fill-rule:evenodd;clip-rule:evenodd;fill:url(#SVGID_00000013874287122809957380000014740192224277968530_);" d="
				M783.1,108l-0.5-0.3l-0.8-0.5l-0.8-0.5l-0.8-0.5l-0.9-0.5l-0.9-0.5l-0.9-0.5l-0.9-0.5l-1-0.4l-1-0.4l-1-0.4l-1-0.4l-1.1-0.4
				l-1.1-0.4l-1.1-0.4l-1.1-0.4l-1.1-0.3l-1.2-0.3l-1.2-0.3l-1.2-0.3l-1.2-0.3l-1.2-0.3l-1.2-0.3l-1.2-0.3l-1.3-0.2l-1.3-0.2
				l-1.3-0.2l-1.3-0.2l-1.3-0.2l-1.3-0.2l-1.3-0.1l-1.3-0.1l-1.3-0.1l-1.3-0.1l-1.3-0.1l-1.3-0.1l-1.3-0.1l-1.4,0l-1.4,0l-1.4,0
				V67.3l1.4,0l1.4,0l1.4,0l1.3,0.1l1.3,0.1l1.3,0.1l1.3,0.1l1.3,0.1l1.3,0.1l1.3,0.1l1.3,0.2l1.3,0.2l1.3,0.2l1.3,0.2l1.3,0.2
				l1.3,0.2l1.2,0.3l1.2,0.3l1.2,0.3l1.2,0.3l1.2,0.3l1.2,0.3l1.2,0.3l1.1,0.3l1.1,0.4l1.1,0.4l1.1,0.4l1.1,0.4l1,0.4l1,0.4l1,0.4
				l1,0.4l0.9,0.5l0.9,0.5l0.9,0.5l0.9,0.5l0.8,0.5l0.8,0.5l0.8,0.5l0.8,0.5l0.7,0.5l0.7,0.5l0.7,0.6l0.7,0.6l0.6,0.6l0.6,0.6
				l0.6,0.6l0.5,0.6L789,84l0.5,0.6l0.4,0.6l0.4,0.6l0.4,0.6L791,87l0.3,0.6l0.3,0.6l0.2,0.6l0.2,0.6l0.2,0.6l0.1,0.6l0.1,0.6
				l0.1,0.6l0,0.6l0,0.6v29.3l0-0.6l0-0.6l-0.1-0.6l-0.1-0.6l-0.1-0.6l-0.2-0.6l-0.2-0.6l-0.2-0.6l-0.3-0.6l-0.3-0.6l-0.3-0.6
				l-0.4-0.6l-0.4-0.6l-0.4-0.6l-0.5-0.6l-0.5-0.6l-0.5-0.6l-0.6-0.6l-0.6-0.6l-0.6-0.6l-0.7-0.6l-0.7-0.6l-0.7-0.5l-0.7-0.5
				L783.1,108L783.1,108L783.1,108z"/>
		</g>
		
			<linearGradient id="SVGID_00000065756814026073026890000002140350036310582923_" gradientUnits="userSpaceOnUse" x1="387" y1="503.393" x2="388" y2="503.393" gradientTransform="matrix(33.1612 0 0 -25.4438 -12094.0889 12839.46)">
			<stop  offset="0" style="stop-color:#3BB549"/>
			<stop  offset="1" style="stop-color:#F5EE30"/>
		</linearGradient>
		<path style="fill-rule:evenodd;clip-rule:evenodd;fill:url(#SVGID_00000065756814026073026890000002140350036310582923_);" d="
			M737.5,6.9l37.9,24.3l-37.9,24.3C737.5,55.6,737.5,6.9,737.5,6.9z"/>
	</g>
	<path class="st18" d="M737.5,148.6l22.7-16.6l-22.7-12.6V148.6z"/>
</g>
<g id="Logo-IfcOpenShell2" serif:id="Logo IfcOpenShell">
	
		<linearGradient id="SVGID_00000101815604109254225330000002637702256578126499_" gradientUnits="userSpaceOnUse" x1="387" y1="502.9071" x2="388" y2="502.9071" gradientTransform="matrix(51.4981 -15.1382 -11.1502 -37.9313 -13884.4912 25070.457)">
		<stop  offset="0" style="stop-color:#3BB549"/>
		<stop  offset="1" style="stop-color:#F5EE30"/>
	</linearGradient>
	<path style="fill-rule:evenodd;clip-rule:evenodd;fill:url(#SVGID_00000101815604109254225330000002637702256578126499_);" d="
		M482.4,108L482.4,108l0.3,0.2l0.7,0.5l0.7,0.5l0.7,0.6l0.7,0.6l0.6,0.6l0.6,0.6l0.6,0.6l0.5,0.6l0.5,0.6l0.5,0.6l0.4,0.6l0.4,0.6
		l0.4,0.6l0.3,0.6l0.3,0.6l0.3,0.6l0.2,0.6l0.2,0.6l0.2,0.6l0.1,0.6l0.1,0.6l0.1,0.6l0,0.6l0,0.6l0,0.6l0,0.6l-0.1,0.6l-0.1,0.6
		l-0.1,0.6l-0.2,0.6l-0.2,0.6l-0.2,0.6l-0.3,0.6l-0.3,0.6l-0.3,0.6l-0.4,0.6l-0.4,0.6l-0.4,0.6l-0.5,0.6l-0.5,0.6l-0.5,0.6l-0.6,0.6
		l-0.6,0.6l-0.6,0.6l-0.7,0.6l-0.7,0.6l-0.7,0.5l-0.7,0.5l-0.8,0.5l-0.8,0.5l-0.8,0.5l-0.8,0.5l-0.9,0.5l-0.9,0.5l-0.9,0.5l-0.9,0.5
		l-1,0.4l-1,0.4l-1,0.4l-1,0.4l-1.1,0.4l-1.1,0.4l-1.1,0.4l-1.1,0.4l-1.1,0.3l-1.2,0.3l-1.2,0.3l-1.2,0.3l-1.2,0.3l-1.2,0.3
		l-1.2,0.3l-1.2,0.3l-1.3,0.2l-1.3,0.2l-1.3,0.2l-1.3,0.2l-1.3,0.2l-1.3,0.2l-1.3,0.1l-1.3,0.1l-1.3,0.1l-1.3,0.1l-1.3,0.1l-1.3,0.1
		l-1.3,0.1l-1.4,0l-1.4,0l-1.4,0v-29.3l1.4,0l1.4,0l1.4,0l1.3-0.1l1.3-0.1l1.3-0.1l1.3-0.1l1.3-0.1l1.3-0.1l1.3-0.1l1.3-0.2l1.3-0.2
		l1.3-0.2l1.3-0.2l1.3-0.2l1.3-0.2l1.2-0.3l1.2-0.3l1.2-0.3l1.2-0.3l1.2-0.3l1.2-0.3l1.2-0.3l1.1-0.3l1.1-0.4l1.1-0.4l1.1-0.4
		l1.1-0.4l1-0.4l1-0.4l1-0.4l1-0.4l0.9-0.5l0.9-0.5l0.9-0.5l0.9-0.5l0.8-0.5l0.8-0.5l0.8-0.5L482.4,108L482.4,108L482.4,108
		L482.4,108z"/>
	
		<linearGradient id="SVGID_00000050620874401802901320000002091209168556999332_" gradientUnits="userSpaceOnUse" x1="387" y1="503" x2="388" y2="503" gradientTransform="matrix(27.5951 0 0 -54.6355 -10272.9199 27550.9707)">
		<stop  offset="0" style="stop-color:#F1592A"/>
		<stop  offset="1" style="stop-color:#F5E732"/>
	</linearGradient>
	<path style="fill-rule:evenodd;clip-rule:evenodd;fill:url(#SVGID_00000050620874401802901320000002091209168556999332_);" d="
		M406.4,42l0,0.6l0,0.6l0,0.6l0.1,0.6l0.1,0.6l0.1,0.6l0.1,0.6l0.1,0.6l0.1,0.6l0.2,0.6l0.2,0.6l0.2,0.6l0.2,0.6l0.2,0.6l0.2,0.6
		l0.3,0.6l0.3,0.6l0.3,0.6l0.3,0.6l0.3,0.6l0.3,0.5l0.3,0.5l0.4,0.5l0.4,0.5l0.4,0.5l0,0v0l0.4,0.5l0.4,0.5l0.4,0.5l0.4,0.5l0.4,0.5
		l0.5,0.5l0.5,0.4l0.5,0.4l0.5,0.4l0.5,0.4l0.5,0.4L417,62l0.5,0.4l0.5,0.4l0.6,0.4l0.6,0.3l0.6,0.3l0.6,0.3l0.6,0.3l0.6,0.3
		l0.6,0.3l0.6,0.3l0.6,0.2l0.6,0.2l0.6,0.2l0.6,0.2l0.6,0.2l0.7,0.2l0.7,0.2l0.7,0.1l0.7,0.1l0.7,0.1l0.7,0.1l0.7,0.1l0.7,0.1
		l0.7,0.1l0.7,0l0.7,0l0.7,0v29.3l-0.7,0l-0.7,0l-0.7,0l-0.7-0.1l-0.7-0.1l-0.7-0.1l-0.7-0.1l-0.7-0.1L428,96l-0.7-0.1l-0.7-0.2
		l-0.7-0.2l-0.6-0.2l-0.6-0.2l-0.6-0.2l-0.6-0.2l-0.6-0.2l-0.6-0.3l-0.6-0.3l-0.6-0.3l-0.6-0.3l-0.6-0.3l-0.6-0.3l-0.6-0.3l-0.6-0.4
		l-0.5-0.4l-0.5-0.4l-0.5-0.4l-0.5-0.4l-0.5-0.4l-0.5-0.4l-0.5-0.4l-0.5-0.4l-0.5-0.5l-0.4-0.5l-0.4-0.5l-0.4-0.5l-0.4-0.5l-0.4-0.5
		l-0.4-0.5l-0.4-0.5l-0.4-0.5l-0.3-0.5l-0.3-0.5l-0.3-0.6l-0.3-0.6l-0.3-0.6l-0.3-0.6l-0.3-0.6l-0.2-0.6l-0.2-0.6l-0.2-0.6l-0.2-0.6
		l-0.2-0.6l-0.2-0.6l-0.1-0.6l-0.1-0.6l-0.1-0.6l-0.1-0.6l-0.1-0.6l-0.1-0.6l0-0.6l0-0.6l0-0.6V42L406.4,42z"/>
	
		<linearGradient id="SVGID_00000095330272460972636030000008158512574213914519_" gradientUnits="userSpaceOnUse" x1="387" y1="503.0245" x2="388" y2="503.0245" gradientTransform="matrix(16.3002 -34.6303 -50.1989 -23.6282 19358.8672 25338.1543)">
		<stop  offset="0" style="stop-color:#F5EE30"/>
		<stop  offset="1" style="stop-color:#3BB549"/>
	</linearGradient>
	<path style="fill-rule:evenodd;clip-rule:evenodd;fill:url(#SVGID_00000095330272460972636030000008158512574213914519_);" d="
		M411.4,56.6l-0.4-0.5l-0.4-0.5l-0.4-0.5l-0.3-0.5l-0.3-0.5l-0.3-0.6l-0.3-0.6l-0.3-0.6l-0.3-0.6l-0.3-0.6l-0.2-0.6l-0.2-0.6
		l-0.2-0.6l-0.2-0.6l-0.2-0.6l-0.2-0.6l-0.1-0.6l-0.1-0.6l-0.1-0.6l-0.1-0.6l-0.1-0.6l-0.1-0.6l0-0.6l0-0.6l0-0.6l0-0.6l0-0.6l0-0.6
		l0.1-0.6l0.1-0.6l0.1-0.6l0.1-0.6l0.1-0.6l0.1-0.6l0.2-0.6l0.2-0.6l0.2-0.6l0.2-0.6l0.2-0.6l0.2-0.6l0.3-0.6l0.3-0.6l0.3-0.6
		l0.3-0.6l0.3-0.6l0.3-0.5l0.3-0.5l0.4-0.5l0.4-0.5l0.4-0.5l0.4-0.5l0.4-0.5l0.4-0.5l0.4-0.5l0.4-0.5l0.5-0.5l0.5-0.4l0.5-0.4
		l0.5-0.4l0.5-0.4l0.5-0.4L417,22l0.5-0.4l0.5-0.4l0.6-0.4l0.6-0.3l0.6-0.3l0.6-0.3l0.6-0.3l0.6-0.3l0.6-0.3l0.6-0.3l0.6-0.2
		l0.6-0.2l0.6-0.2l0.6-0.2l0.6-0.2l0.7-0.2l0.7-0.2l0.7-0.1l0.7-0.1l0.7-0.1l0.7-0.1l0.7-0.1l0.7-0.1l0.7-0.1l0.7,0l0.7,0l0.7,0
		v29.3l-0.7,0l-0.7,0l-0.7,0l-0.7,0.1l-0.7,0.1l-0.7,0.1l-0.7,0.1l-0.7,0.1l-0.7,0.1l-0.7,0.1l-0.7,0.2L426,47l-0.6,0.2l-0.6,0.2
		l-0.6,0.2l-0.6,0.2l-0.6,0.2l-0.6,0.3l-0.6,0.3l-0.6,0.3l-0.6,0.3l-0.6,0.3l-0.6,0.3l-0.6,0.3l-0.6,0.4l-0.5,0.4l-0.5,0.4l-0.5,0.4
		L416,52l-0.5,0.4l-0.5,0.4l-0.5,0.4l-0.5,0.4l-0.5,0.5l-0.4,0.5l-0.4,0.5l-0.4,0.5l-0.4,0.5L411.4,56.6
		C411.5,56.6,411.4,56.6,411.4,56.6z"/>
	
		<linearGradient id="SVGID_00000082347033631326357390000013339223014502568635_" gradientUnits="userSpaceOnUse" x1="387" y1="503.0413" x2="388" y2="503.0413" gradientTransform="matrix(53.3276 37.0693 37.0693 -53.3276 -38846.8828 12553.0342)">
		<stop  offset="0" style="stop-color:#F5E732"/>
		<stop  offset="1" style="stop-color:#F1592A"/>
	</linearGradient>
	<path style="fill-rule:evenodd;clip-rule:evenodd;fill:url(#SVGID_00000082347033631326357390000013339223014502568635_);" d="
		M482.4,108l-0.5-0.3l-0.8-0.5l-0.8-0.5l-0.8-0.5l-0.9-0.5l-0.9-0.5l-0.9-0.5l-0.9-0.5l-1-0.4l-1-0.4l-1-0.4l-1-0.4l-1.1-0.4
		l-1.1-0.4l-1.1-0.4l-1.1-0.4l-1.1-0.3l-1.2-0.3L464,100l-1.2-0.3l-1.2-0.3l-1.2-0.3l-1.2-0.3l-1.2-0.3l-1.3-0.2l-1.3-0.2l-1.3-0.2
		l-1.3-0.2l-1.3-0.2l-1.3-0.2l-1.3-0.1l-1.3-0.1l-1.3-0.1l-1.3-0.1l-1.3-0.1l-1.3-0.1l-1.3-0.1l-1.4,0l-1.4,0l-1.4,0V67.3l1.4,0
		l1.4,0l1.4,0l1.3,0.1l1.3,0.1l1.3,0.1l1.3,0.1l1.3,0.1l1.3,0.1l1.3,0.1l1.3,0.2l1.3,0.2l1.3,0.2l1.3,0.2l1.3,0.2l1.3,0.2l1.2,0.3
		l1.2,0.3l1.2,0.3l1.2,0.3l1.2,0.3l1.2,0.3l1.2,0.3l1.1,0.3l1.1,0.4l1.1,0.4l1.1,0.4l1.1,0.4l1,0.4l1,0.4l1,0.4l1,0.4l0.9,0.5
		l0.9,0.5l0.9,0.5l0.9,0.5l0.8,0.5l0.8,0.5l0.8,0.5l0.8,0.5l0.7,0.5l0.7,0.5l0.7,0.6l0.7,0.6l0.6,0.6l0.6,0.6l0.6,0.6l0.5,0.6
		l0.5,0.6l0.5,0.6l0.4,0.6l0.4,0.6l0.4,0.6l0.3,0.6l0.3,0.6l0.3,0.6l0.2,0.6l0.2,0.6l0.2,0.6l0.1,0.6l0.1,0.6l0.1,0.6l0,0.6l0,0.6
		v29.3l0-0.6l0-0.6l-0.1-0.6l-0.1-0.6l-0.1-0.6l-0.2-0.6l-0.2-0.6l-0.2-0.6l-0.3-0.6l-0.3-0.6l-0.3-0.6l-0.4-0.6l-0.4-0.6l-0.4-0.6
		l-0.5-0.6l-0.5-0.6l-0.5-0.6l-0.6-0.6l-0.6-0.6l-0.6-0.6l-0.7-0.6l-0.7-0.6l-0.7-0.5l-0.7-0.5L482.4,108L482.4,108L482.4,108z"/>
</g>
<g id="Logo-IfcOpenShell2_00000021104093634362095990000017323987806443914372_" serif:id="Logo IfcOpenShell" class="st23">
	
		<linearGradient id="SVGID_00000050640159448499743530000014683880805026500762_" gradientUnits="userSpaceOnUse" x1="379.8102" y1="506.1058" x2="380.8102" y2="506.1058" gradientTransform="matrix(51.4981 -15.1382 -11.1502 -37.9313 -13884.4912 25070.457)">
		<stop  offset="0" style="stop-color:#3BB549"/>
		<stop  offset="1" style="stop-color:#F5EE30"/>
	</linearGradient>
	<path style="fill-rule:evenodd;clip-rule:evenodd;fill:url(#SVGID_00000050640159448499743530000014683880805026500762_);" d="
		M76.5,95.5L76.5,95.5l0.3,0.2l0.7,0.5l0.7,0.5l0.7,0.6l0.7,0.6l0.6,0.6l0.6,0.6l0.6,0.6l0.5,0.6l0.5,0.6l0.5,0.6l0.4,0.6l0.4,0.6
		l0.4,0.6l0.3,0.6l0.3,0.6l0.3,0.6l0.2,0.6l0.2,0.6l0.2,0.6l0.1,0.6l0.1,0.6l0.1,0.6l0,0.6l0,0.6l0,0.6l0,0.6l-0.1,0.6l-0.1,0.6
		l-0.1,0.6l-0.2,0.6l-0.2,0.6l-0.2,0.6l-0.3,0.6l-0.3,0.6l-0.3,0.6l-0.4,0.6l-0.4,0.6l-0.4,0.6l-0.5,0.6l-0.5,0.6l-0.5,0.6l-0.6,0.6
		l-0.6,0.6l-0.6,0.6l-0.7,0.6l-0.7,0.6l-0.7,0.5l-0.7,0.5l-0.8,0.5l-0.8,0.5l-0.8,0.5l-0.8,0.5l-0.9,0.5l-0.9,0.5l-0.9,0.5l-0.9,0.5
		l-1,0.4l-1,0.4l-1,0.4l-1,0.4l-1.1,0.4l-1.1,0.4l-1.1,0.4l-1.1,0.4l-1.1,0.3l-1.2,0.3l-1.2,0.3l-1.2,0.3l-1.2,0.3l-1.2,0.3
		l-1.2,0.3l-1.2,0.3l-1.3,0.2l-1.3,0.2l-1.3,0.2l-1.3,0.2l-1.3,0.2l-1.3,0.2l-1.3,0.1l-1.3,0.1l-1.3,0.1l-1.3,0.1l-1.3,0.1l-1.3,0.1
		l-1.3,0.1l-1.4,0l-1.4,0l-1.4,0v-29.3l1.4,0l1.4,0l1.4,0l1.3-0.1l1.3-0.1l1.3-0.1l1.3-0.1l1.3-0.1l1.3-0.1l1.3-0.1l1.3-0.2l1.3-0.2
		l1.3-0.2l1.3-0.2l1.3-0.2l1.3-0.2l1.2-0.3l1.2-0.3l1.2-0.3l1.2-0.3l1.2-0.3l1.2-0.3l1.2-0.3l1.1-0.3l1.1-0.4l1.1-0.4l1.1-0.4
		l1.1-0.4l1-0.4l1-0.4l1-0.4l1-0.4l0.9-0.5l0.9-0.5l0.9-0.5l0.9-0.5l0.8-0.5l0.8-0.5l0.8-0.5L76.5,95.5L76.5,95.5L76.5,95.5
		L76.5,95.5z"/>
	
		<linearGradient id="SVGID_00000152979306971986247140000004660151526707102112_" gradientUnits="userSpaceOnUse" x1="372.2899" y1="503.2286" x2="373.2899" y2="503.2286" gradientTransform="matrix(27.5951 0 0 -54.6355 -10272.9199 27550.9707)">
		<stop  offset="0" style="stop-color:#F1592A"/>
		<stop  offset="1" style="stop-color:#F5E732"/>
	</linearGradient>
	<path style="fill-rule:evenodd;clip-rule:evenodd;fill:url(#SVGID_00000152979306971986247140000004660151526707102112_);" d="
		M0.5,29.5l0,0.6l0,0.6l0,0.6L0.6,32l0.1,0.6l0.1,0.6l0.1,0.6L1,34.4L1.1,35l0.2,0.6l0.2,0.6l0.2,0.6l0.2,0.6L2.1,38l0.2,0.6
		l0.3,0.6l0.3,0.6l0.3,0.6l0.3,0.6l0.3,0.6L4.1,42l0.3,0.5l0.4,0.5l0.4,0.5l0.4,0.5l0,0v0l0.4,0.5l0.4,0.5l0.4,0.5l0.4,0.5l0.4,0.5
		L8.1,47l0.5,0.4L9,47.9l0.5,0.4l0.5,0.4l0.5,0.4l0.5,0.4l0.5,0.4l0.5,0.4l0.6,0.4l0.6,0.3l0.6,0.3l0.6,0.3l0.6,0.3l0.6,0.3l0.6,0.3
		l0.6,0.3l0.6,0.2l0.6,0.2l0.6,0.2l0.6,0.2l0.6,0.2l0.7,0.2l0.7,0.2l0.7,0.1l0.7,0.1l0.7,0.1l0.7,0.1l0.7,0.1l0.7,0.1l0.7,0.1l0.7,0
		l0.7,0l0.7,0v29.3l-0.7,0l-0.7,0l-0.7,0L25.4,84l-0.7-0.1L24,83.9l-0.7-0.1l-0.7-0.1L22,83.5l-0.7-0.1l-0.7-0.2L20.1,83l-0.6-0.2
		l-0.6-0.2l-0.6-0.2l-0.6-0.2l-0.6-0.2l-0.6-0.3l-0.6-0.3l-0.6-0.3l-0.6-0.3l-0.6-0.3l-0.6-0.3l-0.6-0.3l-0.6-0.4l-0.5-0.4l-0.5-0.4
		l-0.5-0.4L10,78l-0.5-0.4L9,77.1l-0.5-0.4l-0.5-0.4l-0.5-0.5l-0.4-0.5l-0.4-0.5l-0.4-0.5l-0.4-0.5l-0.4-0.5l-0.4-0.5l-0.4-0.5
		l-0.4-0.5l-0.3-0.5l-0.3-0.5l-0.3-0.6l-0.3-0.6L2.8,69l-0.3-0.6l-0.3-0.6l-0.2-0.6l-0.2-0.6l-0.2-0.6l-0.2-0.6l-0.2-0.6l-0.2-0.6
		L1,63.7l-0.1-0.6l-0.1-0.6l-0.1-0.6l-0.1-0.6l-0.1-0.6l0-0.6l0-0.6l0-0.6L0.5,29.5L0.5,29.5z"/>
	
		<linearGradient id="SVGID_00000096771248438560850130000006500061584770507695_" gradientUnits="userSpaceOnUse" x1="382.7786" y1="509.7401" x2="383.7786" y2="509.7401" gradientTransform="matrix(16.3002 -34.6303 -50.1989 -23.6282 19358.8672 25338.1543)">
		<stop  offset="0" style="stop-color:#F5EE30"/>
		<stop  offset="1" style="stop-color:#3BB549"/>
	</linearGradient>
	<path style="fill-rule:evenodd;clip-rule:evenodd;fill:url(#SVGID_00000096771248438560850130000006500061584770507695_);" d="
		M5.5,44.1l-0.4-0.5l-0.4-0.5l-0.4-0.5L4.1,42l-0.3-0.5l-0.3-0.6l-0.3-0.6l-0.3-0.6l-0.3-0.6l-0.3-0.6L2.1,38l-0.2-0.6l-0.2-0.6
		l-0.2-0.6l-0.2-0.6L1.1,35L1,34.4l-0.1-0.6l-0.1-0.6l-0.1-0.6L0.6,32l-0.1-0.6l0-0.6l0-0.6l0-0.6l0-0.6l0-0.6l0-0.6L0.6,27l0.1-0.6
		l0.1-0.6l0.1-0.6L1,24.5l0.1-0.6l0.2-0.6l0.2-0.6l0.2-0.6l0.2-0.6l0.2-0.6l0.2-0.6l0.3-0.6l0.3-0.6l0.3-0.6l0.3-0.6l0.3-0.6L4.1,17
		l0.3-0.5l0.4-0.5l0.4-0.5l0.4-0.5l0.4-0.5l0.4-0.5l0.4-0.5l0.4-0.5l0.4-0.5L8.1,12l0.5-0.4L9,11.1l0.5-0.4l0.5-0.4l0.5-0.4l0.5-0.4
		l0.5-0.4l0.5-0.4l0.6-0.4l0.6-0.3l0.6-0.3l0.6-0.3l0.6-0.3l0.6-0.3l0.6-0.3l0.6-0.3l0.6-0.2l0.6-0.2l0.6-0.2l0.6-0.2l0.6-0.2
		L20.7,5l0.7-0.2L22,4.7l0.7-0.1l0.7-0.1L24,4.4l0.7-0.1l0.7-0.1L26,4.2l0.7,0l0.7,0l0.7,0v29.3l-0.7,0l-0.7,0l-0.7,0l-0.7,0.1
		l-0.7,0.1L24,33.7l-0.7,0.1l-0.7,0.1L22,34l-0.7,0.1l-0.7,0.2l-0.7,0.2l-0.6,0.2l-0.6,0.2l-0.6,0.2l-0.6,0.2l-0.6,0.2l-0.6,0.3
		l-0.6,0.3l-0.6,0.3l-0.6,0.3L13.9,37l-0.6,0.3l-0.6,0.3L12.2,38l-0.5,0.4l-0.5,0.4l-0.5,0.4L10,39.6L9.5,40L9,40.4l-0.5,0.4
		l-0.5,0.4l-0.5,0.5l-0.4,0.5l-0.4,0.5l-0.4,0.5l-0.4,0.5L5.5,44.1C5.5,44.1,5.5,44.1,5.5,44.1z"/>
	
		<linearGradient id="SVGID_00000035489740081258855780000007288044071408846237_" gradientUnits="userSpaceOnUse" x1="381.7581" y1="499.6317" x2="382.7581" y2="499.6317" gradientTransform="matrix(53.3276 37.0693 37.0693 -53.3276 -38846.8828 12553.0342)">
		<stop  offset="0" style="stop-color:#F5E732"/>
		<stop  offset="1" style="stop-color:#F1592A"/>
	</linearGradient>
	<path style="fill-rule:evenodd;clip-rule:evenodd;fill:url(#SVGID_00000035489740081258855780000007288044071408846237_);" d="
		M76.5,95.5l-0.5-0.3l-0.8-0.5l-0.8-0.5l-0.8-0.5l-0.9-0.5l-0.9-0.5l-0.9-0.5l-0.9-0.5l-1-0.4l-1-0.4l-1-0.4l-1-0.4l-1.1-0.4
		l-1.1-0.4l-1.1-0.4l-1.1-0.4l-1.1-0.3l-1.2-0.3L58,87.5l-1.2-0.3l-1.2-0.3l-1.2-0.3l-1.2-0.3l-1.2-0.3l-1.3-0.2l-1.3-0.2l-1.3-0.2
		l-1.3-0.2l-1.3-0.2l-1.3-0.2l-1.3-0.1l-1.3-0.1l-1.3-0.1l-1.3-0.1l-1.3-0.1l-1.3-0.1l-1.3-0.1l-1.4,0l-1.4,0l-1.4,0V54.9l1.4,0
		l1.4,0l1.4,0l1.3,0.1l1.3,0.1l1.3,0.1l1.3,0.1l1.3,0.1l1.3,0.1l1.3,0.1l1.3,0.2l1.3,0.2l1.3,0.2l1.3,0.2l1.3,0.2l1.3,0.2l1.2,0.3
		l1.2,0.3l1.2,0.3l1.2,0.3l1.2,0.3l1.2,0.3l1.2,0.3l1.1,0.3l1.1,0.4l1.1,0.4l1.1,0.4l1.1,0.4l1,0.4l1,0.4l1,0.4l1,0.4l0.9,0.5
		l0.9,0.5l0.9,0.5l0.9,0.5l0.8,0.5l0.8,0.5l0.8,0.5l0.8,0.5l0.7,0.5l0.7,0.5l0.7,0.6l0.7,0.6l0.6,0.6l0.6,0.6l0.6,0.6l0.5,0.6
		l0.5,0.6l0.5,0.6l0.4,0.6l0.4,0.6l0.4,0.6l0.3,0.6l0.3,0.6l0.3,0.6l0.2,0.6l0.2,0.6l0.2,0.6l0.1,0.6l0.1,0.6l0.1,0.6l0,0.6l0,0.6
		v29.3l0-0.6l0-0.6l-0.1-0.6l-0.1-0.6l-0.1-0.6l-0.2-0.6l-0.2-0.6l-0.2-0.6l-0.3-0.6l-0.3-0.6l-0.3-0.6l-0.4-0.6l-0.4-0.6l-0.4-0.6
		l-0.5-0.6l-0.5-0.6l-0.5-0.6L80.7,99l-0.6-0.6l-0.6-0.6l-0.7-0.6l-0.7-0.6l-0.7-0.5l-0.7-0.5L76.5,95.5L76.5,95.5L76.5,95.5z"/>
</g>
<g id="Logo-IfcOpenShell2_00000135688300599518799130000005124718459851567796_" serif:id="Logo IfcOpenShell" class="st23">
	
		<linearGradient id="SVGID_00000146491572441257769670000002637379231215286425_" gradientUnits="userSpaceOnUse" x1="380.3428" y1="508.6057" x2="381.3428" y2="508.6057" gradientTransform="matrix(51.4981 -15.1382 -11.1502 -37.9313 -13884.4912 25070.457)">
		<stop  offset="0" style="stop-color:#3BB549"/>
		<stop  offset="1" style="stop-color:#F5EE30"/>
	</linearGradient>
	<path style="fill-rule:evenodd;clip-rule:evenodd;fill:url(#SVGID_00000146491572441257769670000002637379231215286425_);" d="
		M76-7.4L76-7.4l0.3,0.2L77-6.7l0.7,0.5l0.7,0.6L79.1-5l0.6,0.6l0.6,0.6l0.6,0.6l0.5,0.6l0.5,0.6l0.5,0.6l0.4,0.6l0.4,0.6l0.4,0.6
		l0.3,0.6l0.3,0.6l0.3,0.6l0.2,0.6L85,3.4l0.2,0.6l0.1,0.6l0.1,0.6L85.5,6l0,0.6l0,0.6l0,0.6l0,0.6l-0.1,0.6l-0.1,0.6l-0.1,0.6
		L85,11.1l-0.2,0.6l-0.2,0.6L84.2,13l-0.3,0.6l-0.3,0.6l-0.4,0.6l-0.4,0.6L82.3,16l-0.5,0.6l-0.5,0.6l-0.5,0.6l-0.6,0.6L79.7,19
		l-0.6,0.6l-0.7,0.6l-0.7,0.6L77,21.2l-0.7,0.5l-0.8,0.5l-0.8,0.5l-0.8,0.5L73,23.8l-0.9,0.5l-0.9,0.5l-0.9,0.5l-0.9,0.5l-1,0.4
		l-1,0.4l-1,0.4l-1,0.4l-1.1,0.4l-1.1,0.4l-1.1,0.4L61,28.9l-1.1,0.3l-1.2,0.3l-1.2,0.3l-1.2,0.3l-1.2,0.3L54,30.8L52.7,31l-1.2,0.3
		l-1.3,0.2L49,31.8L47.7,32l-1.3,0.2l-1.3,0.2l-1.3,0.2l-1.3,0.1l-1.3,0.1l-1.3,0.1L38.5,33l-1.3,0.1l-1.3,0.1l-1.3,0.1l-1.4,0
		l-1.4,0l-1.4,0V4l1.4,0l1.4,0l1.4,0l1.3-0.1l1.3-0.1l1.3-0.1l1.3-0.1l1.3-0.1l1.3-0.1l1.3-0.1l1.3-0.2l1.3-0.2l1.3-0.2L49,2.5
		l1.3-0.2L51.5,2l1.2-0.3L54,1.5l1.2-0.3l1.2-0.3l1.2-0.3l1.2-0.3L59.9,0L61-0.4l1.1-0.4l1.1-0.4l1.1-0.4l1.1-0.4l1-0.4l1-0.4l1-0.4
		l1-0.4l0.9-0.5l0.9-0.5L72.2-5L73-5.5L73.9-6l0.8-0.5L75.5-7L76-7.4L76-7.4L76-7.4L76-7.4z"/>
	
		<linearGradient id="SVGID_00000134248584667954178720000008538647300169882291_" gradientUnits="userSpaceOnUse" x1="372.2737" y1="505.1118" x2="373.2737" y2="505.1118" gradientTransform="matrix(27.5951 0 0 -54.6355 -10272.9199 27550.9707)">
		<stop  offset="0" style="stop-color:#F1592A"/>
		<stop  offset="1" style="stop-color:#F5E732"/>
	</linearGradient>
	<path style="fill-rule:evenodd;clip-rule:evenodd;fill:url(#SVGID_00000134248584667954178720000008538647300169882291_);" d="
		M0-73.4l0,0.6l0,0.6l0,0.6l0.1,0.6l0.1,0.6l0.1,0.6l0.1,0.6l0.1,0.6l0.1,0.6l0.2,0.6L1-66.6L1.2-66l0.2,0.6l0.2,0.6l0.2,0.6
		l0.3,0.6l0.3,0.6l0.3,0.6L3-62l0.3,0.6l0.3,0.5L4-60.4l0.4,0.5l0.4,0.5l0.4,0.5l0,0v0l0.4,0.5l0.4,0.5l0.4,0.5l0.4,0.5l0.4,0.5
		l0.5,0.5l0.5,0.4L8.6-55l0.5,0.4l0.5,0.4l0.5,0.4l0.5,0.4l0.5,0.4l0.5,0.4l0.6,0.4l0.6,0.3l0.6,0.3l0.6,0.3l0.6,0.3l0.6,0.3
		l0.6,0.3l0.6,0.3l0.6,0.2l0.6,0.2l0.6,0.2l0.6,0.2l0.6,0.2l0.7,0.2l0.7,0.2l0.7,0.1l0.7,0.1l0.7,0.1l0.7,0.1l0.7,0.1l0.7,0.1
		l0.7,0.1l0.7,0l0.7,0l0.7,0v29.3l-0.7,0l-0.7,0l-0.7,0l-0.7-0.1L24.2-19L23.6-19l-0.7-0.1l-0.7-0.1l-0.7-0.1l-0.7-0.1l-0.7-0.2
		l-0.7-0.2L19-20l-0.6-0.2l-0.6-0.2l-0.6-0.2l-0.6-0.2l-0.6-0.3l-0.6-0.3l-0.6-0.3L14-22.1l-0.6-0.3l-0.6-0.3L12.3-23l-0.6-0.4
		l-0.5-0.4l-0.5-0.4l-0.5-0.4l-0.5-0.4l-0.5-0.4l-0.5-0.4l-0.5-0.4l-0.5-0.4l-0.5-0.5l-0.4-0.5L6.3-28l-0.4-0.5L5.5-29l-0.4-0.5
		L4.7-30l-0.4-0.5L4-31.1l-0.3-0.5l-0.3-0.5L3-32.7l-0.3-0.6l-0.3-0.6l-0.3-0.6L1.9-35l-0.2-0.6l-0.2-0.6l-0.2-0.6L1-37.4L0.9-38
		l-0.2-0.6l-0.1-0.6l-0.1-0.6l-0.1-0.6L0.2-41l-0.1-0.6l-0.1-0.6l0-0.6l0-0.6l0-0.6L0-73.4L0-73.4z"/>
	
		<linearGradient id="SVGID_00000151531895469797797680000017881717115929136794_" gradientUnits="userSpaceOnUse" x1="385.2057" y1="510.5372" x2="386.2057" y2="510.5372" gradientTransform="matrix(16.3002 -34.6303 -50.1989 -23.6282 19358.8672 25338.1543)">
		<stop  offset="0" style="stop-color:#F5EE30"/>
		<stop  offset="1" style="stop-color:#3BB549"/>
	</linearGradient>
	<path style="fill-rule:evenodd;clip-rule:evenodd;fill:url(#SVGID_00000151531895469797797680000017881717115929136794_);" d="
		M5.1-58.8l-0.4-0.5l-0.4-0.5L4-60.4l-0.3-0.5l-0.3-0.5L3-62l-0.3-0.6l-0.3-0.6l-0.3-0.6l-0.3-0.6l-0.2-0.6l-0.2-0.6L1.2-66L1-66.6
		l-0.2-0.6l-0.2-0.6l-0.1-0.6l-0.1-0.6l-0.1-0.6l-0.1-0.6l-0.1-0.6l-0.1-0.6l0-0.6l0-0.6l0-0.6L0-74l0-0.6l0-0.6l0.1-0.6l0.1-0.6
		l0.1-0.6l0.1-0.6l0.1-0.6L0.7-79l0.2-0.6L1-80.2l0.2-0.6l0.2-0.6l0.2-0.6l0.2-0.6l0.3-0.6l0.3-0.6l0.3-0.6L3-84.8l0.3-0.6l0.3-0.5
		L4-86.4L4.3-87l0.4-0.5L5.1-88l0.4-0.5L5.9-89l0.4-0.5L6.7-90l0.4-0.5l0.5-0.5l0.5-0.4l0.5-0.4l0.5-0.4l0.5-0.4l0.5-0.4l0.5-0.4
		l0.5-0.4l0.5-0.4l0.6-0.4l0.6-0.3l0.6-0.3l0.6-0.3l0.6-0.3l0.6-0.3l0.6-0.3l0.6-0.3l0.6-0.2l0.6-0.2l0.6-0.2l0.6-0.2l0.6-0.2
		l0.7-0.2l0.7-0.2l0.7-0.1l0.7-0.1l0.7-0.1l0.7-0.1l0.7-0.1l0.7-0.1l0.7-0.1l0.7,0l0.7,0l0.7,0v29.3l-0.7,0l-0.7,0l-0.7,0l-0.7,0.1
		l-0.7,0.1l-0.7,0.1l-0.7,0.1L22.2-69l-0.7,0.1l-0.7,0.1l-0.7,0.2l-0.7,0.2L19-68.2L18.3-68l-0.6,0.2l-0.6,0.2l-0.6,0.2l-0.6,0.3
		l-0.6,0.3l-0.6,0.3L14-66.2l-0.6,0.3l-0.6,0.3l-0.6,0.3l-0.6,0.4l-0.5,0.4l-0.5,0.4l-0.5,0.4l-0.5,0.4l-0.5,0.4l-0.5,0.4l-0.5,0.4
		l-0.5,0.4l-0.5,0.5l-0.4,0.5l-0.4,0.5l-0.4,0.5l-0.4,0.5L5.1-58.8C5.1-58.8,5.1-58.8,5.1-58.8z"/>
	
		<linearGradient id="SVGID_00000148637661851046174720000000096140985161022389_" gradientUnits="userSpaceOnUse" x1="380.8482" y1="500.9286" x2="381.8482" y2="500.9286" gradientTransform="matrix(53.3276 37.0693 37.0693 -53.3276 -38846.8828 12553.0342)">
		<stop  offset="0" style="stop-color:#F5E732"/>
		<stop  offset="1" style="stop-color:#F1592A"/>
	</linearGradient>
	<path style="fill-rule:evenodd;clip-rule:evenodd;fill:url(#SVGID_00000148637661851046174720000000096140985161022389_);" d="
		M76-7.4l-0.5-0.3l-0.8-0.5l-0.8-0.5L73-9.2l-0.9-0.5l-0.9-0.5l-0.9-0.5l-0.9-0.5l-1-0.4l-1-0.4l-1-0.4l-1-0.4l-1.1-0.4l-1.1-0.4
		L62.2-14L61-14.4l-1.1-0.3l-1.2-0.3l-1.2-0.3l-1.2-0.3L55.2-16L54-16.3l-1.2-0.3l-1.2-0.3L50.2-17L49-17.2l-1.3-0.2l-1.3-0.2
		l-1.3-0.2L43.8-18l-1.3-0.1l-1.3-0.1l-1.3-0.1l-1.3-0.1l-1.3-0.1l-1.3-0.1l-1.3-0.1l-1.4,0l-1.4,0l-1.4,0V-48l1.4,0l1.4,0l1.4,0
		l1.3,0.1l1.3,0.1l1.3,0.1l1.3,0.1l1.3,0.1l1.3,0.1l1.3,0.1l1.3,0.2l1.3,0.2l1.3,0.2l1.3,0.2l1.3,0.2l1.3,0.2l1.2,0.3l1.2,0.3
		l1.2,0.3l1.2,0.3l1.2,0.3l1.2,0.3l1.2,0.3l1.1,0.3l1.1,0.4l1.1,0.4l1.1,0.4l1.1,0.4l1,0.4l1,0.4l1,0.4l1,0.4l0.9,0.5l0.9,0.5
		l0.9,0.5l0.9,0.5l0.8,0.5l0.8,0.5l0.8,0.5l0.8,0.5l0.7,0.5l0.7,0.5l0.7,0.6l0.7,0.6l0.6,0.6l0.6,0.6l0.6,0.6l0.5,0.6l0.5,0.6
		l0.5,0.6l0.4,0.6l0.4,0.6l0.4,0.6l0.3,0.6l0.3,0.6l0.3,0.6l0.2,0.6l0.2,0.6l0.2,0.6l0.1,0.6l0.1,0.6l0.1,0.6l0,0.6l0,0.6V7.3l0-0.6
		l0-0.6l-0.1-0.6l-0.1-0.6l-0.1-0.6L85,3.4l-0.2-0.6l-0.2-0.6l-0.3-0.6l-0.3-0.6l-0.3-0.6l-0.4-0.6l-0.4-0.6l-0.4-0.6l-0.5-0.6
		l-0.5-0.6l-0.5-0.6l-0.6-0.6l-0.6-0.6L79.1-5l-0.7-0.6l-0.7-0.6L77-6.7l-0.7-0.5L76-7.4L76-7.4L76-7.4z"/>
</g>
<g id="Logo-IfcOpenShell2_00000142878970219007681880000010137301442023255174_" serif:id="Logo IfcOpenShell" class="st23">
	
		<linearGradient id="SVGID_00000045585916254565867470000009466051689179856319_" gradientUnits="userSpaceOnUse" x1="379.2702" y1="503.612" x2="380.2702" y2="503.612" gradientTransform="matrix(51.4981 -15.1382 -11.1502 -37.9313 -13884.4912 25070.457)">
		<stop  offset="0" style="stop-color:#3BB549"/>
		<stop  offset="1" style="stop-color:#F5EE30"/>
	</linearGradient>
	<path style="fill-rule:evenodd;clip-rule:evenodd;fill:url(#SVGID_00000045585916254565867470000009466051689179856319_);" d="
		M76.5,198.3L76.5,198.3l0.3,0.2l0.7,0.5l0.7,0.5l0.7,0.6l0.7,0.6l0.6,0.6l0.6,0.6l0.6,0.6l0.5,0.6l0.5,0.6l0.5,0.6l0.4,0.6l0.4,0.6
		L84,206l0.3,0.6l0.3,0.6l0.3,0.6l0.2,0.6l0.2,0.6l0.2,0.6l0.1,0.6l0.1,0.6l0.1,0.6l0,0.6l0,0.6l0,0.6l0,0.6l-0.1,0.6l-0.1,0.6
		l-0.1,0.6l-0.2,0.6l-0.2,0.6L85,218l-0.3,0.6l-0.3,0.6l-0.3,0.6l-0.4,0.6l-0.4,0.6l-0.4,0.6l-0.5,0.6l-0.5,0.6l-0.5,0.6l-0.6,0.6
		l-0.6,0.6l-0.6,0.6l-0.7,0.6l-0.7,0.6l-0.7,0.5l-0.7,0.5l-0.8,0.5l-0.8,0.5l-0.8,0.5l-0.8,0.5l-0.9,0.5l-0.9,0.5l-0.9,0.5l-0.9,0.5
		l-1,0.4l-1,0.4l-1,0.4l-1,0.4l-1.1,0.4l-1.1,0.4l-1.1,0.4l-1.1,0.4l-1.1,0.3l-1.2,0.3l-1.2,0.3l-1.2,0.3l-1.2,0.3l-1.2,0.3
		l-1.2,0.3l-1.2,0.3l-1.3,0.2l-1.3,0.2l-1.3,0.2l-1.3,0.2l-1.3,0.2l-1.3,0.2l-1.3,0.1l-1.3,0.1l-1.3,0.1l-1.3,0.1l-1.3,0.1l-1.3,0.1
		l-1.3,0.1l-1.4,0l-1.4,0l-1.4,0v-29.3l1.4,0l1.4,0l1.4,0l1.3-0.1l1.3-0.1l1.3-0.1l1.3-0.1l1.3-0.1l1.3-0.1l1.3-0.1l1.3-0.2l1.3-0.2
		l1.3-0.2l1.3-0.2l1.3-0.2l1.3-0.2l1.2-0.3l1.2-0.3l1.2-0.3l1.2-0.3l1.2-0.3l1.2-0.3l1.2-0.3l1.1-0.3l1.1-0.4l1.1-0.4l1.1-0.4
		l1.1-0.4l1-0.4l1-0.4l1-0.4l1-0.4l0.9-0.5l0.9-0.5l0.9-0.5l0.9-0.5l0.8-0.5l0.8-0.5l0.8-0.5L76.5,198.3L76.5,198.3L76.5,198.3
		L76.5,198.3z"/>
	
		<linearGradient id="SVGID_00000076576860315142434190000017246851683087186107_" gradientUnits="userSpaceOnUse" x1="372.2899" y1="501.3476" x2="373.2899" y2="501.3476" gradientTransform="matrix(27.5951 0 0 -54.6355 -10272.9199 27550.9707)">
		<stop  offset="0" style="stop-color:#F1592A"/>
		<stop  offset="1" style="stop-color:#F5E732"/>
	</linearGradient>
	<path style="fill-rule:evenodd;clip-rule:evenodd;fill:url(#SVGID_00000076576860315142434190000017246851683087186107_);" d="
		M0.5,132.3l0,0.6l0,0.6l0,0.6l0.1,0.6l0.1,0.6l0.1,0.6l0.1,0.6l0.1,0.6l0.1,0.6l0.2,0.6l0.2,0.6l0.2,0.6l0.2,0.6l0.2,0.6l0.2,0.6
		l0.3,0.6l0.3,0.6l0.3,0.6l0.3,0.6l0.3,0.6l0.3,0.5l0.3,0.5l0.4,0.5l0.4,0.5l0.4,0.5l0,0v0l0.4,0.5l0.4,0.5l0.4,0.5l0.4,0.5l0.4,0.5
		l0.5,0.5l0.5,0.4l0.5,0.4l0.5,0.4l0.5,0.4l0.5,0.4l0.5,0.4l0.5,0.4l0.5,0.4l0.6,0.4l0.6,0.3l0.6,0.3l0.6,0.3l0.6,0.3l0.6,0.3
		l0.6,0.3l0.6,0.3l0.6,0.2l0.6,0.2l0.6,0.2l0.6,0.2l0.6,0.2l0.7,0.2l0.7,0.2L22,157l0.7,0.1l0.7,0.1l0.7,0.1l0.7,0.1l0.7,0.1
		l0.7,0.1l0.7,0l0.7,0l0.7,0v29.3l-0.7,0l-0.7,0l-0.7,0l-0.7-0.1l-0.7-0.1l-0.7-0.1l-0.7-0.1l-0.7-0.1l-0.7-0.1l-0.7-0.1l-0.7-0.2
		l-0.7-0.2l-0.6-0.2l-0.6-0.2l-0.6-0.2l-0.6-0.2l-0.6-0.2l-0.6-0.3l-0.6-0.3l-0.6-0.3l-0.6-0.3l-0.6-0.3l-0.6-0.3l-0.6-0.3l-0.6-0.4
		l-0.5-0.4l-0.5-0.4l-0.5-0.4l-0.5-0.4l-0.5-0.4L9,179.9l-0.5-0.4L8.1,179l-0.5-0.5l-0.4-0.5l-0.4-0.5l-0.4-0.5l-0.4-0.5l-0.4-0.5
		l-0.4-0.5l-0.4-0.5l-0.4-0.5L4.1,174l-0.3-0.5l-0.3-0.6l-0.3-0.6l-0.3-0.6l-0.3-0.6l-0.3-0.6l-0.2-0.6l-0.2-0.6l-0.2-0.6l-0.2-0.6
		l-0.2-0.6l-0.2-0.6L1,166.5l-0.1-0.6l-0.1-0.6l-0.1-0.6L0.6,164l-0.1-0.6l0-0.6l0-0.6l0-0.6L0.5,132.3L0.5,132.3z"/>
	
		<linearGradient id="SVGID_00000099636632775319432010000015955397457207069612_" gradientUnits="userSpaceOnUse" x1="380.3492" y1="508.9513" x2="381.3492" y2="508.9513" gradientTransform="matrix(16.3002 -34.6303 -50.1989 -23.6282 19358.8672 25338.1543)">
		<stop  offset="0" style="stop-color:#F5EE30"/>
		<stop  offset="1" style="stop-color:#3BB549"/>
	</linearGradient>
	<path style="fill-rule:evenodd;clip-rule:evenodd;fill:url(#SVGID_00000099636632775319432010000015955397457207069612_);" d="
		M5.5,146.9l-0.4-0.5l-0.4-0.5l-0.4-0.5l-0.3-0.5l-0.3-0.5l-0.3-0.6l-0.3-0.6l-0.3-0.6L2.6,142l-0.3-0.6l-0.2-0.6l-0.2-0.6l-0.2-0.6
		L1.5,139l-0.2-0.6l-0.2-0.6L1,137.2l-0.1-0.6L0.8,136l-0.1-0.6l-0.1-0.6l-0.1-0.6l0-0.6l0-0.6l0-0.6l0-0.6l0-0.6l0-0.6l0.1-0.6
		l0.1-0.6l0.1-0.6l0.1-0.6l0.1-0.6l0.1-0.6l0.2-0.6l0.2-0.6l0.2-0.6l0.2-0.6l0.2-0.6l0.2-0.6l0.3-0.6l0.3-0.6l0.3-0.6l0.3-0.6
		l0.3-0.6l0.3-0.5l0.3-0.5l0.4-0.5l0.4-0.5l0.4-0.5l0.4-0.5l0.4-0.5l0.4-0.5l0.4-0.5l0.4-0.5l0.5-0.5l0.5-0.4l0.5-0.4l0.5-0.4
		l0.5-0.4l0.5-0.4l0.5-0.4l0.5-0.4l0.5-0.4l0.6-0.4l0.6-0.3l0.6-0.3l0.6-0.3l0.6-0.3l0.6-0.3l0.6-0.3l0.6-0.3l0.6-0.2l0.6-0.2
		l0.6-0.2l0.6-0.2l0.6-0.2l0.7-0.2l0.7-0.2l0.7-0.1l0.7-0.1l0.7-0.1l0.7-0.1l0.7-0.1l0.7-0.1L26,107l0.7,0l0.7,0l0.7,0v29.3l-0.7,0
		l-0.7,0l-0.7,0l-0.7,0.1l-0.7,0.1l-0.7,0.1l-0.7,0.1l-0.7,0.1l-0.7,0.1l-0.7,0.1l-0.7,0.2l-0.7,0.2l-0.6,0.2l-0.6,0.2l-0.6,0.2
		l-0.6,0.2l-0.6,0.2l-0.6,0.3l-0.6,0.3l-0.6,0.3l-0.6,0.3l-0.6,0.3l-0.6,0.3l-0.6,0.3l-0.6,0.4l-0.5,0.4l-0.5,0.4l-0.5,0.4l-0.5,0.4
		l-0.5,0.4L9,143.2l-0.5,0.4L8.1,144l-0.5,0.5L7.2,145l-0.4,0.5l-0.4,0.5l-0.4,0.5L5.5,146.9C5.5,146.9,5.5,146.9,5.5,146.9z"/>
	
		<linearGradient id="SVGID_00000090290488589650668520000014828020736017146496_" gradientUnits="userSpaceOnUse" x1="382.6613" y1="498.3324" x2="383.6613" y2="498.3324" gradientTransform="matrix(53.3276 37.0693 37.0693 -53.3276 -38846.8828 12553.0342)">
		<stop  offset="0" style="stop-color:#F5E732"/>
		<stop  offset="1" style="stop-color:#F1592A"/>
	</linearGradient>
	<path style="fill-rule:evenodd;clip-rule:evenodd;fill:url(#SVGID_00000090290488589650668520000014828020736017146496_);" d="
		M76.5,198.3l-0.5-0.3l-0.8-0.5l-0.8-0.5l-0.8-0.5l-0.9-0.5l-0.9-0.5l-0.9-0.5l-0.9-0.5l-1-0.4l-1-0.4l-1-0.4l-1-0.4l-1.1-0.4
		l-1.1-0.4l-1.1-0.4l-1.1-0.4l-1.1-0.3l-1.2-0.3l-1.2-0.3l-1.2-0.3l-1.2-0.3l-1.2-0.3l-1.2-0.3l-1.2-0.3l-1.3-0.2l-1.3-0.2l-1.3-0.2
		l-1.3-0.2l-1.3-0.2l-1.3-0.2l-1.3-0.1l-1.3-0.1l-1.3-0.1l-1.3-0.1l-1.3-0.1l-1.3-0.1l-1.3-0.1l-1.4,0l-1.4,0l-1.4,0v-29.3l1.4,0
		l1.4,0l1.4,0l1.3,0.1l1.3,0.1l1.3,0.1l1.3,0.1l1.3,0.1l1.3,0.1l1.3,0.1l1.3,0.2l1.3,0.2l1.3,0.2l1.3,0.2l1.3,0.2l1.3,0.2l1.2,0.3
		l1.2,0.3l1.2,0.3l1.2,0.3L58,161l1.2,0.3l1.2,0.3l1.1,0.3l1.1,0.4l1.1,0.4l1.1,0.4l1.1,0.4l1,0.4l1,0.4l1,0.4l1,0.4l0.9,0.5
		l0.9,0.5l0.9,0.5l0.9,0.5l0.8,0.5l0.8,0.5l0.8,0.5l0.8,0.5l0.7,0.5l0.7,0.5l0.7,0.6l0.7,0.6l0.6,0.6l0.6,0.6l0.6,0.6l0.5,0.6
		l0.5,0.6l0.5,0.6l0.4,0.6l0.4,0.6l0.4,0.6l0.3,0.6l0.3,0.6l0.3,0.6l0.2,0.6l0.2,0.6l0.2,0.6l0.1,0.6l0.1,0.6l0.1,0.6l0,0.6l0,0.6
		v29.3l0-0.6l0-0.6l-0.1-0.6l-0.1-0.6l-0.1-0.6l-0.2-0.6l-0.2-0.6l-0.2-0.6l-0.3-0.6l-0.3-0.6L84,206l-0.4-0.6l-0.4-0.6l-0.4-0.6
		l-0.5-0.6l-0.5-0.6l-0.5-0.6l-0.6-0.6l-0.6-0.6l-0.6-0.6l-0.7-0.6l-0.7-0.6l-0.7-0.5l-0.7-0.5L76.5,198.3L76.5,198.3L76.5,198.3z"
		/>
</g>
</svg>
