<svg xmlns="http://www.w3.org/2000/svg" viewBox="0 0 234.53 177.7"><defs><style>.cls-1{fill:#f5f5f5;}.cls-2{fill:#e0e0e0;}.cls-3{fill:#37474f;}.cls-4{fill:#455a64;}.cls-5{fill:#263238;}.cls-6{fill:#fafafa;}.cls-7{fill:#f0f0f0;}.cls-8{fill:#40b74c;}.cls-10,.cls-11,.cls-9{isolation:isolate;}.cls-9{opacity:0.2;}.cls-10,.cls-11{fill:#fff;}.cls-10{opacity:0.5;}.cls-11{opacity:0.7;}.cls-12{fill:none;stroke:#455a64;stroke-linecap:round;stroke-linejoin:round;stroke-width:0.63px;}</style></defs><g id="Capa_2" data-name="Capa 2"><g id="Building-amico"><g id="freepik--Floor--inject-2"><path id="Trazado_969" data-name="Trazado 969" class="cls-1" d="M46.59,156.44c40.49,22.06,106.12,22.06,146.61,0s40.48-57.83,0-79.89-106.12-22.06-146.61,0S6.11,134.39,46.59,156.44Z"/></g><g id="freepik--Shadow--inject-2"><path id="Trazado_970" data-name="Trazado 970" class="cls-2" d="M194,139.38a8.93,8.93,0,0,1-7.06,0c-1.94-1-1.94-2.52,0-3.53a8.93,8.93,0,0,1,7.06,0C195.9,136.83,195.9,138.42,194,139.38Z"/><path id="Trazado_971" data-name="Trazado 971" class="cls-2" d="M39,136.58a9.16,9.16,0,0,0,7.19,0c2-1,2-2.59,0-3.58A9.16,9.16,0,0,0,39,133C37,134,37,135.59,39,136.58Z"/></g><g id="freepik--Buildings--inject-2"><path id="Trazado_972" data-name="Trazado 972" class="cls-3" d="M51.2,109.93l21.59-13V41.37l-21.59,13Z"/><path id="Trazado_973" data-name="Trazado 973" class="cls-4" d="M51.2,54.37,27.65,40.19V95.74L51.2,109.93Z"/><path id="Trazado_974" data-name="Trazado 974" class="cls-3" d="M72.79,41.37,49.24,27.19l-21.59,13L51.2,54.37Z"/><path id="Trazado_975" data-name="Trazado 975" class="cls-2" d="M36.47,101.06V91.6l6.1,3.66v9.46Z"/><path id="Trazado_976" data-name="Trazado 976" class="cls-5" d="M39.13,93.2l.59.36V103l-.59-.36Z"/><path id="Trazado_977" data-name="Trazado 977" class="cls-2" d="M48.73,94.25V89l-4-2.43v5.27Z"/><path id="Trazado_978" data-name="Trazado 978" class="cls-5" d="M44.69,91.81l1-.6V87.15l-1-.61Z"/><path id="Trazado_979" data-name="Trazado 979" class="cls-3" d="M48.73,93l-3-1.82-1,.6,4,2.44Z"/><path id="Trazado_980" data-name="Trazado 980" class="cls-2" d="M48.73,104.35V99.08l-4-2.43v5.27Z"/><path id="Trazado_981" data-name="Trazado 981" class="cls-5" d="M44.69,101.92l1-.61V97.25l-1-.6Z"/><path id="Trazado_982" data-name="Trazado 982" class="cls-3" d="M48.73,103.13l-3-1.82-1,.61,4,2.43Z"/><path id="Trazado_983" data-name="Trazado 983" class="cls-2" d="M48.73,84.36V79.09l-4-2.43v5.27Z"/><path id="Trazado_984" data-name="Trazado 984" class="cls-5" d="M44.69,81.93l1-.61V77.26l-1-.6Z"/><path id="Trazado_985" data-name="Trazado 985" class="cls-3" d="M48.73,83.14l-3-1.82-1,.61,4,2.43Z"/><path id="Trazado_986" data-name="Trazado 986" class="cls-2" d="M48.73,74.47V69.2l-4-2.43V72Z"/><path id="Trazado_987" data-name="Trazado 987" class="cls-5" d="M44.69,72l1-.61V67.37l-1-.6Z"/><path id="Trazado_988" data-name="Trazado 988" class="cls-3" d="M48.73,73.26l-3-1.83-1,.61,4,2.43Z"/><path id="Trazado_989" data-name="Trazado 989" class="cls-2" d="M48.73,64.59V59.31l-4-2.43v5.27Z"/><path id="Trazado_990" data-name="Trazado 990" class="cls-5" d="M44.69,62.15l1-.61v-4l-1-.61Z"/><path id="Trazado_991" data-name="Trazado 991" class="cls-3" d="M48.73,63.37l-3-1.83-1,.61,4,2.44Z"/><path id="Trazado_992" data-name="Trazado 992" class="cls-2" d="M34.16,85.47V80.2l-4-2.43V83Z"/><path id="Trazado_993" data-name="Trazado 993" class="cls-5" d="M30.12,83l1-.61V78.38l-1-.61Z"/><path id="Trazado_994" data-name="Trazado 994" class="cls-3" d="M34.16,84.26l-3-1.83-1,.61,4,2.43Z"/><path id="Trazado_995" data-name="Trazado 995" class="cls-2" d="M34.16,95.57V90.3l-4-2.43v5.27Z"/><path id="Trazado_996" data-name="Trazado 996" class="cls-5" d="M30.12,93.14l1-.61v-4l-1-.61Z"/><path id="Trazado_997" data-name="Trazado 997" class="cls-3" d="M34.16,94.36l-3-1.83-1,.61,4,2.43Z"/><path id="Trazado_998" data-name="Trazado 998" class="cls-2" d="M34.16,75.5V70.23l-4-2.43v5.27Z"/><path id="Trazado_999" data-name="Trazado 999" class="cls-5" d="M30.12,73.07l1-.61V68.4l-1-.6Z"/><path id="Trazado_1000" data-name="Trazado 1000" class="cls-3" d="M34.16,74.28l-3-1.82-1,.61,4,2.43Z"/><path id="Trazado_1001" data-name="Trazado 1001" class="cls-2" d="M34.16,65.53V60.26l-4-2.44V63.1Z"/><path id="Trazado_1002" data-name="Trazado 1002" class="cls-5" d="M30.12,63.1l1-.61V58.43l-1-.61Z"/><path id="Trazado_1003" data-name="Trazado 1003" class="cls-3" d="M34.16,64.31l-3-1.82-1,.61,4,2.43Z"/><path id="Trazado_1004" data-name="Trazado 1004" class="cls-6" d="M34.16,55.56V50.28l-4-2.43v5.28Z"/><path id="Trazado_1005" data-name="Trazado 1005" class="cls-5" d="M30.12,53.13l1-.61V48.46l-1-.61Z"/><path id="Trazado_1006" data-name="Trazado 1006" class="cls-3" d="M34.16,54.34l-3-1.82-1,.61,4,2.43Z"/><path id="Trazado_1007" data-name="Trazado 1007" class="cls-6" d="M36.47,51.41l2.35,1.41V88.28l-2.35-1.41Z"/><path id="Trazado_1008" data-name="Trazado 1008" class="cls-5" d="M36.47,51.41l1,.6V86.28l-1,.59Z"/><path id="Trazado_1009" data-name="Trazado 1009" class="cls-3" d="M37.46,86.28l1.36.79v1.21l-2.35-1.41Z"/><path id="Trazado_1010" data-name="Trazado 1010" class="cls-6" d="M40.21,53.64l2.36,1.41V90.51L40.21,89.1Z"/><path id="Trazado_1011" data-name="Trazado 1011" class="cls-5" d="M40.21,53.64l1,.6V88.51l-1,.59Z"/><path id="Trazado_1012" data-name="Trazado 1012" class="cls-3" d="M41.21,88.51l1.36.79v1.21L40.21,89.1Z"/><path id="Trazado_1013" data-name="Trazado 1013" class="cls-2" d="M53.7,94.25V89l4-2.43v5.27Z"/><path id="Trazado_1014" data-name="Trazado 1014" class="cls-4" d="M57.73,91.81l-1-.6V87.15l1-.61Z"/><path id="Trazado_1015" data-name="Trazado 1015" class="cls-5" d="M53.7,93l3-1.82,1,.6-4,2.44Z"/><path id="Trazado_1016" data-name="Trazado 1016" class="cls-2" d="M60,90.48V85.21l4-2.43v5.27Z"/><path id="Trazado_1017" data-name="Trazado 1017" class="cls-4" d="M64,88.05l-1-.61v-4l1-.61Z"/><path id="Trazado_1018" data-name="Trazado 1018" class="cls-5" d="M60,89.27l3-1.83,1,.61-4,2.43Z"/><path id="Trazado_1019" data-name="Trazado 1019" class="cls-2" d="M66.25,86.72V81.45l4-2.43v5.27Z"/><path id="Trazado_1020" data-name="Trazado 1020" class="cls-4" d="M70.29,84.29l-1-.61V79.63l1-.61Z"/><path id="Trazado_1021" data-name="Trazado 1021" class="cls-5" d="M66.25,85.5l3-1.82,1,.61-4,2.43Z"/><path id="Trazado_1022" data-name="Trazado 1022" class="cls-2" d="M53.7,104.35V99.08l4-2.43v5.27Z"/><path id="Trazado_1023" data-name="Trazado 1023" class="cls-4" d="M57.73,101.92l-1-.61V97.25l1-.6Z"/><path id="Trazado_1024" data-name="Trazado 1024" class="cls-5" d="M53.7,103.13l3-1.82,1,.61-4,2.43Z"/><path id="Trazado_1025" data-name="Trazado 1025" class="cls-2" d="M60,100.59V95.31l4-2.43v5.27Z"/><path id="Trazado_1026" data-name="Trazado 1026" class="cls-4" d="M64,98.15l-1-.61V93.49l1-.61Z"/><path id="Trazado_1027" data-name="Trazado 1027" class="cls-5" d="M60,99.37l3-1.83,1,.61-4,2.44Z"/><path id="Trazado_1028" data-name="Trazado 1028" class="cls-2" d="M66.25,96.82V91.55l4-2.43v5.27Z"/><path id="Trazado_1029" data-name="Trazado 1029" class="cls-4" d="M70.29,94.39l-1-.61v-4l1-.61Z"/><path id="Trazado_1030" data-name="Trazado 1030" class="cls-5" d="M66.25,95.61l3-1.83,1,.61-4,2.43Z"/><path id="Trazado_1031" data-name="Trazado 1031" class="cls-2" d="M53.7,84.36V79.09l4-2.43v5.27Z"/><path id="Trazado_1032" data-name="Trazado 1032" class="cls-4" d="M57.73,81.93l-1-.61V77.26l1-.6Z"/><path id="Trazado_1033" data-name="Trazado 1033" class="cls-5" d="M53.7,83.14l3-1.82,1,.61-4,2.43Z"/><path id="Trazado_1034" data-name="Trazado 1034" class="cls-2" d="M60,80.55V75.28l4-2.43v5.27Z"/><path id="Trazado_1035" data-name="Trazado 1035" class="cls-4" d="M64,78.12l-1-.61V73.46l1-.61Z"/><path id="Trazado_1036" data-name="Trazado 1036" class="cls-5" d="M60,79.34l3-1.83,1,.61-4,2.43Z"/><path id="Trazado_1037" data-name="Trazado 1037" class="cls-2" d="M66.25,76.75V71.48l4-2.43v5.27Z"/><path id="Trazado_1038" data-name="Trazado 1038" class="cls-4" d="M70.29,74.32l-1-.61V69.65l1-.6Z"/><path id="Trazado_1039" data-name="Trazado 1039" class="cls-5" d="M66.25,75.53l3-1.82,1,.61-4,2.43Z"/><path id="Trazado_1040" data-name="Trazado 1040" class="cls-2" d="M53.7,74.47V69.2l4-2.43V72Z"/><path id="Trazado_1041" data-name="Trazado 1041" class="cls-4" d="M57.73,72l-1-.61V67.37l1-.6Z"/><path id="Trazado_1042" data-name="Trazado 1042" class="cls-5" d="M53.7,73.26l3-1.83,1,.61-4,2.43Z"/><path id="Trazado_1043" data-name="Trazado 1043" class="cls-2" d="M60,70.62V65.35l4-2.43V68.2Z"/><path id="Trazado_1044" data-name="Trazado 1044" class="cls-4" d="M64,68.2l-1-.61V63.53l1-.61Z"/><path id="Trazado_1045" data-name="Trazado 1045" class="cls-5" d="M60,69.41l3-1.82,1,.61-4,2.42Z"/><path id="Trazado_1046" data-name="Trazado 1046" class="cls-2" d="M66.25,66.78V61.51l4-2.44v5.28Z"/><path id="Trazado_1047" data-name="Trazado 1047" class="cls-4" d="M70.29,64.34l-1-.6V59.68l1-.61Z"/><path id="Trazado_1048" data-name="Trazado 1048" class="cls-5" d="M66.25,65.56l3-1.82,1,.6-4,2.44Z"/><path id="Trazado_1049" data-name="Trazado 1049" class="cls-2" d="M53.7,64.59V59.31l4-2.43v5.27Z"/><path id="Trazado_1050" data-name="Trazado 1050" class="cls-4" d="M57.73,62.15l-1-.61v-4l1-.61Z"/><path id="Trazado_1051" data-name="Trazado 1051" class="cls-5" d="M53.7,63.37l3-1.83,1,.61-4,2.44Z"/><path id="Trazado_1052" data-name="Trazado 1052" class="cls-2" d="M60,60.7V55.42L64,53v5.27Z"/><path id="Trazado_1053" data-name="Trazado 1053" class="cls-4" d="M64,58.26l-1-.6V53.6L64,53Z"/><path id="Trazado_1054" data-name="Trazado 1054" class="cls-5" d="M60,59.48l3-1.82,1,.6-4,2.43Z"/><path id="Trazado_1055" data-name="Trazado 1055" class="cls-2" d="M66.25,56.81V51.53l4-2.43v5.28Z"/><path id="Trazado_1056" data-name="Trazado 1056" class="cls-4" d="M70.29,54.38l-1-.61V49.71l1-.61Z"/><path id="Trazado_1057" data-name="Trazado 1057" class="cls-5" d="M66.25,55.59l3-1.82,1,.61-4,2.42Z"/><path id="Trazado_1058" data-name="Trazado 1058" class="cls-7" d="M31.58,40.19,49.24,29.55,68.86,41.37,51.2,52Z"/><path id="Trazado_1059" data-name="Trazado 1059" class="cls-4" d="M49.24,29.55v2.36L66.9,42.55l2-1.18Z"/><path id="Trazado_1060" data-name="Trazado 1060" class="cls-5" d="M49.24,29.55,31.58,40.19l2,1.18,15.7-9.46Z"/><path id="Trazado_1061" data-name="Trazado 1061" class="cls-4" d="M187.43,109.93l-21.59-13V41.37l21.59,13Z"/><path id="Trazado_1062" data-name="Trazado 1062" class="cls-3" d="M187.43,54.37,211,40.19V95.74l-23.55,14.19Z"/><path id="Trazado_1063" data-name="Trazado 1063" class="cls-3" d="M165.84,41.37l23.55-14.18,21.59,13L187.43,54.37Z"/><path id="Trazado_1064" data-name="Trazado 1064" class="cls-2" d="M202.17,101.06V91.6l-6.11,3.66v9.45Z"/><path id="Trazado_1065" data-name="Trazado 1065" class="cls-5" d="M199.5,93.2l-.59.36V103l.59-.36Z"/><path id="Trazado_1066" data-name="Trazado 1066" class="cls-2" d="M189.9,94.25V89l4-2.43v5.27Z"/><path id="Trazado_1067" data-name="Trazado 1067" class="cls-5" d="M193.94,91.81l-1-.6V87.15l1-.61Z"/><path id="Trazado_1068" data-name="Trazado 1068" class="cls-4" d="M189.9,93l3-1.82,1,.6-4,2.44Z"/><path id="Trazado_1069" data-name="Trazado 1069" class="cls-2" d="M189.9,104.35V99.08l4-2.43v5.27Z"/><path id="Trazado_1070" data-name="Trazado 1070" class="cls-5" d="M193.94,101.92l-1-.61V97.25l1-.6Z"/><path id="Trazado_1071" data-name="Trazado 1071" class="cls-4" d="M189.9,103.13l3-1.82,1,.61-4,2.43Z"/><path id="Trazado_1072" data-name="Trazado 1072" class="cls-2" d="M189.9,84.36V79.09l4-2.43v5.27Z"/><path id="Trazado_1073" data-name="Trazado 1073" class="cls-5" d="M193.94,81.93l-1-.61V77.26l1-.6Z"/><path id="Trazado_1074" data-name="Trazado 1074" class="cls-4" d="M189.9,83.14l3-1.82,1,.61-4,2.43Z"/><path id="Trazado_1075" data-name="Trazado 1075" class="cls-2" d="M189.9,74.47V69.2l4-2.43V72Z"/><path id="Trazado_1076" data-name="Trazado 1076" class="cls-5" d="M193.94,72l-1-.61V67.37l1-.6Z"/><path id="Trazado_1077" data-name="Trazado 1077" class="cls-4" d="M189.9,73.26l3-1.83,1,.61-4,2.43Z"/><path id="Trazado_1078" data-name="Trazado 1078" class="cls-2" d="M189.9,64.59V59.31l4-2.43v5.27Z"/><path id="Trazado_1079" data-name="Trazado 1079" class="cls-5" d="M193.94,62.15l-1-.61v-4l1-.61Z"/><path id="Trazado_1080" data-name="Trazado 1080" class="cls-4" d="M189.9,63.37l3-1.83,1,.61-4,2.44Z"/><path id="Trazado_1081" data-name="Trazado 1081" class="cls-2" d="M204.47,85.47V80.2l4-2.43V83Z"/><path id="Trazado_1082" data-name="Trazado 1082" class="cls-5" d="M208.51,83l-1-.61V78.38l1-.61Z"/><path id="Trazado_1083" data-name="Trazado 1083" class="cls-4" d="M204.47,84.26l3-1.83,1,.61-4,2.43Z"/><path id="Trazado_1084" data-name="Trazado 1084" class="cls-2" d="M204.47,95.57V90.3l4-2.43v5.27Z"/><path id="Trazado_1085" data-name="Trazado 1085" class="cls-5" d="M208.51,93.14l-1-.61v-4l1-.61Z"/><path id="Trazado_1086" data-name="Trazado 1086" class="cls-4" d="M204.47,94.36l3-1.83,1,.61-4,2.43Z"/><path id="Trazado_1087" data-name="Trazado 1087" class="cls-2" d="M204.47,75.5V70.23l4-2.43v5.27Z"/><path id="Trazado_1088" data-name="Trazado 1088" class="cls-5" d="M208.51,73.07l-1-.61V68.4l1-.6Z"/><path id="Trazado_1089" data-name="Trazado 1089" class="cls-4" d="M204.47,74.28l3-1.82,1,.61-4,2.43Z"/><path id="Trazado_1090" data-name="Trazado 1090" class="cls-2" d="M204.47,65.53V60.26l4-2.44V63.1Z"/><path id="Trazado_1091" data-name="Trazado 1091" class="cls-5" d="M208.51,63.1l-1-.61V58.43l1-.61Z"/><path id="Trazado_1092" data-name="Trazado 1092" class="cls-4" d="M204.47,64.31l3-1.82,1,.61-4,2.43Z"/><path id="Trazado_1093" data-name="Trazado 1093" class="cls-6" d="M204.47,55.56V50.28l4-2.43v5.28Z"/><path id="Trazado_1094" data-name="Trazado 1094" class="cls-5" d="M208.51,53.13l-1-.61V48.46l1-.61Z"/><path id="Trazado_1095" data-name="Trazado 1095" class="cls-4" d="M204.47,54.34l3-1.82,1,.61-4,2.43Z"/><path id="Trazado_1096" data-name="Trazado 1096" class="cls-6" d="M202.17,51.41l-2.36,1.41V88.28l2.36-1.41Z"/><path id="Trazado_1097" data-name="Trazado 1097" class="cls-5" d="M202.17,51.41l-1,.6V86.28l1,.59Z"/><path id="Trazado_1098" data-name="Trazado 1098" class="cls-4" d="M201.17,86.28l-1.36.79v1.21l2.36-1.41Z"/><path id="Trazado_1099" data-name="Trazado 1099" class="cls-6" d="M198.42,53.64l-2.35,1.41V90.51l2.35-1.41Z"/><path id="Trazado_1100" data-name="Trazado 1100" class="cls-5" d="M198.42,53.64l-1,.6V88.51l1,.59Z"/><path id="Trazado_1101" data-name="Trazado 1101" class="cls-4" d="M197.42,88.51l-1.36.79v1.21l2.36-1.41Z"/><path id="Trazado_1102" data-name="Trazado 1102" class="cls-2" d="M184.93,94.25V89l-4-2.43v5.27Z"/><path id="Trazado_1103" data-name="Trazado 1103" class="cls-3" d="M180.89,91.81l1-.6V87.15l-1-.61Z"/><path id="Trazado_1104" data-name="Trazado 1104" class="cls-5" d="M184.93,93l-3-1.82-1,.6,4,2.44Z"/><path id="Trazado_1105" data-name="Trazado 1105" class="cls-2" d="M178.65,90.48V85.21l-4-2.43v5.27Z"/><path id="Trazado_1106" data-name="Trazado 1106" class="cls-3" d="M174.62,88.05l1-.61v-4l-1-.61Z"/><path id="Trazado_1107" data-name="Trazado 1107" class="cls-5" d="M178.65,89.27l-3-1.83-1,.61,4,2.43Z"/><path id="Trazado_1108" data-name="Trazado 1108" class="cls-2" d="M172.38,86.72V81.45l-4-2.43v5.27Z"/><path id="Trazado_1109" data-name="Trazado 1109" class="cls-3" d="M168.34,84.29l1-.61V79.63l-1-.61Z"/><path id="Trazado_1110" data-name="Trazado 1110" class="cls-5" d="M172.38,85.5l-3-1.82-1,.61,4,2.43Z"/><path id="Trazado_1111" data-name="Trazado 1111" class="cls-2" d="M184.93,104.35V99.08l-4-2.43v5.27Z"/><path id="Trazado_1112" data-name="Trazado 1112" class="cls-3" d="M180.89,101.92l1-.61V97.25l-1-.6Z"/><path id="Trazado_1113" data-name="Trazado 1113" class="cls-5" d="M184.93,103.13l-3-1.82-1,.61,4,2.43Z"/><path id="Trazado_1114" data-name="Trazado 1114" class="cls-2" d="M178.65,100.59V95.31l-4-2.43v5.27Z"/><path id="Trazado_1115" data-name="Trazado 1115" class="cls-3" d="M174.62,98.15l1-.61V93.49l-1-.61Z"/><path id="Trazado_1116" data-name="Trazado 1116" class="cls-5" d="M178.65,99.37l-3-1.83-1,.61,4,2.44Z"/><path id="Trazado_1117" data-name="Trazado 1117" class="cls-2" d="M172.38,96.82V91.55l-4-2.43v5.27Z"/><path id="Trazado_1118" data-name="Trazado 1118" class="cls-3" d="M168.34,94.39l1-.61v-4l-1-.61Z"/><path id="Trazado_1119" data-name="Trazado 1119" class="cls-5" d="M172.38,95.61l-3-1.83-1,.61,4,2.43Z"/><path id="Trazado_1120" data-name="Trazado 1120" class="cls-2" d="M184.93,84.36V79.09l-4-2.43v5.27Z"/><path id="Trazado_1121" data-name="Trazado 1121" class="cls-3" d="M180.89,81.93l1-.61V77.26l-1-.6Z"/><path id="Trazado_1122" data-name="Trazado 1122" class="cls-5" d="M184.93,83.14l-3-1.82-1,.61,4,2.43Z"/><path id="Trazado_1123" data-name="Trazado 1123" class="cls-2" d="M178.65,80.55V75.28l-4-2.43v5.27Z"/><path id="Trazado_1124" data-name="Trazado 1124" class="cls-3" d="M174.62,78.12l1-.61V73.46l-1-.61Z"/><path id="Trazado_1125" data-name="Trazado 1125" class="cls-5" d="M178.65,79.34l-3-1.83-1,.61,4,2.43Z"/><path id="Trazado_1126" data-name="Trazado 1126" class="cls-2" d="M172.38,76.75V71.48l-4-2.43v5.27Z"/><path id="Trazado_1127" data-name="Trazado 1127" class="cls-3" d="M168.34,74.32l1-.61V69.65l-1-.6Z"/><path id="Trazado_1128" data-name="Trazado 1128" class="cls-5" d="M172.38,75.53l-3-1.82-1,.61,4,2.43Z"/><path id="Trazado_1129" data-name="Trazado 1129" class="cls-2" d="M184.93,74.47V69.2l-4-2.43V72Z"/><path id="Trazado_1130" data-name="Trazado 1130" class="cls-3" d="M180.89,72l1-.61V67.37l-1-.6Z"/><path id="Trazado_1131" data-name="Trazado 1131" class="cls-5" d="M184.93,73.26l-3-1.83-1,.61,4,2.43Z"/><path id="Trazado_1132" data-name="Trazado 1132" class="cls-2" d="M178.65,70.62V65.35l-4-2.43V68.2Z"/><path id="Trazado_1133" data-name="Trazado 1133" class="cls-3" d="M174.62,68.2l1-.61V63.53l-1-.61Z"/><path id="Trazado_1134" data-name="Trazado 1134" class="cls-5" d="M178.65,69.41l-3-1.82-1,.61,4,2.42Z"/><path id="Trazado_1135" data-name="Trazado 1135" class="cls-2" d="M172.38,66.78V61.51l-4-2.44v5.28Z"/><path id="Trazado_1136" data-name="Trazado 1136" class="cls-3" d="M168.34,64.34l1-.6V59.68l-1-.61Z"/><path id="Trazado_1137" data-name="Trazado 1137" class="cls-5" d="M172.38,65.56l-3-1.82-1,.6,4,2.44Z"/><path id="Trazado_1138" data-name="Trazado 1138" class="cls-2" d="M184.93,64.59V59.31l-4-2.43v5.27Z"/><path id="Trazado_1139" data-name="Trazado 1139" class="cls-3" d="M180.89,62.15l1-.61v-4l-1-.61Z"/><path id="Trazado_1140" data-name="Trazado 1140" class="cls-5" d="M184.93,63.37l-3-1.83-1,.61,4,2.44Z"/><path id="Trazado_1141" data-name="Trazado 1141" class="cls-2" d="M178.65,60.7V55.42l-4-2.43v5.27Z"/><path id="Trazado_1142" data-name="Trazado 1142" class="cls-3" d="M174.62,58.26l1-.6V53.6l-1-.61Z"/><path id="Trazado_1143" data-name="Trazado 1143" class="cls-5" d="M178.65,59.48l-3-1.82-1,.6,4,2.43Z"/><path id="Trazado_1144" data-name="Trazado 1144" class="cls-2" d="M172.38,56.81V51.53l-4-2.43v5.28Z"/><path id="Trazado_1145" data-name="Trazado 1145" class="cls-3" d="M168.34,54.38l1-.61V49.71l-1-.61Z"/><path id="Trazado_1146" data-name="Trazado 1146" class="cls-5" d="M172.38,55.59l-3-1.82-1,.61,4,2.42Z"/><path id="Trazado_1147" data-name="Trazado 1147" class="cls-7" d="M207.06,40.19,189.39,29.55,169.77,41.37,187.43,52Z"/><path id="Trazado_1148" data-name="Trazado 1148" class="cls-5" d="M189.39,29.55v2.36L171.73,42.55l-2-1.18Z"/><path id="Trazado_1149" data-name="Trazado 1149" class="cls-4" d="M189.39,29.55l17.67,10.64-2,1.18-15.7-9.46Z"/><path id="Trazado_1150" data-name="Trazado 1150" class="cls-2" d="M155.41,161.84a9.65,9.65,0,0,1-7.67,0c-2.12-1.05-2.12-2.75,0-3.81a9.73,9.73,0,0,1,7.67,0C157.53,159.09,157.53,160.79,155.41,161.84Z"/><path id="Trazado_1151" data-name="Trazado 1151" class="cls-2" d="M76.1,158.37a9.73,9.73,0,0,0,7.67,0c2.12-1.05,2.12-2.76,0-3.81a9.73,9.73,0,0,0-7.67,0C74,155.61,74,157.32,76.1,158.37Z"/><path id="Trazado_1152" data-name="Trazado 1152" class="cls-8" d="M120.94,157.75l47-28.29a2.09,2.09,0,0,0,.76-2.86,2.05,2.05,0,0,0-.76-.76l-47-28.29a2.21,2.21,0,0,0-2.09,0l-47,28.27a2.09,2.09,0,0,0-.76,2.86,2.16,2.16,0,0,0,.76.77l47,28.28A2.18,2.18,0,0,0,120.94,157.75Z"/><path id="Trazado_1153" data-name="Trazado 1153" class="cls-8" d="M120.94,157.75l47-28.29a2.09,2.09,0,0,0,.76-2.86,2.05,2.05,0,0,0-.76-.76l-47-28.29a2.21,2.21,0,0,0-2.09,0l-47,28.27a2.09,2.09,0,0,0-.76,2.86,2.16,2.16,0,0,0,.76.77l47,28.28A2.18,2.18,0,0,0,120.94,157.75Z"/><path id="Trazado_1154" data-name="Trazado 1154" class="cls-8" d="M120.94,157.75l47-28.29a2.09,2.09,0,0,0,.76-2.86,2.05,2.05,0,0,0-.76-.76l-47-28.29a2.21,2.21,0,0,0-2.09,0l-47,28.27a2.09,2.09,0,0,0-.76,2.86,2.16,2.16,0,0,0,.76.77l47,28.28A2.18,2.18,0,0,0,120.94,157.75Z"/><path id="Trazado_1155" data-name="Trazado 1155" class="cls-9" d="M120.94,157.75l47-28.29a2.09,2.09,0,0,0,.76-2.86,2.05,2.05,0,0,0-.76-.76l-47-28.29a2.21,2.21,0,0,0-2.09,0l-47,28.27a2.09,2.09,0,0,0-.76,2.86,2.16,2.16,0,0,0,.76.77l47,28.28A2.18,2.18,0,0,0,120.94,157.75Z"/><path id="Trazado_1156" data-name="Trazado 1156" class="cls-8" d="M71.87,127.1l47,28.29a2.23,2.23,0,0,0,2.1,0l47-28.29a.67.67,0,0,0,.39-.87.68.68,0,0,0-.39-.39l-47-28.29a2.27,2.27,0,0,0-2.09,0l-47,28.27a.68.68,0,0,0-.43.85A.66.66,0,0,0,71.87,127.1Z"/><path id="Trazado_1157" data-name="Trazado 1157" class="cls-3" d="M127.75,145.38l33.36-20.09V41.37L127.75,61.46Z"/><path id="Trazado_1158" data-name="Trazado 1158" class="cls-4" d="M119.9,151.29V66.19L78.68,41.37v85.1Z"/><path id="Trazado_1159" data-name="Trazado 1159" class="cls-8" d="M119.9,115.83,78.68,91V88.65L74.75,91,119.9,118.2Z"/><path id="Trazado_1160" data-name="Trazado 1160" class="cls-10" d="M119.9,115.83,78.68,91V88.65L74.75,91,119.9,118.2Z"/><path id="Trazado_1161" data-name="Trazado 1161" class="cls-8" d="M74.75,91,119.9,118.2v2.36L74.75,93.37Z"/><path id="Trazado_1162" data-name="Trazado 1162" class="cls-8" d="M119.9,115.83l7.85-4.72,2,1.18-9.81,5.91Z"/><path id="Trazado_1163" data-name="Trazado 1163" class="cls-10" d="M119.9,115.83l7.85-4.72,2,1.18-9.81,5.91Z"/><path id="Trazado_1164" data-name="Trazado 1164" class="cls-8" d="M119.9,120.56l9.81-5.91v-2.36l-9.81,5.91Z"/><path id="Trazado_1165" data-name="Trazado 1165" class="cls-9" d="M119.9,120.56l9.81-5.91v-2.36l-9.81,5.91Z"/><path id="Trazado_1166" data-name="Trazado 1166" class="cls-5" d="M119.9,66.19l7.85-4.73v49.65l-7.85,4.72Z"/><path id="Trazado_1167" data-name="Trazado 1167" class="cls-5" d="M119.9,120.56l7.85-4.73v30.74l-7.85,4.72Z"/><path id="Trazado_1168" data-name="Trazado 1168" class="cls-8" d="M116,108.74V96.92l-7.85-4.72V104Z"/><path id="Trazado_1169" data-name="Trazado 1169" class="cls-10" d="M116,108.74V96.92l-7.85-4.72V104Z"/><path id="Trazado_1170" data-name="Trazado 1170" class="cls-5" d="M108.12,104l2-1.18V93.37l-2-1.17Z"/><path id="Trazado_1171" data-name="Trazado 1171" class="cls-5" d="M116,106.38l-5.89-3.55-2,1.18,7.85,4.73Z"/><path id="Trazado_1172" data-name="Trazado 1172" class="cls-8" d="M104.19,101.65V89.83l-9.81-5.91V95.74Z"/><path id="Trazado_1173" data-name="Trazado 1173" class="cls-10" d="M104.19,101.65V89.83l-9.81-5.91V95.74Z"/><path id="Trazado_1174" data-name="Trazado 1174" class="cls-5" d="M96.34,94.56V85.1l-2-1.18V95.74Z"/><path id="Trazado_1175" data-name="Trazado 1175" class="cls-5" d="M104.19,99.29v2.36l-9.81-5.91,2-1.18Z"/><path id="Trazado_1176" data-name="Trazado 1176" class="cls-8" d="M132.65,134.15V122.33l9.82-5.9v11.82Z"/><path id="Trazado_1177" data-name="Trazado 1177" class="cls-5" d="M140.5,127.06v-9.45l2-1.18v11.82Z"/><path id="Trazado_1178" data-name="Trazado 1178" class="cls-5" d="M132.65,131.79v2.36l9.82-5.9-2-1.19Z"/><path id="Trazado_1179" data-name="Trazado 1179" class="cls-8" d="M132.65,114.46V102.64l9.82-5.91v11.81Z"/><path id="Trazado_1180" data-name="Trazado 1180" class="cls-5" d="M140.5,107.37V97.91l2-1.18v11.81Z"/><path id="Trazado_1181" data-name="Trazado 1181" class="cls-5" d="M132.65,112.09v2.37l9.82-5.91-2-1.18Z"/><path id="Trazado_1182" data-name="Trazado 1182" class="cls-8" d="M132.65,94.76V82.94L142.47,77V88.84Z"/><path id="Trazado_1183" data-name="Trazado 1183" class="cls-5" d="M140.5,87.66V78.21l2-1.18V88.84Z"/><path id="Trazado_1184" data-name="Trazado 1184" class="cls-5" d="M132.65,92.39v2.37l9.82-5.92-2-1.18Z"/><path id="Trazado_1185" data-name="Trazado 1185" class="cls-8" d="M132.65,75.06V63.24l9.82-5.91V69.15Z"/><path id="Trazado_1186" data-name="Trazado 1186" class="cls-5" d="M140.5,68V58.51l2-1.19V69.15Z"/><path id="Trazado_1187" data-name="Trazado 1187" class="cls-5" d="M132.65,72.69v2.36l9.82-5.9-2-1.19Z"/><path id="Trazado_1188" data-name="Trazado 1188" class="cls-8" d="M146.61,125.75V113.93l9.82-5.9v11.81Z"/><path id="Trazado_1189" data-name="Trazado 1189" class="cls-5" d="M154.46,118.66v-9.45l2-1.18v11.81Z"/><path id="Trazado_1190" data-name="Trazado 1190" class="cls-5" d="M146.61,123.39v2.36l9.81-5.91-2-1.18Z"/><path id="Trazado_1191" data-name="Trazado 1191" class="cls-8" d="M146.61,106.06V94.23l9.82-5.91v11.82Z"/><path id="Trazado_1192" data-name="Trazado 1192" class="cls-5" d="M154.46,99V89.5l2-1.18v11.82Z"/><path id="Trazado_1193" data-name="Trazado 1193" class="cls-5" d="M146.61,103.69v2.37l9.81-5.92-2-1.18Z"/><path id="Trazado_1194" data-name="Trazado 1194" class="cls-8" d="M146.61,86.35V74.54l9.82-5.92V80.45Z"/><path id="Trazado_1195" data-name="Trazado 1195" class="cls-5" d="M154.46,79.26V69.81l2-1.19V80.45Z"/><path id="Trazado_1196" data-name="Trazado 1196" class="cls-5" d="M146.61,84v2.36l9.81-5.9-2-1.19Z"/><path id="Trazado_1197" data-name="Trazado 1197" class="cls-8" d="M146.61,66.65V54.83l9.82-5.9V60.75Z"/><path id="Trazado_1198" data-name="Trazado 1198" class="cls-5" d="M154.46,59.56V50.11l2-1.18V60.75Z"/><path id="Trazado_1199" data-name="Trazado 1199" class="cls-5" d="M146.61,64.29v2.36l9.81-5.9-2-1.19Z"/><path id="Trazado_1200" data-name="Trazado 1200" class="cls-8" d="M90.46,93.37V81.56L82.6,76.83V88.65Z"/><path id="Trazado_1201" data-name="Trazado 1201" class="cls-10" d="M90.46,93.37V81.56L82.6,76.83V88.65Z"/><path id="Trazado_1202" data-name="Trazado 1202" class="cls-5" d="M84.57,87.47l-2,1.18V76.83l2,1.18Z"/><path id="Trazado_1203" data-name="Trazado 1203" class="cls-5" d="M90.46,91l-5.89-3.54-2,1.18,7.86,4.72Z"/><path id="Trazado_1204" data-name="Trazado 1204" class="cls-5" d="M94.38,116c0-3.34,2.2-4.72,4.91-3.09a11.54,11.54,0,0,1,4.9,9v20l-9.81-5.91Z"/><path id="Trazado_1205" data-name="Trazado 1205" class="cls-4" d="M104.19,121.86a11.54,11.54,0,0,0-4.9-9,4.11,4.11,0,0,0-2.31-.68,4.79,4.79,0,0,0-.63,2.59v20l7.85,4.73Z"/><path id="Trazado_1206" data-name="Trazado 1206" class="cls-8" d="M104.19,121.86a11.54,11.54,0,0,0-4.9-9,4.11,4.11,0,0,0-2.31-.68,4.79,4.79,0,0,0-.63,2.59v20l7.85,4.73Z"/><path id="Trazado_1207" data-name="Trazado 1207" class="cls-10" d="M104.19,121.86a11.54,11.54,0,0,0-4.9-9,4.11,4.11,0,0,0-2.31-.68,4.79,4.79,0,0,0-.63,2.59v20l7.85,4.73Z"/><path id="Trazado_1208" data-name="Trazado 1208" class="cls-4" d="M100.7,114a9.34,9.34,0,0,0-1-.81v5.31l-3.38-2v1.22l3.38,2V135l1,.58V120.28l3.49,2.1v-.5a4.58,4.58,0,0,0,0-.74l-3.46-2.07Z"/><path id="Trazado_1209" data-name="Trazado 1209" class="cls-8" d="M119.9,66.19V59.1l-43.19-26v7.09Z"/><path id="Trazado_1210" data-name="Trazado 1210" class="cls-10" d="M119.9,66.19V59.1l-43.19-26v7.09Z"/><path id="Trazado_1211" data-name="Trazado 1211" class="cls-8" d="M119.9,66.19V59.1l43.18-26v7.09Z"/><path id="Trazado_1212" data-name="Trazado 1212" class="cls-9" d="M119.9,66.19V59.1l43.18-26v7.09Z"/><path id="Trazado_1213" data-name="Trazado 1213" class="cls-5" d="M82.6,53.5c0-2.78,1.76-4,3.93-2.68a9.5,9.5,0,0,1,3.93,7.41v18.6L82.6,72.1Z"/><path id="Trazado_1214" data-name="Trazado 1214" class="cls-8" d="M86.53,50.82A3.39,3.39,0,0,0,85,50.31a4.39,4.39,0,0,0-.42,2v18.6l5.89,3.53V58.22A9.45,9.45,0,0,0,86.53,50.82Z"/><path id="Trazado_1215" data-name="Trazado 1215" class="cls-10" d="M86.53,50.82A3.39,3.39,0,0,0,85,50.31a4.39,4.39,0,0,0-.42,2v18.6l5.89,3.53V58.22A9.45,9.45,0,0,0,86.53,50.82Z"/><path id="Trazado_1216" data-name="Trazado 1216" class="cls-5" d="M82.6,72.1l2-1.18,5.89,3.54v2.37Z"/><path id="Trazado_1217" data-name="Trazado 1217" class="cls-5" d="M94.38,61.6c0-3.34,2.2-4.72,4.91-3.09a11.54,11.54,0,0,1,4.9,9V85.1l-9.81-5.91Z"/><path id="Trazado_1218" data-name="Trazado 1218" class="cls-8" d="M104.19,67.51a11.54,11.54,0,0,0-4.9-9A4,4,0,0,0,97,57.83a4.79,4.79,0,0,0-.63,2.59V78l7.84,4.73Z"/><path id="Trazado_1219" data-name="Trazado 1219" class="cls-10" d="M104.19,67.51a11.54,11.54,0,0,0-4.9-9A4,4,0,0,0,97,57.83a4.79,4.79,0,0,0-.63,2.59V78l7.84,4.73Z"/><path id="Trazado_1220" data-name="Trazado 1220" class="cls-5" d="M96.35,78l-2,1.18,9.81,5.91V82.74Z"/><path id="Trazado_1221" data-name="Trazado 1221" class="cls-5" d="M108.12,68.87c0-2.78,1.76-4,3.92-2.68A9.48,9.48,0,0,1,116,73.6V92.2l-7.85-4.73Z"/><path id="Trazado_1222" data-name="Trazado 1222" class="cls-8" d="M112,66.19a3.34,3.34,0,0,0-1.53-.5,4.33,4.33,0,0,0-.43,2V86.3L116,89.83V73.59A9.45,9.45,0,0,0,112,66.19Z"/><path id="Trazado_1223" data-name="Trazado 1223" class="cls-10" d="M112,66.19a3.34,3.34,0,0,0-1.53-.5,4.33,4.33,0,0,0-.43,2V86.3L116,89.83V73.59A9.45,9.45,0,0,0,112,66.19Z"/><path id="Trazado_1224" data-name="Trazado 1224" class="cls-5" d="M110.08,86.28l-2,1.19L116,92.2V89.83Z"/><path id="Trazado_1225" data-name="Trazado 1225" class="cls-5" d="M108.12,123.22c0-2.78,1.76-4,3.92-2.68a9.46,9.46,0,0,1,3.93,7.4v21l-7.85-4.73Z"/><path id="Trazado_1226" data-name="Trazado 1226" class="cls-8" d="M112,120.54a3.34,3.34,0,0,0-1.53-.5,4.36,4.36,0,0,0-.43,2v21l5.89,3.53V127.91A9.45,9.45,0,0,0,112,120.54Z"/><path id="Trazado_1227" data-name="Trazado 1227" class="cls-10" d="M112,120.54a3.34,3.34,0,0,0-1.53-.5,4.36,4.36,0,0,0-.43,2v21l5.89,3.53V127.91A9.45,9.45,0,0,0,112,120.54Z"/><path id="Trazado_1228" data-name="Trazado 1228" class="cls-3" d="M108.12,144.2v-7.09l7.85,4.73v7.09Z"/><path id="Trazado_1229" data-name="Trazado 1229" class="cls-5" d="M108.12,137.11l2-1.18,5.89,3.55v2.36Z"/><path id="Trazado_1230" data-name="Trazado 1230" class="cls-5" d="M82.6,107.85c0-2.78,1.76-4,3.93-2.68a9.5,9.5,0,0,1,3.93,7.41v21l-7.86-4.71Z"/><path id="Trazado_1231" data-name="Trazado 1231" class="cls-8" d="M86.53,105.16a3.52,3.52,0,0,0-1.54-.51,4.39,4.39,0,0,0-.42,2v21l5.89,3.52V112.54A9.47,9.47,0,0,0,86.53,105.16Z"/><path id="Trazado_1232" data-name="Trazado 1232" class="cls-10" d="M86.53,105.16a3.52,3.52,0,0,0-1.54-.51,4.39,4.39,0,0,0-.42,2v21l5.89,3.52V112.54A9.47,9.47,0,0,0,86.53,105.16Z"/><path id="Trazado_1233" data-name="Trazado 1233" class="cls-3" d="M90.46,133.56v-7.09l-7.86-4.73v7.1Z"/><path id="Trazado_1234" data-name="Trazado 1234" class="cls-5" d="M82.6,121.74l2-1.18,5.89,3.55v2.36Z"/><path id="Trazado_1235" data-name="Trazado 1235" class="cls-3" d="M94.38,135.93v-2.37l9.81,5.91v2.37Z"/><path id="Trazado_1236" data-name="Trazado 1236" class="cls-5" d="M94.38,133.56l2-1.18,7.84,4.73v2.36Z"/><path id="Trazado_1237" data-name="Trazado 1237" class="cls-8" d="M119.9,59.1l43.18-26-43.18-26-43.19,26Z"/><path id="Trazado_1238" data-name="Trazado 1238" class="cls-11" d="M119.9,59.1l43.18-26-43.18-26-43.19,26Z"/><path id="Trazado_1239" data-name="Trazado 1239" class="cls-8" d="M119.9,54.37,155.23,33.1,119.9,11.82,84.57,33.1Z"/><path id="Trazado_1240" data-name="Trazado 1240" class="cls-8" d="M119.9,11.82v7.1L90.46,36.64,84.57,33.1Z"/><path id="Trazado_1241" data-name="Trazado 1241" class="cls-9" d="M119.9,11.82v7.1L90.46,36.64,84.57,33.1Z"/><path id="Trazado_1242" data-name="Trazado 1242" class="cls-8" d="M119.9,11.82,155.23,33.1l-5.89,3.54L119.9,18.92Z"/><path id="Trazado_1243" data-name="Trazado 1243" class="cls-10" d="M119.9,11.82,155.23,33.1l-5.89,3.54L119.9,18.92Z"/><path id="Trazado_1244" data-name="Trazado 1244" class="cls-4" d="M114,17.73l-9.82,5.91,13.74,8.27,9.82-5.9Z"/><path id="Trazado_1245" data-name="Trazado 1245" class="cls-3" d="M104.19,23.64v7.09L117.93,39V31.91Z"/><path id="Trazado_1246" data-name="Trazado 1246" class="cls-5" d="M127.75,26V33.1L117.93,39V31.91Z"/><path id="Trazado_1247" data-name="Trazado 1247" class="cls-3" d="M110.78,21.7c-1.78,1.07-1.78,2.81,0,3.88a6.83,6.83,0,0,0,6.45,0c1.78-1.07,1.78-2.81,0-3.88A6.83,6.83,0,0,0,110.78,21.7Z"/><path id="Trazado_1248" data-name="Trazado 1248" class="cls-5" d="M112.5,22.81c-.84.45-.84,1.21,0,1.66a3.41,3.41,0,0,0,3,0c.83-.45.83-1.21,0-1.66A3.41,3.41,0,0,0,112.5,22.81Z"/><path id="Trazado_1249" data-name="Trazado 1249" class="cls-12" d="M121,32.45l2,1.18v4.73"/><path id="Trazado_1250" data-name="Trazado 1250" class="cls-12" d="M123.82,30.73l2,1.18v4.73"/></g></g></g></svg>