<svg xmlns="http://www.w3.org/2000/svg" viewBox="0 0 326.81 99.06"><defs><style>.cls-1{fill:#f7f7f7;}.cls-2,.cls-5,.cls-7,.cls-9{fill:none;stroke-width:0.47px;}.cls-2{stroke:#707070;}.cls-3{fill:#4a5e69;}.cls-4{fill:#fd0909;}.cls-5{stroke:#fd0909;}.cls-6{fill:#f8e602;}.cls-7{stroke:#f8e602;}.cls-8{fill:#45b749;}.cls-9{stroke:#45b749;}.cls-10,.cls-11{isolation:isolate;}.cls-11{font-size:11px;fill:#060606;font-family:SourceCodePro-Regular, Source Code Pro;}</style></defs><g id="Capa_2" data-name="Capa 2"><g id="Grupo_22" data-name="Grupo 22"><g id="Grupo_21" data-name="Grupo 21"><g id="Rect치ngulo_29-2" data-name="Rect치ngulo 29-2"><path class="cls-1" d="M6.82,6.76H320a2.34,2.34,0,0,1,2.39,2.29V88.81A2.34,2.34,0,0,1,320,91.1H6.82a2.34,2.34,0,0,1-2.39-2.29V9.05A2.34,2.34,0,0,1,6.82,6.76Z"/><path class="cls-2" d="M6.82,7H320a2.11,2.11,0,0,1,2.15,2.06V88.81A2.12,2.12,0,0,1,320,90.87H6.82a2.11,2.11,0,0,1-2.15-2.06V9.05A2.1,2.1,0,0,1,6.82,7Z"/></g><g id="Rect치ngulo_30" data-name="Rect치ngulo 30"><path class="cls-3" d="M6.82,6.76H320a2.34,2.34,0,0,1,2.39,2.29V26H4.43v-17A2.34,2.34,0,0,1,6.82,6.76Z"/><path class="cls-2" d="M6.82,7H320a2.11,2.11,0,0,1,2.15,2.06v16.5a.23.23,0,0,1-.24.23H4.91a.23.23,0,0,1-.24-.23V9.05A2.1,2.1,0,0,1,6.82,7Z"/></g><g id="Elipse_4" data-name="Elipse 4"><ellipse class="cls-4" cx="15.43" cy="16.38" rx="5.26" ry="5.04"/><ellipse class="cls-5" cx="15.43" cy="16.38" rx="5.02" ry="4.81"/></g><g id="Elipse_5" data-name="Elipse 5"><ellipse class="cls-6" cx="33.6" cy="16.38" rx="5.26" ry="5.04"/><ellipse class="cls-7" cx="33.6" cy="16.38" rx="5.02" ry="4.81"/></g><g id="Elipse_6" data-name="Elipse 6"><ellipse class="cls-8" cx="51.76" cy="16.38" rx="5.26" ry="5.04"/><ellipse class="cls-9" cx="51.76" cy="16.38" rx="5.02" ry="4.81"/></g></g><g id="_import_ifcopenshell_f_ifcopenshell.open_my_model.ifc_" data-name=" import ifcopenshell f ifcopenshell.open my model.ifc " class="cls-10"><text class="cls-11" transform="translate(11.12 49.84) scale(1.04 1)">&gt;&gt; import ifcopenshell</text><text class="cls-11" transform="translate(11.12 64.05) scale(1.04 1)">&gt;&gt; f = ifcopenshell.open(&quot;/my_model.ifc&quot;)</text><text class="cls-11" transform="translate(11.12 78.26) scale(1.04 1)"><tspan xml:space="preserve">                                                             </tspan></text></g></g></g></svg>