<svg id="Capa_1" data-name="Capa 1" xmlns="http://www.w3.org/2000/svg" viewBox="0 0 104.59 351.7"><defs><style>.cls-1{fill:#f38e2d;}.cls-2{fill:#26872d;}.cls-3{fill:#40b74c;}.cls-4{fill:#fff;}</style></defs><polygon points="54.03 8.67 50.03 8.67 50.03 31.8 54.03 31.8 54.03 8.67 54.03 8.67"/><rect class="cls-1" x="40.03" y="29.8" width="24" height="8"/><path class="cls-1" d="M62,31.8v4H42v-4H62m4-4H38v12H66v-12Z"/><rect class="cls-2" x="16.03" y="180.93" width="72" height="160.87"/><path class="cls-2" d="M86,182.93V339.8H18V182.93H86m4-4H14V343.8H90V178.93Z"/><rect class="cls-3" x="16.03" y="140.93" width="72" height="44.87"/><path class="cls-3" d="M86,142.93V183.8H18V142.93H86m4-4H14V187.8H90V138.93Z"/><rect class="cls-2" x="28.03" y="100.93" width="48" height="80.87"/><path class="cls-2" d="M74,102.93V179.8H30V102.93H74m4-4H26V183.8H78V98.93Z"/><rect class="cls-3" x="36.03" y="41.8" width="32" height="55.13"/><path class="cls-3" d="M66,43.8V94.93H38V43.8H66m4-4H34V98.93H70V39.8Z"/><polygon points="54.03 47.8 50.03 47.8 50.03 51.8 54.03 51.8 54.03 47.8 54.03 47.8"/><polygon points="54.03 55.8 50.03 55.8 50.03 59.8 54.03 59.8 54.03 55.8 54.03 55.8"/><polygon points="54.03 63.8 50.03 63.8 50.03 67.8 54.03 67.8 54.03 63.8 54.03 63.8"/><polygon points="54.03 71.8 50.03 71.8 50.03 75.8 54.03 75.8 54.03 71.8 54.03 71.8"/><polygon points="54.03 79.8 50.03 79.8 50.03 83.8 54.03 83.8 54.03 79.8 54.03 79.8"/><polygon points="54.03 87.8 50.03 87.8 50.03 91.8 54.03 91.8 54.03 87.8 54.03 87.8"/><rect class="cls-4" x="26.03" y="191.8" width="4" height="4"/><polygon points="30.03 191.8 26.03 191.8 26.03 195.8 30.03 195.8 30.03 191.8 30.03 191.8"/><rect class="cls-4" x="34.03" y="191.8" width="4" height="4"/><polygon points="38.03 191.8 34.03 191.8 34.03 195.8 38.03 195.8 38.03 191.8 38.03 191.8"/><rect class="cls-4" x="42.03" y="191.8" width="4" height="4"/><polygon points="46.03 191.8 42.03 191.8 42.03 195.8 46.03 195.8 46.03 191.8 46.03 191.8"/><rect class="cls-4" x="50.03" y="191.8" width="4" height="4"/><polygon points="54.03 191.8 50.03 191.8 50.03 195.8 54.03 195.8 54.03 191.8 54.03 191.8"/><rect class="cls-4" x="58.03" y="191.8" width="4" height="4"/><polygon points="62.03 191.8 58.03 191.8 58.03 195.8 62.03 195.8 62.03 191.8 62.03 191.8"/><rect class="cls-4" x="66.03" y="191.8" width="4" height="4"/><polygon points="70.03 191.8 66.03 191.8 66.03 195.8 70.03 195.8 70.03 191.8 70.03 191.8"/><rect class="cls-4" x="74.03" y="191.8" width="4" height="4"/><polygon points="78.03 191.8 74.03 191.8 74.03 195.8 78.03 195.8 78.03 191.8 78.03 191.8"/><rect class="cls-4" x="26.03" y="199.8" width="4" height="4"/><polygon points="30.03 199.8 26.03 199.8 26.03 203.8 30.03 203.8 30.03 199.8 30.03 199.8"/><rect class="cls-4" x="34.03" y="199.8" width="4" height="4"/><polygon points="38.03 199.8 34.03 199.8 34.03 203.8 38.03 203.8 38.03 199.8 38.03 199.8"/><rect class="cls-4" x="42.03" y="199.8" width="4" height="4"/><polygon points="46.03 199.8 42.03 199.8 42.03 203.8 46.03 203.8 46.03 199.8 46.03 199.8"/><rect class="cls-4" x="50.03" y="199.8" width="4" height="4"/><polygon points="54.03 199.8 50.03 199.8 50.03 203.8 54.03 203.8 54.03 199.8 54.03 199.8"/><rect class="cls-4" x="58.03" y="199.8" width="4" height="4"/><polygon points="62.03 199.8 58.03 199.8 58.03 203.8 62.03 203.8 62.03 199.8 62.03 199.8"/><rect class="cls-4" x="66.03" y="199.8" width="4" height="4"/><polygon points="70.03 199.8 66.03 199.8 66.03 203.8 70.03 203.8 70.03 199.8 70.03 199.8"/><rect class="cls-4" x="74.03" y="199.8" width="4" height="4"/><polygon points="78.03 199.8 74.03 199.8 74.03 203.8 78.03 203.8 78.03 199.8 78.03 199.8"/><rect class="cls-4" x="26.03" y="207.8" width="4" height="4"/><polygon points="30.03 207.8 26.03 207.8 26.03 211.8 30.03 211.8 30.03 207.8 30.03 207.8"/><rect class="cls-4" x="34.03" y="207.8" width="4" height="4"/><polygon points="38.03 207.8 34.03 207.8 34.03 211.8 38.03 211.8 38.03 207.8 38.03 207.8"/><rect class="cls-4" x="42.03" y="207.8" width="4" height="4"/><polygon points="46.03 207.8 42.03 207.8 42.03 211.8 46.03 211.8 46.03 207.8 46.03 207.8"/><rect class="cls-4" x="50.03" y="207.8" width="4" height="4"/><polygon points="54.03 207.8 50.03 207.8 50.03 211.8 54.03 211.8 54.03 207.8 54.03 207.8"/><rect class="cls-4" x="58.03" y="207.8" width="4" height="4"/><polygon points="62.03 207.8 58.03 207.8 58.03 211.8 62.03 211.8 62.03 207.8 62.03 207.8"/><rect class="cls-4" x="66.03" y="207.8" width="4" height="4"/><polygon points="70.03 207.8 66.03 207.8 66.03 211.8 70.03 211.8 70.03 207.8 70.03 207.8"/><rect class="cls-4" x="74.03" y="207.8" width="4" height="4"/><polygon points="78.03 207.8 74.03 207.8 74.03 211.8 78.03 211.8 78.03 207.8 78.03 207.8"/><rect class="cls-4" x="26.03" y="215.8" width="4" height="4"/><polygon points="30.03 215.8 26.03 215.8 26.03 219.8 30.03 219.8 30.03 215.8 30.03 215.8"/><rect class="cls-4" x="26.03" y="231.8" width="4" height="4"/><polygon points="30.03 231.8 26.03 231.8 26.03 235.8 30.03 235.8 30.03 231.8 30.03 231.8"/><rect class="cls-4" x="34.03" y="231.8" width="4" height="4"/><polygon points="38.03 231.8 34.03 231.8 34.03 235.8 38.03 235.8 38.03 231.8 38.03 231.8"/><rect class="cls-4" x="42.03" y="231.8" width="4" height="4"/><polygon points="46.03 231.8 42.03 231.8 42.03 235.8 46.03 235.8 46.03 231.8 46.03 231.8"/><rect class="cls-4" x="50.03" y="231.8" width="4" height="4"/><polygon points="54.03 231.8 50.03 231.8 50.03 235.8 54.03 235.8 54.03 231.8 54.03 231.8"/><rect class="cls-4" x="58.03" y="231.8" width="4" height="4"/><polygon points="62.03 231.8 58.03 231.8 58.03 235.8 62.03 235.8 62.03 231.8 62.03 231.8"/><rect class="cls-4" x="66.03" y="231.8" width="4" height="4"/><polygon points="70.03 231.8 66.03 231.8 66.03 235.8 70.03 235.8 70.03 231.8 70.03 231.8"/><rect class="cls-4" x="74.03" y="231.8" width="4" height="4"/><polygon points="78.03 231.8 74.03 231.8 74.03 235.8 78.03 235.8 78.03 231.8 78.03 231.8"/><rect class="cls-4" x="26.03" y="239.8" width="4" height="4"/><polygon points="30.03 239.8 26.03 239.8 26.03 243.8 30.03 243.8 30.03 239.8 30.03 239.8"/><rect class="cls-4" x="34.03" y="239.8" width="4" height="4"/><polygon points="38.03 239.8 34.03 239.8 34.03 243.8 38.03 243.8 38.03 239.8 38.03 239.8"/><rect class="cls-4" x="42.03" y="239.8" width="4" height="4"/><polygon points="46.03 239.8 42.03 239.8 42.03 243.8 46.03 243.8 46.03 239.8 46.03 239.8"/><rect class="cls-4" x="50.03" y="239.8" width="4" height="4"/><polygon points="54.03 239.8 50.03 239.8 50.03 243.8 54.03 243.8 54.03 239.8 54.03 239.8"/><rect class="cls-4" x="58.03" y="239.8" width="4" height="4"/><polygon points="62.03 239.8 58.03 239.8 58.03 243.8 62.03 243.8 62.03 239.8 62.03 239.8"/><rect class="cls-4" x="66.03" y="239.8" width="4" height="4"/><polygon points="70.03 239.8 66.03 239.8 66.03 243.8 70.03 243.8 70.03 239.8 70.03 239.8"/><rect class="cls-4" x="74.03" y="239.8" width="4" height="4"/><polygon points="78.03 239.8 74.03 239.8 74.03 243.8 78.03 243.8 78.03 239.8 78.03 239.8"/><rect class="cls-4" x="26.03" y="247.8" width="4" height="4"/><polygon points="30.03 247.8 26.03 247.8 26.03 251.8 30.03 251.8 30.03 247.8 30.03 247.8"/><rect class="cls-4" x="34.03" y="247.8" width="4" height="4"/><polygon points="38.03 247.8 34.03 247.8 34.03 251.8 38.03 251.8 38.03 247.8 38.03 247.8"/><rect class="cls-4" x="42.03" y="247.8" width="4" height="4"/><polygon points="46.03 247.8 42.03 247.8 42.03 251.8 46.03 251.8 46.03 247.8 46.03 247.8"/><rect class="cls-4" x="50.03" y="247.8" width="4" height="4"/><polygon points="54.03 247.8 50.03 247.8 50.03 251.8 54.03 251.8 54.03 247.8 54.03 247.8"/><rect class="cls-4" x="58.03" y="247.8" width="4" height="4"/><polygon points="62.03 247.8 58.03 247.8 58.03 251.8 62.03 251.8 62.03 247.8 62.03 247.8"/><rect class="cls-4" x="66.03" y="247.8" width="4" height="4"/><polygon points="70.03 247.8 66.03 247.8 66.03 251.8 70.03 251.8 70.03 247.8 70.03 247.8"/><rect class="cls-4" x="74.03" y="247.8" width="4" height="4"/><polygon points="78.03 247.8 74.03 247.8 74.03 251.8 78.03 251.8 78.03 247.8 78.03 247.8"/><rect class="cls-4" x="26.03" y="255.8" width="4" height="4"/><polygon points="30.03 255.8 26.03 255.8 26.03 259.8 30.03 259.8 30.03 255.8 30.03 255.8"/><rect class="cls-4" x="34.03" y="255.8" width="4" height="4"/><polygon points="38.03 255.8 34.03 255.8 34.03 259.8 38.03 259.8 38.03 255.8 38.03 255.8"/><rect class="cls-4" x="42.03" y="255.8" width="4" height="4"/><polygon points="46.03 255.8 42.03 255.8 42.03 259.8 46.03 259.8 46.03 255.8 46.03 255.8"/><rect class="cls-4" x="50.03" y="255.8" width="4" height="4"/><polygon points="54.03 255.8 50.03 255.8 50.03 259.8 54.03 259.8 54.03 255.8 54.03 255.8"/><rect class="cls-4" x="58.03" y="255.8" width="4" height="4"/><polygon points="62.03 255.8 58.03 255.8 58.03 259.8 62.03 259.8 62.03 255.8 62.03 255.8"/><rect class="cls-4" x="66.03" y="255.8" width="4" height="4"/><polygon points="70.03 255.8 66.03 255.8 66.03 259.8 70.03 259.8 70.03 255.8 70.03 255.8"/><rect class="cls-4" x="74.03" y="255.8" width="4" height="4"/><polygon points="78.03 255.8 74.03 255.8 74.03 259.8 78.03 259.8 78.03 255.8 78.03 255.8"/><rect class="cls-4" x="26.03" y="271.8" width="4" height="4"/><polygon points="30.03 271.8 26.03 271.8 26.03 275.8 30.03 275.8 30.03 271.8 30.03 271.8"/><rect class="cls-4" x="34.03" y="271.8" width="4" height="4"/><polygon points="38.03 271.8 34.03 271.8 34.03 275.8 38.03 275.8 38.03 271.8 38.03 271.8"/><rect class="cls-4" x="42.03" y="271.8" width="4" height="4"/><polygon points="46.03 271.8 42.03 271.8 42.03 275.8 46.03 275.8 46.03 271.8 46.03 271.8"/><rect class="cls-4" x="50.03" y="271.8" width="4" height="4"/><polygon points="54.03 271.8 50.03 271.8 50.03 275.8 54.03 275.8 54.03 271.8 54.03 271.8"/><rect class="cls-4" x="58.03" y="271.8" width="4" height="4"/><polygon points="62.03 271.8 58.03 271.8 58.03 275.8 62.03 275.8 62.03 271.8 62.03 271.8"/><rect class="cls-4" x="66.03" y="271.8" width="4" height="4"/><polygon points="70.03 271.8 66.03 271.8 66.03 275.8 70.03 275.8 70.03 271.8 70.03 271.8"/><rect class="cls-4" x="74.03" y="271.8" width="4" height="4"/><polygon points="78.03 271.8 74.03 271.8 74.03 275.8 78.03 275.8 78.03 271.8 78.03 271.8"/><rect class="cls-4" x="26.03" y="279.8" width="4" height="4"/><polygon points="30.03 279.8 26.03 279.8 26.03 283.8 30.03 283.8 30.03 279.8 30.03 279.8"/><rect class="cls-4" x="34.03" y="279.8" width="4" height="4"/><polygon points="38.03 279.8 34.03 279.8 34.03 283.8 38.03 283.8 38.03 279.8 38.03 279.8"/><rect class="cls-4" x="42.03" y="279.8" width="4" height="4"/><polygon points="46.03 279.8 42.03 279.8 42.03 283.8 46.03 283.8 46.03 279.8 46.03 279.8"/><rect class="cls-4" x="50.03" y="279.8" width="4" height="4"/><polygon points="54.03 279.8 50.03 279.8 50.03 283.8 54.03 283.8 54.03 279.8 54.03 279.8"/><rect class="cls-4" x="58.03" y="279.8" width="4" height="4"/><polygon points="62.03 279.8 58.03 279.8 58.03 283.8 62.03 283.8 62.03 279.8 62.03 279.8"/><rect class="cls-4" x="66.03" y="279.8" width="4" height="4"/><polygon points="70.03 279.8 66.03 279.8 66.03 283.8 70.03 283.8 70.03 279.8 70.03 279.8"/><rect class="cls-4" x="74.03" y="279.8" width="4" height="4"/><polygon points="78.03 279.8 74.03 279.8 74.03 283.8 78.03 283.8 78.03 279.8 78.03 279.8"/><rect class="cls-4" x="26.03" y="287.8" width="4" height="4"/><polygon points="30.03 287.8 26.03 287.8 26.03 291.8 30.03 291.8 30.03 287.8 30.03 287.8"/><rect class="cls-4" x="34.03" y="287.8" width="4" height="4"/><polygon points="38.03 287.8 34.03 287.8 34.03 291.8 38.03 291.8 38.03 287.8 38.03 287.8"/><rect class="cls-4" x="42.03" y="287.8" width="4" height="4"/><polygon points="46.03 287.8 42.03 287.8 42.03 291.8 46.03 291.8 46.03 287.8 46.03 287.8"/><rect class="cls-4" x="50.03" y="287.8" width="4" height="4"/><polygon points="54.03 287.8 50.03 287.8 50.03 291.8 54.03 291.8 54.03 287.8 54.03 287.8"/><rect class="cls-4" x="58.03" y="287.8" width="4" height="4"/><polygon points="62.03 287.8 58.03 287.8 58.03 291.8 62.03 291.8 62.03 287.8 62.03 287.8"/><rect class="cls-4" x="66.03" y="287.8" width="4" height="4"/><polygon points="70.03 287.8 66.03 287.8 66.03 291.8 70.03 291.8 70.03 287.8 70.03 287.8"/><rect class="cls-4" x="74.03" y="287.8" width="4" height="4"/><polygon points="78.03 287.8 74.03 287.8 74.03 291.8 78.03 291.8 78.03 287.8 78.03 287.8"/><rect class="cls-4" x="26.03" y="295.8" width="4" height="4"/><polygon points="30.03 295.8 26.03 295.8 26.03 299.8 30.03 299.8 30.03 295.8 30.03 295.8"/><rect class="cls-4" x="34.03" y="295.8" width="4" height="4"/><polygon points="38.03 295.8 34.03 295.8 34.03 299.8 38.03 299.8 38.03 295.8 38.03 295.8"/><rect class="cls-4" x="42.03" y="295.8" width="4" height="4"/><polygon points="46.03 295.8 42.03 295.8 42.03 299.8 46.03 299.8 46.03 295.8 46.03 295.8"/><rect class="cls-4" x="50.03" y="295.8" width="4" height="4"/><polygon points="54.03 295.8 50.03 295.8 50.03 299.8 54.03 299.8 54.03 295.8 54.03 295.8"/><rect class="cls-4" x="58.03" y="295.8" width="4" height="4"/><polygon points="62.03 295.8 58.03 295.8 58.03 299.8 62.03 299.8 62.03 295.8 62.03 295.8"/><rect class="cls-4" x="66.03" y="295.8" width="4" height="4"/><polygon points="70.03 295.8 66.03 295.8 66.03 299.8 70.03 299.8 70.03 295.8 70.03 295.8"/><rect class="cls-4" x="74.03" y="295.8" width="4" height="4"/><polygon points="78.03 295.8 74.03 295.8 74.03 299.8 78.03 299.8 78.03 295.8 78.03 295.8"/><rect class="cls-4" x="26.03" y="311.8" width="4" height="4"/><polygon points="30.03 311.8 26.03 311.8 26.03 315.8 30.03 315.8 30.03 311.8 30.03 311.8"/><rect class="cls-4" x="34.03" y="311.8" width="4" height="4"/><polygon points="38.03 311.8 34.03 311.8 34.03 315.8 38.03 315.8 38.03 311.8 38.03 311.8"/><rect class="cls-4" x="42.03" y="311.8" width="4" height="4"/><polygon points="46.03 311.8 42.03 311.8 42.03 315.8 46.03 315.8 46.03 311.8 46.03 311.8"/><rect class="cls-4" x="50.03" y="311.8" width="4" height="4"/><polygon points="54.03 311.8 50.03 311.8 50.03 315.8 54.03 315.8 54.03 311.8 54.03 311.8"/><rect class="cls-4" x="58.03" y="311.8" width="4" height="4"/><polygon points="62.03 311.8 58.03 311.8 58.03 315.8 62.03 315.8 62.03 311.8 62.03 311.8"/><rect class="cls-4" x="66.03" y="311.8" width="4" height="4"/><polygon points="70.03 311.8 66.03 311.8 66.03 315.8 70.03 315.8 70.03 311.8 70.03 311.8"/><rect class="cls-4" x="74.03" y="311.8" width="4" height="4"/><polygon points="78.03 311.8 74.03 311.8 74.03 315.8 78.03 315.8 78.03 311.8 78.03 311.8"/><rect class="cls-4" x="26.03" y="319.8" width="4" height="4"/><polygon points="30.03 319.8 26.03 319.8 26.03 323.8 30.03 323.8 30.03 319.8 30.03 319.8"/><rect class="cls-4" x="34.03" y="319.8" width="4" height="4"/><polygon points="38.03 319.8 34.03 319.8 34.03 323.8 38.03 323.8 38.03 319.8 38.03 319.8"/><rect class="cls-4" x="42.03" y="319.8" width="4" height="4"/><polygon points="46.03 319.8 42.03 319.8 42.03 323.8 46.03 323.8 46.03 319.8 46.03 319.8"/><rect class="cls-4" x="50.03" y="319.8" width="4" height="4"/><polygon points="54.03 319.8 50.03 319.8 50.03 323.8 54.03 323.8 54.03 319.8 54.03 319.8"/><rect class="cls-4" x="58.03" y="319.8" width="4" height="4"/><polygon points="62.03 319.8 58.03 319.8 58.03 323.8 62.03 323.8 62.03 319.8 62.03 319.8"/><rect class="cls-4" x="66.03" y="319.8" width="4" height="4"/><polygon points="70.03 319.8 66.03 319.8 66.03 323.8 70.03 323.8 70.03 319.8 70.03 319.8"/><rect class="cls-4" x="74.03" y="319.8" width="4" height="4"/><polygon points="78.03 319.8 74.03 319.8 74.03 323.8 78.03 323.8 78.03 319.8 78.03 319.8"/><rect class="cls-4" x="26.03" y="327.8" width="4" height="4"/><polygon points="30.03 327.8 26.03 327.8 26.03 331.8 30.03 331.8 30.03 327.8 30.03 327.8"/><rect class="cls-4" x="34.03" y="327.8" width="4" height="4"/><polygon points="38.03 327.8 34.03 327.8 34.03 331.8 38.03 331.8 38.03 327.8 38.03 327.8"/><rect class="cls-4" x="42.03" y="327.8" width="4" height="4"/><polygon points="46.03 327.8 42.03 327.8 42.03 331.8 46.03 331.8 46.03 327.8 46.03 327.8"/><rect class="cls-4" x="50.03" y="327.8" width="4" height="4"/><polygon points="54.03 327.8 50.03 327.8 50.03 331.8 54.03 331.8 54.03 327.8 54.03 327.8"/><rect class="cls-4" x="58.03" y="327.8" width="4" height="4"/><polygon points="62.03 327.8 58.03 327.8 58.03 331.8 62.03 331.8 62.03 327.8 62.03 327.8"/><rect class="cls-4" x="66.03" y="327.8" width="4" height="4"/><polygon points="70.03 327.8 66.03 327.8 66.03 331.8 70.03 331.8 70.03 327.8 70.03 327.8"/><rect class="cls-4" x="74.03" y="327.8" width="4" height="4"/><polygon points="78.03 327.8 74.03 327.8 74.03 331.8 78.03 331.8 78.03 327.8 78.03 327.8"/><rect class="cls-4" x="26.03" y="335.8" width="4" height="4"/><polygon points="30.03 335.8 26.03 335.8 26.03 339.8 30.03 339.8 30.03 335.8 30.03 335.8"/><rect class="cls-4" x="34.03" y="335.8" width="4" height="4"/><polygon points="38.03 335.8 34.03 335.8 34.03 339.8 38.03 339.8 38.03 335.8 38.03 335.8"/><rect class="cls-4" x="42.03" y="335.8" width="4" height="4"/><polygon points="46.03 335.8 42.03 335.8 42.03 339.8 46.03 339.8 46.03 335.8 46.03 335.8"/><rect class="cls-4" x="50.03" y="335.8" width="4" height="4"/><polygon points="54.03 335.8 50.03 335.8 50.03 339.8 54.03 339.8 54.03 335.8 54.03 335.8"/><rect class="cls-4" x="58.03" y="335.8" width="4" height="4"/><polygon points="62.03 335.8 58.03 335.8 58.03 339.8 62.03 339.8 62.03 335.8 62.03 335.8"/><rect class="cls-4" x="66.03" y="335.8" width="4" height="4"/><polygon points="70.03 335.8 66.03 335.8 66.03 339.8 70.03 339.8 70.03 335.8 70.03 335.8"/><rect class="cls-4" x="74.03" y="335.8" width="4" height="4"/><polygon points="78.03 335.8 74.03 335.8 74.03 339.8 78.03 339.8 78.03 335.8 78.03 335.8"/><rect class="cls-4" x="34.03" y="215.8" width="4" height="4"/><polygon points="38.03 215.8 34.03 215.8 34.03 219.8 38.03 219.8 38.03 215.8 38.03 215.8"/><rect class="cls-4" x="42.03" y="215.8" width="4" height="4"/><polygon points="46.03 215.8 42.03 215.8 42.03 219.8 46.03 219.8 46.03 215.8 46.03 215.8"/><rect class="cls-4" x="50.03" y="215.8" width="4" height="4"/><polygon points="54.03 215.8 50.03 215.8 50.03 219.8 54.03 219.8 54.03 215.8 54.03 215.8"/><rect class="cls-4" x="58.03" y="215.8" width="4" height="4"/><polygon points="62.03 215.8 58.03 215.8 58.03 219.8 62.03 219.8 62.03 215.8 62.03 215.8"/><rect class="cls-4" x="66.03" y="215.8" width="4" height="4"/><polygon points="70.03 215.8 66.03 215.8 66.03 219.8 70.03 219.8 70.03 215.8 70.03 215.8"/><rect class="cls-4" x="74.03" y="215.8" width="4" height="4"/><polygon points="78.03 215.8 74.03 215.8 74.03 219.8 78.03 219.8 78.03 215.8 78.03 215.8"/><path d="M40,181.8v-20a12,12,0,0,1,24,0v20Z"/><path d="M52,151.8a10,10,0,0,1,10,10v18H42v-18a10,10,0,0,1,10-10m0-4a14,14,0,0,0-14,14v22H66v-22a14,14,0,0,0-14-14Z"/><circle class="cls-1" cx="52.03" cy="125.8" r="12"/><path class="cls-1" d="M52,115.8a10,10,0,1,1-10,10,10,10,0,0,1,10-10m0-4a14,14,0,1,0,14,14,14,14,0,0,0-14-14Z"/></svg>