<svg id="Capa_1" data-name="Capa 1" xmlns="http://www.w3.org/2000/svg" viewBox="0 0 298.41 287.25"><defs><style>.cls-1{opacity:0.42;}.cls-2{fill:#f0f0f0;}.cls-3,.cls-7{fill:#ffc100;}.cls-10,.cls-12,.cls-4{opacity:0.5;}.cls-10,.cls-12,.cls-19,.cls-20,.cls-22,.cls-25,.cls-5,.cls-6,.cls-7,.cls-8,.cls-9{isolation:isolate;}.cls-25,.cls-5,.cls-7{opacity:0.7;}.cls-6{opacity:0.3;}.cls-22,.cls-8{opacity:0.6;}.cls-9{opacity:0.2;}.cls-11{fill:#fafafa;}.cls-12,.cls-18,.cls-22,.cls-25{fill:#fff;}.cls-13{fill:#e0e0e0;}.cls-14,.cls-20{fill:#37474f;}.cls-15{opacity:0.8;}.cls-16{fill:#455a64;}.cls-17{opacity:0.4;}.cls-19{opacity:0.15;}.cls-20{opacity:0.9;}.cls-21{fill:#f5f5f5;}.cls-23{fill:#263238;}.cls-24{fill:#40b74c;}.cls-26{fill:none;stroke:#455a64;stroke-linecap:round;stroke-linejoin:round;stroke-width:2px;}</style></defs><g id="Grupo_31" data-name="Grupo 31"><g id="JavaScript_frameworks-amico" data-name="JavaScript frameworks-amico"><g id="freepik--Floor--inject-2" class="cls-1"><ellipse id="freepik--floor--inject-2-2" class="cls-2" cx="149.2" cy="201.11" rx="149.2" ry="86.14"/></g><g id="freepik--Device--inject-2"><g id="freepik--PC--inject-2"><g id="freepik--Monitor--inject-2"><path id="Trazado_761" data-name="Trazado 761" class="cls-3" d="M133.16,199.56,153.1,188c2.05-1.19,3.08-2.75,3.08-4.3V181l-24-13.59a4.43,4.43,0,0,1-2-3.44v-24.6L95.38,159.45v24.6a4.4,4.4,0,0,0,2,3.43l20.9,12.07A16.45,16.45,0,0,0,133.16,199.56Z" transform="translate(-3.42 -4.3)"/><g id="Grupo_23" data-name="Grupo 23" class="cls-4"><path id="Trazado_762" data-name="Trazado 762" d="M133.16,199.56,153.1,188c2.05-1.19,3.08-2.75,3.08-4.3V181l-24-13.59a4.43,4.43,0,0,1-2-3.44v-24.6L95.38,159.45v24.6a4.4,4.4,0,0,0,2,3.43l20.9,12.07A16.45,16.45,0,0,0,133.16,199.56Z" transform="translate(-3.42 -4.3)"/></g><path id="Trazado_763" data-name="Trazado 763" class="cls-3" d="M103.74,188.4v2.76l-6.38-3.67a4.44,4.44,0,0,1-2-3.45v-24.6l6.64-3.83c.14,1.69.29,3.43.43,5.13l-4.66,2.69v19.21a4.42,4.42,0,0,0,2,3.44Z" transform="translate(-3.42 -4.3)"/><path id="Trazado_764" data-name="Trazado 764" class="cls-5" d="M103.74,188.4v2.76l-6.38-3.67a4.44,4.44,0,0,1-2-3.45v-24.6l6.64-3.83c.14,1.69.29,3.43.43,5.13l-4.66,2.69v19.21a4.42,4.42,0,0,0,2,3.44Z" transform="translate(-3.42 -4.3)"/><path id="Trazado_765" data-name="Trazado 765" class="cls-3" d="M97.78,182.66a4.4,4.4,0,0,0,2,3.44l18.5,10.68a16.42,16.42,0,0,0,14.89,0l20-11.53c4.12-2.37,4.12-6.21,0-8.59L134.6,166a4.36,4.36,0,0,1-2-3.43V143.33L97.78,163.45Z" transform="translate(-3.42 -4.3)"/><path id="Trazado_766" data-name="Trazado 766" class="cls-6" d="M97.78,182.66a4.4,4.4,0,0,0,2,3.44l18.5,10.68a16.42,16.42,0,0,0,14.89,0l20-11.53c4.12-2.37,4.12-6.21,0-8.59L134.6,166a4.36,4.36,0,0,1-2-3.43V143.33L97.78,163.45Z" transform="translate(-3.42 -4.3)"/><path id="Trazado_767" data-name="Trazado 767" class="cls-7" d="M138.64,168.31h0l-4-2.33a4.4,4.4,0,0,1-2-3.44V143.33L97.78,163.45v19.21a4.4,4.4,0,0,0,2,3.44l4,2.3Z" transform="translate(-3.42 -4.3)"/><path id="Trazado_768" data-name="Trazado 768" class="cls-8" d="M138.64,168.31h0l-4-2.33a4.4,4.4,0,0,1-2-3.44V143.33L97.78,163.45v19.21a4.4,4.4,0,0,0,2,3.44l4,2.3Z" transform="translate(-3.42 -4.3)"/><path id="Trazado_769" data-name="Trazado 769" class="cls-3" d="M156.19,181v2.8c0,1.56-1,3.1-3.09,4.29l-19.94,11.48a14.92,14.92,0,0,1-7.11,1.76v-2.76a14.93,14.93,0,0,0,7.11-1.77l19.94-11.53C155.15,184.07,156.19,182.5,156.19,181Z" transform="translate(-3.42 -4.3)"/><path id="Trazado_770" data-name="Trazado 770" class="cls-9" d="M156.19,181v2.8c0,1.56-1,3.1-3.09,4.29l-19.94,11.48a14.92,14.92,0,0,1-7.11,1.76v-2.76a14.93,14.93,0,0,0,7.11-1.77l19.94-11.53C155.15,184.07,156.19,182.5,156.19,181Z" transform="translate(-3.42 -4.3)"/><path id="Trazado_771" data-name="Trazado 771" class="cls-3" d="M41.85,209.19a5.38,5.38,0,0,0,4.82-.09l134.7-77.77a5.52,5.52,0,0,0,2.48-4.3V9.13a4.67,4.67,0,0,0-4.49-4.83,4.76,4.76,0,0,0-2.65.71L42,82.78a5.52,5.52,0,0,0-2.48,4.3V205A5.39,5.39,0,0,0,41.85,209.19Z" transform="translate(-3.42 -4.3)"/><path id="Trazado_772" data-name="Trazado 772" class="cls-6" d="M41.85,209.19a5.38,5.38,0,0,0,4.82-.09l134.7-77.77a5.52,5.52,0,0,0,2.48-4.3V9.13a4.67,4.67,0,0,0-4.49-4.83,4.76,4.76,0,0,0-2.65.71L42,82.78a5.52,5.52,0,0,0-2.48,4.3V205A5.39,5.39,0,0,0,41.85,209.19Z" transform="translate(-3.42 -4.3)"/><path id="Trazado_773" data-name="Trazado 773" class="cls-3" d="M46.67,209.09l134.7-77.77a5.46,5.46,0,0,0,2.48-4.29V9.13c0-1.59-1.11-2.22-2.48-1.43L46.67,85.46a5.52,5.52,0,0,0-2.48,4.33V207.66C44.19,209.24,45.3,209.89,46.67,209.09Z" transform="translate(-3.42 -4.3)"/><path id="Trazado_774" data-name="Trazado 774" class="cls-3" d="M46.67,209.09l134.7-77.77a5.46,5.46,0,0,0,2.48-4.29V9.13c0-1.59-1.11-2.22-2.48-1.43L46.67,85.46a5.52,5.52,0,0,0-2.48,4.33V207.66C44.19,209.24,45.3,209.89,46.67,209.09Z" transform="translate(-3.42 -4.3)"/><path id="Trazado_775" data-name="Trazado 775" class="cls-10" d="M46.67,209.09l134.7-77.77a5.46,5.46,0,0,0,2.48-4.29V9.13c0-1.59-1.11-2.22-2.48-1.43L46.67,85.46a5.52,5.52,0,0,0-2.48,4.33V207.66C44.19,209.24,45.3,209.89,46.67,209.09Z" transform="translate(-3.42 -4.3)"/><path id="Trazado_776" data-name="Trazado 776" class="cls-3" d="M46.3,209.28a5.34,5.34,0,0,1-4.41-.09A5.32,5.32,0,0,1,39.56,205V191.73l4.65,2.69v13.25C44.18,209.11,45.1,209.76,46.3,209.28Z" transform="translate(-3.42 -4.3)"/><path id="Trazado_777" data-name="Trazado 777" class="cls-5" d="M46.3,209.28a5.34,5.34,0,0,1-4.41-.09A5.32,5.32,0,0,1,39.56,205V191.73l4.65,2.69v13.25C44.18,209.11,45.1,209.76,46.3,209.28Z" transform="translate(-3.42 -4.3)"/><path id="Trazado_778" data-name="Trazado 778" class="cls-3" d="M44.19,194.4v13.25c0,1.58,1.11,2.22,2.48,1.43l134.7-77.76a5.46,5.46,0,0,0,2.48-4.29V113.75Z" transform="translate(-3.42 -4.3)"/><g id="Grupo_24" data-name="Grupo 24" class="cls-4"><path id="Trazado_779" data-name="Trazado 779" d="M44.19,194.4v13.25c0,1.58,1.11,2.22,2.48,1.43l134.7-77.76a5.46,5.46,0,0,0,2.48-4.29V113.75Z" transform="translate(-3.42 -4.3)"/></g><path id="Trazado_780" data-name="Trazado 780" class="cls-11" d="M48.84,184.62V91.28a3.31,3.31,0,0,1,1.49-2.58l127.4-73.54c.82-.47,1.48-.09,1.48.87v93.31a3.28,3.28,0,0,1-1.48,2.58L50.33,185.45C49.5,186,48.84,185.57,48.84,184.62Z" transform="translate(-3.42 -4.3)"/><path id="Trazado_781" data-name="Trazado 781" class="cls-3" d="M114,159.47a5.12,5.12,0,0,0-2.33,4c0,1.48,1,2.08,2.33,1.34a5.15,5.15,0,0,0,2.32-4C116.34,159.32,115.3,158.72,114,159.47Z" transform="translate(-3.42 -4.3)"/><path id="Trazado_782" data-name="Trazado 782" class="cls-12" d="M114,159.47a5.12,5.12,0,0,0-2.33,4c0,1.48,1,2.08,2.33,1.34a5.15,5.15,0,0,0,2.32-4C116.34,159.32,115.3,158.72,114,159.47Z" transform="translate(-3.42 -4.3)"/><path id="Trazado_783" data-name="Trazado 783" class="cls-3" d="M44.91,87.3a5.45,5.45,0,0,0-.73,2.49V194.4l-4.65-2.69V87.08a5.22,5.22,0,0,1,.73-2.46Z" transform="translate(-3.42 -4.3)"/><path id="Trazado_784" data-name="Trazado 784" class="cls-5" d="M44.91,87.3a5.45,5.45,0,0,0-.73,2.49V194.4l-4.65-2.69V87.08a5.22,5.22,0,0,1,.73-2.46Z" transform="translate(-3.42 -4.3)"/></g></g><g id="freepik--Keyboard--inject-2"><path id="freepik--shadow--inject-2" class="cls-13" d="M93.24,236.07l33.65,19.48a4.15,4.15,0,0,0,3.79,0l99.42-57.29c1-.63,1-1.57,0-2.18l-33.66-19.49a4.22,4.22,0,0,0-3.79,0l-99.41,57.3a1.15,1.15,0,0,0,0,2.18Z" transform="translate(-3.42 -4.3)"/><g id="freepik--keyboard--inject-2-2"><path id="Trazado_785" data-name="Trazado 785" class="cls-3" d="M228.06,192.59a1.34,1.34,0,0,0-.78-1.09l-31.62-18.25a4.13,4.13,0,0,0-3.78,0L95.39,229a1.32,1.32,0,0,0-.78,1.09v3.32a1.29,1.29,0,0,0,.78,1.08L127,252.79a4.22,4.22,0,0,0,3.79,0l96.49-55.71a1.32,1.32,0,0,0,.78-1.09Z" transform="translate(-3.42 -4.3)"/><path id="Trazado_786" data-name="Trazado 786" class="cls-10" d="M228.06,192.59a1.34,1.34,0,0,0-.78-1.09l-31.62-18.25a4.13,4.13,0,0,0-3.78,0L95.39,229a1.32,1.32,0,0,0-.78,1.09v3.32a1.29,1.29,0,0,0,.78,1.08L127,252.79a4.22,4.22,0,0,0,3.79,0l96.49-55.71a1.32,1.32,0,0,0,.78-1.09Z" transform="translate(-3.42 -4.3)"/><path id="Trazado_787" data-name="Trazado 787" class="cls-3" d="M127,249.39l-31.6-18.17a1.14,1.14,0,0,1-.72-1.45,1.12,1.12,0,0,1,.72-.72l96.49-55.79a4.15,4.15,0,0,1,3.79,0l31.61,18.25c1,.63,1,1.58,0,2.18L130.81,249.4A4.17,4.17,0,0,1,127,249.39Z" transform="translate(-3.42 -4.3)"/><path id="Trazado_788" data-name="Trazado 788" class="cls-6" d="M127,249.39l-31.6-18.17a1.14,1.14,0,0,1-.72-1.45,1.12,1.12,0,0,1,.72-.72l96.49-55.79a4.15,4.15,0,0,1,3.79,0l31.61,18.25c1,.63,1,1.58,0,2.18L130.81,249.4A4.17,4.17,0,0,1,127,249.39Z" transform="translate(-3.42 -4.3)"/><path id="Trazado_789" data-name="Trazado 789" class="cls-3" d="M128.78,249.84v3.39a3.89,3.89,0,0,1-1.77-.43L95.42,234.55a1.36,1.36,0,0,1-.79-1.09v-3.33a1.35,1.35,0,0,0,.79,1.09L127,249.4A3.86,3.86,0,0,0,128.78,249.84Z" transform="translate(-3.42 -4.3)"/><path id="Trazado_790" data-name="Trazado 790" class="cls-5" d="M128.78,249.84v3.39a3.89,3.89,0,0,1-1.77-.43L95.42,234.55a1.36,1.36,0,0,1-.79-1.09v-3.33a1.35,1.35,0,0,0,.79,1.09L127,249.4A3.86,3.86,0,0,0,128.78,249.84Z" transform="translate(-3.42 -4.3)"/><path id="Trazado_791" data-name="Trazado 791" class="cls-14" d="M169.14,196.75l3.6,2.08a.46.46,0,0,0,.23.06l3.32-1.85-3.88-2.18Z" transform="translate(-3.42 -4.3)"/><path id="Trazado_792" data-name="Trazado 792" class="cls-14" d="M173.47,194.25l3.62,2.09a.39.39,0,0,0,.21,0h.13l3.19-1.84-3.87-2.17Z" transform="translate(-3.42 -4.3)"/><path id="Trazado_793" data-name="Trazado 793" class="cls-14" d="M161.84,201l3.61,2.09a.54.54,0,0,0,.22,0l5.37-3-3.87-2.18Z" transform="translate(-3.42 -4.3)"/><path id="Trazado_794" data-name="Trazado 794" class="cls-14" d="M157.51,203.47l3.6,2.08a.44.44,0,0,0,.22,0l3.33-1.84-3.87-2.18Z" transform="translate(-3.42 -4.3)"/><path id="Trazado_795" data-name="Trazado 795" class="cls-14" d="M137.7,236.22l3.33-1.85-3.88-2.18-3.27,1.9,3.61,2.09A.78.78,0,0,0,137.7,236.22Z" transform="translate(-3.42 -4.3)"/><path id="Trazado_796" data-name="Trazado 796" class="cls-14" d="M153.17,206l3.6,2.08a.46.46,0,0,0,.23.06l3.32-1.85-3.87-2.18Z" transform="translate(-3.42 -4.3)"/><path id="Trazado_797" data-name="Trazado 797" class="cls-14" d="M177.31,197.69,174,199.58l3.6,2.08a.36.36,0,0,0,.22.05l3.33-1.85Z" transform="translate(-3.42 -4.3)"/><path id="Trazado_798" data-name="Trazado 798" class="cls-14" d="M165.2,214.66l3.32-1.85-3.87-2.17-3.28,1.89,3.61,2.09A.54.54,0,0,0,165.2,214.66Z" transform="translate(-3.42 -4.3)"/><path id="Trazado_799" data-name="Trazado 799" class="cls-14" d="M182.23,199.22l3.31-1.85-3.87-2.18-3.28,1.89,3.62,2.09A.54.54,0,0,0,182.23,199.22Z" transform="translate(-3.42 -4.3)"/><path id="Trazado_800" data-name="Trazado 800" class="cls-14" d="M160.87,217.18l3.31-1.84-3.87-2.19L157,215l3.6,2.08A.39.39,0,0,0,160.87,217.18Z" transform="translate(-3.42 -4.3)"/><path id="Trazado_801" data-name="Trazado 801" class="cls-14" d="M156.53,219.71l3.32-1.85L156,215.68l-3.28,1.89,3.61,2.08a.46.46,0,0,0,.23,0Z" transform="translate(-3.42 -4.3)"/><path id="Trazado_802" data-name="Trazado 802" class="cls-14" d="M173.87,209.68l7-4-8.76-5-3.72,2.15,4.59,2.65a.23.23,0,0,1,.13.19.22.22,0,0,1-.11.17l-2.9,1.67,3.6,2.07A.37.37,0,0,0,173.87,209.68Z" transform="translate(-3.42 -4.3)"/><path id="Trazado_803" data-name="Trazado 803" class="cls-14" d="M144.5,211l3.62,2.09a.49.49,0,0,0,.21,0l3.32-1.85-3.88-2.17Z" transform="translate(-3.42 -4.3)"/><path id="Trazado_804" data-name="Trazado 804" class="cls-14" d="M169.53,212.18l3.33-1.85L169,208.16l-3.27,1.89,3.58,2.07a.53.53,0,0,0,.24.06Z" transform="translate(-3.42 -4.3)"/><path id="Trazado_805" data-name="Trazado 805" class="cls-14" d="M120.15,235l3.33-1.85L119.6,231l-3.28,1.89,3.6,2.07A.48.48,0,0,0,120.15,235Z" transform="translate(-3.42 -4.3)"/><path id="Trazado_806" data-name="Trazado 806" class="cls-14" d="M109.83,231l3.62,2.09a.46.46,0,0,0,.21,0h.13l3.19-1.84-3.88-2.17Z" transform="translate(-3.42 -4.3)"/><path id="Trazado_807" data-name="Trazado 807" class="cls-14" d="M126.19,237.21h.14l3.15-1.84-3.87-2.18-3.28,1.89,3.62,2.09A.51.51,0,0,0,126.19,237.21Z" transform="translate(-3.42 -4.3)"/><path id="Trazado_808" data-name="Trazado 808" class="cls-14" d="M129,241.22l3.32-1.85-3.88-2.18-3.28,1.9,3.6,2.07a.48.48,0,0,0,.24.06Z" transform="translate(-3.42 -4.3)"/><path id="Trazado_809" data-name="Trazado 809" class="cls-14" d="M114.16,228.49l3.61,2.1a.78.78,0,0,0,.22,0l3.32-1.85-3.88-2.17Z" transform="translate(-3.42 -4.3)"/><path id="Trazado_810" data-name="Trazado 810" class="cls-14" d="M133.37,238.72l3.32-1.85-3.87-2.18-3.28,1.89,3.62,2.09a.5.5,0,0,0,.21.05Z" transform="translate(-3.42 -4.3)"/><path id="Trazado_811" data-name="Trazado 811" class="cls-14" d="M127.16,221l3.61,2.08a.44.44,0,0,0,.22,0l3.33-1.84-3.88-2.18Z" transform="translate(-3.42 -4.3)"/><path id="Trazado_812" data-name="Trazado 812" class="cls-14" d="M131.5,218.48l3.6,2.08a.46.46,0,0,0,.22.06l3.33-1.85-3.87-2.18Z" transform="translate(-3.42 -4.3)"/><path id="Trazado_813" data-name="Trazado 813" class="cls-14" d="M135.83,216l3.59,2.08a.53.53,0,0,0,.24.06l3.32-1.85-3.87-2.18Z" transform="translate(-3.42 -4.3)"/><path id="Trazado_814" data-name="Trazado 814" class="cls-14" d="M122.83,223.49l3.6,2.08a.4.4,0,0,0,.22.06l3.33-1.86-3.88-2.17Z" transform="translate(-3.42 -4.3)"/><path id="Trazado_815" data-name="Trazado 815" class="cls-14" d="M140.17,213.48l3.61,2.09a.54.54,0,0,0,.22,0l3.32-1.85-3.88-2.17Z" transform="translate(-3.42 -4.3)"/><path id="Trazado_816" data-name="Trazado 816" class="cls-14" d="M118.49,226l3.62,2.08a.42.42,0,0,0,.22,0l3.31-1.84-3.87-2.18Z" transform="translate(-3.42 -4.3)"/><path id="Trazado_817" data-name="Trazado 817" class="cls-14" d="M148.83,208.47l3.62,2.1a.52.52,0,0,0,.21,0l3.33-1.85-3.88-2.18Z" transform="translate(-3.42 -4.3)"/><path id="Trazado_818" data-name="Trazado 818" class="cls-14" d="M159.66,207.88l3.6,2.08a.39.39,0,0,0,.24,0h.13l3.18-1.84L162.94,206Z" transform="translate(-3.42 -4.3)"/><path id="Trazado_819" data-name="Trazado 819" class="cls-14" d="M183.05,188.72l3.6,2.08a.59.59,0,0,0,.23,0l3.33-1.84-3.88-2.18Z" transform="translate(-3.42 -4.3)"/><path id="Trazado_820" data-name="Trazado 820" class="cls-14" d="M187.39,186.22l3.6,2.07a.46.46,0,0,0,.22.06l3.33-1.85-3.87-2.17Z" transform="translate(-3.42 -4.3)"/><path id="Trazado_821" data-name="Trazado 821" class="cls-14" d="M155.33,210.38l3.6,2.08a.59.59,0,0,0,.23,0l3.32-1.84-3.87-2.19Z" transform="translate(-3.42 -4.3)"/><path id="Trazado_822" data-name="Trazado 822" class="cls-14" d="M191.72,183.71l3.6,2.09a.59.59,0,0,0,.23,0l3.32-1.85L195,181.82Z" transform="translate(-3.42 -4.3)"/><path id="Trazado_823" data-name="Trazado 823" class="cls-14" d="M167.83,207.51H168l3.19-1.84-3.88-2.18L164,205.38l3.6,2.08A.59.59,0,0,0,167.83,207.51Z" transform="translate(-3.42 -4.3)"/><path id="Trazado_824" data-name="Trazado 824" class="cls-14" d="M188,191.55l3.59,2.07a.53.53,0,0,0,.24.06l3.32-1.84-3.87-2.19Z" transform="translate(-3.42 -4.3)"/><path id="Trazado_825" data-name="Trazado 825" class="cls-14" d="M196.62,186.54l3.59,2.07a.44.44,0,0,0,.24.07l3.32-1.85-3.88-2.18Z" transform="translate(-3.42 -4.3)"/><path id="Trazado_826" data-name="Trazado 826" class="cls-14" d="M196.1,191.18l3.33-1.85-3.88-2.18L192.27,189l3.61,2.09A.59.59,0,0,0,196.1,191.18Z" transform="translate(-3.42 -4.3)"/><path id="Trazado_827" data-name="Trazado 827" class="cls-14" d="M209.48,189a.65.65,0,0,0,.2,0h.14l3.18-1.84-8.77-5L201,184.05Z" transform="translate(-3.42 -4.3)"/><path id="Trazado_828" data-name="Trazado 828" class="cls-14" d="M151,212.88,154.6,215a.46.46,0,0,0,.23.06H155l3.19-1.83L154.27,211Z" transform="translate(-3.42 -4.3)"/><path id="Trazado_829" data-name="Trazado 829" class="cls-14" d="M201,194h.13l3.18-1.84L200.46,190l-3.28,1.89,3.6,2.08A.6.6,0,0,0,201,194Z" transform="translate(-3.42 -4.3)"/><path id="Trazado_830" data-name="Trazado 830" class="cls-14" d="M205.35,191.5l3.32-1.84-3.88-2.18-3.28,1.89,3.6,2.08a.6.6,0,0,0,.24.05Z" transform="translate(-3.42 -4.3)"/><path id="Trazado_831" data-name="Trazado 831" class="cls-14" d="M129.32,225.38l3.6,2.08a.46.46,0,0,0,.23.06l3.32-1.85-3.87-2.18Z" transform="translate(-3.42 -4.3)"/><path id="Trazado_832" data-name="Trazado 832" class="cls-14" d="M120.66,230.43l3.59,2.07a.46.46,0,0,0,.23.06h.14l3.19-1.84-3.88-2.18Z" transform="translate(-3.42 -4.3)"/><path id="Trazado_833" data-name="Trazado 833" class="cls-14" d="M134.86,232.21l3.32-1.85-3.88-2.18L131,230.07l3.62,2.09A.54.54,0,0,0,134.86,232.21Z" transform="translate(-3.42 -4.3)"/><path id="Trazado_834" data-name="Trazado 834" class="cls-14" d="M130.51,234.7l3.33-1.84L130,230.68l-3.28,1.89,3.62,2.09A.39.39,0,0,0,130.51,234.7Z" transform="translate(-3.42 -4.3)"/><path id="Trazado_835" data-name="Trazado 835" class="cls-14" d="M139.19,229.71h.14l3.19-1.84-3.88-2.18-3.28,1.89,3.6,2.08a.59.59,0,0,0,.23.05Z" transform="translate(-3.42 -4.3)"/><path id="Trazado_836" data-name="Trazado 836" class="cls-14" d="M146.66,215.39l3.61,2.08a.54.54,0,0,0,.22.05h.13l3.19-1.84-3.87-2.18Z" transform="translate(-3.42 -4.3)"/><path id="Trazado_837" data-name="Trazado 837" class="cls-14" d="M147.86,224.7l3.33-1.85-3.88-2.18L144,222.56l3.6,2.08a.46.46,0,0,0,.23.06Z" transform="translate(-3.42 -4.3)"/><path id="Trazado_838" data-name="Trazado 838" class="cls-14" d="M143.53,227.2l3.32-1.82L143,223.21l-3.27,1.89,3.62,2.09A.5.5,0,0,0,143.53,227.2Z" transform="translate(-3.42 -4.3)"/><path id="Trazado_839" data-name="Trazado 839" class="cls-14" d="M138,220.39l3.6,2.08a.46.46,0,0,0,.23.06l3.33-1.85-3.88-2.18Z" transform="translate(-3.42 -4.3)"/><path id="Trazado_840" data-name="Trazado 840" class="cls-14" d="M125,227.9l3.59,2.08a.53.53,0,0,0,.24.06l3.32-1.85L128.27,226Z" transform="translate(-3.42 -4.3)"/><path id="Trazado_841" data-name="Trazado 841" class="cls-14" d="M142.33,217.89l3.6,2.07a.46.46,0,0,0,.23.06l3.32-1.85L145.6,216Z" transform="translate(-3.42 -4.3)"/><path id="Trazado_842" data-name="Trazado 842" class="cls-14" d="M133.67,222.89l3.59,2.08a.46.46,0,0,0,.23.06h.14l3.19-1.84L136.94,221Z" transform="translate(-3.42 -4.3)"/><path id="Trazado_843" data-name="Trazado 843" class="cls-14" d="M152.2,222.19l3.32-1.85-3.88-2.17-3.27,1.89,3.6,2.08A.46.46,0,0,0,152.2,222.19Z" transform="translate(-3.42 -4.3)"/><path id="Trazado_844" data-name="Trazado 844" class="cls-14" d="M177.81,191.75l3.62,2.09a.49.49,0,0,0,.21,0L185,192l-3.88-2.17Z" transform="translate(-3.42 -4.3)"/><path id="Trazado_845" data-name="Trazado 845" class="cls-14" d="M108.77,231.61l-3.28,1.89,3.62,2.09a.52.52,0,0,0,.21,0h.14l3.19-1.84Z" transform="translate(-3.42 -4.3)"/><path id="Trazado_846" data-name="Trazado 846" class="cls-14" d="M115.26,233.51l-4.87,2.81,3.62,2.1a.65.65,0,0,0,.21,0h.14l4.78-2.76Z" transform="translate(-3.42 -4.3)"/><path id="Trazado_847" data-name="Trazado 847" class="cls-14" d="M103.51,227.78l-4,2.29,3.61,2.07a.46.46,0,0,0,.23.06l4-2.24Z" transform="translate(-3.42 -4.3)"/><path id="Trazado_848" data-name="Trazado 848" class="cls-14" d="M124.15,239.7l-4,2.29,3.59,2.07a.53.53,0,0,0,.24.06l4-2.25Z" transform="translate(-3.42 -4.3)"/><path id="Trazado_849" data-name="Trazado 849" class="cls-14" d="M121.3,235.69l-6,3.47,3.61,2.08a.54.54,0,0,0,.22,0h.13l5.93-3.42Z" transform="translate(-3.42 -4.3)"/><path id="Trazado_850" data-name="Trazado 850" class="cls-14" d="M110.28,228.21l3.32-1.84-3.9-2.18-3.28,1.89,3.6,2.08A.47.47,0,0,0,110.28,228.21Z" transform="translate(-3.42 -4.3)"/><path id="Trazado_851" data-name="Trazado 851" class="cls-14" d="M125.08,244.81l3.6,2.08a.46.46,0,0,0,.23.05l4.92-2.76L130,242Z" transform="translate(-3.42 -4.3)"/><path id="Trazado_852" data-name="Trazado 852" class="cls-14" d="M114.61,225.71l3.33-1.85-3.88-2.17-3.27,1.89,3.61,2.09A.52.52,0,0,0,114.61,225.71Z" transform="translate(-3.42 -4.3)"/><path id="Trazado_853" data-name="Trazado 853" class="cls-14" d="M133.84,214.62H134l3.19-1.85-3.88-2.17L130,212.49l3.6,2.08a.44.44,0,0,0,.22.05Z" transform="translate(-3.42 -4.3)"/><path id="Trazado_854" data-name="Trazado 854" class="cls-14" d="M138.17,212.14l3.33-1.85-3.88-2.18L134.34,210l3.61,2.08A.43.43,0,0,0,138.17,212.14Z" transform="translate(-3.42 -4.3)"/><path id="Trazado_855" data-name="Trazado 855" class="cls-14" d="M129.5,217.11h.14l3.15-1.84-3.87-2.17L125.64,215l3.61,2.07A.45.45,0,0,0,129.5,217.11Z" transform="translate(-3.42 -4.3)"/><path id="Trazado_856" data-name="Trazado 856" class="cls-14" d="M123.28,220.71h.14l3.18-1.84-3.87-2.18-3.28,1.89,3.61,2.08A.42.42,0,0,0,123.28,220.71Z" transform="translate(-3.42 -4.3)"/><path id="Trazado_857" data-name="Trazado 857" class="cls-14" d="M119,223.21l3.32-1.85-3.87-2.18-3.28,1.89,3.61,2.09A.42.42,0,0,0,119,223.21Z" transform="translate(-3.42 -4.3)"/><path id="Trazado_858" data-name="Trazado 858" class="cls-14" d="M211.32,195l3.62,2.09a.52.52,0,0,0,.21,0h.13l3.15-1.84-3.87-2.18Z" transform="translate(-3.42 -4.3)"/><path id="Trazado_859" data-name="Trazado 859" class="cls-14" d="M188.73,208.06l3.6,2.08a.46.46,0,0,0,.23.06l3.32-1.85L192,206.17Z" transform="translate(-3.42 -4.3)"/><path id="Trazado_860" data-name="Trazado 860" class="cls-14" d="M202.65,200l3.6,2.07a.46.46,0,0,0,.23.06h.13l7.52-4.35-3.87-2.17Z" transform="translate(-3.42 -4.3)"/><path id="Trazado_861" data-name="Trazado 861" class="cls-14" d="M193.06,205.57l3.6,2.07a.48.48,0,0,0,.24.06l3.32-1.85-3.88-2.18Z" transform="translate(-3.42 -4.3)"/><path id="Trazado_862" data-name="Trazado 862" class="cls-14" d="M197.4,203.06l3.58,2.06a.38.38,0,0,0,.25.07l3.32-1.85-3.87-2.17Z" transform="translate(-3.42 -4.3)"/><path id="Trazado_863" data-name="Trazado 863" class="cls-14" d="M142.5,209.62h.13l3.19-1.85L142,205.59l-3.28,1.89,3.59,2.08a.5.5,0,0,0,.24.06Z" transform="translate(-3.42 -4.3)"/><path id="Trazado_864" data-name="Trazado 864" class="cls-14" d="M214,187.8l-3.28,1.89,8.52,4.92a.52.52,0,0,0,.21,0h.13l3.19-1.84Z" transform="translate(-3.42 -4.3)"/><path id="Trazado_865" data-name="Trazado 865" class="cls-14" d="M136,238.49l3.59,2.08a.53.53,0,0,0,.24.06l4-2.25L140,236.2Z" transform="translate(-3.42 -4.3)"/><path id="Trazado_866" data-name="Trazado 866" class="cls-14" d="M141.05,235.59l3.59,2.08a.5.5,0,0,0,.24.06H145l24.64-14.24-3.88-2.18Z" transform="translate(-3.42 -4.3)"/><path id="Trazado_867" data-name="Trazado 867" class="cls-14" d="M142,233.71l3.32-1.84-3.87-2.18-3.28,1.89,3.61,2.08A.42.42,0,0,0,142,233.71Z" transform="translate(-3.42 -4.3)"/><path id="Trazado_868" data-name="Trazado 868" class="cls-14" d="M131,241.39l3.59,2.07a.61.61,0,0,0,.24.07l4-2.25L135,239.1Z" transform="translate(-3.42 -4.3)"/><path id="Trazado_869" data-name="Trazado 869" class="cls-14" d="M166.83,220.71l3.6,2.08a.6.6,0,0,0,.23.06h.14l3.87-2.24-3.88-2.17Z" transform="translate(-3.42 -4.3)"/><path id="Trazado_870" data-name="Trazado 870" class="cls-14" d="M176.87,214.91l3.61,2.09a.59.59,0,0,0,.22.05h.13l3.88-2.23-3.88-2.18Z" transform="translate(-3.42 -4.3)"/><path id="Trazado_871" data-name="Trazado 871" class="cls-14" d="M171.85,217.81l3.62,2.09a.5.5,0,0,0,.21,0l4-2.25-3.87-2.18Z" transform="translate(-3.42 -4.3)"/><path id="Trazado_872" data-name="Trazado 872" class="cls-14" d="M181.89,212l3.6,2.07a.46.46,0,0,0,.23.06h.13l4.78-2.76-3.87-2.18Z" transform="translate(-3.42 -4.3)"/><path id="Trazado_873" data-name="Trazado 873" class="cls-14" d="M186.53,196.71h.13l3.2-1.83-3.85-2.2-3.28,1.89,3.61,2.09A.45.45,0,0,0,186.53,196.71Z" transform="translate(-3.42 -4.3)"/><path id="Trazado_874" data-name="Trazado 874" class="cls-14" d="M192,204.87h.13l3.19-1.84-3.87-2.17-3.28,1.89,3.61,2.08a.41.41,0,0,0,.22,0Z" transform="translate(-3.42 -4.3)"/><path id="Trazado_875" data-name="Trazado 875" class="cls-14" d="M176.72,213.7l9-5.15-3.88-2.18-9,5.19,3.62,2.09a.54.54,0,0,0,.21,0Z" transform="translate(-3.42 -4.3)"/><path id="Trazado_876" data-name="Trazado 876" class="cls-14" d="M201.58,199.34h.14l3.18-1.85L201,195.32l-3.28,1.89,3.61,2.09A.54.54,0,0,0,201.58,199.34Z" transform="translate(-3.42 -4.3)"/><path id="Trazado_877" data-name="Trazado 877" class="cls-14" d="M205.92,196.84h.13l3.18-1.84-3.87-2.18-3.28,1.89,3.61,2.09A.59.59,0,0,0,205.92,196.84Z" transform="translate(-3.42 -4.3)"/><path id="Trazado_878" data-name="Trazado 878" class="cls-14" d="M172.38,216.2l3.32-1.85-3.87-2.18-3.28,1.89,3.6,2.08A.46.46,0,0,0,172.38,216.2Z" transform="translate(-3.42 -4.3)"/><path id="Trazado_879" data-name="Trazado 879" class="cls-14" d="M196.68,196.51h.14l3.18-1.84-3.9-2.18-3.28,1.89,3.6,2.07a.4.4,0,0,0,.26.06Z" transform="translate(-3.42 -4.3)"/><path id="Trazado_880" data-name="Trazado 880" class="cls-14" d="M150.69,228.71l3.33-1.85-3.88-2.18-3.28,1.89,3.62,2.09A.5.5,0,0,0,150.69,228.71Z" transform="translate(-3.42 -4.3)"/><path id="Trazado_881" data-name="Trazado 881" class="cls-14" d="M168,218.7l3.33-1.85-3.88-2.19-3.27,1.89,3.62,2.1A.65.65,0,0,0,168,218.7Z" transform="translate(-3.42 -4.3)"/><path id="Trazado_882" data-name="Trazado 882" class="cls-14" d="M146.37,231.21h.14l3.15-1.84-3.87-2.18-3.28,1.89,3.62,2.09a.43.43,0,0,0,.25,0Z" transform="translate(-3.42 -4.3)"/><path id="Trazado_883" data-name="Trazado 883" class="cls-14" d="M155,226.21l3.32-1.85-3.88-2.18-3.28,1.89,3.63,2.09A.38.38,0,0,0,155,226.21Z" transform="translate(-3.42 -4.3)"/><path id="Trazado_884" data-name="Trazado 884" class="cls-14" d="M159.38,223.71h.14l3.19-1.85-3.89-2.15-3.28,1.89,3.6,2.08A.5.5,0,0,0,159.38,223.71Z" transform="translate(-3.42 -4.3)"/><path id="Trazado_885" data-name="Trazado 885" class="cls-14" d="M163.71,221.2h.13l3.19-1.84-3.87-2.18-3.28,1.9,3.62,2.08A.52.52,0,0,0,163.71,221.2Z" transform="translate(-3.42 -4.3)"/><path id="Trazado_886" data-name="Trazado 886" class="cls-14" d="M153.06,203.52l3.31-1.85-3.88-2.18-3.27,1.89,3.6,2.07A.42.42,0,0,0,153.06,203.52Z" transform="translate(-3.42 -4.3)"/><path id="Trazado_887" data-name="Trazado 887" class="cls-14" d="M210.25,194.33h.13l3.19-1.83-3.88-2.18-3.28,1.89L210,194.3A.42.42,0,0,0,210.25,194.33Z" transform="translate(-3.42 -4.3)"/><path id="Trazado_888" data-name="Trazado 888" class="cls-14" d="M161.73,198.51l3.32-1.85-3.87-2.18-3.28,1.89,3.59,2.08a.53.53,0,0,0,.24.06Z" transform="translate(-3.42 -4.3)"/><path id="Trazado_889" data-name="Trazado 889" class="cls-14" d="M171.36,193l3.32-1.84-3.88-2.19-3.27,1.9,3.6,2.08A.37.37,0,0,0,171.36,193Z" transform="translate(-3.42 -4.3)"/><path id="Trazado_890" data-name="Trazado 890" class="cls-14" d="M167,195.46l3.32-1.85-3.88-2.18-3.28,1.89,3.6,2.08a.53.53,0,0,0,.24.06Z" transform="translate(-3.42 -4.3)"/><path id="Trazado_891" data-name="Trazado 891" class="cls-14" d="M148.73,206l3.32-1.85L148.17,202l-3.27,1.89,3.6,2.08a.46.46,0,0,0,.23.06Z" transform="translate(-3.42 -4.3)"/><path id="Trazado_892" data-name="Trazado 892" class="cls-14" d="M157.39,201h.14l3.15-1.84L156.84,197l-3.28,1.89,3.6,2.08A.45.45,0,0,0,157.39,201Z" transform="translate(-3.42 -4.3)"/><path id="Trazado_893" data-name="Trazado 893" class="cls-14" d="M175.69,190.45,179,188.6l-3.87-2.17-3.28,1.89,3.6,2.07a.46.46,0,0,0,.23.06Z" transform="translate(-3.42 -4.3)"/><path id="Trazado_894" data-name="Trazado 894" class="cls-14" d="M192.69,179.19l3.31-1.85-2.1-1.15-3.28,1.89,1.84,1A.48.48,0,0,0,192.69,179.19Z" transform="translate(-3.42 -4.3)"/><path id="Trazado_895" data-name="Trazado 895" class="cls-14" d="M199.89,183.34l3.32-1.84-3.88-2.16-3.28,1.9,3.6,2.08a.5.5,0,0,0,.24,0Z" transform="translate(-3.42 -4.3)"/><path id="Trazado_896" data-name="Trazado 896" class="cls-14" d="M179.71,186.7h.13l3.18-1.84-2.1-1.14-3.28,1.89,1.83,1A.69.69,0,0,0,179.71,186.7Z" transform="translate(-3.42 -4.3)"/><path id="Trazado_897" data-name="Trazado 897" class="cls-14" d="M184,184.19h.13l3.16-1.83-2.07-1.12L182,183.13l1.85,1A.5.5,0,0,0,184,184.19Z" transform="translate(-3.42 -4.3)"/><path id="Trazado_898" data-name="Trazado 898" class="cls-14" d="M188.35,181.69l3.32-1.85-2.11-1.13-3.28,1.89,1.86,1.05a.46.46,0,0,0,.21,0Z" transform="translate(-3.42 -4.3)"/></g></g></g><g id="freepik--Windows--inject-2"><g id="Grupo_29" data-name="Grupo 29" class="cls-15"><path id="Trazado_922" data-name="Trazado 922" class="cls-16" d="M249.16,7.18V100.8a4.29,4.29,0,0,1-1.95,3.38l-53.79,31a1.29,1.29,0,0,1-.63.19l-.25,0-.17-.05-.1-.07-.11-.07-.11-.1a1.57,1.57,0,0,1-.36-.51,2.53,2.53,0,0,1-.2-1V40.43a4.32,4.32,0,0,1,1.95-3.37l53.75-31a1.39,1.39,0,0,1,1.31-.17.54.54,0,0,1,.16.1h0a.49.49,0,0,1,.13.12l.06.07a.33.33,0,0,1,.06.1,1.15,1.15,0,0,1,.12.25.53.53,0,0,1,0,.17s0,0,0,0a1.16,1.16,0,0,1,0,.18A.47.47,0,0,1,249.16,7.18Z" transform="translate(-3.42 -4.3)"/><path id="Trazado_923" data-name="Trazado 923" class="cls-16" d="M248.07,6.42a.41.41,0,0,1,.19,0h0l.06.07h0l0,.07h0l.06.19h0a0,0,0,0,1,0,0,.61.61,0,0,1,0,.19V100.8a3.64,3.64,0,0,1-1.63,2.83l-53.72,31a.6.6,0,0,1-.32.1h-.18l-.08-.05h0a.83.83,0,0,1-.2-.3,1.68,1.68,0,0,1-.15-.73V40.43a3.66,3.66,0,0,1,1.62-2.82l53.79-31a1.12,1.12,0,0,1,.55-.18m0-.64a1.89,1.89,0,0,0-.86.27l-53.79,31a4.28,4.28,0,0,0-1.94,3.37v93.15a2.25,2.25,0,0,0,.2,1,1.49,1.49,0,0,0,.36.51l.1.09.12.08.1.06.17.06.24,0h0a1.17,1.17,0,0,0,.63-.19l53.72-31a4.32,4.32,0,0,0,1.95-3.37V6.93a.85.85,0,0,0,0-.17s0,0,0,0a.47.47,0,0,0,0-.17,1,1,0,0,0-.12-.25.33.33,0,0,0-.06-.1l-.06-.07a.8.8,0,0,0-.13-.13h0l-.16-.1a1,1,0,0,0-.45-.09Z" transform="translate(-3.42 -4.3)"/><g id="Grupo_28" data-name="Grupo 28" class="cls-15"><path id="Trazado_924" data-name="Trazado 924" class="cls-16" d="M249.16,7.18V100.8a4.29,4.29,0,0,1-1.95,3.38l-53.79,31a1.29,1.29,0,0,1-.63.19l-.25,0-.17-.05-.1-.07-.11-.07-.11-.1a1.57,1.57,0,0,1-.36-.51,2.53,2.53,0,0,1-.2-1V40.43a4.32,4.32,0,0,1,1.95-3.37l53.75-31a1.39,1.39,0,0,1,1.31-.17.54.54,0,0,1,.16.1h0a.49.49,0,0,1,.13.12l.06.07a.33.33,0,0,1,.06.1,1.15,1.15,0,0,1,.12.25.53.53,0,0,1,0,.17s0,0,0,0a1.16,1.16,0,0,1,0,.18A.47.47,0,0,1,249.16,7.18Z" transform="translate(-3.42 -4.3)"/></g></g><path id="Trazado_925" data-name="Trazado 925" class="cls-3" d="M248.52,5.89a1.4,1.4,0,0,0-1.31.17l-53.79,31a4.31,4.31,0,0,0-1.94,3.37v6.36L189,45.33V39a4.28,4.28,0,0,1,1.94-3.36l53.8-31a1.36,1.36,0,0,1,1.4-.11C246.49,4.75,248.11,5.69,248.52,5.89Z" transform="translate(-3.42 -4.3)"/><path id="Trazado_926" data-name="Trazado 926" class="cls-3" d="M249.16,7.17c0-1.26-.87-1.73-1.95-1.11l-53.79,31a4.33,4.33,0,0,0-1.94,3.37v6.35l57.68-33.23Z" transform="translate(-3.42 -4.3)"/><g id="Grupo_30" data-name="Grupo 30" class="cls-17"><path id="Trazado_927" data-name="Trazado 927" class="cls-18" d="M247.19,6.06l-53.79,31A3.94,3.94,0,0,0,192,38.5l-2.47-1.43a3.91,3.91,0,0,1,1.35-1.42l53.82-31a1.35,1.35,0,0,1,1.41-.11c.35.21,2,1.13,2.37,1.35A1.39,1.39,0,0,0,247.19,6.06Z" transform="translate(-3.42 -4.3)"/></g><path id="Trazado_928" data-name="Trazado 928" class="cls-19" d="M189,45.34V39a3.9,3.9,0,0,1,.59-1.94l2.48,1.42a3.89,3.89,0,0,0-.58,1.93V46.8Z" transform="translate(-3.42 -4.3)"/><path id="Trazado_929" data-name="Trazado 929" class="cls-16" d="M237.44,14.41a2.91,2.91,0,0,0-1.1,2.32c0,.93.5,1.41,1.1,1.06a2.94,2.94,0,0,0,1.1-2.33C238.54,14.52,238.05,14.06,237.44,14.41Z" transform="translate(-3.42 -4.3)"/><path id="Trazado_930" data-name="Trazado 930" class="cls-16" d="M241.4,12.12a2.89,2.89,0,0,0-1.1,2.33c0,.93.49,1.4,1.1,1.05a2.89,2.89,0,0,0,1.1-2.33C242.49,12.24,242,11.77,241.4,12.12Z" transform="translate(-3.42 -4.3)"/><path id="Trazado_931" data-name="Trazado 931" class="cls-16" d="M245.35,9.83a2.91,2.91,0,0,0-1.1,2.33c0,.93.49,1.4,1.1,1.05a2.88,2.88,0,0,0,1.1-2.32C246.46,10,246,9.48,245.35,9.83Z" transform="translate(-3.42 -4.3)"/><path id="Trazado_932" data-name="Trazado 932" class="cls-20" d="M192.19,135.21l-.24-.14-.6-.33h0l-.32-.19h0l-.52-.29-.42-.25-.24-.13a1,1,0,0,1-.34-.27,1.48,1.48,0,0,1-.26-.39,2.27,2.27,0,0,1-.22-1V45.33l2.48,1.46v86.79a3,3,0,0,0,.2,1,1.43,1.43,0,0,0,.36.51.27.27,0,0,0,.11.1S192.19,135.2,192.19,135.21Z" transform="translate(-3.42 -4.3)"/><path id="Trazado_933" data-name="Trazado 933" class="cls-3" d="M196.25,52.07a.88.88,0,0,1,.1-.36l1.4-2.9a.27.27,0,0,1,.07-.08v0a.08.08,0,0,1,.11,0,.18.18,0,0,1,0,.14v1a.76.76,0,0,1,0,.3,1.17,1.17,0,0,1-.1.26l-.73,1.53.73.68a.33.33,0,0,1,.1.14.62.62,0,0,1,0,.27v1a.38.38,0,0,1,0,.2.28.28,0,0,1-.11.13h0a.09.09,0,0,1-.07,0l-1.4-1.26a.35.35,0,0,1-.1-.25Z" transform="translate(-3.42 -4.3)"/><path id="Trazado_934" data-name="Trazado 934" class="cls-3" d="M201.37,44.79a1,1,0,0,1,.11-.28.43.43,0,0,1,.2-.22l.53-.3a.07.07,0,0,1,.1,0,.15.15,0,0,1,.05.14.17.17,0,0,1,0,.1L200,54.45a.94.94,0,0,1-.1.28.45.45,0,0,1-.2.23l-.5.29a.08.08,0,0,1-.11,0,.19.19,0,0,1-.05-.14V55Z" transform="translate(-3.42 -4.3)"/><path id="Trazado_935" data-name="Trazado 935" class="cls-3" d="M205.08,47.69a.88.88,0,0,1-.1.36l-1.4,2.9-.06.09h0a.11.11,0,0,1-.11,0,.2.2,0,0,1,0-.15v-1a1.5,1.5,0,0,1,0-.3,1.17,1.17,0,0,1,.1-.26l.74-1.53-.74-.68a.4.4,0,0,1-.1-.15,1.22,1.22,0,0,1,0-.27v-1a.45.45,0,0,1,0-.2.35.35,0,0,1,.11-.13h.1l1.4,1.26a.3.3,0,0,1,.1.25Z" transform="translate(-3.42 -4.3)"/><path id="Trazado_936" data-name="Trazado 936" class="cls-3" d="M209,47a.12.12,0,0,1,.14,0,.28.28,0,0,1,.06.18v1.06a.48.48,0,0,1-.06.24.33.33,0,0,1-.14.17l-.63.38a.11.11,0,0,1-.13,0,.27.27,0,0,1-.06-.17V47.8a.53.53,0,0,1,.06-.24.4.4,0,0,1,.13-.16Z" transform="translate(-3.42 -4.3)"/><path id="Trazado_937" data-name="Trazado 937" class="cls-3" d="M211.17,45.75a.12.12,0,0,1,.14,0,.28.28,0,0,1,.06.18V47a.53.53,0,0,1-.06.24.46.46,0,0,1-.14.17l-.63.37a.1.1,0,0,1-.14,0,.27.27,0,0,1-.06-.17V46.53a.53.53,0,0,1,.06-.24.43.43,0,0,1,.14-.16Z" transform="translate(-3.42 -4.3)"/><path id="Trazado_938" data-name="Trazado 938" class="cls-3" d="M213.38,44.48a.09.09,0,0,1,.13,0,.28.28,0,0,1,.06.18v1.06a.54.54,0,0,1-.06.25.4.4,0,0,1-.13.16l-.66.38a.12.12,0,0,1-.14,0,.23.23,0,0,1-.05-.18V45.26a.69.69,0,0,1,.05-.24.36.36,0,0,1,.14-.16Z" transform="translate(-3.42 -4.3)"/><path id="Trazado_939" data-name="Trazado 939" class="cls-3" d="M196.85,59.87l32.31-18.66c.39-.22.7-.06.7.35a1.51,1.51,0,0,1-.7,1.15L196.85,61.37c-.39.22-.7.06-.7-.35A1.49,1.49,0,0,1,196.85,59.87Z" transform="translate(-3.42 -4.3)"/><path id="Trazado_940" data-name="Trazado 940" class="cls-13" d="M207.22,71.84l32.31-18.66c.39-.22.69-.06.69.35a1.47,1.47,0,0,1-.69,1.15L207.22,73.34c-.39.22-.7.06-.7-.35A1.46,1.46,0,0,1,207.22,71.84Z" transform="translate(-3.42 -4.3)"/><path id="Trazado_941" data-name="Trazado 941" class="cls-13" d="M207.22,77.83l15.47-8.92c.37-.22.68-.06.68.35a1.47,1.47,0,0,1-.68,1.14l-15.47,8.93c-.39.22-.7.07-.7-.35A1.48,1.48,0,0,1,207.22,77.83Z" transform="translate(-3.42 -4.3)"/><path id="Trazado_942" data-name="Trazado 942" class="cls-13" d="M207.22,83.81l15.47-8.92c.37-.22.68-.06.68.35a1.49,1.49,0,0,1-.68,1.15l-15.47,8.92c-.39.22-.7.07-.7-.35A1.48,1.48,0,0,1,207.22,83.81Z" transform="translate(-3.42 -4.3)"/><path id="Trazado_943" data-name="Trazado 943" class="cls-3" d="M231.84,39.67l12.88-7.49c.38-.22.69-.06.69.35a1.46,1.46,0,0,1-.69,1.14l-12.88,7.47c-.38.22-.69.06-.69-.35a1.47,1.47,0,0,1,.69-1.12Z" transform="translate(-3.42 -4.3)"/><path id="Trazado_944" data-name="Trazado 944" class="cls-3" d="M196.85,125.72l32.31-18.66c.39-.22.7-.06.7.35a1.51,1.51,0,0,1-.7,1.15l-32.31,18.66c-.39.21-.7.06-.7-.36A1.49,1.49,0,0,1,196.85,125.72Z" transform="translate(-3.42 -4.3)"/><path id="Trazado_945" data-name="Trazado 945" class="cls-3" d="M231.84,105.51l12.88-7.46c.38-.22.69-.07.69.35a1.5,1.5,0,0,1-.69,1.15L231.84,107c-.38.22-.69.06-.69-.35A1.46,1.46,0,0,1,231.84,105.51Z" transform="translate(-3.42 -4.3)"/><path id="Trazado_946" data-name="Trazado 946" class="cls-3" d="M231.84,87.58l12.88-7.47c.38-.22.69-.06.69.35a1.47,1.47,0,0,1-.69,1.15l-12.88,7.46c-.38.22-.69.06-.69-.35a1.49,1.49,0,0,1,.69-1.13Z" transform="translate(-3.42 -4.3)"/><path id="Trazado_947" data-name="Trazado 947" class="cls-3" d="M231.84,93.57l12.88-7.46c.38-.22.69-.06.69.35a1.46,1.46,0,0,1-.69,1.14l-12.88,7.46c-.38.23-.69.07-.69-.34A1.47,1.47,0,0,1,231.84,93.57Z" transform="translate(-3.42 -4.3)"/><path id="Trazado_948" data-name="Trazado 948" class="cls-21" d="M196.85,119.74l32.31-18.66c.39-.22.7-.07.7.35a1.51,1.51,0,0,1-.7,1.15l-32.31,18.65c-.39.22-.7.06-.7-.35A1.49,1.49,0,0,1,196.85,119.74Z" transform="translate(-3.42 -4.3)"/><path id="Trazado_949" data-name="Trazado 949" class="cls-3" d="M220.86,93.9l7.24-4.17c.38-.22.68-.06.68.35a1.45,1.45,0,0,1-.68,1.14l-7.24,4.18c-.38.22-.69.07-.69-.35A1.47,1.47,0,0,1,220.86,93.9Z" transform="translate(-3.42 -4.3)"/><path id="Trazado_950" data-name="Trazado 950" class="cls-3" d="M196.85,65.87,215.7,55c.38-.22.69-.06.69.35a1.48,1.48,0,0,1-.69,1.14l-18.85,10.9c-.39.22-.7.06-.7-.35A1.51,1.51,0,0,1,196.85,65.87Z" transform="translate(-3.42 -4.3)"/><path id="Trazado_951" data-name="Trazado 951" class="cls-22" d="M196.85,65.87,215.7,55c.38-.22.69-.06.69.35a1.48,1.48,0,0,1-.69,1.14l-18.85,10.9c-.39.22-.7.06-.7-.35A1.51,1.51,0,0,1,196.85,65.87Z" transform="translate(-3.42 -4.3)"/><path id="Trazado_952" data-name="Trazado 952" class="cls-3" d="M196.85,71.84l6.39-3.71c.38-.22.69-.07.69.35a1.5,1.5,0,0,1-.69,1.15l-6.39,3.7c-.39.22-.7.06-.7-.35a1.46,1.46,0,0,1,.7-1.13Z" transform="translate(-3.42 -4.3)"/><path id="Trazado_953" data-name="Trazado 953" class="cls-22" d="M196.85,71.84l6.39-3.71c.38-.22.69-.07.69.35a1.5,1.5,0,0,1-.69,1.15l-6.39,3.7c-.39.22-.7.06-.7-.35a1.46,1.46,0,0,1,.7-1.13Z" transform="translate(-3.42 -4.3)"/><path id="Trazado_954" data-name="Trazado 954" class="cls-3" d="M196.85,77.83l6.39-3.7c.38-.22.69-.06.69.36a1.52,1.52,0,0,1-.69,1.15l-6.39,3.7c-.39.22-.7.06-.7-.36A1.48,1.48,0,0,1,196.85,77.83Z" transform="translate(-3.42 -4.3)"/><path id="Trazado_955" data-name="Trazado 955" class="cls-22" d="M196.85,77.83l6.39-3.7c.38-.22.69-.06.69.36a1.52,1.52,0,0,1-.69,1.15l-6.39,3.7c-.39.22-.7.06-.7-.36A1.48,1.48,0,0,1,196.85,77.83Z" transform="translate(-3.42 -4.3)"/><path id="Trazado_956" data-name="Trazado 956" class="cls-3" d="M196.85,83.82l6.39-3.71c.38-.22.69-.07.69.35a1.49,1.49,0,0,1-.69,1.15l-6.39,3.7c-.39.22-.7.06-.7-.35A1.49,1.49,0,0,1,196.85,83.82Z" transform="translate(-3.42 -4.3)"/><path id="Trazado_957" data-name="Trazado 957" class="cls-22" d="M196.85,83.82l6.39-3.71c.38-.22.69-.07.69.35a1.49,1.49,0,0,1-.69,1.15l-6.39,3.7c-.39.22-.7.06-.7-.35A1.49,1.49,0,0,1,196.85,83.82Z" transform="translate(-3.42 -4.3)"/><path id="Trazado_958" data-name="Trazado 958" class="cls-3" d="M196.85,89.8l6.39-3.7c.38-.22.69-.06.69.35a1.47,1.47,0,0,1-.69,1.15l-6.39,3.7c-.39.22-.7.06-.7-.35A1.51,1.51,0,0,1,196.85,89.8Z" transform="translate(-3.42 -4.3)"/><path id="Trazado_959" data-name="Trazado 959" class="cls-22" d="M196.85,89.8l6.39-3.7c.38-.22.69-.06.69.35a1.47,1.47,0,0,1-.69,1.15l-6.39,3.7c-.39.22-.7.06-.7-.35A1.51,1.51,0,0,1,196.85,89.8Z" transform="translate(-3.42 -4.3)"/><path id="Trazado_960" data-name="Trazado 960" class="cls-3" d="M218.37,53.43l8.2-4.71c.38-.22.7-.07.7.34a1.49,1.49,0,0,1-.7,1.15l-8.2,4.72c-.38.22-.69.06-.69-.35A1.52,1.52,0,0,1,218.37,53.43Z" transform="translate(-3.42 -4.3)"/><path id="Trazado_961" data-name="Trazado 961" class="cls-22" d="M218.37,53.43l8.2-4.71c.38-.22.7-.07.7.34a1.49,1.49,0,0,1-.7,1.15l-8.2,4.72c-.38.22-.69.06-.69-.35A1.52,1.52,0,0,1,218.37,53.43Z" transform="translate(-3.42 -4.3)"/><path id="Trazado_962" data-name="Trazado 962" class="cls-21" d="M215,85.3l18.82-10.86c.38-.23.69-.07.69.35a1.52,1.52,0,0,1-.69,1.15L215,86.8c-.37.22-.69.07-.69-.35A1.47,1.47,0,0,1,215,85.3Z" transform="translate(-3.42 -4.3)"/><path id="Trazado_963" data-name="Trazado 963" class="cls-21" d="M225.86,85l18.85-10.9c.39-.22.7-.06.7.35a1.48,1.48,0,0,1-.7,1.15L225.86,86.53c-.37.22-.68.06-.68-.35A1.45,1.45,0,0,1,225.86,85Z" transform="translate(-3.42 -4.3)"/><path id="Trazado_964" data-name="Trazado 964" class="cls-21" d="M236.52,72.86l8.2-4.71c.39-.22.7-.07.7.35a1.51,1.51,0,0,1-.7,1.15l-8.2,4.72c-.38.21-.69.06-.69-.36A1.47,1.47,0,0,1,236.52,72.86Z" transform="translate(-3.42 -4.3)"/><path id="Trazado_965" data-name="Trazado 965" class="cls-3" d="M207.22,65.86,226.07,55c.37-.23.68-.07.68.35a1.51,1.51,0,0,1-.68,1.15L207.22,67.35c-.39.22-.7.07-.7-.35A1.47,1.47,0,0,1,207.22,65.86Z" transform="translate(-3.42 -4.3)"/><path id="Trazado_966" data-name="Trazado 966" class="cls-22" d="M207.22,65.86,226.07,55c.37-.23.68-.07.68.35a1.51,1.51,0,0,1-.68,1.15L207.22,67.35c-.39.22-.7.07-.7-.35A1.47,1.47,0,0,1,207.22,65.86Z" transform="translate(-3.42 -4.3)"/><path id="Trazado_967" data-name="Trazado 967" class="cls-3" d="M228.74,53.42l8.2-4.72c.38-.22.69-.06.69.35a1.47,1.47,0,0,1-.69,1.15l-8.2,4.72c-.38.22-.69.06-.69-.35A1.5,1.5,0,0,1,228.74,53.42Z" transform="translate(-3.42 -4.3)"/><path id="Trazado_968" data-name="Trazado 968" class="cls-22" d="M228.74,53.42l8.2-4.72c.38-.22.69-.06.69.35a1.47,1.47,0,0,1-.69,1.15l-8.2,4.72c-.38.22-.69.06-.69-.35A1.5,1.5,0,0,1,228.74,53.42Z" transform="translate(-3.42 -4.3)"/></g></g><g id="Building-amico"><g id="freepik--Floor--inject-2-3"><path id="Trazado_479" data-name="Trazado 479" class="cls-21" d="M84.29,130.71c15.63,8.17,41,8.17,56.6,0s15.63-21.4,0-29.57-41-8.16-56.6,0S68.66,122.55,84.29,130.71Z" transform="translate(-3.42 -4.3)"/></g><g id="freepik--Shadow--inject-2-2"><path id="Trazado_480" data-name="Trazado 480" class="cls-13" d="M141.19,124.4a3.68,3.68,0,0,1-2.73,0c-.75-.36-.75-.94,0-1.31a3.59,3.59,0,0,1,2.73,0C141.94,123.46,141.94,124,141.19,124.4Z" transform="translate(-3.42 -4.3)"/><path id="Trazado_481" data-name="Trazado 481" class="cls-13" d="M81.35,123.36a3.62,3.62,0,0,0,2.78,0c.76-.37.76-1,0-1.32a3.62,3.62,0,0,0-2.78,0C80.58,122.4,80.58,123,81.35,123.36Z" transform="translate(-3.42 -4.3)"/></g><g id="freepik--Buildings--inject-2"><path id="Trazado_482" data-name="Trazado 482" class="cls-14" d="M86.07,113.5l8.34-4.82V88.12l-8.34,4.81Z" transform="translate(-3.42 -4.3)"/><path id="Trazado_483" data-name="Trazado 483" class="cls-16" d="M86.07,92.93,77,87.68v20.57l9.09,5.25Z" transform="translate(-3.42 -4.3)"/><path id="Trazado_484" data-name="Trazado 484" class="cls-14" d="M94.41,88.12l-9.09-5.25L77,87.68l9.09,5.25Z" transform="translate(-3.42 -4.3)"/><path id="Trazado_485" data-name="Trazado 485" class="cls-13" d="M80.38,110.21v-3.5l2.36,1.36v3.5Z" transform="translate(-3.42 -4.3)"/><path id="Trazado_486" data-name="Trazado 486" class="cls-23" d="M81.41,107.3l.23.14v3.5l-.23-.14Z" transform="translate(-3.42 -4.3)"/><path id="Trazado_487" data-name="Trazado 487" class="cls-13" d="M85.12,107.69v-2l-1.56-.9v2Z" transform="translate(-3.42 -4.3)"/><path id="Trazado_488" data-name="Trazado 488" class="cls-23" d="M83.56,106.79l.39-.22v-1.5l-.39-.23Z" transform="translate(-3.42 -4.3)"/><path id="Trazado_489" data-name="Trazado 489" class="cls-14" d="M85.12,107.25,84,106.57l-.39.23,1.56.9Z" transform="translate(-3.42 -4.3)"/><path id="Trazado_490" data-name="Trazado 490" class="cls-13" d="M85.12,111.43v-2l-1.56-.9v2Z" transform="translate(-3.42 -4.3)"/><path id="Trazado_491" data-name="Trazado 491" class="cls-23" d="M83.56,110.53l.39-.22v-1.5l-.39-.23Z" transform="translate(-3.42 -4.3)"/><path id="Trazado_492" data-name="Trazado 492" class="cls-14" d="M85.12,111,84,110.31l-.39.22,1.56.9Z" transform="translate(-3.42 -4.3)"/><path id="Trazado_493" data-name="Trazado 493" class="cls-13" d="M85.12,104v-2l-1.56-.9v1.95Z" transform="translate(-3.42 -4.3)"/><path id="Trazado_494" data-name="Trazado 494" class="cls-23" d="M83.56,103.13l.39-.22v-1.5l-.39-.23Z" transform="translate(-3.42 -4.3)"/><path id="Trazado_495" data-name="Trazado 495" class="cls-14" d="M85.12,103.58,84,102.91l-.39.22,1.56.9Z" transform="translate(-3.42 -4.3)"/><path id="Trazado_496" data-name="Trazado 496" class="cls-13" d="M85.12,100.37v-2l-1.56-.9v2Z" transform="translate(-3.42 -4.3)"/><path id="Trazado_497" data-name="Trazado 497" class="cls-23" d="M83.56,99.47l.39-.22v-1.5l-.39-.23Z" transform="translate(-3.42 -4.3)"/><path id="Trazado_498" data-name="Trazado 498" class="cls-14" d="M85.12,99.92,84,99.25l-.39.22,1.56.9Z" transform="translate(-3.42 -4.3)"/><path id="Trazado_499" data-name="Trazado 499" class="cls-13" d="M85.12,96.71V94.76l-1.56-.9v2Z" transform="translate(-3.42 -4.3)"/><path id="Trazado_500" data-name="Trazado 500" class="cls-23" d="M83.56,95.81l.39-.22v-1.5l-.39-.23Z" transform="translate(-3.42 -4.3)"/><path id="Trazado_501" data-name="Trazado 501" class="cls-14" d="M85.12,96.26,84,95.59l-.39.22,1.56.9Z" transform="translate(-3.42 -4.3)"/><path id="Trazado_502" data-name="Trazado 502" class="cls-13" d="M79.49,104.44v-2l-1.56-.9v2Z" transform="translate(-3.42 -4.3)"/><path id="Trazado_503" data-name="Trazado 503" class="cls-23" d="M77.93,103.54l.39-.22v-1.5l-.39-.23Z" transform="translate(-3.42 -4.3)"/><path id="Trazado_504" data-name="Trazado 504" class="cls-14" d="M79.49,104l-1.17-.67-.39.22,1.56.9Z" transform="translate(-3.42 -4.3)"/><path id="Trazado_505" data-name="Trazado 505" class="cls-13" d="M79.49,108.18v-2l-1.56-.9v2Z" transform="translate(-3.42 -4.3)"/><path id="Trazado_506" data-name="Trazado 506" class="cls-23" d="M77.93,107.28l.39-.22v-1.5l-.39-.23Z" transform="translate(-3.42 -4.3)"/><path id="Trazado_507" data-name="Trazado 507" class="cls-14" d="M79.49,107.73l-1.17-.67-.39.22,1.56.9Z" transform="translate(-3.42 -4.3)"/><path id="Trazado_508" data-name="Trazado 508" class="cls-13" d="M79.49,100.75v-2l-1.56-.9v1.95Z" transform="translate(-3.42 -4.3)"/><path id="Trazado_509" data-name="Trazado 509" class="cls-23" d="M77.93,99.85l.39-.22v-1.5l-.39-.23Z" transform="translate(-3.42 -4.3)"/><path id="Trazado_510" data-name="Trazado 510" class="cls-14" d="M79.49,100.31l-1.17-.68-.39.23,1.56.9Z" transform="translate(-3.42 -4.3)"/><path id="Trazado_511" data-name="Trazado 511" class="cls-13" d="M79.49,97.06v-2l-1.56-.9v2Z" transform="translate(-3.42 -4.3)"/><path id="Trazado_512" data-name="Trazado 512" class="cls-23" d="M77.93,96.16l.39-.22v-1.5l-.39-.23Z" transform="translate(-3.42 -4.3)"/><path id="Trazado_513" data-name="Trazado 513" class="cls-14" d="M79.49,96.61l-1.17-.67-.39.22,1.56.9Z" transform="translate(-3.42 -4.3)"/><path id="Trazado_514" data-name="Trazado 514" class="cls-11" d="M79.49,93.37v-2l-1.56-.9v2Z" transform="translate(-3.42 -4.3)"/><path id="Trazado_515" data-name="Trazado 515" class="cls-23" d="M77.93,92.47l.39-.22v-1.5l-.39-.23Z" transform="translate(-3.42 -4.3)"/><path id="Trazado_516" data-name="Trazado 516" class="cls-14" d="M79.49,92.92l-1.17-.67-.39.22,1.56.9Z" transform="translate(-3.42 -4.3)"/><path id="Trazado_517" data-name="Trazado 517" class="cls-11" d="M80.38,91.84l.91.52v13.13l-.91-.53Z" transform="translate(-3.42 -4.3)"/><path id="Trazado_518" data-name="Trazado 518" class="cls-23" d="M80.38,91.84l.39.22v12.68l-.39.22Z" transform="translate(-3.42 -4.3)"/><path id="Trazado_519" data-name="Trazado 519" class="cls-14" d="M80.77,104.75l.52.29v.44l-.91-.52Z" transform="translate(-3.42 -4.3)"/><path id="Trazado_520" data-name="Trazado 520" class="cls-11" d="M81.83,92.66l.91.52v13.13l-.91-.52Z" transform="translate(-3.42 -4.3)"/><path id="Trazado_521" data-name="Trazado 521" class="cls-23" d="M81.83,92.66l.38.22v12.69l-.38.22Z" transform="translate(-3.42 -4.3)"/><path id="Trazado_522" data-name="Trazado 522" class="cls-14" d="M82.21,105.57l.53.29v.45l-.91-.52Z" transform="translate(-3.42 -4.3)"/><path id="Trazado_523" data-name="Trazado 523" class="cls-13" d="M87,107.69v-2l1.56-.9v2Z" transform="translate(-3.42 -4.3)"/><path id="Trazado_524" data-name="Trazado 524" class="cls-16" d="M88.6,106.79l-.39-.22v-1.5l.38-.23Z" transform="translate(-3.42 -4.3)"/><path id="Trazado_525" data-name="Trazado 525" class="cls-23" d="M87,107.25l1.17-.68.39.23-1.56.9Z" transform="translate(-3.42 -4.3)"/><path id="Trazado_526" data-name="Trazado 526" class="cls-13" d="M89.46,106.3v-2l1.56-.9v2Z" transform="translate(-3.42 -4.3)"/><path id="Trazado_527" data-name="Trazado 527" class="cls-16" d="M91,105.4l-.39-.23v-1.5l.39-.22Z" transform="translate(-3.42 -4.3)"/><path id="Trazado_528" data-name="Trazado 528" class="cls-23" d="M89.46,105.85l1.17-.68.39.23-1.56.9Z" transform="translate(-3.42 -4.3)"/><path id="Trazado_529" data-name="Trazado 529" class="cls-13" d="M91.88,104.91v-2l1.56-.9v2Z" transform="translate(-3.42 -4.3)"/><path id="Trazado_530" data-name="Trazado 530" class="cls-16" d="M93.44,104l-.39-.23v-1.5l.39-.22Z" transform="translate(-3.42 -4.3)"/><path id="Trazado_531" data-name="Trazado 531" class="cls-23" d="M91.88,104.46l1.17-.68.39.23-1.56.9Z" transform="translate(-3.42 -4.3)"/><path id="Trazado_532" data-name="Trazado 532" class="cls-13" d="M87,111.43v-2l1.56-.9v2Z" transform="translate(-3.42 -4.3)"/><path id="Trazado_533" data-name="Trazado 533" class="cls-16" d="M88.6,110.53l-.39-.22v-1.5l.38-.23Z" transform="translate(-3.42 -4.3)"/><path id="Trazado_534" data-name="Trazado 534" class="cls-23" d="M87,111l1.17-.67.39.22-1.56.9Z" transform="translate(-3.42 -4.3)"/><path id="Trazado_535" data-name="Trazado 535" class="cls-13" d="M89.46,110v-2l1.56-.9v2Z" transform="translate(-3.42 -4.3)"/><path id="Trazado_536" data-name="Trazado 536" class="cls-16" d="M91,109.14l-.39-.23v-1.5l.39-.22Z" transform="translate(-3.42 -4.3)"/><path id="Trazado_537" data-name="Trazado 537" class="cls-23" d="M89.46,109.59l1.17-.68.39.23-1.56.9Z" transform="translate(-3.42 -4.3)"/><path id="Trazado_538" data-name="Trazado 538" class="cls-13" d="M91.88,108.65v-2l1.56-.9v2Z" transform="translate(-3.42 -4.3)"/><path id="Trazado_539" data-name="Trazado 539" class="cls-16" d="M93.44,107.74l-.39-.22V106l.39-.23Z" transform="translate(-3.42 -4.3)"/><path id="Trazado_540" data-name="Trazado 540" class="cls-23" d="M91.88,108.2l1.17-.68.39.22-1.56.9Z" transform="translate(-3.42 -4.3)"/><path id="Trazado_541" data-name="Trazado 541" class="cls-13" d="M87,104v-2l1.56-.9v1.95Z" transform="translate(-3.42 -4.3)"/><path id="Trazado_542" data-name="Trazado 542" class="cls-16" d="M88.6,103.13l-.39-.22v-1.5l.38-.23Z" transform="translate(-3.42 -4.3)"/><path id="Trazado_543" data-name="Trazado 543" class="cls-23" d="M87,103.58l1.17-.67.39.22L87,104Z" transform="translate(-3.42 -4.3)"/><path id="Trazado_544" data-name="Trazado 544" class="cls-13" d="M89.46,102.62v-2l1.56-.9v2Z" transform="translate(-3.42 -4.3)"/><path id="Trazado_545" data-name="Trazado 545" class="cls-16" d="M91,101.72l-.39-.22V100l.39-.23Z" transform="translate(-3.42 -4.3)"/><path id="Trazado_546" data-name="Trazado 546" class="cls-23" d="M89.46,102.17l1.17-.67.39.23-1.56.9Z" transform="translate(-3.42 -4.3)"/><path id="Trazado_547" data-name="Trazado 547" class="cls-13" d="M91.88,101.22v-2l1.56-.9v2Z" transform="translate(-3.42 -4.3)"/><path id="Trazado_548" data-name="Trazado 548" class="cls-16" d="M93.44,100.32l-.39-.23v-1.5l.39-.22Z" transform="translate(-3.42 -4.3)"/><path id="Trazado_549" data-name="Trazado 549" class="cls-23" d="M91.88,100.77l1.17-.68.39.23-1.56.9Z" transform="translate(-3.42 -4.3)"/><path id="Trazado_550" data-name="Trazado 550" class="cls-13" d="M87,100.37v-2l1.56-.9v2Z" transform="translate(-3.42 -4.3)"/><path id="Trazado_551" data-name="Trazado 551" class="cls-16" d="M88.6,99.47l-.39-.22v-1.5l.38-.23Z" transform="translate(-3.42 -4.3)"/><path id="Trazado_552" data-name="Trazado 552" class="cls-23" d="M87,99.92l1.17-.67.39.22-1.56.9Z" transform="translate(-3.42 -4.3)"/><path id="Trazado_553" data-name="Trazado 553" class="cls-13" d="M89.46,99V97L91,96.1v2Z" transform="translate(-3.42 -4.3)"/><path id="Trazado_554" data-name="Trazado 554" class="cls-16" d="M91,98.05l-.39-.23v-1.5L91,96.1Z" transform="translate(-3.42 -4.3)"/><path id="Trazado_555" data-name="Trazado 555" class="cls-23" d="M89.46,98.5l1.17-.68.39.23-1.56.9Z" transform="translate(-3.42 -4.3)"/><path id="Trazado_556" data-name="Trazado 556" class="cls-13" d="M91.88,97.53v-2l1.56-.9v2Z" transform="translate(-3.42 -4.3)"/><path id="Trazado_557" data-name="Trazado 557" class="cls-16" d="M93.44,96.62l-.39-.22V94.9l.39-.23Z" transform="translate(-3.42 -4.3)"/><path id="Trazado_558" data-name="Trazado 558" class="cls-23" d="M91.88,97.08l1.17-.67.39.22-1.56.9Z" transform="translate(-3.42 -4.3)"/><path id="Trazado_559" data-name="Trazado 559" class="cls-13" d="M87,96.71V94.76l1.56-.9v2Z" transform="translate(-3.42 -4.3)"/><path id="Trazado_560" data-name="Trazado 560" class="cls-16" d="M88.6,95.81l-.39-.22v-1.5l.38-.23Z" transform="translate(-3.42 -4.3)"/><path id="Trazado_561" data-name="Trazado 561" class="cls-23" d="M87,96.26l1.17-.67.39.22-1.56.9Z" transform="translate(-3.42 -4.3)"/><path id="Trazado_562" data-name="Trazado 562" class="cls-13" d="M89.46,95.27v-2l1.56-.9v2Z" transform="translate(-3.42 -4.3)"/><path id="Trazado_563" data-name="Trazado 563" class="cls-16" d="M91,94.37l-.39-.22v-1.5l.39-.23Z" transform="translate(-3.42 -4.3)"/><path id="Trazado_564" data-name="Trazado 564" class="cls-23" d="M89.46,94.82l1.17-.67.39.22-1.56.9Z" transform="translate(-3.42 -4.3)"/><path id="Trazado_565" data-name="Trazado 565" class="cls-13" d="M91.88,93.83v-2l1.56-.9v2Z" transform="translate(-3.42 -4.3)"/><path id="Trazado_566" data-name="Trazado 566" class="cls-16" d="M93.44,92.93l-.39-.22V91.2l.39-.22Z" transform="translate(-3.42 -4.3)"/><path id="Trazado_567" data-name="Trazado 567" class="cls-23" d="M91.88,93.38l1.17-.67.39.22-1.56.9Z" transform="translate(-3.42 -4.3)"/><path id="Trazado_568" data-name="Trazado 568" class="cls-2" d="M78.5,87.68l6.82-3.93,7.57,4.37-6.82,3.94Z" transform="translate(-3.42 -4.3)"/><path id="Trazado_569" data-name="Trazado 569" class="cls-16" d="M85.32,83.75v.87l6.81,3.94.76-.44Z" transform="translate(-3.42 -4.3)"/><path id="Trazado_570" data-name="Trazado 570" class="cls-23" d="M85.32,83.75,78.5,87.68l.75.44,6.07-3.5Z" transform="translate(-3.42 -4.3)"/><path id="Trazado_571" data-name="Trazado 571" class="cls-16" d="M138.67,113.5l-8.34-4.82V88.12l8.34,4.81Z" transform="translate(-3.42 -4.3)"/><path id="Trazado_572" data-name="Trazado 572" class="cls-14" d="M138.67,92.93l9.09-5.25v20.57l-9.09,5.24Z" transform="translate(-3.42 -4.3)"/><path id="Trazado_573" data-name="Trazado 573" class="cls-14" d="M130.33,88.12l9.1-5.25,8.33,4.81-9.09,5.25Z" transform="translate(-3.42 -4.3)"/><path id="Trazado_574" data-name="Trazado 574" class="cls-13" d="M144.36,110.21v-3.5L142,108.07v3.5Z" transform="translate(-3.42 -4.3)"/><path id="Trazado_575" data-name="Trazado 575" class="cls-23" d="M143.33,107.3l-.23.14v3.5l.23-.14Z" transform="translate(-3.42 -4.3)"/><path id="Trazado_576" data-name="Trazado 576" class="cls-13" d="M139.62,107.69v-2l1.56-.9v2Z" transform="translate(-3.42 -4.3)"/><path id="Trazado_577" data-name="Trazado 577" class="cls-23" d="M141.18,106.79l-.39-.22v-1.5l.39-.23Z" transform="translate(-3.42 -4.3)"/><path id="Trazado_578" data-name="Trazado 578" class="cls-16" d="M139.62,107.25l1.17-.68.39.23-1.56.9Z" transform="translate(-3.42 -4.3)"/><path id="Trazado_579" data-name="Trazado 579" class="cls-13" d="M139.62,111.43v-2l1.56-.9v2Z" transform="translate(-3.42 -4.3)"/><path id="Trazado_580" data-name="Trazado 580" class="cls-23" d="M141.18,110.53l-.39-.22v-1.5l.39-.23Z" transform="translate(-3.42 -4.3)"/><path id="Trazado_581" data-name="Trazado 581" class="cls-16" d="M139.62,111l1.17-.67.39.22-1.56.9Z" transform="translate(-3.42 -4.3)"/><path id="Trazado_582" data-name="Trazado 582" class="cls-13" d="M139.62,104v-2l1.56-.9v1.95Z" transform="translate(-3.42 -4.3)"/><path id="Trazado_583" data-name="Trazado 583" class="cls-23" d="M141.18,103.13l-.39-.22v-1.5l.39-.23Z" transform="translate(-3.42 -4.3)"/><path id="Trazado_584" data-name="Trazado 584" class="cls-16" d="M139.62,103.58l1.17-.67.39.22-1.56.9Z" transform="translate(-3.42 -4.3)"/><path id="Trazado_585" data-name="Trazado 585" class="cls-13" d="M139.62,100.37v-2l1.56-.9v2Z" transform="translate(-3.42 -4.3)"/><path id="Trazado_586" data-name="Trazado 586" class="cls-23" d="M141.18,99.47l-.39-.22v-1.5l.39-.23Z" transform="translate(-3.42 -4.3)"/><path id="Trazado_587" data-name="Trazado 587" class="cls-16" d="M139.62,99.92l1.17-.67.39.22-1.56.9Z" transform="translate(-3.42 -4.3)"/><path id="Trazado_588" data-name="Trazado 588" class="cls-13" d="M139.62,96.71V94.76l1.56-.9v2Z" transform="translate(-3.42 -4.3)"/><path id="Trazado_589" data-name="Trazado 589" class="cls-23" d="M141.18,95.81l-.39-.22v-1.5l.39-.23Z" transform="translate(-3.42 -4.3)"/><path id="Trazado_590" data-name="Trazado 590" class="cls-16" d="M139.62,96.26l1.17-.67.39.22-1.56.9Z" transform="translate(-3.42 -4.3)"/><path id="Trazado_591" data-name="Trazado 591" class="cls-13" d="M145.25,104.44v-2l1.56-.9v2Z" transform="translate(-3.42 -4.3)"/><path id="Trazado_592" data-name="Trazado 592" class="cls-23" d="M146.81,103.54l-.39-.22v-1.5l.39-.23Z" transform="translate(-3.42 -4.3)"/><path id="Trazado_593" data-name="Trazado 593" class="cls-16" d="M145.25,104l1.17-.67.39.22-1.56.9Z" transform="translate(-3.42 -4.3)"/><path id="Trazado_594" data-name="Trazado 594" class="cls-13" d="M145.25,108.18v-2l1.56-.9v2Z" transform="translate(-3.42 -4.3)"/><path id="Trazado_595" data-name="Trazado 595" class="cls-23" d="M146.81,107.28l-.39-.22v-1.5l.39-.23Z" transform="translate(-3.42 -4.3)"/><path id="Trazado_596" data-name="Trazado 596" class="cls-16" d="M145.25,107.73l1.17-.67.39.22-1.56.9Z" transform="translate(-3.42 -4.3)"/><path id="Trazado_597" data-name="Trazado 597" class="cls-13" d="M145.25,100.75v-2l1.56-.9v1.95Z" transform="translate(-3.42 -4.3)"/><path id="Trazado_598" data-name="Trazado 598" class="cls-23" d="M146.81,99.85l-.39-.22v-1.5l.39-.23Z" transform="translate(-3.42 -4.3)"/><path id="Trazado_599" data-name="Trazado 599" class="cls-16" d="M145.25,100.31l1.17-.68.39.23-1.56.9Z" transform="translate(-3.42 -4.3)"/><path id="Trazado_600" data-name="Trazado 600" class="cls-13" d="M145.25,97.06v-2l1.56-.9v2Z" transform="translate(-3.42 -4.3)"/><path id="Trazado_601" data-name="Trazado 601" class="cls-23" d="M146.81,96.16l-.39-.22v-1.5l.39-.23Z" transform="translate(-3.42 -4.3)"/><path id="Trazado_602" data-name="Trazado 602" class="cls-16" d="M145.25,96.61l1.17-.67.39.22-1.56.9Z" transform="translate(-3.42 -4.3)"/><path id="Trazado_603" data-name="Trazado 603" class="cls-11" d="M145.25,93.37v-2l1.56-.9v2Z" transform="translate(-3.42 -4.3)"/><path id="Trazado_604" data-name="Trazado 604" class="cls-23" d="M146.81,92.47l-.39-.22v-1.5l.39-.23Z" transform="translate(-3.42 -4.3)"/><path id="Trazado_605" data-name="Trazado 605" class="cls-16" d="M145.25,92.92l1.17-.67.39.22-1.56.9Z" transform="translate(-3.42 -4.3)"/><path id="Trazado_606" data-name="Trazado 606" class="cls-11" d="M144.36,91.84l-.91.52v13.13l.91-.53Z" transform="translate(-3.42 -4.3)"/><path id="Trazado_607" data-name="Trazado 607" class="cls-23" d="M144.36,91.84l-.39.22v12.68l.39.22Z" transform="translate(-3.42 -4.3)"/><path id="Trazado_608" data-name="Trazado 608" class="cls-16" d="M144,104.75l-.52.29v.44l.91-.52Z" transform="translate(-3.42 -4.3)"/><path id="Trazado_609" data-name="Trazado 609" class="cls-11" d="M142.91,92.66l-.91.52v13.13l.91-.52Z" transform="translate(-3.42 -4.3)"/><path id="Trazado_610" data-name="Trazado 610" class="cls-23" d="M142.91,92.66l-.38.22v12.69l.38.22Z" transform="translate(-3.42 -4.3)"/><path id="Trazado_611" data-name="Trazado 611" class="cls-16" d="M142.53,105.57l-.53.29v.45l.91-.52Z" transform="translate(-3.42 -4.3)"/><path id="Trazado_612" data-name="Trazado 612" class="cls-13" d="M137.7,107.69v-2l-1.56-.9v2Z" transform="translate(-3.42 -4.3)"/><path id="Trazado_613" data-name="Trazado 613" class="cls-14" d="M136.14,106.79l.39-.22v-1.5l-.39-.23Z" transform="translate(-3.42 -4.3)"/><path id="Trazado_614" data-name="Trazado 614" class="cls-23" d="M137.7,107.25l-1.17-.68-.39.23,1.56.9Z" transform="translate(-3.42 -4.3)"/><path id="Trazado_615" data-name="Trazado 615" class="cls-13" d="M135.28,106.3v-2l-1.56-.9v2Z" transform="translate(-3.42 -4.3)"/><path id="Trazado_616" data-name="Trazado 616" class="cls-14" d="M133.72,105.4l.39-.23v-1.5l-.39-.22Z" transform="translate(-3.42 -4.3)"/><path id="Trazado_617" data-name="Trazado 617" class="cls-23" d="M135.28,105.85l-1.17-.68-.39.23,1.56.9Z" transform="translate(-3.42 -4.3)"/><path id="Trazado_618" data-name="Trazado 618" class="cls-13" d="M132.86,104.91v-2l-1.56-.9v2Z" transform="translate(-3.42 -4.3)"/><path id="Trazado_619" data-name="Trazado 619" class="cls-14" d="M131.3,104l.39-.23v-1.5l-.39-.22Z" transform="translate(-3.42 -4.3)"/><path id="Trazado_620" data-name="Trazado 620" class="cls-23" d="M132.86,104.46l-1.17-.68-.39.23,1.56.9Z" transform="translate(-3.42 -4.3)"/><path id="Trazado_621" data-name="Trazado 621" class="cls-13" d="M137.7,111.43v-2l-1.56-.9v2Z" transform="translate(-3.42 -4.3)"/><path id="Trazado_622" data-name="Trazado 622" class="cls-14" d="M136.14,110.53l.39-.22v-1.5l-.39-.23Z" transform="translate(-3.42 -4.3)"/><path id="Trazado_623" data-name="Trazado 623" class="cls-23" d="M137.7,111l-1.17-.67-.39.22,1.56.9Z" transform="translate(-3.42 -4.3)"/><path id="Trazado_624" data-name="Trazado 624" class="cls-13" d="M135.28,110v-2l-1.56-.9v2Z" transform="translate(-3.42 -4.3)"/><path id="Trazado_625" data-name="Trazado 625" class="cls-14" d="M133.72,109.14l.39-.23v-1.5l-.39-.22Z" transform="translate(-3.42 -4.3)"/><path id="Trazado_626" data-name="Trazado 626" class="cls-23" d="M135.28,109.59l-1.17-.68-.39.23,1.56.9Z" transform="translate(-3.42 -4.3)"/><path id="Trazado_627" data-name="Trazado 627" class="cls-13" d="M132.86,108.65v-2l-1.56-.9v2Z" transform="translate(-3.42 -4.3)"/><path id="Trazado_628" data-name="Trazado 628" class="cls-14" d="M131.3,107.74l.39-.22V106l-.39-.23Z" transform="translate(-3.42 -4.3)"/><path id="Trazado_629" data-name="Trazado 629" class="cls-23" d="M132.86,108.2l-1.17-.68-.39.22,1.56.9Z" transform="translate(-3.42 -4.3)"/><path id="Trazado_630" data-name="Trazado 630" class="cls-13" d="M137.7,104v-2l-1.56-.9v1.95Z" transform="translate(-3.42 -4.3)"/><path id="Trazado_631" data-name="Trazado 631" class="cls-14" d="M136.14,103.13l.39-.22v-1.5l-.39-.23Z" transform="translate(-3.42 -4.3)"/><path id="Trazado_632" data-name="Trazado 632" class="cls-23" d="M137.7,103.58l-1.17-.67-.39.22,1.56.9Z" transform="translate(-3.42 -4.3)"/><path id="Trazado_633" data-name="Trazado 633" class="cls-13" d="M135.28,102.62v-2l-1.56-.9v2Z" transform="translate(-3.42 -4.3)"/><path id="Trazado_634" data-name="Trazado 634" class="cls-14" d="M133.72,101.72l.39-.22V100l-.39-.23Z" transform="translate(-3.42 -4.3)"/><path id="Trazado_635" data-name="Trazado 635" class="cls-23" d="M135.28,102.17l-1.17-.67-.39.23,1.56.9Z" transform="translate(-3.42 -4.3)"/><path id="Trazado_636" data-name="Trazado 636" class="cls-13" d="M132.86,101.22v-2l-1.56-.9v2Z" transform="translate(-3.42 -4.3)"/><path id="Trazado_637" data-name="Trazado 637" class="cls-14" d="M131.3,100.32l.39-.23v-1.5l-.39-.22Z" transform="translate(-3.42 -4.3)"/><path id="Trazado_638" data-name="Trazado 638" class="cls-23" d="M132.86,100.77l-1.17-.68-.39.23,1.56.9Z" transform="translate(-3.42 -4.3)"/><path id="Trazado_639" data-name="Trazado 639" class="cls-13" d="M137.7,100.37v-2l-1.56-.9v2Z" transform="translate(-3.42 -4.3)"/><path id="Trazado_640" data-name="Trazado 640" class="cls-14" d="M136.14,99.47l.39-.22v-1.5l-.39-.23Z" transform="translate(-3.42 -4.3)"/><path id="Trazado_641" data-name="Trazado 641" class="cls-23" d="M137.7,99.92l-1.17-.67-.39.22,1.56.9Z" transform="translate(-3.42 -4.3)"/><path id="Trazado_642" data-name="Trazado 642" class="cls-13" d="M135.28,99V97l-1.56-.9v2Z" transform="translate(-3.42 -4.3)"/><path id="Trazado_643" data-name="Trazado 643" class="cls-14" d="M133.72,98.05l.39-.23v-1.5l-.39-.22Z" transform="translate(-3.42 -4.3)"/><path id="Trazado_644" data-name="Trazado 644" class="cls-23" d="M135.28,98.5l-1.17-.68-.39.23,1.56.9Z" transform="translate(-3.42 -4.3)"/><path id="Trazado_645" data-name="Trazado 645" class="cls-13" d="M132.86,97.53v-2l-1.56-.9v2Z" transform="translate(-3.42 -4.3)"/><path id="Trazado_646" data-name="Trazado 646" class="cls-14" d="M131.3,96.62l.39-.22V94.9l-.39-.23Z" transform="translate(-3.42 -4.3)"/><path id="Trazado_647" data-name="Trazado 647" class="cls-23" d="M132.86,97.08l-1.17-.67-.39.22,1.56.9Z" transform="translate(-3.42 -4.3)"/><path id="Trazado_648" data-name="Trazado 648" class="cls-13" d="M137.7,96.71V94.76l-1.56-.9v2Z" transform="translate(-3.42 -4.3)"/><path id="Trazado_649" data-name="Trazado 649" class="cls-14" d="M136.14,95.81l.39-.22v-1.5l-.39-.23Z" transform="translate(-3.42 -4.3)"/><path id="Trazado_650" data-name="Trazado 650" class="cls-23" d="M137.7,96.26l-1.17-.67-.39.22,1.56.9Z" transform="translate(-3.42 -4.3)"/><path id="Trazado_651" data-name="Trazado 651" class="cls-13" d="M135.28,95.27v-2l-1.56-.9v2Z" transform="translate(-3.42 -4.3)"/><path id="Trazado_652" data-name="Trazado 652" class="cls-14" d="M133.72,94.37l.39-.22v-1.5l-.39-.23Z" transform="translate(-3.42 -4.3)"/><path id="Trazado_653" data-name="Trazado 653" class="cls-23" d="M135.28,94.82l-1.17-.67-.39.22,1.56.9Z" transform="translate(-3.42 -4.3)"/><path id="Trazado_654" data-name="Trazado 654" class="cls-13" d="M132.86,93.83v-2L131.3,91v2Z" transform="translate(-3.42 -4.3)"/><path id="Trazado_655" data-name="Trazado 655" class="cls-14" d="M131.3,92.93l.39-.22V91.2L131.3,91Z" transform="translate(-3.42 -4.3)"/><path id="Trazado_656" data-name="Trazado 656" class="cls-23" d="M132.86,93.38l-1.17-.67-.39.22,1.56.9Z" transform="translate(-3.42 -4.3)"/><path id="Trazado_657" data-name="Trazado 657" class="cls-2" d="M146.25,87.68l-6.82-3.93-7.58,4.37,6.82,3.94Z" transform="translate(-3.42 -4.3)"/><path id="Trazado_658" data-name="Trazado 658" class="cls-23" d="M139.43,83.75v.87l-6.82,3.94-.76-.44Z" transform="translate(-3.42 -4.3)"/><path id="Trazado_659" data-name="Trazado 659" class="cls-16" d="M139.43,83.75l6.82,3.93-.76.44-6.06-3.5Z" transform="translate(-3.42 -4.3)"/><path id="Trazado_660" data-name="Trazado 660" class="cls-13" d="M126.3,132.71a3.89,3.89,0,0,1-3,0c-.81-.39-.81-1,0-1.41a3.89,3.89,0,0,1,3,0C127.12,131.69,127.12,132.32,126.3,132.71Z" transform="translate(-3.42 -4.3)"/><path id="Trazado_661" data-name="Trazado 661" class="cls-13" d="M95.69,131.43a3.89,3.89,0,0,0,3,0c.81-.39.81-1,0-1.41a3.89,3.89,0,0,0-3,0C94.87,130.41,94.87,131,95.69,131.43Z" transform="translate(-3.42 -4.3)"/><path id="Trazado_662" data-name="Trazado 662" class="cls-24" d="M113,131.2l18.14-10.47a.76.76,0,0,0,.31-1,.77.77,0,0,0-.31-.31L113,108.92a.89.89,0,0,0-.81,0L94.06,119.38a.77.77,0,0,0-.32,1,.74.74,0,0,0,.32.31l18.14,10.47A.87.87,0,0,0,113,131.2Z" transform="translate(-3.42 -4.3)"/><path id="Trazado_663" data-name="Trazado 663" class="cls-24" d="M113,131.2l18.14-10.47a.76.76,0,0,0,.31-1,.77.77,0,0,0-.31-.31L113,108.92a.89.89,0,0,0-.81,0L94.06,119.38a.77.77,0,0,0-.32,1,.74.74,0,0,0,.32.31l18.14,10.47A.87.87,0,0,0,113,131.2Z" transform="translate(-3.42 -4.3)"/><path id="Trazado_664" data-name="Trazado 664" class="cls-24" d="M113,131.2l18.14-10.47a.76.76,0,0,0,.31-1,.77.77,0,0,0-.31-.31L113,108.92a.89.89,0,0,0-.81,0L94.06,119.38a.77.77,0,0,0-.32,1,.74.74,0,0,0,.32.31l18.14,10.47A.87.87,0,0,0,113,131.2Z" transform="translate(-3.42 -4.3)"/><path id="Trazado_665" data-name="Trazado 665" class="cls-9" d="M113,131.2l18.14-10.47a.76.76,0,0,0,.31-1,.77.77,0,0,0-.31-.31L113,108.92a.89.89,0,0,0-.81,0L94.06,119.38a.77.77,0,0,0-.32,1,.74.74,0,0,0,.32.31l18.14,10.47A.87.87,0,0,0,113,131.2Z" transform="translate(-3.42 -4.3)"/><path id="Trazado_666" data-name="Trazado 666" class="cls-24" d="M94.05,119.85l18.14,10.48a.89.89,0,0,0,.81,0l18.14-10.47a.27.27,0,0,0,.15-.32.25.25,0,0,0-.15-.15L113,108.92a.89.89,0,0,0-.81,0L94.05,119.38a.26.26,0,0,0-.17.31.29.29,0,0,0,.17.17Z" transform="translate(-3.42 -4.3)"/><path id="Trazado_667" data-name="Trazado 667" class="cls-14" d="M115.63,126.62l12.88-7.44V88.12l-12.88,7.44Z" transform="translate(-3.42 -4.3)"/><path id="Trazado_668" data-name="Trazado 668" class="cls-16" d="M112.59,128.81V97.31L96.68,88.12v31.5Z" transform="translate(-3.42 -4.3)"/><path id="Trazado_669" data-name="Trazado 669" class="cls-24" d="M112.6,115.68l-15.92-9.19v-.87l-1.51.87,17.43,10.07Z" transform="translate(-3.42 -4.3)"/><path id="Trazado_670" data-name="Trazado 670" class="cls-12" d="M112.6,115.68l-15.92-9.19v-.87l-1.51.87,17.43,10.07Z" transform="translate(-3.42 -4.3)"/><path id="Trazado_671" data-name="Trazado 671" class="cls-24" d="M95.17,106.49l17.43,10.07v.87L95.17,107.36Z" transform="translate(-3.42 -4.3)"/><path id="Trazado_672" data-name="Trazado 672" class="cls-24" d="M112.59,115.68l3-1.75.75.44-3.79,2.19Z" transform="translate(-3.42 -4.3)"/><path id="Trazado_673" data-name="Trazado 673" class="cls-12" d="M112.59,115.68l3-1.75.75.44-3.79,2.19Z" transform="translate(-3.42 -4.3)"/><path id="Trazado_674" data-name="Trazado 674" class="cls-24" d="M112.59,117.43l3.79-2.18v-.88l-3.79,2.19Z" transform="translate(-3.42 -4.3)"/><path id="Trazado_675" data-name="Trazado 675" class="cls-9" d="M112.59,117.43l3.79-2.18v-.88l-3.79,2.19Z" transform="translate(-3.42 -4.3)"/><path id="Trazado_676" data-name="Trazado 676" class="cls-23" d="M112.59,97.31l3-1.75v18.37l-3,1.75Z" transform="translate(-3.42 -4.3)"/><path id="Trazado_677" data-name="Trazado 677" class="cls-23" d="M112.59,117.43l3-1.75v11.38l-3,1.75Z" transform="translate(-3.42 -4.3)"/><path id="Trazado_678" data-name="Trazado 678" class="cls-24" d="M111.08,113.05v-4.37l-3-1.75v4.38Z" transform="translate(-3.42 -4.3)"/><path id="Trazado_679" data-name="Trazado 679" class="cls-12" d="M111.08,113.05v-4.37l-3-1.75v4.38Z" transform="translate(-3.42 -4.3)"/><path id="Trazado_680" data-name="Trazado 680" class="cls-23" d="M108.05,111.31l.76-.44v-3.5l-.76-.44Z" transform="translate(-3.42 -4.3)"/><path id="Trazado_681" data-name="Trazado 681" class="cls-23" d="M111.08,112.18l-2.27-1.31-.76.44,3,1.75Z" transform="translate(-3.42 -4.3)"/><path id="Trazado_682" data-name="Trazado 682" class="cls-24" d="M106.53,110.43v-4.37l-3.79-2.19v4.38Z" transform="translate(-3.42 -4.3)"/><path id="Trazado_683" data-name="Trazado 683" class="cls-12" d="M106.53,110.43v-4.37l-3.79-2.19v4.38Z" transform="translate(-3.42 -4.3)"/><path id="Trazado_684" data-name="Trazado 684" class="cls-23" d="M103.5,107.81v-3.5l-.76-.44v4.38Z" transform="translate(-3.42 -4.3)"/><path id="Trazado_685" data-name="Trazado 685" class="cls-23" d="M106.53,109.56v.87l-3.79-2.18.76-.44Z" transform="translate(-3.42 -4.3)"/><path id="Trazado_686" data-name="Trazado 686" class="cls-24" d="M117.52,122.46v-4.37l3.79-2.19v4.38Z" transform="translate(-3.42 -4.3)"/><path id="Trazado_687" data-name="Trazado 687" class="cls-23" d="M120.55,119.84v-3.5l.76-.43v4.37Z" transform="translate(-3.42 -4.3)"/><path id="Trazado_688" data-name="Trazado 688" class="cls-23" d="M117.52,121.59v.87l3.79-2.18-.76-.44Z" transform="translate(-3.42 -4.3)"/><path id="Trazado_689" data-name="Trazado 689" class="cls-24" d="M117.52,115.17V110.8l3.79-2.19V113Z" transform="translate(-3.42 -4.3)"/><path id="Trazado_690" data-name="Trazado 690" class="cls-23" d="M120.55,112.55v-3.5l.76-.44V113Z" transform="translate(-3.42 -4.3)"/><path id="Trazado_691" data-name="Trazado 691" class="cls-23" d="M117.52,114.3v.87l3.79-2.19-.76-.44Z" transform="translate(-3.42 -4.3)"/><path id="Trazado_692" data-name="Trazado 692" class="cls-24" d="M117.52,107.88v-4.37l3.79-2.19v4.37Z" transform="translate(-3.42 -4.3)"/><path id="Trazado_693" data-name="Trazado 693" class="cls-23" d="M120.55,105.26v-3.5l.76-.44v4.37Z" transform="translate(-3.42 -4.3)"/><path id="Trazado_694" data-name="Trazado 694" class="cls-23" d="M117.52,107v.87l3.79-2.19-.76-.43Z" transform="translate(-3.42 -4.3)"/><path id="Trazado_695" data-name="Trazado 695" class="cls-24" d="M117.52,100.59V96.21L121.31,94V98.4Z" transform="translate(-3.42 -4.3)"/><path id="Trazado_696" data-name="Trazado 696" class="cls-23" d="M120.55,98v-3.5l.76-.43V98.4Z" transform="translate(-3.42 -4.3)"/><path id="Trazado_697" data-name="Trazado 697" class="cls-23" d="M117.52,99.71v.88l3.79-2.19-.76-.44Z" transform="translate(-3.42 -4.3)"/><path id="Trazado_698" data-name="Trazado 698" class="cls-24" d="M122.91,119.35V115l3.79-2.19v4.38Z" transform="translate(-3.42 -4.3)"/><path id="Trazado_699" data-name="Trazado 699" class="cls-23" d="M125.94,116.73v-3.5l.76-.44v4.38Z" transform="translate(-3.42 -4.3)"/><path id="Trazado_700" data-name="Trazado 700" class="cls-23" d="M122.91,118.48v.87l3.79-2.18-.76-.44Z" transform="translate(-3.42 -4.3)"/><path id="Trazado_701" data-name="Trazado 701" class="cls-24" d="M122.91,112.06v-4.37l3.79-2.19v4.38Z" transform="translate(-3.42 -4.3)"/><path id="Trazado_702" data-name="Trazado 702" class="cls-23" d="M125.94,109.44v-3.5l.76-.44v4.38Z" transform="translate(-3.42 -4.3)"/><path id="Trazado_703" data-name="Trazado 703" class="cls-23" d="M122.91,111.19v.87l3.79-2.18-.76-.44Z" transform="translate(-3.42 -4.3)"/><path id="Trazado_704" data-name="Trazado 704" class="cls-24" d="M122.91,104.77V100.4l3.79-2.19v4.38Z" transform="translate(-3.42 -4.3)"/><path id="Trazado_705" data-name="Trazado 705" class="cls-23" d="M125.94,102.15v-3.5l.76-.44v4.37Z" transform="translate(-3.42 -4.3)"/><path id="Trazado_706" data-name="Trazado 706" class="cls-23" d="M122.91,103.9v.87l3.79-2.18-.76-.44Z" transform="translate(-3.42 -4.3)"/><path id="Trazado_707" data-name="Trazado 707" class="cls-24" d="M122.91,97.48V93.1l3.79-2.18v4.37Z" transform="translate(-3.42 -4.3)"/><path id="Trazado_708" data-name="Trazado 708" class="cls-23" d="M125.94,94.85v-3.5l.76-.43v4.37Z" transform="translate(-3.42 -4.3)"/><path id="Trazado_709" data-name="Trazado 709" class="cls-23" d="M122.91,96.6v.88l3.79-2.19-.76-.43Z" transform="translate(-3.42 -4.3)"/><path id="Trazado_710" data-name="Trazado 710" class="cls-24" d="M101.23,107.37V103l-3-1.75v4.37Z" transform="translate(-3.42 -4.3)"/><path id="Trazado_711" data-name="Trazado 711" class="cls-12" d="M101.23,107.37V103l-3-1.75v4.37Z" transform="translate(-3.42 -4.3)"/><path id="Trazado_712" data-name="Trazado 712" class="cls-23" d="M99,105.18l-.75.44v-4.37l.75.43Z" transform="translate(-3.42 -4.3)"/><path id="Trazado_713" data-name="Trazado 713" class="cls-23" d="M101.23,106.49,99,105.18l-.75.44,3,1.75Z" transform="translate(-3.42 -4.3)"/><path id="Trazado_714" data-name="Trazado 714" class="cls-23" d="M102.74,115.73c0-1.24.85-1.75,1.9-1.15a4.25,4.25,0,0,1,1.9,3.33v7.4l-3.79-2.19Z" transform="translate(-3.42 -4.3)"/><path id="Trazado_715" data-name="Trazado 715" class="cls-16" d="M106.53,117.91a4.21,4.21,0,0,0-1.89-3.33,1.58,1.58,0,0,0-.89-.25,1.71,1.71,0,0,0-.25,1v7.39l3,1.75Z" transform="translate(-3.42 -4.3)"/><path id="Trazado_716" data-name="Trazado 716" class="cls-24" d="M106.53,117.91a4.21,4.21,0,0,0-1.89-3.33,1.58,1.58,0,0,0-.89-.25,1.71,1.71,0,0,0-.25,1v7.39l3,1.75Z" transform="translate(-3.42 -4.3)"/><path id="Trazado_717" data-name="Trazado 717" class="cls-12" d="M106.53,117.91a4.21,4.21,0,0,0-1.89-3.33,1.58,1.58,0,0,0-.89-.25,1.71,1.71,0,0,0-.25,1v7.39l3,1.75Z" transform="translate(-3.42 -4.3)"/><path id="Trazado_718" data-name="Trazado 718" class="cls-16" d="M105.18,115a2.69,2.69,0,0,0-.37-.3v2l-1.3-.76v.46l1.3.75v5.67l.37.22v-5.67l1.35.77v-.18a2.44,2.44,0,0,0,0-.27l-1.34-.77Z" transform="translate(-3.42 -4.3)"/><path id="Trazado_719" data-name="Trazado 719" class="cls-24" d="M112.59,97.31V94.68L95.92,85.06v2.62Z" transform="translate(-3.42 -4.3)"/><path id="Trazado_720" data-name="Trazado 720" class="cls-12" d="M112.59,97.31V94.68L95.92,85.06v2.62Z" transform="translate(-3.42 -4.3)"/><path id="Trazado_721" data-name="Trazado 721" class="cls-24" d="M112.59,97.31V94.68l16.68-9.62v2.62Z" transform="translate(-3.42 -4.3)"/><path id="Trazado_722" data-name="Trazado 722" class="cls-9" d="M112.59,97.31V94.68l16.68-9.62v2.62Z" transform="translate(-3.42 -4.3)"/><path id="Trazado_723" data-name="Trazado 723" class="cls-23" d="M98.2,92.61c0-1,.68-1.47,1.51-1a3.48,3.48,0,0,1,1.52,2.74v6.89l-3-1.75Z" transform="translate(-3.42 -4.3)"/><path id="Trazado_724" data-name="Trazado 724" class="cls-24" d="M99.71,91.62a1.37,1.37,0,0,0-.59-.19,1.62,1.62,0,0,0-.17.75v6.88l2.28,1.31v-6A3.48,3.48,0,0,0,99.71,91.62Z" transform="translate(-3.42 -4.3)"/><path id="Trazado_725" data-name="Trazado 725" class="cls-12" d="M99.71,91.62a1.37,1.37,0,0,0-.59-.19,1.62,1.62,0,0,0-.17.75v6.88l2.28,1.31v-6A3.48,3.48,0,0,0,99.71,91.62Z" transform="translate(-3.42 -4.3)"/><path id="Trazado_726" data-name="Trazado 726" class="cls-23" d="M98.2,99.5l.75-.44,2.28,1.31v.88Z" transform="translate(-3.42 -4.3)"/><path id="Trazado_727" data-name="Trazado 727" class="cls-23" d="M102.74,95.61c0-1.24.85-1.75,1.9-1.15a4.27,4.27,0,0,1,1.9,3.34v6.51l-3.79-2.19Z" transform="translate(-3.42 -4.3)"/><path id="Trazado_728" data-name="Trazado 728" class="cls-24" d="M106.53,97.8a4.23,4.23,0,0,0-1.89-3.34,1.76,1.76,0,0,0-.89-.25,1.71,1.71,0,0,0-.25,1v6.51l3,1.75Z" transform="translate(-3.42 -4.3)"/><path id="Trazado_729" data-name="Trazado 729" class="cls-12" d="M106.53,97.8a4.23,4.23,0,0,0-1.89-3.34,1.76,1.76,0,0,0-.89-.25,1.71,1.71,0,0,0-.25,1v6.51l3,1.75Z" transform="translate(-3.42 -4.3)"/><path id="Trazado_730" data-name="Trazado 730" class="cls-23" d="M103.5,101.68l-.76.44,3.79,2.19v-.88Z" transform="translate(-3.42 -4.3)"/><path id="Trazado_731" data-name="Trazado 731" class="cls-23" d="M108.05,98.3c0-1,.68-1.47,1.51-1a3.45,3.45,0,0,1,1.52,2.74v6.89l-3-1.75Z" transform="translate(-3.42 -4.3)"/><path id="Trazado_732" data-name="Trazado 732" class="cls-24" d="M109.56,97.31a1.37,1.37,0,0,0-.59-.19,1.49,1.49,0,0,0-.16.75v6.88l2.27,1.31v-6A3.44,3.44,0,0,0,109.56,97.31Z" transform="translate(-3.42 -4.3)"/><path id="Trazado_733" data-name="Trazado 733" class="cls-12" d="M109.56,97.31a1.37,1.37,0,0,0-.59-.19,1.49,1.49,0,0,0-.16.75v6.88l2.27,1.31v-6A3.44,3.44,0,0,0,109.56,97.31Z" transform="translate(-3.42 -4.3)"/><path id="Trazado_734" data-name="Trazado 734" class="cls-23" d="M108.81,104.75l-.76.43,3,1.75v-.87Z" transform="translate(-3.42 -4.3)"/><path id="Trazado_735" data-name="Trazado 735" class="cls-23" d="M108.05,118.42c0-1,.68-1.48,1.51-1a3.45,3.45,0,0,1,1.52,2.74v7.77l-3-1.75Z" transform="translate(-3.42 -4.3)"/><path id="Trazado_736" data-name="Trazado 736" class="cls-24" d="M109.56,117.43a1.25,1.25,0,0,0-.59-.19,1.48,1.48,0,0,0-.16.74v7.77l2.27,1.31v-6.9A3.45,3.45,0,0,0,109.56,117.43Z" transform="translate(-3.42 -4.3)"/><path id="Trazado_737" data-name="Trazado 737" class="cls-12" d="M109.56,117.43a1.25,1.25,0,0,0-.59-.19,1.48,1.48,0,0,0-.16.74v7.77l2.27,1.31v-6.9A3.45,3.45,0,0,0,109.56,117.43Z" transform="translate(-3.42 -4.3)"/><path id="Trazado_738" data-name="Trazado 738" class="cls-14" d="M108.05,126.18v-2.62l3,1.75v2.62Z" transform="translate(-3.42 -4.3)"/><path id="Trazado_739" data-name="Trazado 739" class="cls-23" d="M108.05,123.56l.76-.44,2.27,1.31v.88Z" transform="translate(-3.42 -4.3)"/><path id="Trazado_740" data-name="Trazado 740" class="cls-23" d="M98.2,112.73c0-1,.68-1.48,1.51-1a3.46,3.46,0,0,1,1.52,2.74v7.76l-3-1.74Z" transform="translate(-3.42 -4.3)"/><path id="Trazado_741" data-name="Trazado 741" class="cls-24" d="M99.71,111.73a1.37,1.37,0,0,0-.59-.19,1.65,1.65,0,0,0-.17.75v7.77l2.28,1.3v-6.9A3.49,3.49,0,0,0,99.71,111.73Z" transform="translate(-3.42 -4.3)"/><path id="Trazado_742" data-name="Trazado 742" class="cls-12" d="M99.71,111.73a1.37,1.37,0,0,0-.59-.19,1.65,1.65,0,0,0-.17.75v7.77l2.28,1.3v-6.9A3.49,3.49,0,0,0,99.71,111.73Z" transform="translate(-3.42 -4.3)"/><path id="Trazado_743" data-name="Trazado 743" class="cls-14" d="M101.23,122.25v-2.63l-3-1.75v2.63Z" transform="translate(-3.42 -4.3)"/><path id="Trazado_744" data-name="Trazado 744" class="cls-23" d="M98.2,117.87l.75-.44,2.28,1.32v.87Z" transform="translate(-3.42 -4.3)"/><path id="Trazado_745" data-name="Trazado 745" class="cls-14" d="M102.74,123.12v-.87l3.79,2.18v.88Z" transform="translate(-3.42 -4.3)"/><path id="Trazado_746" data-name="Trazado 746" class="cls-23" d="M102.74,122.25l.76-.44,3,1.75v.87Z" transform="translate(-3.42 -4.3)"/><path id="Trazado_747" data-name="Trazado 747" class="cls-24" d="M112.59,94.68l16.67-9.62-16.67-9.63L95.92,85.06Z" transform="translate(-3.42 -4.3)"/><path id="Trazado_748" data-name="Trazado 748" class="cls-25" d="M112.59,94.68l16.67-9.62-16.67-9.63L95.92,85.06Z" transform="translate(-3.42 -4.3)"/><path id="Trazado_749" data-name="Trazado 749" class="cls-24" d="M112.6,92.93l13.64-7.87L112.6,77.18,99,85.06Z" transform="translate(-3.42 -4.3)"/><path id="Trazado_750" data-name="Trazado 750" class="cls-24" d="M112.6,77.18v2.63l-11.37,6.56L99,85.06Z" transform="translate(-3.42 -4.3)"/><path id="Trazado_751" data-name="Trazado 751" class="cls-9" d="M112.6,77.18v2.63l-11.37,6.56L99,85.06Z" transform="translate(-3.42 -4.3)"/><path id="Trazado_752" data-name="Trazado 752" class="cls-24" d="M112.59,77.18l13.65,7.88L124,86.37l-11.37-6.56Z" transform="translate(-3.42 -4.3)"/><path id="Trazado_753" data-name="Trazado 753" class="cls-12" d="M112.59,77.18l13.65,7.88L124,86.37l-11.37-6.56Z" transform="translate(-3.42 -4.3)"/><path id="Trazado_754" data-name="Trazado 754" class="cls-16" d="M110.32,79.37l-3.79,2.19,5.31,3.06,3.79-2.19Z" transform="translate(-3.42 -4.3)"/><path id="Trazado_755" data-name="Trazado 755" class="cls-14" d="M106.53,81.56v2.62l5.31,3.06V84.62Z" transform="translate(-3.42 -4.3)"/><path id="Trazado_756" data-name="Trazado 756" class="cls-23" d="M115.63,82.43v2.63l-3.79,2.18V84.62Z" transform="translate(-3.42 -4.3)"/><path id="Trazado_757" data-name="Trazado 757" class="cls-14" d="M109.08,80.84a.76.76,0,0,0-.48,1,.79.79,0,0,0,.48.48,2.8,2.8,0,0,0,2.49,0,.77.77,0,0,0,.47-1,.76.76,0,0,0-.47-.47A2.73,2.73,0,0,0,109.08,80.84Z" transform="translate(-3.42 -4.3)"/><path id="Trazado_758" data-name="Trazado 758" class="cls-23" d="M109.74,81.25c-.32.17-.32.45,0,.62a1.41,1.41,0,0,0,1.17,0c.32-.17.32-.45,0-.62A1.41,1.41,0,0,0,109.74,81.25Z" transform="translate(-3.42 -4.3)"/><path id="Trazado_759" data-name="Trazado 759" class="cls-26" d="M113,84.82l.76.43V87" transform="translate(-3.42 -4.3)"/><path id="Trazado_760" data-name="Trazado 760" class="cls-26" d="M114.11,84.18l.76.44v1.75" transform="translate(-3.42 -4.3)"/></g></g></g></svg>