<?xml version="1.0" encoding="UTF-8" standalone="no"?><!DOCTYPE svg PUBLIC "-//W3C//DTD SVG 1.1//EN" "http://www.w3.org/Graphics/SVG/1.1/DTD/svg11.dtd"><svg width="100%" height="100%" viewBox="0 0 4584 1250" version="1.1" xmlns="http://www.w3.org/2000/svg" xmlns:xlink="http://www.w3.org/1999/xlink" xml:space="preserve" xmlns:serif="http://www.serif.com/" style="fill-rule:evenodd;clip-rule:evenodd;stroke-linejoin:round;stroke-miterlimit:2;"><g><path d="M3690.55,185.153l96.225,166.666l47.984,-83.111l-464.779,805.021l-96.225,-166.666l416.795,-721.91Z" style="fill:url(#_Linear1);"/><path d="M4299.8,907.063l-96.225,166.666l95.968,0l-929.558,0l96.225,-166.666l833.59,-0Z" style="fill:url(#_Linear2);"/><path d="M4115.8,588.37l183.998,318.693l-192.45,-0l47.984,83.111l-183.869,-318.471c-0,0 134.669,66.587 134.669,66.587l9.668,-149.92Z" style="fill:url(#_Linear3);"/><path d="M4026.5,433.699l80.64,-46.557l-20.316,318.065l-285.611,-141.438l80.95,-46.736l-191.611,-331.88l192.45,-0l143.498,248.546Z" style="fill:url(#_Linear4);"/></g><g><g id="Logo-IfcOpenShell" serif:id="Logo IfcOpenShell"><path d="M1542.89,824.782l-0,-0l2.025,1.39l5.687,4.122l5.472,4.188l5.25,4.247l5.031,4.306l4.804,4.365l4.575,4.419l4.343,4.472l4.11,4.519l3.875,4.565l3.634,4.61l3.391,4.647l3.153,4.687l2.903,4.725l2.659,4.753l2.41,4.785l2.159,4.809l1.909,4.834l1.66,4.857l1.403,4.872l1.15,4.887l0.894,4.897l0.64,4.909l0.385,4.913l0.128,4.915l-0.128,4.919l-0.385,4.913l-0.64,4.909l-0.894,4.897l-1.15,4.887l-1.403,4.872l-1.66,4.857l-1.909,4.831l-2.159,4.812l-2.41,4.785l-2.659,4.753l-2.903,4.722l-3.15,4.687l-3.394,4.65l-3.634,4.61l-3.875,4.565l-4.11,4.519l-4.343,4.472l-4.575,4.419l-4.804,4.362l-5.028,4.309l-5.253,4.247l-5.472,4.188l-5.687,4.122l-5.903,4.053l-6.11,3.984l-6.315,3.913l-6.519,3.84l-6.716,3.763l-6.909,3.684l-7.1,3.6l-7.284,3.522l-7.466,3.431l-7.641,3.347l-7.815,3.26l-7.982,3.165l-8.143,3.072l-8.3,2.978l-8.453,2.878l-8.604,2.782l-8.743,2.681l-8.878,2.581l-9.013,2.475l-9.137,2.372l-9.26,2.262l-9.375,2.16l-9.481,2.047l-9.588,1.937l-9.687,1.825l-9.775,1.713l-9.866,1.6l-9.943,1.484l-10.016,1.372l-10.088,1.253l-10.15,1.134l-10.203,1.019l-10.256,0.9l-10.297,0.781l-10.337,0.663l-10.366,0.541l-10.394,0.421l-10.409,0.304l-10.425,0.178l-10.428,0.062l-0,-225.39l10.428,-0.06l10.425,-0.181l10.409,-0.303l10.394,-0.422l10.366,-0.541l10.337,-0.662l10.297,-0.781l10.256,-0.9l10.203,-1.019l10.15,-1.135l10.088,-1.253l10.016,-1.372l9.943,-1.484l9.866,-1.6l9.775,-1.712l9.687,-1.825l9.588,-1.938l9.481,-2.047l9.375,-2.156l9.26,-2.266l9.137,-2.372l9.013,-2.475l8.878,-2.578l8.743,-2.681l8.604,-2.784l8.453,-2.878l8.3,-2.979l8.143,-3.071l7.982,-3.166l7.815,-3.259l7.641,-3.344l7.466,-3.435l7.284,-3.518l7.1,-3.603l6.909,-3.685l6.716,-3.762l6.519,-3.838l6.315,-3.915l6.11,-3.985l3.878,-2.662l-0.001,-0l0.001,-0Z" style="fill:url(#_Linear5);"/><path d="M957.787,316.4l0.062,4.794l0.194,4.791l0.319,4.787l0.447,4.775l0.575,4.766l0.703,4.75l0.828,4.734l0.956,4.713l1.078,4.69l1.207,4.666l1.328,4.634l1.453,4.604l1.575,4.571l1.697,4.535l1.815,4.494l1.938,4.45l2.056,4.406l2.172,4.359l2.287,4.31l2.4,4.253l2.516,4.2l2.625,4.143l2.738,4.082l2.843,4.018l2.95,3.954l0.171,0.217c0,-0 0,0.004 0,0.004l2.886,3.663l3.156,3.816l3.259,3.743l3.36,3.669l3.453,3.591l3.55,3.512l3.643,3.431l3.732,3.35l3.822,3.263l3.906,3.175l3.99,3.087l4.072,2.994l4.15,2.903l4.228,2.81l4.3,2.712l4.372,2.616l4.441,2.512l4.506,2.416l4.569,2.312l4.628,2.207l4.688,2.103l4.74,1.997l4.794,1.887l4.844,1.781l4.887,1.672l4.935,1.56l4.971,1.447l5.007,1.334l5.043,1.222l5.075,1.109l5.104,0.991l5.125,0.878l5.15,0.762l5.168,0.644l5.185,0.531l5.193,0.41l5.207,0.294l5.212,0.178l5.216,0.056l-0,225.391l-5.216,-0.057l-5.212,-0.178l-5.207,-0.294l-5.193,-0.412l-5.185,-0.528l-5.168,-0.644l-5.15,-0.762l-5.125,-0.879l-5.104,-0.99l-5.075,-1.11l-5.043,-1.221l-5.007,-1.335l-4.971,-1.45l-4.935,-1.559l-4.887,-1.669l-4.844,-1.781l-4.794,-1.888l-4.74,-1.997l-4.688,-2.103l-4.628,-2.209l-4.569,-2.309l-4.506,-2.416l-4.441,-2.516l-4.372,-2.612l-4.3,-2.713l-4.228,-2.809l-4.15,-2.903l-4.072,-2.994l-3.99,-3.087l-3.906,-3.175l-3.822,-3.263l-3.732,-3.35l-3.643,-3.431l-3.55,-3.513l-3.453,-3.59l-3.36,-3.669l-3.259,-3.744l-3.156,-3.815l-3.057,-3.885l-2.95,-3.953l-2.843,-4.019l-2.738,-4.081l-2.625,-4.144l-2.516,-4.2l-2.4,-4.253l-2.287,-4.309l-2.172,-4.36l-2.056,-4.406l-1.938,-4.45l-1.815,-4.494l-1.697,-4.534l-1.575,-4.572l-1.453,-4.603l-1.328,-4.637l-1.207,-4.663l-1.078,-4.691l-0.956,-4.712l-0.828,-4.734l-0.703,-4.75l-0.575,-4.766l-0.447,-4.775l-0.319,-4.788l-0.194,-4.79l-0.062,-4.794l-0,-225.391Z" style="fill:url(#_Linear6);"/><path d="M996.549,428.879l-2.95,-3.954l-2.843,-4.018l-2.738,-4.082l-2.625,-4.143l-2.516,-4.2l-2.4,-4.253l-2.287,-4.31l-2.172,-4.359l-2.056,-4.406l-1.938,-4.45l-1.815,-4.494l-1.697,-4.535l-1.575,-4.571l-1.453,-4.604l-1.328,-4.634l-1.207,-4.666l-1.078,-4.69l-0.956,-4.713l-0.828,-4.734l-0.703,-4.75l-0.575,-4.766l-0.447,-4.775l-0.319,-4.787l-0.194,-4.791l-0.062,-4.794l0.062,-4.793l0.194,-4.791l0.319,-4.784l0.447,-4.778l0.575,-4.763l0.703,-4.753l0.828,-4.731l0.956,-4.713l1.078,-4.69l1.207,-4.666l1.328,-4.634l1.453,-4.607l1.575,-4.568l1.697,-4.535l1.815,-4.494l1.938,-4.453l2.056,-4.406l2.172,-4.356l2.287,-4.31l2.4,-4.256l2.516,-4.2l2.625,-4.14l2.738,-4.082l2.843,-4.018l2.95,-3.954l3.057,-3.887l3.156,-3.816l3.259,-3.74l3.36,-3.669l3.453,-3.594l3.55,-3.512l3.643,-3.432l3.732,-3.346l3.822,-3.263l3.906,-3.178l3.99,-3.084l4.072,-2.997l4.15,-2.903l4.228,-2.81l4.3,-2.709l4.372,-2.616l4.441,-2.515l4.506,-2.413l4.569,-2.312l4.628,-2.21l4.688,-2.103l4.74,-1.994l4.794,-1.89l4.844,-1.778l4.887,-1.672l4.935,-1.56l4.971,-1.447l5.007,-1.337l5.043,-1.222l5.075,-1.106l5.104,-0.994l5.128,-0.878l5.147,-0.759l5.168,-0.647l5.185,-0.528l5.197,-0.413l5.203,-0.294l5.212,-0.175l5.216,-0.059l-0,225.391l-5.216,0.059l-5.212,0.175l-5.203,0.294l-5.197,0.412l-5.185,0.528l-5.168,0.644l-5.147,0.763l-5.128,0.878l-5.104,0.993l-5.075,1.107l-5.043,1.222l-5.007,1.334l-4.971,1.45l-4.935,1.559l-4.887,1.669l-4.844,1.781l-4.794,1.888l-4.74,1.997l-4.688,2.103l-4.628,2.209l-4.569,2.313l-4.506,2.412l-4.441,2.516l-4.372,2.612l-4.3,2.713l-4.228,2.809l-4.15,2.903l-4.072,2.997l-3.99,3.085l-3.906,3.178l-3.822,3.262l-3.732,3.347l-3.643,3.431l-3.55,3.513l-3.453,3.59l-3.36,3.669l-3.259,3.744l-3.156,3.816l-2.886,3.667l-0.171,-0.217Z" style="fill:url(#_Linear7);"/><path d="M1542.89,824.782l-3.878,-2.663l-6.11,-3.987l-6.315,-3.913l-6.519,-3.837l-6.716,-3.763l-6.909,-3.684l-7.1,-3.603l-7.284,-3.519l-7.466,-3.434l-7.641,-3.347l-7.815,-3.257l-7.982,-3.165l-8.143,-3.072l-8.3,-2.978l-8.453,-2.878l-8.604,-2.785l-8.743,-2.681l-8.878,-2.578l-9.013,-2.475l-9.137,-2.372l-9.26,-2.266l-9.375,-2.156l-9.481,-2.047l-9.588,-1.937l-9.687,-1.825l-9.775,-1.713l-9.866,-1.6l-9.94,-1.484l-10.019,-1.372l-10.088,-1.253l-10.146,-1.134l-10.207,-1.019l-10.253,-0.9l-10.3,-0.781l-10.334,-0.663l-10.369,-0.541l-10.391,-0.421l-10.412,-0.304l-10.425,-0.181l-10.428,-0.059l-0,-225.391l10.428,0.06l10.425,0.181l10.412,0.303l10.391,0.422l10.369,0.54l10.334,0.663l10.3,0.781l10.253,0.9l10.207,1.019l10.146,1.134l10.088,1.253l10.019,1.372l9.94,1.485l9.866,1.6l9.775,1.712l9.687,1.825l9.588,1.938l9.481,2.047l9.375,2.156l9.26,2.265l9.137,2.372l9.013,2.475l8.878,2.578l8.743,2.685l8.604,2.781l8.453,2.878l8.3,2.978l8.143,3.072l7.982,3.166l7.815,3.259l7.641,3.344l7.466,3.434l7.284,3.522l7.1,3.6l6.909,3.685l6.716,3.762l6.519,3.838l6.315,3.915l6.11,3.985l5.903,4.053l5.687,4.122l5.472,4.187l5.25,4.247l5.031,4.309l4.804,4.363l4.575,4.419l4.343,4.471l4.11,4.519l3.875,4.566l3.634,4.609l3.391,4.65l3.153,4.688l2.903,4.722l2.659,4.753l2.41,4.784l2.159,4.809l1.909,4.835l1.66,4.856l1.403,4.872l1.15,4.887l0.894,4.897l0.64,4.91l0.385,4.912l0.128,4.916l-0,225.39l-0.128,-4.915l-0.385,-4.913l-0.64,-4.909l-0.894,-4.897l-1.15,-4.887l-1.403,-4.872l-1.66,-4.857l-1.909,-4.834l-2.159,-4.809l-2.41,-4.785l-2.659,-4.753l-2.903,-4.725l-3.153,-4.687l-3.391,-4.647l-3.634,-4.61l-3.875,-4.565l-4.11,-4.519l-4.343,-4.472l-4.575,-4.419l-4.804,-4.365l-5.031,-4.306l-5.25,-4.247l-5.472,-4.188l-5.687,-4.122l-2.025,-1.39l-0,-0Z" style="fill:url(#_Linear8);"/></g><path d="M1191.54,46.258l291.666,187.5l-291.666,187.5l-0,-375Z" style="fill:url(#_Linear9);"/></g><g><path d="M2277.38,824.782l0,-0l2.025,1.39l5.688,4.122l5.472,4.188l5.25,4.247l5.031,4.306l4.803,4.365l4.575,4.419l4.344,4.472l4.109,4.519l3.875,4.565l3.635,4.61l3.39,4.647l3.153,4.687l2.904,4.725l2.659,4.753l2.409,4.785l2.16,4.809l1.909,4.834l1.659,4.857l1.404,4.872l1.15,4.887l0.893,4.897l0.641,4.909l0.384,4.913l0.128,4.915l-0.128,4.919l-0.384,4.913l-0.641,4.909l-0.893,4.897l-1.15,4.887l-1.404,4.872l-1.659,4.857l-1.909,4.831l-2.16,4.812l-2.409,4.785l-2.659,4.753l-2.904,4.722l-3.15,4.687l-3.393,4.65l-3.635,4.61l-3.875,4.565l-4.109,4.519l-4.344,4.472l-4.575,4.419l-4.803,4.362l-5.028,4.309l-5.253,4.247l-5.472,4.188l-5.688,4.122l-5.903,4.053l-6.109,3.984l-6.316,3.913l-6.518,3.84l-6.716,3.763l-6.909,3.684l-7.1,3.6l-7.285,3.522l-7.465,3.431l-7.641,3.347l-7.816,3.26l-7.981,3.165l-8.144,3.072l-8.3,2.978l-8.453,2.878l-8.603,2.782l-8.744,2.681l-8.878,2.581l-9.012,2.475l-9.138,2.372l-9.259,2.262l-9.375,2.16l-9.481,2.047l-9.588,1.937l-9.687,1.825l-9.775,1.713l-9.866,1.6l-9.944,1.484l-10.015,1.372l-10.088,1.253l-10.15,1.134l-10.203,1.019l-10.256,0.9l-10.297,0.781l-10.338,0.663l-10.365,0.541l-10.394,0.421l-10.409,0.304l-10.425,0.178l-10.429,0.062l0,-225.39l10.429,-0.06l10.425,-0.181l10.409,-0.303l10.394,-0.422l10.365,-0.541l10.338,-0.662l10.297,-0.781l10.256,-0.9l10.203,-1.019l10.15,-1.135l10.088,-1.253l10.015,-1.372l9.944,-1.484l9.866,-1.6l9.775,-1.712l9.687,-1.825l9.588,-1.938l9.481,-2.047l9.375,-2.156l9.259,-2.266l9.138,-2.372l9.012,-2.475l8.878,-2.578l8.744,-2.681l8.603,-2.784l8.453,-2.878l8.3,-2.979l8.144,-3.071l7.981,-3.166l7.816,-3.259l7.641,-3.344l7.465,-3.435l7.285,-3.518l7.1,-3.603l6.909,-3.685l6.716,-3.762l6.518,-3.838l6.316,-3.915l6.109,-3.985l3.878,-2.662l0,-0l0,-0Z" style="fill:url(#_Linear10);"/><path d="M1692.28,316.4l0.063,4.794l0.194,4.791l0.318,4.787l0.447,4.775l0.575,4.766l0.703,4.75l0.829,4.734l0.956,4.713l1.078,4.69l1.206,4.666l1.328,4.634l1.453,4.604l1.575,4.571l1.697,4.535l1.816,4.494l1.937,4.45l2.057,4.406l2.172,4.359l2.287,4.31l2.4,4.253l2.516,4.2l2.625,4.143l2.737,4.082l2.844,4.018l2.95,3.954l0.171,0.217c-0,-0 -0,0.004 -0,0.004l2.885,3.663l3.156,3.816l3.26,3.743l3.359,3.669l3.453,3.591l3.55,3.512l3.644,3.431l3.731,3.35l3.822,3.263l3.906,3.175l3.991,3.087l4.072,2.994l4.15,2.903l4.228,2.81l4.3,2.712l4.372,2.616l4.441,2.512l4.506,2.416l4.569,2.312l4.628,2.207l4.687,2.103l4.741,1.997l4.794,1.887l4.843,1.781l4.888,1.672l4.934,1.56l4.972,1.447l5.006,1.334l5.044,1.222l5.075,1.109l5.103,0.991l5.125,0.878l5.15,0.762l5.169,0.644l5.184,0.531l5.194,0.41l5.206,0.294l5.213,0.178l5.215,0.056l0,225.391l-5.215,-0.057l-5.213,-0.178l-5.206,-0.294l-5.194,-0.412l-5.184,-0.528l-5.169,-0.644l-5.15,-0.762l-5.125,-0.879l-5.103,-0.99l-5.075,-1.11l-5.044,-1.221l-5.006,-1.335l-4.972,-1.45l-4.934,-1.559l-4.888,-1.669l-4.843,-1.781l-4.794,-1.888l-4.741,-1.997l-4.687,-2.103l-4.628,-2.209l-4.569,-2.309l-4.506,-2.416l-4.441,-2.516l-4.372,-2.612l-4.3,-2.713l-4.228,-2.809l-4.15,-2.903l-4.072,-2.994l-3.991,-3.087l-3.906,-3.175l-3.822,-3.263l-3.731,-3.35l-3.644,-3.431l-3.55,-3.513l-3.453,-3.59l-3.359,-3.669l-3.26,-3.744l-3.156,-3.815l-3.056,-3.885l-2.95,-3.953l-2.844,-4.019l-2.737,-4.081l-2.625,-4.144l-2.516,-4.2l-2.4,-4.253l-2.287,-4.309l-2.172,-4.36l-2.057,-4.406l-1.937,-4.45l-1.816,-4.494l-1.697,-4.534l-1.575,-4.572l-1.453,-4.603l-1.328,-4.637l-1.206,-4.663l-1.078,-4.691l-0.956,-4.712l-0.829,-4.734l-0.703,-4.75l-0.575,-4.766l-0.447,-4.775l-0.318,-4.788l-0.194,-4.79l-0.063,-4.794l0,-225.391Z" style="fill:url(#_Linear11);"/><path d="M2277.38,824.782l-3.878,-2.663l-6.109,-3.987l-6.316,-3.913l-6.518,-3.837l-6.716,-3.763l-6.909,-3.684l-7.1,-3.603l-7.285,-3.519l-7.465,-3.434l-7.641,-3.347l-7.816,-3.257l-7.981,-3.165l-8.144,-3.072l-8.3,-2.978l-8.453,-2.878l-8.603,-2.785l-8.744,-2.681l-8.878,-2.578l-9.012,-2.475l-9.138,-2.372l-9.259,-2.266l-9.375,-2.156l-9.481,-2.047l-9.588,-1.937l-9.687,-1.825l-9.775,-1.713l-9.866,-1.6l-9.941,-1.484l-10.018,-1.372l-10.088,-1.253l-10.147,-1.134l-10.206,-1.019l-10.253,-0.9l-10.3,-0.781l-10.335,-0.663l-10.368,-0.541l-10.391,-0.421l-10.412,-0.304l-10.425,-0.181l-10.429,-0.059l0,-225.391l10.429,0.06l10.425,0.181l10.412,0.303l10.391,0.422l10.368,0.54l10.335,0.663l10.3,0.781l10.253,0.9l10.206,1.019l10.147,1.134l10.088,1.253l10.018,1.372l9.941,1.485l9.866,1.6l9.775,1.712l9.687,1.825l9.588,1.938l9.481,2.047l9.375,2.156l9.259,2.265l9.138,2.372l9.012,2.475l8.878,2.578l8.744,2.685l8.603,2.781l8.453,2.878l8.3,2.978l8.144,3.072l7.981,3.166l7.816,3.259l7.641,3.344l7.465,3.434l7.285,3.522l7.1,3.6l6.909,3.685l6.716,3.762l6.518,3.838l6.316,3.915l6.109,3.985l5.903,4.053l5.688,4.122l5.472,4.187l5.25,4.247l5.031,4.309l4.803,4.363l4.575,4.419l4.344,4.471l4.109,4.519l3.875,4.566l3.635,4.609l3.39,4.65l3.153,4.688l2.904,4.722l2.659,4.753l2.409,4.784l2.16,4.809l1.909,4.835l1.659,4.856l1.404,4.872l1.15,4.887l0.893,4.897l0.641,4.91l0.384,4.912l0.128,4.916l0,225.39l-0.128,-4.915l-0.384,-4.913l-0.641,-4.909l-0.893,-4.897l-1.15,-4.887l-1.404,-4.872l-1.659,-4.857l-1.909,-4.834l-2.16,-4.809l-2.409,-4.785l-2.659,-4.753l-2.904,-4.725l-3.153,-4.687l-3.39,-4.647l-3.635,-4.61l-3.875,-4.565l-4.109,-4.519l-4.344,-4.472l-4.575,-4.419l-4.803,-4.365l-5.031,-4.306l-5.25,-4.247l-5.472,-4.188l-5.688,-4.122l-2.025,-1.39l0,-0Z" style="fill:url(#_Linear12);"/><path d="M1926.03,121.063l0,-74.805l291.667,187.5l-291.667,187.5l0,-74.804l-21.25,-0l-5.215,0.059l-5.213,0.175l-5.203,0.294l-5.197,0.412l-5.184,0.528l-5.169,0.644l-5.147,0.763l-5.128,0.878l-5.103,0.993l-5.075,1.107l-5.044,1.222l-5.006,1.334l-4.972,1.45l-4.934,1.559l-4.888,1.669l-4.843,1.781l-4.794,1.888l-4.741,1.997l-4.687,2.103l-4.628,2.209l-4.569,2.313l-4.506,2.412l-4.441,2.516l-4.372,2.612l-4.3,2.713l-4.228,2.809l-4.15,2.903l-4.072,2.997l-3.991,3.085l-3.906,3.178l-3.822,3.262l-3.731,3.347l-3.644,3.431l-3.55,3.513l-3.453,3.59l-3.359,3.669l-3.26,3.744l-3.156,3.816l-2.885,3.667l-0.171,-0.217l-2.95,-3.954l-2.844,-4.018l-2.737,-4.082l-2.625,-4.143l-2.516,-4.2l-2.4,-4.253l-2.287,-4.31l-2.172,-4.359l-2.057,-4.406l-1.937,-4.45l-1.816,-4.494l-1.697,-4.535l-1.575,-4.571l-1.453,-4.604l-1.328,-4.634l-1.206,-4.666l-1.078,-4.69l-0.956,-4.713l-0.829,-4.734l-0.703,-4.75l-0.575,-4.766l-0.447,-4.775l-0.318,-4.787l-0.194,-4.791l-0.063,-4.794l0.063,-4.793l0.194,-4.791l0.318,-4.784l0.447,-4.778l0.575,-4.763l0.703,-4.753l0.829,-4.731l0.956,-4.713l1.078,-4.69l1.206,-4.666l1.328,-4.634l1.453,-4.607l1.575,-4.568l1.697,-4.535l1.816,-4.494l1.937,-4.453l2.057,-4.406l2.172,-4.356l2.287,-4.31l2.4,-4.256l2.516,-4.2l2.625,-4.14l2.737,-4.082l2.844,-4.018l2.95,-3.954l3.056,-3.887l3.156,-3.816l3.26,-3.74l3.359,-3.669l3.453,-3.594l3.55,-3.512l3.644,-3.432l3.731,-3.346l3.822,-3.263l3.906,-3.178l3.991,-3.084l4.072,-2.997l4.15,-2.903l4.228,-2.81l4.3,-2.709l4.372,-2.616l4.441,-2.515l4.506,-2.413l4.569,-2.312l4.628,-2.21l4.687,-2.103l4.741,-1.994l4.794,-1.89l4.843,-1.778l4.888,-1.672l4.934,-1.56l4.972,-1.447l5.006,-1.337l5.044,-1.222l5.075,-1.106l5.103,-0.994l5.128,-0.878l5.147,-0.759l5.169,-0.647l5.184,-0.528l5.197,-0.413l5.203,-0.294l5.213,-0.175l5.215,-0.059l21.25,-0Z" style="fill:url(#_Linear13);"/></g><g><g><g id="Logo-IfcOpenShell1" serif:id="Logo IfcOpenShell"><path d="M3050.47,824.782l0,-0l2.025,1.39l5.688,4.122l5.472,4.188l5.25,4.247l5.031,4.306l4.803,4.365l4.575,4.419l4.344,4.472l4.109,4.519l3.875,4.565l3.635,4.61l3.39,4.647l3.153,4.687l2.903,4.725l2.66,4.753l2.409,4.785l2.16,4.809l1.909,4.834l1.659,4.857l1.403,4.872l1.15,4.887l0.894,4.897l0.641,4.909l0.384,4.913l0.128,4.915l-0.128,4.919l-0.384,4.913l-0.641,4.909l-0.894,4.897l-1.15,4.887l-1.403,4.872l-1.659,4.857l-1.909,4.831l-2.16,4.812l-2.409,4.785l-2.66,4.753l-2.903,4.722l-3.15,4.687l-3.393,4.65l-3.635,4.61l-3.875,4.565l-4.109,4.519l-4.344,4.472l-4.575,4.419l-4.803,4.362l-5.028,4.309l-5.253,4.247l-5.472,4.188l-5.688,4.122l-5.903,4.053l-6.109,3.984l-6.316,3.913l-6.519,3.84l-6.715,3.763l-6.91,3.684l-7.1,3.6l-7.284,3.522l-7.466,3.431l-7.64,3.347l-7.816,3.26l-7.981,3.165l-8.144,3.072l-8.3,2.978l-8.453,2.878l-8.603,2.782l-8.744,2.681l-8.878,2.581l-9.012,2.475l-9.138,2.372l-9.259,2.262l-9.375,2.16l-9.482,2.047l-9.587,1.937l-9.688,1.825l-9.775,1.713l-9.865,1.6l-9.944,1.484l-10.016,1.372l-10.087,1.253l-10.15,1.134l-10.203,1.019l-10.256,0.9l-10.297,0.781l-10.338,0.663l-10.365,0.541l-10.394,0.421l-10.41,0.304l-10.425,0.178l-10.428,0.062l0,-225.39l10.428,-0.06l10.425,-0.181l10.41,-0.303l10.394,-0.422l10.365,-0.541l10.338,-0.662l10.297,-0.781l10.256,-0.9l10.203,-1.019l10.15,-1.135l10.087,-1.253l10.016,-1.372l9.944,-1.484l9.865,-1.6l9.775,-1.712l9.688,-1.825l9.587,-1.938l9.482,-2.047l9.375,-2.156l9.259,-2.266l9.138,-2.372l9.012,-2.475l8.878,-2.578l8.744,-2.681l8.603,-2.784l8.453,-2.878l8.3,-2.979l8.144,-3.071l7.981,-3.166l7.816,-3.259l7.64,-3.344l7.466,-3.435l7.284,-3.518l7.1,-3.603l6.91,-3.685l6.715,-3.762l6.519,-3.838l6.316,-3.915l6.109,-3.985l3.878,-2.662l-0,-0l0,-0Z" style="fill:url(#_Linear14);"/><path d="M2465.37,316.4l0.063,4.794l0.194,4.791l0.318,4.787l0.447,4.775l0.575,4.766l0.703,4.75l0.828,4.734l0.957,4.713l1.078,4.69l1.206,4.666l1.328,4.634l1.453,4.604l1.575,4.571l1.697,4.535l1.816,4.494l1.937,4.45l2.057,4.406l2.171,4.359l2.288,4.31l2.4,4.253l2.516,4.2l2.625,4.143l2.737,4.082l2.844,4.018l2.95,3.954l0.171,0.217c-0,-0 -0,0.004 -0,0.004l2.885,3.663l3.156,3.816l3.26,3.743l3.359,3.669l3.453,3.591l3.55,3.512l3.644,3.431l3.731,3.35l3.822,3.263l3.906,3.175l3.991,3.087l4.072,2.994l4.15,2.903l4.228,2.81l4.3,2.712l4.372,2.616l4.44,2.512l4.507,2.416l4.568,2.312l4.629,2.207l4.687,2.103l4.741,1.997l4.793,1.887l4.844,1.781l4.888,1.672l4.934,1.56l4.972,1.447l5.006,1.334l5.044,1.222l5.075,1.109l5.103,0.991l5.125,0.878l5.15,0.762l5.169,0.644l5.184,0.531l5.194,0.41l5.206,0.294l5.213,0.178l5.215,0.056l0,225.391l-5.215,-0.057l-5.213,-0.178l-5.206,-0.294l-5.194,-0.412l-5.184,-0.528l-5.169,-0.644l-5.15,-0.762l-5.125,-0.879l-5.103,-0.99l-5.075,-1.11l-5.044,-1.221l-5.006,-1.335l-4.972,-1.45l-4.934,-1.559l-4.888,-1.669l-4.844,-1.781l-4.793,-1.888l-4.741,-1.997l-4.687,-2.103l-4.629,-2.209l-4.568,-2.309l-4.507,-2.416l-4.44,-2.516l-4.372,-2.612l-4.3,-2.713l-4.228,-2.809l-4.15,-2.903l-4.072,-2.994l-3.991,-3.087l-3.906,-3.175l-3.822,-3.263l-3.731,-3.35l-3.644,-3.431l-3.55,-3.513l-3.453,-3.59l-3.359,-3.669l-3.26,-3.744l-3.156,-3.815l-3.056,-3.885l-2.95,-3.953l-2.844,-4.019l-2.737,-4.081l-2.625,-4.144l-2.516,-4.2l-2.4,-4.253l-2.288,-4.309l-2.171,-4.36l-2.057,-4.406l-1.937,-4.45l-1.816,-4.494l-1.697,-4.534l-1.575,-4.572l-1.453,-4.603l-1.328,-4.637l-1.206,-4.663l-1.078,-4.691l-0.957,-4.712l-0.828,-4.734l-0.703,-4.75l-0.575,-4.766l-0.447,-4.775l-0.318,-4.788l-0.194,-4.79l-0.063,-4.794l0,-225.391Z" style="fill:url(#_Linear15);"/><path d="M2504.14,428.879l-2.95,-3.954l-2.844,-4.018l-2.737,-4.082l-2.625,-4.143l-2.516,-4.2l-2.4,-4.253l-2.288,-4.31l-2.171,-4.359l-2.057,-4.406l-1.937,-4.45l-1.816,-4.494l-1.697,-4.535l-1.575,-4.571l-1.453,-4.604l-1.328,-4.634l-1.206,-4.666l-1.078,-4.69l-0.957,-4.713l-0.828,-4.734l-0.703,-4.75l-0.575,-4.766l-0.447,-4.775l-0.318,-4.787l-0.194,-4.791l-0.063,-4.794l0.063,-4.793l0.194,-4.791l0.318,-4.784l0.447,-4.778l0.575,-4.763l0.703,-4.753l0.828,-4.731l0.957,-4.713l1.078,-4.69l1.206,-4.666l1.328,-4.634l1.453,-4.607l1.575,-4.568l1.697,-4.535l1.816,-4.494l1.937,-4.453l2.057,-4.406l2.171,-4.356l2.288,-4.31l2.4,-4.256l2.516,-4.2l2.625,-4.14l2.737,-4.082l2.844,-4.018l2.95,-3.954l3.056,-3.887l3.156,-3.816l3.26,-3.74l3.359,-3.669l3.453,-3.594l3.55,-3.512l3.644,-3.432l3.731,-3.346l3.822,-3.263l3.906,-3.178l3.991,-3.084l4.072,-2.997l4.15,-2.903l4.228,-2.81l4.3,-2.709l4.372,-2.616l4.44,-2.515l4.507,-2.413l4.568,-2.312l4.629,-2.21l4.687,-2.103l4.741,-1.994l4.793,-1.89l4.844,-1.778l4.888,-1.672l4.934,-1.56l4.972,-1.447l5.006,-1.337l5.044,-1.222l5.075,-1.106l5.103,-0.994l5.128,-0.878l5.147,-0.759l5.169,-0.647l5.184,-0.528l5.197,-0.413l5.203,-0.294l5.213,-0.175l5.215,-0.059l0,225.391l-5.215,0.059l-5.213,0.175l-5.203,0.294l-5.197,0.412l-5.184,0.528l-5.169,0.644l-5.147,0.763l-5.128,0.878l-5.103,0.993l-5.075,1.107l-5.044,1.222l-5.006,1.334l-4.972,1.45l-4.934,1.559l-4.888,1.669l-4.844,1.781l-4.793,1.888l-4.741,1.997l-4.687,2.103l-4.629,2.209l-4.568,2.313l-4.507,2.412l-4.44,2.516l-4.372,2.612l-4.3,2.713l-4.228,2.809l-4.15,2.903l-4.072,2.997l-3.991,3.085l-3.906,3.178l-3.822,3.262l-3.731,3.347l-3.644,3.431l-3.55,3.513l-3.453,3.59l-3.359,3.669l-3.26,3.744l-3.156,3.816l-2.885,3.667l-0.171,-0.217Z" style="fill:url(#_Linear16);"/><path d="M3050.47,824.782l-3.878,-2.663l-6.109,-3.987l-6.316,-3.913l-6.519,-3.837l-6.715,-3.763l-6.91,-3.684l-7.1,-3.603l-7.284,-3.519l-7.466,-3.434l-7.64,-3.347l-7.816,-3.257l-7.981,-3.165l-8.144,-3.072l-8.3,-2.978l-8.453,-2.878l-8.603,-2.785l-8.744,-2.681l-8.878,-2.578l-9.012,-2.475l-9.138,-2.372l-9.259,-2.266l-9.375,-2.156l-9.482,-2.047l-9.587,-1.937l-9.688,-1.825l-9.775,-1.713l-9.865,-1.6l-9.941,-1.484l-10.019,-1.372l-10.087,-1.253l-10.147,-1.134l-10.206,-1.019l-10.253,-0.9l-10.3,-0.781l-10.335,-0.663l-10.368,-0.541l-10.391,-0.421l-10.413,-0.304l-10.425,-0.181l-10.428,-0.059l0,-225.391l10.428,0.06l10.425,0.181l10.413,0.303l10.391,0.422l10.368,0.54l10.335,0.663l10.3,0.781l10.253,0.9l10.206,1.019l10.147,1.134l10.087,1.253l10.019,1.372l9.941,1.485l9.865,1.6l9.775,1.712l9.688,1.825l9.587,1.938l9.482,2.047l9.375,2.156l9.259,2.265l9.138,2.372l9.012,2.475l8.878,2.578l8.744,2.685l8.603,2.781l8.453,2.878l8.3,2.978l8.144,3.072l7.981,3.166l7.816,3.259l7.64,3.344l7.466,3.434l7.284,3.522l7.1,3.6l6.91,3.685l6.715,3.762l6.519,3.838l6.316,3.915l6.109,3.985l5.903,4.053l5.688,4.122l5.472,4.187l5.25,4.247l5.031,4.309l4.803,4.363l4.575,4.419l4.344,4.471l4.109,4.519l3.875,4.566l3.635,4.609l3.39,4.65l3.153,4.688l2.903,4.722l2.66,4.753l2.409,4.784l2.16,4.809l1.909,4.835l1.659,4.856l1.403,4.872l1.15,4.887l0.894,4.897l0.641,4.91l0.384,4.912l0.128,4.916l0,225.39l-0.128,-4.915l-0.384,-4.913l-0.641,-4.909l-0.894,-4.897l-1.15,-4.887l-1.403,-4.872l-1.659,-4.857l-1.909,-4.834l-2.16,-4.809l-2.409,-4.785l-2.66,-4.753l-2.903,-4.725l-3.153,-4.687l-3.39,-4.647l-3.635,-4.61l-3.875,-4.565l-4.109,-4.519l-4.344,-4.472l-4.575,-4.419l-4.803,-4.365l-5.031,-4.306l-5.25,-4.247l-5.472,-4.188l-5.688,-4.122l-2.025,-1.39l0,-0Z" style="fill:url(#_Linear17);"/></g><path d="M2699.12,46.258l291.667,187.5l-291.667,187.5l0,-375Z" style="fill:url(#_Linear18);"/></g><path d="M2699.12,1137.82l175,-128.136l-175,-97.254l0,225.39Z" style="fill:#fff;"/></g><g id="Logo-IfcOpenShell2" serif:id="Logo IfcOpenShell"><path d="M734.5,824.782l-0,-0l2.025,1.39l5.688,4.122l5.471,4.188l5.25,4.247l5.032,4.306l4.803,4.365l4.575,4.419l4.344,4.472l4.109,4.519l3.875,4.565l3.634,4.61l3.391,4.647l3.153,4.687l2.903,4.725l2.66,4.753l2.409,4.785l2.159,4.809l1.91,4.834l1.659,4.857l1.403,4.872l1.15,4.887l0.894,4.897l0.641,4.909l0.384,4.913l0.128,4.915l-0.128,4.919l-0.384,4.913l-0.641,4.909l-0.894,4.897l-1.15,4.887l-1.403,4.872l-1.659,4.857l-1.91,4.831l-2.159,4.812l-2.409,4.785l-2.66,4.753l-2.903,4.722l-3.15,4.687l-3.394,4.65l-3.634,4.61l-3.875,4.565l-4.109,4.519l-4.344,4.472l-4.575,4.419l-4.803,4.362l-5.028,4.309l-5.254,4.247l-5.471,4.188l-5.688,4.122l-5.903,4.053l-6.109,3.984l-6.316,3.913l-6.519,3.84l-6.715,3.763l-6.91,3.684l-7.1,3.6l-7.284,3.522l-7.466,3.431l-7.64,3.347l-7.816,3.26l-7.981,3.165l-8.144,3.072l-8.3,2.978l-8.453,2.878l-8.603,2.782l-8.744,2.681l-8.878,2.581l-9.013,2.475l-9.137,2.372l-9.26,2.262l-9.375,2.16l-9.481,2.047l-9.587,1.937l-9.688,1.825l-9.775,1.713l-9.865,1.6l-9.944,1.484l-10.016,1.372l-10.087,1.253l-10.15,1.134l-10.203,1.019l-10.257,0.9l-10.297,0.781l-10.337,0.663l-10.366,0.541l-10.393,0.421l-10.41,0.304l-10.425,0.178l-10.428,0.062l0,-225.39l10.428,-0.06l10.425,-0.181l10.41,-0.303l10.393,-0.422l10.366,-0.541l10.337,-0.662l10.297,-0.781l10.257,-0.9l10.203,-1.019l10.15,-1.135l10.087,-1.253l10.016,-1.372l9.944,-1.484l9.865,-1.6l9.775,-1.712l9.688,-1.825l9.587,-1.938l9.481,-2.047l9.375,-2.156l9.26,-2.266l9.137,-2.372l9.013,-2.475l8.878,-2.578l8.744,-2.681l8.603,-2.784l8.453,-2.878l8.3,-2.979l8.144,-3.071l7.981,-3.166l7.816,-3.259l7.64,-3.344l7.466,-3.435l7.284,-3.518l7.1,-3.603l6.91,-3.685l6.715,-3.762l6.519,-3.838l6.316,-3.915l6.109,-3.985l3.878,-2.662l-0,-0l0,-0Z" style="fill:url(#_Linear19);"/><path d="M149.4,316.4l0.063,4.794l0.193,4.791l0.319,4.787l0.447,4.775l0.575,4.766l0.703,4.75l0.828,4.734l0.956,4.713l1.079,4.69l1.206,4.666l1.328,4.634l1.453,4.604l1.575,4.571l1.697,4.535l1.816,4.494l1.937,4.45l2.056,4.406l2.172,4.359l2.288,4.31l2.4,4.253l2.515,4.2l2.625,4.143l2.738,4.082l2.844,4.018l2.95,3.954l0.17,0.217c0,-0 0,0.004 0,0.004l2.886,3.663l3.156,3.816l3.259,3.743l3.36,3.669l3.453,3.591l3.55,3.512l3.644,3.431l3.731,3.35l3.822,3.263l3.906,3.175l3.991,3.087l4.072,2.994l4.15,2.903l4.228,2.81l4.3,2.712l4.372,2.616l4.44,2.512l4.506,2.416l4.569,2.312l4.628,2.207l4.688,2.103l4.74,1.997l4.794,1.887l4.844,1.781l4.887,1.672l4.935,1.56l4.972,1.447l5.006,1.334l5.044,1.222l5.075,1.109l5.103,0.991l5.125,0.878l5.15,0.762l5.169,0.644l5.184,0.531l5.194,0.41l5.206,0.294l5.212,0.178l5.216,0.056l0,225.391l-5.216,-0.057l-5.212,-0.178l-5.206,-0.294l-5.194,-0.412l-5.184,-0.528l-5.169,-0.644l-5.15,-0.762l-5.125,-0.879l-5.103,-0.99l-5.075,-1.11l-5.044,-1.221l-5.006,-1.335l-4.972,-1.45l-4.935,-1.559l-4.887,-1.669l-4.844,-1.781l-4.794,-1.888l-4.74,-1.997l-4.688,-2.103l-4.628,-2.209l-4.569,-2.309l-4.506,-2.416l-4.44,-2.516l-4.372,-2.612l-4.3,-2.713l-4.228,-2.809l-4.15,-2.903l-4.072,-2.994l-3.991,-3.087l-3.906,-3.175l-3.822,-3.263l-3.731,-3.35l-3.644,-3.431l-3.55,-3.513l-3.453,-3.59l-3.36,-3.669l-3.259,-3.744l-3.156,-3.815l-3.056,-3.885l-2.95,-3.953l-2.844,-4.019l-2.738,-4.081l-2.625,-4.144l-2.515,-4.2l-2.4,-4.253l-2.288,-4.309l-2.172,-4.36l-2.056,-4.406l-1.937,-4.45l-1.816,-4.494l-1.697,-4.534l-1.575,-4.572l-1.453,-4.603l-1.328,-4.637l-1.206,-4.663l-1.079,-4.691l-0.956,-4.712l-0.828,-4.734l-0.703,-4.75l-0.575,-4.766l-0.447,-4.775l-0.319,-4.788l-0.193,-4.79l-0.063,-4.794l0,-225.391Z" style="fill:url(#_Linear20);"/><path d="M188.163,428.879l-2.95,-3.954l-2.844,-4.018l-2.738,-4.082l-2.625,-4.143l-2.515,-4.2l-2.4,-4.253l-2.288,-4.31l-2.172,-4.359l-2.056,-4.406l-1.937,-4.45l-1.816,-4.494l-1.697,-4.535l-1.575,-4.571l-1.453,-4.604l-1.328,-4.634l-1.206,-4.666l-1.079,-4.69l-0.956,-4.713l-0.828,-4.734l-0.703,-4.75l-0.575,-4.766l-0.447,-4.775l-0.319,-4.787l-0.193,-4.791l-0.063,-4.794l0.063,-4.793l0.193,-4.791l0.319,-4.784l0.447,-4.778l0.575,-4.763l0.703,-4.753l0.828,-4.731l0.956,-4.713l1.079,-4.69l1.206,-4.666l1.328,-4.634l1.453,-4.607l1.575,-4.568l1.697,-4.535l1.816,-4.494l1.937,-4.453l2.056,-4.406l2.172,-4.356l2.288,-4.31l2.4,-4.256l2.515,-4.2l2.625,-4.14l2.738,-4.082l2.844,-4.018l2.95,-3.954l3.056,-3.887l3.156,-3.816l3.259,-3.74l3.36,-3.669l3.453,-3.594l3.55,-3.512l3.644,-3.432l3.731,-3.346l3.822,-3.263l3.906,-3.178l3.991,-3.084l4.072,-2.997l4.15,-2.903l4.228,-2.81l4.3,-2.709l4.372,-2.616l4.44,-2.515l4.506,-2.413l4.569,-2.312l4.628,-2.21l4.688,-2.103l4.74,-1.994l4.794,-1.89l4.844,-1.778l4.887,-1.672l4.935,-1.56l4.972,-1.447l5.006,-1.337l5.044,-1.222l5.075,-1.106l5.103,-0.994l5.128,-0.878l5.147,-0.759l5.169,-0.647l5.184,-0.528l5.197,-0.413l5.203,-0.294l5.212,-0.175l5.216,-0.059l0,225.391l-5.216,0.059l-5.212,0.175l-5.203,0.294l-5.197,0.412l-5.184,0.528l-5.169,0.644l-5.147,0.763l-5.128,0.878l-5.103,0.993l-5.075,1.107l-5.044,1.222l-5.006,1.334l-4.972,1.45l-4.935,1.559l-4.887,1.669l-4.844,1.781l-4.794,1.888l-4.74,1.997l-4.688,2.103l-4.628,2.209l-4.569,2.313l-4.506,2.412l-4.44,2.516l-4.372,2.612l-4.3,2.713l-4.228,2.809l-4.15,2.903l-4.072,2.997l-3.991,3.085l-3.906,3.178l-3.822,3.262l-3.731,3.347l-3.644,3.431l-3.55,3.513l-3.453,3.59l-3.36,3.669l-3.259,3.744l-3.156,3.816l-2.886,3.667l-0.17,-0.217Z" style="fill:url(#_Linear21);"/><path d="M734.5,824.782l-3.878,-2.663l-6.109,-3.987l-6.316,-3.913l-6.519,-3.837l-6.715,-3.763l-6.91,-3.684l-7.1,-3.603l-7.284,-3.519l-7.466,-3.434l-7.64,-3.347l-7.816,-3.257l-7.981,-3.165l-8.144,-3.072l-8.3,-2.978l-8.453,-2.878l-8.603,-2.785l-8.744,-2.681l-8.878,-2.578l-9.013,-2.475l-9.137,-2.372l-9.26,-2.266l-9.375,-2.156l-9.481,-2.047l-9.587,-1.937l-9.688,-1.825l-9.775,-1.713l-9.865,-1.6l-9.941,-1.484l-10.019,-1.372l-10.087,-1.253l-10.147,-1.134l-10.206,-1.019l-10.254,-0.9l-10.3,-0.781l-10.334,-0.663l-10.369,-0.541l-10.39,-0.421l-10.413,-0.304l-10.425,-0.181l-10.428,-0.059l0,-225.391l10.428,0.06l10.425,0.181l10.413,0.303l10.39,0.422l10.369,0.54l10.334,0.663l10.3,0.781l10.254,0.9l10.206,1.019l10.147,1.134l10.087,1.253l10.019,1.372l9.941,1.485l9.865,1.6l9.775,1.712l9.688,1.825l9.587,1.938l9.481,2.047l9.375,2.156l9.26,2.265l9.137,2.372l9.013,2.475l8.878,2.578l8.744,2.685l8.603,2.781l8.453,2.878l8.3,2.978l8.144,3.072l7.981,3.166l7.816,3.259l7.64,3.344l7.466,3.434l7.284,3.522l7.1,3.6l6.91,3.685l6.715,3.762l6.519,3.838l6.316,3.915l6.109,3.985l5.903,4.053l5.688,4.122l5.471,4.187l5.25,4.247l5.032,4.309l4.803,4.363l4.575,4.419l4.344,4.471l4.109,4.519l3.875,4.566l3.634,4.609l3.391,4.65l3.153,4.688l2.903,4.722l2.66,4.753l2.409,4.784l2.159,4.809l1.91,4.835l1.659,4.856l1.403,4.872l1.15,4.887l0.894,4.897l0.641,4.91l0.384,4.912l0.128,4.916l0,225.39l-0.128,-4.915l-0.384,-4.913l-0.641,-4.909l-0.894,-4.897l-1.15,-4.887l-1.403,-4.872l-1.659,-4.857l-1.91,-4.834l-2.159,-4.809l-2.409,-4.785l-2.66,-4.753l-2.903,-4.725l-3.153,-4.687l-3.391,-4.647l-3.634,-4.61l-3.875,-4.565l-4.109,-4.519l-4.344,-4.472l-4.575,-4.419l-4.803,-4.365l-5.032,-4.306l-5.25,-4.247l-5.471,-4.188l-5.688,-4.122l-2.025,-1.39l-0,-0Z" style="fill:url(#_Linear22);"/></g><defs><linearGradient id="_Linear1" x1="0" y1="0" x2="1" y2="0" gradientUnits="userSpaceOnUse" gradientTransform="matrix(416.795,-721.91,129.436,74.7299,3321.87,990.396)"><stop offset="0" style="stop-color:#f1592a;stop-opacity:1"/><stop offset="1" style="stop-color:#f5e732;stop-opacity:1"/></linearGradient><linearGradient id="_Linear2" x1="0" y1="0" x2="1" y2="0" gradientUnits="userSpaceOnUse" gradientTransform="matrix(833.59,0,0,149.46,3418.1,990.396)"><stop offset="0" style="stop-color:#f5ee30;stop-opacity:1"/><stop offset="1" style="stop-color:#3bb549;stop-opacity:1"/></linearGradient><linearGradient id="_Linear3" x1="0" y1="0" x2="1" y2="0" gradientUnits="userSpaceOnUse" gradientTransform="matrix(160.073,277.622,-49.7766,28.7006,4042.93,629.441)"><stop offset="0" style="stop-color:#f1592a;stop-opacity:1"/><stop offset="1" style="stop-color:#f5e732;stop-opacity:1"/></linearGradient><linearGradient id="_Linear4" x1="0" y1="0" x2="1" y2="0" gradientUnits="userSpaceOnUse" gradientTransform="matrix(294.168,520.054,-649.218,367.229,3792.66,185.153)"><stop offset="0" style="stop-color:#3bb549;stop-opacity:1"/><stop offset="1" style="stop-color:#f5ee30;stop-opacity:1"/></linearGradient><linearGradient id="_Linear5" x1="0" y1="0" x2="1" y2="0" gradientUnits="userSpaceOnUse" gradientTransform="matrix(396.568,-116.574,85.8632,292.095,1191.54,1013.52)"><stop offset="0" style="stop-color:#3bb549;stop-opacity:1"/><stop offset="1" style="stop-color:#f5ee30;stop-opacity:1"/></linearGradient><linearGradient id="_Linear6" x1="0" y1="0" x2="1" y2="0" gradientUnits="userSpaceOnUse" gradientTransform="matrix(212.5,0,0,420.728,957.787,526.764)"><stop offset="0" style="stop-color:#f1592a;stop-opacity:1"/><stop offset="1" style="stop-color:#f5e732;stop-opacity:1"/></linearGradient><linearGradient id="_Linear7" x1="0" y1="0" x2="1" y2="0" gradientUnits="userSpaceOnUse" gradientTransform="matrix(125.522,-266.675,386.563,181.952,1039.55,387.797)"><stop offset="0" style="stop-color:#f5ee30;stop-opacity:1"/><stop offset="1" style="stop-color:#3bb549;stop-opacity:1"/></linearGradient><linearGradient id="_Linear8" x1="0" y1="0" x2="1" y2="0" gradientUnits="userSpaceOnUse" gradientTransform="matrix(410.656,285.457,-285.457,410.656,1191.54,571.283)"><stop offset="0" style="stop-color:#f5e732;stop-opacity:1"/><stop offset="1" style="stop-color:#f1592a;stop-opacity:1"/></linearGradient><linearGradient id="_Linear9" x1="0" y1="0" x2="1" y2="0" gradientUnits="userSpaceOnUse" gradientTransform="matrix(255.362,6.18749e-14,-1.55525e-13,195.933,1205.27,310.754)"><stop offset="0" style="stop-color:#3bb549;stop-opacity:1"/><stop offset="1" style="stop-color:#f5ee30;stop-opacity:1"/></linearGradient><linearGradient id="_Linear10" x1="0" y1="0" x2="1" y2="0" gradientUnits="userSpaceOnUse" gradientTransform="matrix(396.568,-116.574,85.8632,292.095,1926.03,1013.52)"><stop offset="0" style="stop-color:#3bb549;stop-opacity:1"/><stop offset="1" style="stop-color:#f5ee30;stop-opacity:1"/></linearGradient><linearGradient id="_Linear11" x1="0" y1="0" x2="1" y2="0" gradientUnits="userSpaceOnUse" gradientTransform="matrix(212.5,0,0,420.728,1692.28,526.764)"><stop offset="0" style="stop-color:#f1592a;stop-opacity:1"/><stop offset="1" style="stop-color:#f5e732;stop-opacity:1"/></linearGradient><linearGradient id="_Linear12" x1="0" y1="0" x2="1" y2="0" gradientUnits="userSpaceOnUse" gradientTransform="matrix(410.656,285.457,-285.457,410.656,1926.03,571.283)"><stop offset="0" style="stop-color:#f5e732;stop-opacity:1"/><stop offset="1" style="stop-color:#f1592a;stop-opacity:1"/></linearGradient><linearGradient id="_Linear13" x1="0" y1="0" x2="1" y2="0" gradientUnits="userSpaceOnUse" gradientTransform="matrix(330.701,-132.815,132.815,330.701,1714.97,404.229)"><stop offset="0" style="stop-color:#f5ee30;stop-opacity:1"/><stop offset="1" style="stop-color:#3bb549;stop-opacity:1"/></linearGradient><linearGradient id="_Linear14" x1="0" y1="0" x2="1" y2="0" gradientUnits="userSpaceOnUse" gradientTransform="matrix(396.568,-116.574,85.8632,292.095,2699.12,1013.52)"><stop offset="0" style="stop-color:#3bb549;stop-opacity:1"/><stop offset="1" style="stop-color:#f5ee30;stop-opacity:1"/></linearGradient><linearGradient id="_Linear15" x1="0" y1="0" x2="1" y2="0" gradientUnits="userSpaceOnUse" gradientTransform="matrix(212.5,0,0,420.728,2465.37,526.764)"><stop offset="0" style="stop-color:#f1592a;stop-opacity:1"/><stop offset="1" style="stop-color:#f5e732;stop-opacity:1"/></linearGradient><linearGradient id="_Linear16" x1="0" y1="0" x2="1" y2="0" gradientUnits="userSpaceOnUse" gradientTransform="matrix(125.522,-266.675,386.563,181.952,2547.13,387.797)"><stop offset="0" style="stop-color:#f5ee30;stop-opacity:1"/><stop offset="1" style="stop-color:#3bb549;stop-opacity:1"/></linearGradient><linearGradient id="_Linear17" x1="0" y1="0" x2="1" y2="0" gradientUnits="userSpaceOnUse" gradientTransform="matrix(410.656,285.457,-285.457,410.656,2699.12,571.283)"><stop offset="0" style="stop-color:#f5e732;stop-opacity:1"/><stop offset="1" style="stop-color:#f1592a;stop-opacity:1"/></linearGradient><linearGradient id="_Linear18" x1="0" y1="0" x2="1" y2="0" gradientUnits="userSpaceOnUse" gradientTransform="matrix(255.362,6.18749e-14,-1.55525e-13,195.933,2712.85,310.754)"><stop offset="0" style="stop-color:#3bb549;stop-opacity:1"/><stop offset="1" style="stop-color:#f5ee30;stop-opacity:1"/></linearGradient><linearGradient id="_Linear19" x1="0" y1="0" x2="1" y2="0" gradientUnits="userSpaceOnUse" gradientTransform="matrix(396.568,-116.574,85.8632,292.095,383.15,1013.52)"><stop offset="0" style="stop-color:#3bb549;stop-opacity:1"/><stop offset="1" style="stop-color:#f5ee30;stop-opacity:1"/></linearGradient><linearGradient id="_Linear20" x1="0" y1="0" x2="1" y2="0" gradientUnits="userSpaceOnUse" gradientTransform="matrix(212.5,0,0,420.728,149.4,526.764)"><stop offset="0" style="stop-color:#f1592a;stop-opacity:1"/><stop offset="1" style="stop-color:#f5e732;stop-opacity:1"/></linearGradient><linearGradient id="_Linear21" x1="0" y1="0" x2="1" y2="0" gradientUnits="userSpaceOnUse" gradientTransform="matrix(125.522,-266.675,386.563,181.952,231.163,387.797)"><stop offset="0" style="stop-color:#f5ee30;stop-opacity:1"/><stop offset="1" style="stop-color:#3bb549;stop-opacity:1"/></linearGradient><linearGradient id="_Linear22" x1="0" y1="0" x2="1" y2="0" gradientUnits="userSpaceOnUse" gradientTransform="matrix(410.656,285.457,-285.457,410.656,383.15,571.283)"><stop offset="0" style="stop-color:#f5e732;stop-opacity:1"/><stop offset="1" style="stop-color:#f1592a;stop-opacity:1"/></linearGradient></defs></svg>